<?xml version="1.0" standalone="no"?>
<!DOCTYPE svg PUBLIC "-//W3C//DTD SVG 1.1//EN" "http://www.w3.org/Graphics/SVG/1.1/DTD/svg11.dtd" >
<svg>
<metadata>
Created by FontForge 20090622 at Fri Nov 23 15:30:54 2018
 By deploy user
All Rights reserved.Copyright &#194;&#169; 2011 By typedepot.
</metadata>
<defs>
<font id="BandaBold-Bold" horiz-adv-x="299" >
  <font-face 
    font-family="Banda Bold"
    font-weight="700"
    font-stretch="normal"
    units-per-em="1000"
    panose-1="2 0 5 3 2 0 0 2 0 4"
    ascent="750"
    descent="-250"
    x-height="530"
    cap-height="714"
    bbox="-71 -261.227 1183 982"
    underline-thickness="20"
    underline-position="-113"
    unicode-range="U+000D-U+FB06"
  />
<missing-glyph horiz-adv-x="461" 
d="M479 -150q0 -16 -14 -31.5t-33 -15.5h-404q-19 0 -32.5 14t-13.5 33v849q0 19 13.5 32.5t32.5 13.5h404q15 0 31 -15.5t16 -31.5v-848zM277 269l111 -225v456zM357 -106l-130 264l-131 -264h261zM356 653h-266l134 -276zM71 53l104 216l-104 220v-436z" />
    <glyph glyph-name="f_f" unicode="ff" horiz-adv-x="626" 
d="M73 101q10 8 10 15v302h-11q-24 0 -39.5 15.5t-15.5 39.5t15.5 40.5t39.5 16.5h12v34q0 77 45 131.5t123 54.5q30 0 56.5 -16t26.5 -44t-15.5 -44.5t-41.5 -16.5q-17 1 -26 1q-25 0 -36.5 -19.5t-11.5 -46.5v-34h173v34q0 77 45 131.5t123 54.5q30 0 56 -16t26 -44
q0 -25 -15 -43t-37 -18q-9 0 -17 0.5t-9 0.5h-4q-25 0 -37 -19.5t-12 -46.5v-34h76q23 0 40 -17t17 -41q0 -21 -17.5 -37.5t-39.5 -16.5h-76v-324q0 -38 -23 -66t-61 -28q-26 0 -45.5 17.5t-19.5 43.5q0 24 19 40q10 8 10 15v302h-173v-324q0 -38 -23 -66t-61 -28
q-26 0 -45.5 17.5t-19.5 43.5q0 24 19 40z" />
    <glyph glyph-name="fi" unicode="fi" horiz-adv-x="584" 
d="M378 93v316q0 9 -9 9h-147v-325q0 -38 -23 -66t-62 -28q-24 0 -44 18t-20 43q0 27 18 42q11 9 11 15v301h-35q-23 1 -36.5 16.5t-13.5 38.5t13.5 38.5t35.5 17.5h38v10q0 93 52.5 151.5t146.5 58.5q87 0 159 -45q28 -18 28 -50q0 -25 -17.5 -42t-41.5 -17q-18 0 -33 9
q-36 26 -90 26q-41 0 -63 -25.5t-22 -65.5v-10h217q24 0 41 -16t17 -40v-356q0 -6 11 -15q18 -15 18 -42q0 -25 -20 -43t-44 -18q-39 0 -62 28t-23 66z" />
    <glyph glyph-name="fl" unicode="fl" horiz-adv-x="597" 
d="M72 529h28v12q0 85 60 147t151 62q78 0 140.5 -57t62.5 -133v-446q0 -7 11 -15q15 -14 15 -40q0 -24 -18.5 -41.5t-43.5 -17.5q-37 0 -58.5 27.5t-21.5 64.5v464q0 32 -26.5 55.5t-60.5 23.5q-38 0 -64.5 -23t-26.5 -69v-14h50q25 0 41 -16t16 -41q0 -22 -17 -38t-40 -16
h-51v-324q0 -38 -23 -66t-61 -28q-26 0 -45.5 17.5t-19.5 43.5q0 24 19 40q10 8 10 15v302h-27q-24 0 -39.5 15.5t-15.5 39.5q0 25 15.5 40.5t39.5 15.5z" />
    <glyph glyph-name="f_f_i" unicode="ffi" horiz-adv-x="858" 
d="M782 101q19 -16 19 -40q0 -26 -19.5 -43.5t-45.5 -17.5q-38 0 -61 28t-23 66v315q0 9 -9 9h-146v-324q0 -38 -23 -66t-61 -28q-26 0 -45.5 17.5t-19.5 43.5q0 24 19 40q10 8 10 15v302h-175v-324q0 -38 -23 -66t-61 -28q-26 0 -45.5 17.5t-19.5 43.5q0 24 19 40
q10 8 10 15v302h-11q-24 0 -39 16t-15 40t15 40t39 16h12v33q0 81 45 133.5t125 52.5q30 0 56 -16.5t26 -46.5q0 -23 -16 -40t-40 -18q-7 0 -17 2q-5 1 -15 1q-44 0 -44 -68v-33h175v9q0 93 52.5 151.5t146.5 58.5q87 0 159 -45q28 -18 28 -50q0 -25 -17.5 -42t-41.5 -17
q-18 0 -33 9q-36 26 -90 26q-41 0 -63 -25.5t-22 -65.5v-9h217q24 0 41 -16.5t17 -40.5v-357q0 -7 10 -15z" />
    <glyph glyph-name="f_f_l" unicode="ffl" horiz-adv-x="875" 
d="M799 101q19 -16 19 -40q0 -26 -19.5 -43.5t-45.5 -17.5q-38 0 -61 28t-23 66v461q0 31 -26 54.5t-59 23.5q-37 0 -63 -22.5t-26 -67.5v-13h52q24 0 41 -16.5t17 -40.5q0 -22 -17.5 -38.5t-40.5 -16.5h-50v-324q0 -38 -23 -66t-61 -28q-26 0 -45.5 17.5t-19.5 43.5
q0 24 19 40q10 8 10 15v302h-175v-324q0 -38 -23 -66t-61 -28q-26 0 -45.5 17.5t-19.5 43.5q0 24 19 40q10 8 10 15v302h-11q-24 0 -39 16t-15 40q0 23 15.5 39.5t38.5 16.5h12v33q0 81 44.5 133.5t125.5 52.5q30 0 55.5 -16.5t25.5 -46.5q0 -23 -16 -40t-40 -17q-4 0 -12 1
t-13 1q-32 0 -41 -17t-9 -51v-33h175v11q0 86 57.5 147t148.5 61q77 0 141 -57t64 -133v-443q0 -7 10 -15z" />
    <glyph glyph-name="f_t" unicode="ft" horiz-adv-x="721" 
d="M72 102q11 9 11 15v301h-11q-24 0 -39.5 15.5t-15.5 39.5t15 40.5t39 16.5h12v34q0 77 42.5 131.5t119.5 54.5q30 0 51.5 -14t21.5 -45q0 -28 -15.5 -44.5t-41.5 -16.5h-16q-42 0 -42 -66v-34h177v38q0 5 -12 15q-19 21 -19 43q0 27 20.5 45.5t47.5 18.5q40 0 62 -29
t22 -70v-61h108q25 0 41.5 -14.5t16.5 -38.5q0 -25 -16.5 -42t-41.5 -17h-108v-193q0 -98 62 -98q23 0 42 5t30 5q33 0 49 -26.5t6 -57.5t-42 -41q-38 -12 -85 -12q-183 0 -183 225v193h-177v-325q0 -43 -22.5 -68.5t-62.5 -25.5q-24 0 -44 18t-20 43q0 27 18 42z" />
    <glyph glyph-name="f_k" unicode="fk" horiz-adv-x="848" 
d="M497 560v-225l127 127q6 6 6 11q0 1 -0.5 4.5t-0.5 5.5q0 24 16 40q17 17 43 17q29 0 49.5 -22t20.5 -52q0 -39 -31 -70l-101 -102l119 -160q5 -6 17 -8q25 -2 40 -22q11 -16 11 -34q0 -29 -22 -49.5t-51 -20.5q-44 0 -76 42l-124 167l-43 -44v-71q0 -38 -23 -66t-62 -28
q-24 0 -44 18t-20 43q0 27 18 42q11 9 11 15v438q0 32 -26.5 55.5t-60.5 23.5q-37 0 -62.5 -23t-25.5 -69v-14h51q23 0 39.5 -16t16.5 -40q0 -22 -17 -38.5t-39 -16.5h-51v-326q0 -37 -23 -64.5t-60 -27.5q-25 0 -43.5 17.5t-18.5 41.5q0 27 16 40q10 8 10 15v304h-13
q-24 0 -38.5 16t-14.5 40q0 23 15 39t38 16h14v12q0 85 57.5 147t147.5 62q80 0 144 -54.5t64 -135.5z" />
    <glyph glyph-name="f_h" unicode="fh" horiz-adv-x="948" 
d="M497 560v-84q25 30 59 42t59 12q121 0 180 -59.5t59 -182.5v-170q0 -6 11 -15q18 -15 18 -42q0 -25 -20 -43t-44 -18q-39 0 -62 28t-23 66v200q0 55 -32 86t-87 31q-50 0 -84 -31.5t-34 -80.5v-205q0 -38 -23 -66t-62 -28q-24 0 -44 18t-20 43q0 27 18 42q11 9 11 15v438
q0 32 -26.5 55.5t-60.5 23.5q-37 0 -62.5 -23t-25.5 -69v-14h51q23 0 39.5 -16t16.5 -40q0 -22 -17 -38.5t-39 -16.5h-51v-326q0 -37 -23 -64.5t-60 -27.5q-25 0 -43.5 17.5t-18.5 41.5q0 27 16 40q10 8 10 15v304h-13q-24 0 -38.5 16t-14.5 40q0 23 15 39t38 16h14v12
q0 85 57.5 147t147.5 62q80 0 144 -54.5t64 -135.5z" />
    <glyph glyph-name="f_f_k" unicode="ffk" horiz-adv-x="1141" 
d="M376 118v300h-173v-324q0 -38 -23 -66t-62 -28q-24 0 -44 18t-20 43q0 27 18 42q11 9 11 15v300h-11q-24 0 -39.5 15.5t-15.5 39.5t15.5 40t39.5 16h12v35q0 77 45 131.5t123 54.5q30 0 56.5 -16t26.5 -44t-15.5 -44.5t-41.5 -16.5q-17 1 -26 1q-25 0 -36.5 -19.5
t-11.5 -46.5v-35h173v12q0 85 57.5 147t147.5 62q80 0 144 -54.5t64 -135.5v-225l127 127q6 6 6 11q0 1 -0.5 4.5t-0.5 5.5q0 24 16 40q17 17 43 17q28 0 48 -20q22 -23 22 -54q0 -39 -31 -70l-101 -102l119 -160q5 -6 17 -8q25 -2 40 -22q11 -16 11 -34q0 -29 -22 -49.5
t-51 -20.5q-44 0 -76 42l-124 167l-43 -44v-71q0 -38 -23 -66t-62 -28q-24 0 -44 18t-20 43q0 27 18 42q11 9 11 15v438q0 32 -26.5 55.5t-60.5 23.5q-37 0 -62.5 -23t-25.5 -69v-14h51q23 0 39.5 -16t16.5 -40q0 -22 -17 -38.5t-39 -16.5h-50v-324q0 -38 -23 -66t-62 -28
q-24 0 -44 18t-20 43q0 27 18 42q11 9 11 15z" />
    <glyph glyph-name="f_f_h" unicode="ffh" horiz-adv-x="1245" 
d="M1031 94v200q0 55 -32 86t-87 31q-50 0 -84 -31.5t-34 -80.5v-205q0 -38 -23 -66t-61 -28q-26 0 -45.5 17.5t-19.5 43.5q0 24 19 40q10 8 10 15v440q0 32 -26.5 55.5t-60.5 23.5q-37 0 -62.5 -22.5t-25.5 -68.5v-14h51q23 0 39.5 -16.5t16.5 -40.5q0 -22 -17 -38.5
t-39 -16.5h-50v-324q0 -38 -23 -66t-61 -28q-26 0 -45.5 17.5t-19.5 43.5q0 24 19 40q10 8 10 15v302h-177v-324q0 -38 -23 -66t-61 -28q-26 0 -45.5 17.5t-19.5 43.5q0 24 19 40q10 8 10 15v302h-11q-24 0 -39.5 15.5t-15.5 39.5t15.5 40.5t39.5 16.5h12v34q0 77 45 131.5
t123 54.5q30 0 56.5 -16t26.5 -44t-15.5 -44.5t-41.5 -16.5q-17 1 -26 1q-25 0 -36.5 -19.5t-11.5 -46.5v-34h177v12q0 85 57.5 146.5t147.5 61.5q80 0 144 -54.5t64 -135.5v-84q25 30 59 42t59 12q121 0 180 -59.5t59 -182.5v-172q0 -7 10 -15q19 -16 19 -40
q0 -26 -19.5 -43.5t-45.5 -17.5q-38 0 -61 28t-23 66z" />
    <glyph glyph-name="f_f_b" unicode="ffb" horiz-adv-x="1225" 
d="M369 101q10 8 10 15v302h-175v-324q0 -38 -23 -66t-61 -28q-26 0 -45.5 17.5t-19.5 43.5q0 24 19 40q10 8 10 15v302h-11q-25 0 -40.5 16t-15.5 40q0 23 16 39t40 16h12v34q0 81 45 133.5t125 52.5q30 0 56 -16.5t26 -46.5q0 -23 -16 -40t-40 -18q-4 0 -14 1.5t-18 1.5
q-44 0 -44 -68v-34h175v11q0 86 58.5 147.5t146.5 61.5q82 0 143.5 -57.5t61.5 -136.5v-90q29 32 70 48t77 16q110 0 178 -76t68 -184q0 -106 -71 -187.5t-175 -81.5q-94 0 -147 62q-9 -28 -30 -45t-51 -17q-24 0 -44 17.5t-20 42.5q0 28 18 43q11 9 11 15v437
q0 32 -27.5 55t-61.5 23q-35 0 -61.5 -24t-26.5 -68v-12h52q24 0 40.5 -16t16.5 -41q0 -22 -17 -38t-40 -16h-50v-324q0 -38 -23 -66t-61 -28q-26 0 -45.5 17.5t-19.5 43.5q0 24 19 40zM923 412q-61 0 -100.5 -44.5t-39.5 -105.5q0 -62 41 -103.5t99 -41.5q56 0 96 41.5
t40 103.5t-40 106t-96 44z" />
    <glyph glyph-name="f_b" unicode="fb" horiz-adv-x="931" 
d="M75 101q10 8 10 15v302h-12q-25 0 -40.5 15.5t-15.5 39.5q0 25 16 40.5t40 15.5h13v11q0 86 58.5 147.5t146.5 61.5q82 0 143.5 -57.5t61.5 -136.5v-90q29 32 70 48t77 16q110 0 178 -76t68 -184q0 -106 -71 -187.5t-175 -81.5q-93 0 -147 63q-9 -28 -30 -45.5t-51 -17.5
q-24 0 -44 18t-20 43q0 27 18 42q11 9 11 15v437q0 32 -27.5 55t-61.5 23q-35 0 -61.5 -24t-26.5 -68v-12h52q24 0 40.5 -16t16.5 -41q0 -22 -17 -38t-40 -16h-50v-324q0 -38 -23 -66t-61 -28q-26 0 -45.5 17.5t-19.5 43.5q0 24 19 40zM629 412q-61 0 -100.5 -44.5
t-39.5 -105.5q0 -62 41 -103.5t99 -41.5q56 0 96 41.5t40 103.5t-40 106t-96 44z" />
    <glyph glyph-name=".notdef" horiz-adv-x="461" 
d="M479 -150q0 -16 -14 -31.5t-33 -15.5h-404q-19 0 -32.5 14t-13.5 33v849q0 19 13.5 32.5t32.5 13.5h404q15 0 31 -15.5t16 -31.5v-848zM277 269l111 -225v456zM357 -106l-130 264l-131 -264h261zM356 653h-266l134 -276zM71 53l104 216l-104 220v-436z" />
    <glyph glyph-name=".null" horiz-adv-x="0" 
 />
    <glyph glyph-name="nonmarkingreturn" horiz-adv-x="333" 
 />
    <glyph glyph-name="NUL" horiz-adv-x="0" 
 />
    <glyph glyph-name="NUL" horiz-adv-x="0" 
 />
    <glyph glyph-name="CR" unicode="&#xd;" horiz-adv-x="280" 
 />
    <glyph glyph-name="space" unicode=" " horiz-adv-x="300" 
 />
    <glyph glyph-name="exclam" unicode="!" horiz-adv-x="296" 
d="M145 142q30 0 50.5 -21t20.5 -50t-20.5 -50t-50.5 -21q-29 0 -49.5 21t-20.5 50t20.5 50t49.5 21zM100 236l-22 408q0 29 21 48t50 19q28 0 49.5 -19.5t22.5 -47.5l-12.5 -205t-11.5 -203q-1 -24 -15.5 -38t-33.5 -14q-18 0 -32.5 14t-15.5 38z" />
    <glyph glyph-name="quotedbl" unicode="&#x22;" horiz-adv-x="461" 
d="M195 673l-42 -197q-9 -42 -50 -42q-21 0 -36.5 13.5t-15.5 38.5v4q11 187 12 202q1 26 21 42t46 16q30 0 51 -24.5t14 -52.5zM411 673l-42 -197q-9 -42 -50 -42q-21 0 -36.5 13.5t-15.5 38.5v4q11 187 12 202q1 26 21 42t46 16q27 0 46.5 -19.5t19.5 -45.5q0 -8 -1 -12z
" />
    <glyph glyph-name="numbersign" unicode="#" horiz-adv-x="766" 
d="M452 268l28 158h-165l-28 -158h165zM678 426h-79q-16 -99 -28 -158h67q24 0 41 -17t17 -42q0 -24 -17.5 -41t-40.5 -17h-87q-2 -12 -9.5 -48t-10.5 -55q-4 -21 -21.5 -34.5t-38.5 -13.5q-24 0 -40 18t-16 43l1 9q2 15 8 40t9 41h-168l-18 -103q-4 -21 -21.5 -34.5
t-38.5 -13.5q-24 0 -40 17.5t-16 41.5q2 19 8 49t8 43h-61q-25 0 -42 17t-17 41q0 25 17 42t42 17h81l28 158h-67q-25 0 -42.5 18t-17.5 42t17.5 41t42.5 17h87q15 64 21 110q5 21 20.5 34.5t37.5 13.5q25 0 42 -18t17 -42l-17 -98h164q16 80 21 110q5 21 21.5 34.5
t36.5 13.5q24 0 41.5 -18t17.5 -42q0 -6 -1 -10l-9 -42.5t-9 -45.5h59q25 0 42.5 -17t17.5 -41t-17.5 -42t-42.5 -18z" />
    <glyph glyph-name="dollar" unicode="$" horiz-adv-x="582" 
d="M398 563q-32 27 -81 33v-192q84 -27 147 -83t63 -132q0 -74 -61 -125t-149 -64v-21q0 -13 -9.5 -22.5t-22.5 -9.5t-22.5 9.5t-9.5 22.5v21h-4q-114 7 -175 58q-24 17 -24 48q0 23 17 40t41 17q19 0 36 -11q43 -33 109 -38v189q-100 33 -145 74q-64 57 -65 145
q0 92 91 151q53 33 119 41v18q0 14 9.5 23t22.5 9t22.5 -9t9.5 -23v-18q93 -8 156 -60q22 -19 22 -48q0 -24 -18 -41t-43 -17q-21 0 -36 15zM317 282v-164q38 7 66 26.5t28 50.5q0 48 -94 87zM253 428v167q-31 -5 -61 -24.5t-32 -49.5q0 -60 93 -93z" />
    <glyph glyph-name="percent" unicode="%" horiz-adv-x="802" 
d="M199 367q-68 0 -115 52t-47 119t47 117.5t115 50.5t115 -50t47 -118t-48 -119.5t-114 -51.5zM199 475q23 0 39.5 19t16.5 44q0 24 -16.5 43t-39.5 19q-24 0 -39.5 -18.5t-15.5 -43.5t15.5 -44t39.5 -19zM171 91l356 592q17 26 49 26q36 0 51.5 -30t-0.5 -60l-358 -594
q-16 -25 -53 -25q-35 0 -49.5 33t4.5 58zM603 -2q-68 0 -115 52t-47 119t47 117.5t115 50.5t115 -50t47 -118t-48 -119.5t-114 -51.5zM603 106q23 0 39.5 19t16.5 44q0 24 -16.5 43t-39.5 19q-24 0 -39.5 -18.5t-15.5 -43.5t15.5 -44t39.5 -19z" />
    <glyph glyph-name="ampersand" unicode="&#x26;" horiz-adv-x="694" 
d="M375 187l-142 139q-42 -21 -63.5 -45.5t-21.5 -66.5q0 -40 37 -69.5t79 -29.5q73 0 111 72zM274 610q-25 0 -46 -16t-21 -40q0 -18 9.5 -36.5t15.5 -25.5l24 -27q22 11 32 17t22.5 16.5t17.5 22.5t5 29q0 24 -18 42t-41 18zM551 292q-11 -30 -36 -81l91 -88q2 -2 8 -2
q22 0 39.5 -18t17.5 -41q0 -27 -21 -45t-47 -18q-40 0 -68 31l-75 74q-29 -49 -83.5 -77t-114.5 -28q-87 0 -159 63.5t-72 151.5q0 67 30 111.5t89 85.5q-57 68 -57 143q0 74 53 117.5t128 43.5q72 0 124 -46.5t52 -118.5t-44 -119q-26 -28 -64 -50l84 -84l4 11l10 23t13 26
t15 22q26 31 65 31q25 0 43.5 -17.5t18.5 -41.5q0 -22 -9.5 -35.5t-19.5 -15.5l-9 -3q-4 -1 -6 -5z" />
    <glyph glyph-name="quotesingle" unicode="'" horiz-adv-x="244" 
d="M152 476q-9 -42 -49 -42q-21 0 -36.5 14t-15.5 37l11 207q0 3 0.5 7t4.5 14.5t11 18t22 13.5t35 5q28 -1 44 -20t16 -45q0 -19 -10.5 -71t-21.5 -95z" />
    <glyph glyph-name="parenleft" unicode="(" horiz-adv-x="278" 
d="M184 -12q-36 0 -51 28q-80 145 -80 331v9q0 186 80 331q15 28 51 28q27 0 42 -24.5t6 -51.5q-55 -144 -58 -273v-22q1 -129 58 -280q9 -26 -5 -51t-43 -25z" />
    <glyph glyph-name="parenright" unicode=")" horiz-adv-x="278" 
d="M94 -12q-29 0 -43 25t-5 51q57 151 58 280v22q-3 129 -58 273q-9 28 4 51.5t44 24.5q15 1 29.5 -7t21.5 -21q80 -145 80 -331v-9q0 -186 -80 -331q-15 -28 -51 -28z" />
    <glyph glyph-name="asterisk" unicode="*" horiz-adv-x="440" 
d="M177 612l-6 55q0 20 14 34t33 14q20 0 34.5 -12.5t14.5 -31.5q0 -12 -2.5 -32t-2.5 -26q38 14 57 20q19 7 37.5 -2.5t23.5 -29.5t-4.5 -37.5t-29.5 -21.5l-54 -12l37 -46q9 -12 9 -28q0 -20 -14 -34t-34 -14q-27 0 -39 19q-16 30 -31 53q-4 -8 -15 -25.5t-16 -27.5
q-12 -21 -39 -21q-20 0 -35 15t-15 35q0 15 9 27l40 46q-10 2 -28.5 6.5l-26.5 6.5q-17 3 -26.5 16.5t-9.5 30.5q0 19 13 32.5t32 13.5q9 0 16 -3z" />
    <glyph glyph-name="plus" unicode="+" horiz-adv-x="496" 
d="M304 227v-89q0 -23 -17 -40t-40 -17t-39.5 16t-16.5 39v91h-88q-23 0 -40 16t-17 39t16.5 40t39.5 17h89v89q0 23 17 40t39 17q24 0 40.5 -16t16.5 -39v-91h89q24 0 40.5 -15.5t16.5 -39.5t-15.5 -40.5t-39.5 -16.5h-91z" />
    <glyph glyph-name="comma" unicode="," horiz-adv-x="279" 
d="M62 -68q48 31 58 69q-30 -6 -53 15.5t-23 50.5q0 30 24 51t54 21q43 0 68 -35.5t25 -79.5q0 -31 -13 -60q-26 -60 -104 -102q-11 -7 -25 -7q-16 0 -26.5 12t-10.5 28q0 21 26 37z" />
    <glyph glyph-name="hyphen" unicode="-" horiz-adv-x="472" 
d="M424 285q0 -24 -16 -41t-39 -17h-264q-23 0 -40 16t-17 39q0 24 16 40.5t39 16.5h264q24 0 40.5 -15.5t16.5 -38.5z" />
    <glyph glyph-name="period" unicode="." horiz-adv-x="292" 
d="M145 162q35 0 59 -23.5t24 -57.5q0 -33 -24.5 -57t-58.5 -24q-33 0 -57 24t-24 57q0 34 24 57.5t57 23.5z" />
    <glyph glyph-name="slash" unicode="/" horiz-adv-x="438" 
d="M50 -90q-22 0 -36 16t-14 37q0 13 4 22l342 803q14 35 49 35q22 0 37.5 -16.5t15.5 -38.5q0 -10 -5 -22l-342 -802q-15 -34 -51 -34z" />
    <glyph glyph-name="zero" unicode="0" horiz-adv-x="674" 
d="M47 358q0 91 33.5 170t102.5 132t161 54q82 0 148.5 -54.5t100.5 -135.5t34 -166q0 -86 -32.5 -166t-102.5 -135.5t-162 -55.5q-87 4 -153.5 60.5t-98 134.5t-31.5 162zM162 358q0 -59 16 -109t55.5 -87.5t98.5 -40.5q62 0 104 37t59 88.5t17 111.5q0 93 -44.5 164
t-125.5 71q-61 -1 -103 -35.5t-59.5 -85.5t-17.5 -114z" />
    <glyph glyph-name="one" unicode="1" horiz-adv-x="348" 
d="M203 715q24 0 41 -16.5t17 -43.5v-597q0 -24 -17.5 -41t-41.5 -17q-25 0 -43 17.5t-18 40.5v466l-30 -27q-15 -15 -41 -15q-24 0 -41 18t-17 42q0 28 21 46l128 111q17 16 42 16z" />
    <glyph glyph-name="two" unicode="2" horiz-adv-x="556" 
d="M163 119h293q25 0 41.5 -17t16.5 -42q0 -24 -17 -42t-41 -18h-372q-24 0 -41 17.5t-17 41.5q0 39 14 74.5t32 61t51 54t56 44l61 40.5q2 1 18.5 12t20 13.5l19 13t20 15t17 15t17 17t12.5 17t11 19.5t6 20.5t3 22.5q0 47 -38 73t-87 26q-77 0 -107 -56q-18 -32 -51 -32
q-26 0 -43.5 18t-17.5 43q0 11 7 27q32 57 88.5 87.5t123.5 30.5q102 0 173 -63.5t71 -164.5q0 -41 -17 -78t-53 -71.5t-60 -53t-70 -50.5q-8 -6 -35.5 -24t-42 -28.5t-33.5 -28t-29 -34.5z" />
    <glyph glyph-name="three" unicode="3" horiz-adv-x="615" 
d="M300 321q-26 1 -43.5 18t-17.5 42q0 24 17.5 43t41.5 19q41 0 75 18.5t34 58.5q0 38 -35 57.5t-74 19.5q-72 0 -108 -56q-20 -30 -51 -30q-35 0 -51.5 28t-1.5 58q32 57 88.5 87.5t123.5 30.5q90 0 160 -55t70 -140q0 -39 -21 -79t-57 -51q45 -16 78.5 -59t33.5 -110
q0 -106 -78.5 -163.5t-184.5 -57.5q-114 0 -188 60t-74 161q0 25 17.5 43t42.5 18q26 0 44 -17.5t18 -43.5q0 -48 42 -75.5t100 -27.5q52 0 96 26.5t44 76.5q0 38 -24.5 62t-53.5 31t-63 7z" />
    <glyph glyph-name="four" unicode="4" horiz-adv-x="622" 
d="M370 484l-159 -202h159v202zM529 164h-39v-105q0 -25 -17.5 -42t-43.5 -17q-24 0 -41.5 17t-17.5 42v105h-283q-24 0 -41 17t-17 41q0 21 15 41l339 430q19 21 46 21q25 0 43 -17t18 -44v-371h39q25 0 42.5 -17.5t17.5 -42.5q0 -23 -17.5 -40.5t-42.5 -17.5z" />
    <glyph glyph-name="five" unicode="5" horiz-adv-x="582" 
d="M236 596l-18 -121q29 6 61 6q102 0 182 -69.5t80 -170.5q0 -106 -77.5 -173.5t-184.5 -67.5q-67 0 -130 34t-100 90q-15 30 1.5 60.5t50.5 30.5t50 -27q41 -68 128 -68q55 0 99 33.5t44 86.5q0 55 -43.5 89t-99.5 34q-57 0 -97 -34q-16 -12 -36 -12q-26 0 -45.5 19
t-14.5 49l38 278q3 22 20 36.5t39 14.5h260q25 0 42.5 -17t17.5 -43q0 -25 -17 -41.5t-43 -16.5h-207z" />
    <glyph glyph-name="six" unicode="6" horiz-adv-x="613" 
d="M319 716q107 0 185 -55q31 -26 19 -65.5t-56 -39.5q-17 0 -43 13q-49 31 -103 31q-66 0 -107.5 -54.5t-50.5 -133.5q59 73 150 73q106 0 179 -65.5t73 -181.5q0 -99 -76.5 -168.5t-178.5 -69.5q-71 0 -124.5 31t-82.5 82t-43 108t-14 118q0 65 13 126.5t42.5 120.5
t85.5 94.5t132 35.5zM180 240q0 -52 39.5 -89.5t92.5 -37.5q52 0 93 37.5t41 89.5q0 51 -41 90t-93 39q-53 0 -92.5 -38.5t-39.5 -90.5z" />
    <glyph glyph-name="seven" unicode="7" horiz-adv-x="563" 
d="M522 620l-235 -580q-6 -17 -22 -28.5t-33 -11.5q-25 0 -42.5 18t-17.5 42q0 12 4 21l205 510h-273q-26 0 -44 17t-18 42t17 42.5t42 17.5h366q25 0 42 -17t17 -40q0 -11 -8 -33z" />
    <glyph glyph-name="eight" unicode="8" horiz-adv-x="583" 
d="M289 -10q-99 0 -175.5 61.5t-76.5 162.5q0 58 33.5 106.5t82.5 66.5q-75 49 -75 142q0 87 63.5 141t148.5 54q87 0 150.5 -54t63.5 -141q0 -95 -74 -142q49 -18 82.5 -66.5t33.5 -106.5q0 -101 -77.5 -162.5t-179.5 -61.5zM417 217q0 46 -38 75t-89 29q-50 0 -87.5 -29.5
t-37.5 -74.5q0 -46 37.5 -74.5t87.5 -28.5q52 0 89.5 28.5t37.5 74.5zM387 518q0 35 -30 58t-67 23q-35 0 -64.5 -23t-29.5 -58q0 -34 30 -59t64 -25q37 0 67 25t30 59z" />
    <glyph glyph-name="nine" unicode="9" horiz-adv-x="613" 
d="M294 0q-107 0 -185 55q-22 18 -22 43q0 26 15.5 43.5t43.5 18.5q20 0 43 -13q49 -31 103 -31q66 0 107.5 54.5t50.5 133.5q-59 -73 -150 -73q-106 0 -179 65.5t-73 181.5q0 99 76.5 168.5t178.5 69.5q71 0 124.5 -31t82.5 -82t43 -108t14 -118q0 -65 -13 -126.5
t-42.5 -120.5t-85.5 -94.5t-132 -35.5zM433 476q0 52 -39.5 89.5t-92.5 37.5q-52 0 -93 -37.5t-41 -89.5q0 -51 41 -90t93 -39q53 0 92.5 38.5t39.5 90.5z" />
    <glyph glyph-name="colon" unicode=":" horiz-adv-x="300" 
d="M149 162q34 0 58 -23.5t24 -57.5q0 -33 -24 -57t-58 -24q-33 0 -56.5 24t-23.5 57q0 34 23.5 57.5t56.5 23.5zM149 480q34 0 58 -23.5t24 -57.5t-24 -58t-58 -24q-33 0 -56.5 24t-23.5 58t23.5 57.5t56.5 23.5z" />
    <glyph glyph-name="semicolon" unicode=";" horiz-adv-x="288" 
d="M66 -69q49 34 59 70q-4 -1 -12 -1q-28 0 -46 18.5t-18 47.5q0 30 24 51t55 21q48 0 75 -49q16 -27 16 -66q0 -52 -33 -93.5t-83 -68.5q-13 -6 -24 -6q-16 0 -27 11.5t-11 26.5q0 23 25 38zM130 479q34 0 58 -24t24 -58q0 -33 -24 -57t-58 -24q-33 0 -57 24t-24 57
q0 34 24 58t57 24z" />
    <glyph glyph-name="less" unicode="&#x3c;" horiz-adv-x="450" 
d="M76 299q-34 17 -34 54q0 15 10 30.5t24 23.5l215 116q13 7 27 7q24 0 42.5 -17.5t18.5 -42.5q0 -37 -32 -51l-148 -66l148 -67q30 -16 30 -54q0 -24 -17.5 -40t-40.5 -16q-15 0 -28 7z" />
    <glyph glyph-name="equal" unicode="=" horiz-adv-x="483" 
d="M422 357q0 -23 -16.5 -40t-38.5 -17h-248q-24 0 -41 16t-17 39q0 24 16 41t40 17h248q23 0 39.5 -16.5t17.5 -39.5zM422 210q0 -23 -16.5 -40t-38.5 -17h-248q-24 0 -41 16.5t-17 39.5t16.5 40.5t39.5 17.5h248q23 0 39.5 -16.5t17.5 -40.5z" />
    <glyph glyph-name="greater" unicode="&#x3e;" horiz-adv-x="450" 
d="M374 299l-215 -116q-13 -7 -28 -7q-23 0 -40.5 16t-17.5 40q0 38 30 54l148 67l-148 66q-32 14 -32 51q0 25 18.5 42.5t42.5 17.5q14 0 27 -7l215 -116q14 -8 24 -23.5t10 -30.5q0 -37 -34 -54z" />
    <glyph glyph-name="question" unicode="?" horiz-adv-x="429" 
d="M110 575q-15 -12 -35 -12q-23 0 -39.5 16t-16.5 38q0 30 24 49q61 49 149 49q111 0 169 -80q34 -45 34 -106q0 -43 -25 -84.5t-65.5 -85t-50.5 -59.5q-14 -23 -14 -45v-9q0 -23 -16 -39t-42 -16q-23 0 -39.5 16t-16.5 40v8q0 61 34 112q11 17 41 47.5t47.5 58t17.5 57.5
q0 34 -20 53t-52 19q-49 0 -84 -27zM182 142q30 0 50.5 -21t20.5 -50t-20.5 -50t-50.5 -21q-29 0 -49.5 21t-20.5 50t20.5 50t49.5 21z" />
    <glyph glyph-name="at" unicode="@" horiz-adv-x="1061" 
d="M631 231q16 40 16 97q-5 49 -34.5 79.5t-77.5 30.5q-73 0 -122 -60.5t-49 -134.5q0 -57 31 -97t80 -40q108 0 156 125zM735 -171q-106 -52 -222 -52q-141 0 -251 69.5t-168.5 185.5t-58.5 255q0 131 67.5 245t182 181.5t246.5 67.5q133 0 246.5 -63t181 -175t67.5 -248
q0 -54 -11 -105t-34.5 -98.5t-67.5 -76.5t-102 -29q-112 0 -148 91q-33 -43 -85.5 -67t-105.5 -24q-105 0 -166.5 75.5t-61.5 180.5q0 125 85.5 220.5t208.5 95.5q112 0 167 -79q16 25 50 25q25 0 41.5 -18t16.5 -42q-1 -30 -26 -49q-3 -3 -4 -7q-2 -4 -16 -99t-14 -117
q0 -30 15.5 -47.5t42.5 -17.5q92 0 92 190q0 168 -108 266.5t-264 98.5q-155 0 -265.5 -111t-110.5 -266q0 -161 98.5 -273t260.5 -113q87 1 170 42q14 7 31 7q21 0 38.5 -17.5t17.5 -42.5q0 -16 -9 -30.5t-18 -21.5z" />
    <glyph glyph-name="A" unicode="A" horiz-adv-x="719" 
d="M268 293h182l-65 171l-26 81h-1l-26 -82zM421 681l213 -562q2 -5 16 -9q12 -4 21 -18.5t9 -29.5q0 -26 -19.5 -44t-45.5 -18q-28 0 -52 18.5t-34 44.5l-46 122h-248l-45 -122q-10 -26 -34.5 -44.5t-52.5 -18.5q-26 0 -45 17.5t-19 43.5q0 37 30 49q14 4 15 9l213 562
q15 42 62 42q45 0 62 -42z" />
    <glyph glyph-name="B" unicode="B" horiz-adv-x="687" 
d="M640 210q0 -87 -62 -148.5t-149 -61.5h-281q-25 0 -43 17t-18 41q0 34 25 47q11 5 11 15v472q0 10 -11 16q-25 15 -25 48q0 24 18 41t43 17h242q89 0 151.5 -58t62.5 -145q0 -45 -21 -86.5t-54 -50.5q49 -13 80 -63t31 -101zM390 594h-158q11 -6 11 -39v-135h170
q34 0 52.5 23t18.5 58q0 39 -27.5 66t-66.5 27zM520 210q0 37 -27.5 63.5t-63.5 26.5h-186v-141q0 -33 -11 -39h197q37 0 63.5 26.5t27.5 63.5z" />
    <glyph glyph-name="C" unicode="C" horiz-adv-x="671" 
d="M420 -10q-150 0 -259 108.5t-109 257.5q0 151 106 259.5t262 108.5q93 0 174 -45q21 -11 28 -34.5t-4 -45.5q-10 -22 -35.5 -29.5t-47.5 4.5q-56 29 -126 29q-99 -5 -168 -76.5t-69 -170.5q0 -102 75 -173.5t173 -71.5q72 0 130 40q27 18 60.5 1.5t33.5 -53.5
q0 -34 -26 -51q-88 -58 -198 -58z" />
    <glyph glyph-name="D" unicode="D" horiz-adv-x="734" 
d="M121 116v482q0 5 -10 10q-24 14 -24 48q0 24 18 41t42 17h216q83 0 160 -45q81 -47 120 -130t39 -182q-2 -221 -159 -312q-77 -45 -160 -45h-216q-24 0 -42 17t-18 41q0 34 24 48q10 5 10 10zM235 594q6 -10 6 -29v-416q0 -19 -6 -29h79q122 0 186 60q62 59 62 177
q0 117 -62 177q-64 60 -186 60h-79z" />
    <glyph glyph-name="E" unicode="E" horiz-adv-x="642" 
d="M540 0h-393q-24 0 -42 17t-18 41q0 34 24 48q10 5 10 13v474q0 10 -10 15q-24 14 -24 48q0 24 18 41t42 17h395q24 0 41.5 -18t17.5 -42q0 -25 -17 -42.5t-42 -17.5h-307q6 -10 6 -29v-158h246q24 0 41.5 -16.5t17.5 -39.5q0 -26 -17 -44t-42 -18h-246v-139q0 -23 -6 -30
h305q25 0 42.5 -18t17.5 -43q0 -24 -17.5 -41.5t-42.5 -17.5z" />
    <glyph glyph-name="F" unicode="F" horiz-adv-x="624" 
d="M238 594q4 -12 4 -31v-149h226q25 0 42.5 -17.5t17.5 -42.5q0 -26 -17 -43t-43 -17h-226v-204q0 -40 -30 -67q-24 -23 -65 -23q-24 0 -42.5 17t-18.5 41q0 33 26 47q9 5 9 11v482q0 3 -2 5t-5 3l-2 2q-26 15 -26 48q0 24 18.5 41t42.5 17h379q25 0 43 -17.5t18 -42.5
t-18 -42.5t-43 -17.5h-288z" />
    <glyph glyph-name="G" unicode="G" horiz-adv-x="812" 
d="M646 644q24 -16 24 -48q0 -28 -16.5 -43.5t-41.5 -15.5q-24 0 -39 14q-72 52 -153 52q-103 0 -175 -72t-72 -175q0 -101 72 -173t175 -72q110 0 174 71v68q0 6 1.5 11t2.5 7l2 1h-139q-26 0 -45 17.5t-19 42.5q0 26 19 44t45 18h235q24 0 41.5 -18t17.5 -44
q0 -39 -36 -55q-6 -2 -6 -8v-105q0 -22 -12 -37q-102 -134 -281 -134q-153 0 -260.5 107t-107.5 259t107.5 260t260.5 108q129 0 226 -80z" />
    <glyph glyph-name="H" unicode="H" horiz-adv-x="836" 
d="M594 89v201h-352v-201q0 -39 -25.5 -64t-64.5 -25q-24 0 -44.5 17t-20.5 40q0 39 25 52q10 5 10 17v462q0 12 -10 17q-25 13 -25 52q0 23 20.5 40t44.5 17q39 0 64.5 -25t25.5 -64v-215h352v215q0 39 25.5 64t64.5 25q24 0 44.5 -17t20.5 -40q0 -39 -25 -52
q-10 -5 -10 -17v-462q0 -12 10 -17q25 -13 25 -52q0 -23 -20.5 -40t-44.5 -17q-39 0 -64.5 25t-25.5 64z" />
    <glyph glyph-name="I" unicode="I" horiz-adv-x="301" 
d="M151 0q-24 0 -41.5 17t-17.5 42v596q0 25 17.5 42t41.5 17t41 -17t17 -42v-596q0 -23 -17.5 -41t-40.5 -18z" />
    <glyph glyph-name="J" unicode="J" horiz-adv-x="589" 
d="M479 588v-333q0 -122 -62.5 -188.5t-169.5 -66.5q-68 0 -115 26t-92 78q-25 28 -10.5 63.5t52.5 35.5q28 0 46 -21q24 -27 35.5 -38.5t33.5 -20.5t52 -9q56 0 83 38.5t27 101.5v371q0 39 25.5 64t64.5 25q24 0 44.5 -17t20.5 -40q0 -39 -25 -52q-10 -5 -10 -17z" />
    <glyph glyph-name="K" unicode="K" horiz-adv-x="731" 
d="M241 624v-193l-3 -56l1 -1l51 58l201 209q4 4 4 8q-3 26 16 47q18 18 43 18q27 0 47.5 -22t20.5 -49q0 -40 -31 -73l-170 -176l209 -265q3 -4 7 -4q24 -1 40.5 -19t16.5 -41q0 -26 -21.5 -45.5t-48.5 -19.5q-47 0 -78 40l-210 266l-95 -99v-117q0 -41 -38 -71
q-25 -19 -57 -19q-24 0 -42 17t-18 41q0 33 25 48q10 6 10 10v482q0 4 -10 10q-25 15 -25 48q0 23 18 40.5t42 17.5q40 0 67.5 -25.5t27.5 -64.5z" />
    <glyph glyph-name="L" unicode="L" horiz-adv-x="618" 
d="M235 120h293q24 0 42 -18t18 -42t-17.5 -42t-42.5 -18h-382q-24 0 -42 17.5t-18 42.5q0 34 25 47q10 6 10 11v480q0 6 -10 10q-25 15 -25 48q0 23 18 40.5t42 17.5q33 0 53 -13q42 -29 42 -77v-472q0 -22 -6 -32z" />
    <glyph glyph-name="M" unicode="M" horiz-adv-x="986" 
d="M493 252l261 415q29 47 83 47q25 0 43.5 -16.5t18.5 -41.5q0 -37 -25 -50q-11 -6 -11 -17v-463q0 -12 10 -17q25 -13 25 -52q0 -23 -20.5 -40t-44.5 -17q-39 0 -64.5 25t-25.5 64v257l5 74h-2l-33 -60l-167 -258q-20 -31 -53 -31t-53 31l-167 258l-33 60h-2l5 -74v-257
q0 -39 -25.5 -64t-64.5 -25q-24 0 -44.5 17t-20.5 40q0 39 25 52q10 5 10 17v463q0 11 -11 17q-25 13 -25 50q0 25 18.5 41.5t43.5 16.5q54 0 83 -47z" />
    <glyph glyph-name="N" unicode="N" horiz-adv-x="818" 
d="M694 588v-462q0 -12 10 -17q27 -13 27 -52q0 -26 -20.5 -41.5t-46.5 -15.5q-43 0 -78 42l-297 359l-48 66h-2l4 -70v-308q0 -39 -25.5 -64t-64.5 -25q-24 0 -44.5 17t-20.5 40q0 39 25 52q10 5 10 17v463q0 10 -11 17q-25 13 -25 50q0 24 19 41t44 17q46 0 75 -36
l303 -365l48 -66h2l-4 70v308q0 39 25.5 64t64.5 25q24 0 44.5 -17t20.5 -40q0 -39 -25 -52q-10 -5 -10 -17z" />
    <glyph glyph-name="O" unicode="O" horiz-adv-x="838" 
d="M417 604q-101 0 -172.5 -72t-71.5 -173q0 -103 72.5 -175.5t175.5 -72.5q101 0 173 72.5t72 175.5q0 101 -73 173t-176 72zM421 -10q-152 0 -260.5 109.5t-108.5 259.5q0 151 110.5 258t258.5 107q151 0 258 -109.5t107 -255.5q0 -151 -109.5 -260t-255.5 -109z" />
    <glyph glyph-name="P" unicode="P" horiz-adv-x="657" 
d="M148 714h264q88 0 150.5 -63t62.5 -151q0 -87 -62 -150.5t-148 -63.5h-174v-196q0 -38 -26.5 -64t-66.5 -26q-25 0 -43 17t-18 41q0 33 25 48q10 4 10 10v482q0 4 -10 10q-25 15 -25 48q0 23 18 40.5t43 17.5zM412 404q38 0 66.5 28t28.5 68q0 38 -28.5 66.5t-66.5 28.5
h-175q1 -2 4 -28v-163h171z" />
    <glyph glyph-name="Q" unicode="Q" horiz-adv-x="852" 
d="M797 69q0 -30 -22.5 -49.5t-51.5 -19.5q-36 0 -65 27l-28 27q-96 -64 -208 -64q-149 0 -258 109.5t-109 257.5q0 149 108.5 258t258.5 109q148 0 257.5 -109t109.5 -257q0 -122 -75 -223l5 -6q4 -4 8 -4q1 0 6 1.5t9 1.5q23 0 39 -17t16 -42zM626 217q42 62 42 140
q0 102 -72.5 174t-174.5 72t-173.5 -72t-71.5 -174t72 -174t174 -72q61 0 114 28l-81 75q-18 17 -18 43q0 24 17.5 41.5t41.5 17.5q21 0 38 -16z" />
    <glyph glyph-name="R" unicode="R" horiz-adv-x="729" 
d="M672 66q0 -29 -24.5 -47.5t-57.5 -18.5q-23 0 -43 13.5t-31 33.5l-132 239h-141v-196q0 -50 -41 -77q-22 -13 -53 -13q-24 0 -43 17t-19 41q0 34 26 47q10 6 10 11v482q0 5 -10 11q-26 13 -26 47q0 24 18.5 41t42.5 17h265q89 0 151.5 -62.5t62.5 -151.5
q0 -62 -32.5 -113.5t-85.5 -77.5l100 -181q2 -4 14 -4q21 0 35 -18t14 -40zM243 565v-161h170q40 0 68 28t28 68t-28 67t-68 27h-174q4 -9 4 -29z" />
    <glyph glyph-name="S" unicode="S" horiz-adv-x="588" 
d="M539 192q0 -53 -25 -93.5t-64.5 -63.5t-83 -34t-87.5 -11q-135 0 -209 70q-18 20 -17.5 43.5t14.5 37.5t35.5 19t46.5 -12q58 -39 128 -39q60 0 101.5 22.5t41.5 57.5q0 17 -10.5 32.5t-22.5 25.5t-38 22t-37.5 16.5t-40.5 14.5q-43 15 -67.5 25t-58.5 29.5t-52.5 40.5
t-32 54.5t-13.5 75.5q0 86 74.5 142.5t173.5 56.5q117 0 194 -66q20 -17 21.5 -41.5t-12.5 -40.5t-35.5 -22.5t-47.5 12.5q-54 39 -120 39q-54 0 -91.5 -23t-37.5 -57q0 -21 12 -39t37 -32.5t45.5 -23.5t54.5 -21q39 -14 62 -23t58 -28.5t54.5 -40t34.5 -53t15 -72.5z" />
    <glyph glyph-name="T" unicode="T" horiz-adv-x="695" 
d="M603 594h-195v-534q0 -25 -17.5 -42.5t-42.5 -17.5t-43 17.5t-18 42.5v534h-194q-26 0 -43.5 17t-17.5 42t18 43t43 18h510q25 0 42.5 -18t17.5 -43t-17.5 -42t-42.5 -17z" />
    <glyph glyph-name="U" unicode="U" horiz-adv-x="773" 
d="M677 604v-354q0 -101 -77 -172t-182 -78h-71q-99 8 -175.5 81t-76.5 171v352q0 6 -3 7q-20 14 -20 44q0 25 17 42t42 17t44 -12q39 -22 39 -77v-374q0 -54 45 -94t100 -40h46q55 1 104.5 41t49.5 93v374q0 54 40 77q17 12 43 12q24 0 41.5 -17t17.5 -42q0 -29 -21 -44
q-3 -1 -3 -7z" />
    <glyph glyph-name="V" unicode="V" horiz-adv-x="736" 
d="M101 585q-3 8 -15 10q-20 3 -32 19.5t-12 36.5q0 29 23.5 46t53.5 17q28 0 51 -17t32 -42l127 -330l38 -126h2l38 125l127 331q9 25 32 42t51 17q30 0 53.5 -17t23.5 -46q0 -20 -12 -36.5t-32 -19.5q-12 -2 -15 -10l-209 -542q-13 -43 -58 -43t-58 43z" />
    <glyph glyph-name="W" unicode="W" horiz-adv-x="1112" 
d="M359 0q-41 0 -55 40l-204 546q-4 10 -16 12q-18 3 -30 19t-12 34q0 31 23.5 47t54.5 16q26 0 49 -17t32 -40l129 -335l25 -101h2l24 101l115 349q15 43 60 43t60 -43l115 -349l24 -101h2l25 101l129 335q9 23 32 40t49 17q31 0 54.5 -16t23.5 -47q0 -18 -12 -34t-30 -19
q-12 -2 -16 -12l-204 -546q-14 -40 -55 -40q-20 0 -36.5 11.5t-22.5 30.5l-138 409l-138 -409q-6 -19 -22.5 -30.5t-36.5 -11.5z" />
    <glyph glyph-name="X" unicode="X" horiz-adv-x="714" 
d="M127 587q-3 4 -8 4q-4 0 -7.5 -0.5t-5.5 -0.5q-22 0 -36.5 17t-14.5 39q0 29 23.5 47.5t53.5 20.5q49 0 77 -39l114 -164l33 -63h1l34 63l114 164q28 39 77 39q30 -2 53.5 -20.5t23.5 -47.5q0 -22 -14.5 -39t-36.5 -17q-2 0 -5.5 0.5t-7.5 0.5q-5 0 -8 -4l-159 -229
l159 -229q3 -4 7 -4q1 0 5 0.5t7 0.5q24 0 38 -17.5t14 -39.5q0 -29 -24.5 -49t-54.5 -20q-47 0 -74 39l-113 164l-35 63h-1l-34 -63l-113 -164q-27 -39 -74 -39q-30 0 -54.5 20t-24.5 49q0 22 14 39.5t38 17.5q3 0 7 -0.5t5 -0.5q4 0 7 4l159 229z" />
    <glyph glyph-name="Y" unicode="Y" horiz-adv-x="656" 
d="M352 464l116 204q24 44 74 46h4q29 0 52 -19t23 -48q0 -22 -13.5 -39t-34.5 -17q-12 0 -14 -4l-172 -298v-230q0 -24 -17 -41.5t-42 -17.5t-42 17.5t-17 41.5v230l-172 298q-2 4 -14 4q-21 0 -34.5 17t-13.5 39q0 29 23 48t52 19h4q50 -2 74 -46l116 -204l23 -52h1z" />
    <glyph glyph-name="Z" unicode="Z" horiz-adv-x="673" 
d="M67 103l334 449l37 44l-49 -2h-245q-50 0 -77 42q-13 22 -13 52q0 25 17 43t41 18q33 0 48 -25q6 -10 10 -10h365q29 0 50 -18.5t21 -47.5q0 -23 -14 -40l-330 -445l-38 -46l51 3h235q4 0 10 8q19 26 49 26q23 0 41 -19.5t18 -42.5q0 -40 -26.5 -66t-65.5 -26h-418
q-28 0 -46.5 18t-18.5 43t14 42z" />
    <glyph glyph-name="bracketleft" unicode="[" horiz-adv-x="320" 
d="M227 615h-40v-592h40q23 0 39.5 -15.5t16.5 -37.5t-16.5 -37t-39.5 -15h-92q-24 0 -39.5 15t-15.5 38v698q0 22 16 37t39 15h92q23 0 39.5 -15t16.5 -37t-16.5 -38t-39.5 -16z" />
    <glyph glyph-name="backslash" unicode="\" horiz-adv-x="438" 
d="M40 819q36 0 51 -34l342 -802q5 -12 5 -22q0 -22 -15.5 -38.5t-37.5 -16.5q-35 0 -49 35l-342 803q-4 9 -4 22q0 21 14 37t36 16z" />
    <glyph glyph-name="bracketright" unicode="]" horiz-adv-x="319" 
d="M130 615h-39q-23 0 -38.5 15.5t-15.5 38.5q0 22 15.5 37t38.5 15h93q23 0 39 -15t16 -37v-698q0 -23 -15.5 -38t-39.5 -15h-93q-23 0 -38.5 15t-15.5 37t15.5 37.5t38.5 15.5h39v592z" />
    <glyph glyph-name="asciicircum" unicode="^" horiz-adv-x="535" 
d="M398 439l-131 157l-125 -152q-18 -19 -36 -19q-26 0 -38.5 24.5t4.5 46.5l166 186q13 13 28 13q19 0 30 -13l164 -181q14 -20 12 -37q-2 -27 -28 -36.5t-46 11.5z" />
    <glyph glyph-name="underscore" unicode="_" horiz-adv-x="375" 
d="M360 -180h-345q-24 0 -40.5 16t-16.5 39t16.5 39t40.5 16h345q24 0 40.5 -16t16.5 -39t-16.5 -39t-40.5 -16z" />
    <glyph glyph-name="grave" unicode="`" horiz-adv-x="555" 
d="M180 664q-43 21 -34 63q8 36 41 49q30 12 59 -10l110 -93q16 -15 16 -34q0 -15 -11 -26.5t-27 -11.5q-8 0 -20 5q-131 57 -134 58z" />
    <glyph glyph-name="a" unicode="a" horiz-adv-x="547" 
d="M461 350v-236q0 -3 11 -12q18 -15 18 -42q0 -25 -20 -43t-44 -18q-49 0 -73 44q-48 -48 -126 -48q-79 0 -139.5 51t-60.5 130q0 84 59.5 129.5t146.5 45.5q52 0 115 -28q0 46 -12 67q-23 35 -89 35q-35 0 -89 -13q-10 -2 -15 -2q-23 0 -39.5 14.5t-16.5 37.5q0 43 42 56
q63 17 121 17q98 0 154 -46.5t57 -138.5zM143 171q0 -32 25.5 -50.5t59.5 -18.5q45 0 82.5 27t37.5 71v33q-34 21 -89 21q-116 0 -116 -83z" />
    <glyph glyph-name="b" unicode="b" horiz-adv-x="637" 
d="M349 -5q-90 0 -147 67q-9 -28 -30 -45.5t-51 -17.5q-24 0 -44 18t-20 43q0 27 18 42q11 9 11 15v513q0 8 -8 16q-19 19 -19 44t19 42.5t46 17.5q38 0 60 -26t22 -68v-188q29 33 68.5 48.5t74.5 15.5q110 0 178 -77.5t68 -185.5q0 -112 -70.5 -193t-175.5 -81zM335 412
q-61 0 -100.5 -44.5t-39.5 -105.5q0 -63 41.5 -106.5t98.5 -43.5q56 0 96 43.5t40 106.5q0 62 -40 106t-96 44z" />
    <glyph glyph-name="c" unicode="c" horiz-adv-x="543" 
d="M312 414q-62 0 -105.5 -43.5t-43.5 -105.5q0 -61 43.5 -104.5t104.5 -43.5q48 0 91 32q16 11 36 11q25 0 43.5 -16.5t18.5 -41.5q0 -31 -26 -52q-72 -55 -162 -55q-112 0 -191 79t-79 191t79 191t190 79q91 0 165 -55q25 -20 25 -49q0 -25 -19 -42.5t-43 -17.5
q-21 0 -37 12q-40 31 -90 31z" />
    <glyph glyph-name="d" unicode="d" horiz-adv-x="643" 
d="M521 750q24 0 44.5 -17t20.5 -40q0 -39 -25 -52q-10 -5 -10 -17v-507q0 -6 11 -15q18 -15 18 -42q0 -25 -20 -43t-44 -18q-30 0 -51 17.5t-30 45.5q-57 -67 -147 -67q-111 0 -178.5 82.5t-67.5 191.5q0 105 73.5 184t172.5 79q35 0 74.5 -15.5t68.5 -48.5v193
q0 39 25.5 64t64.5 25zM302 412q-59 0 -97.5 -43.5t-38.5 -106.5t40 -106.5t96 -43.5q57 0 98.5 43.5t41.5 106.5q0 61 -39.5 105.5t-100.5 44.5z" />
    <glyph glyph-name="e" unicode="e" horiz-adv-x="584" 
d="M299 417q-50 0 -84.5 -30t-50.5 -81h262q-8 48 -44 79.5t-83 31.5zM485 215h-321q12 -44 50.5 -75t85.5 -31q66 0 126 33q19 9 37 7q22 -2 37.5 -18.5t16.5 -38.5q0 -39 -34 -56q-93 -41 -184 -41q-109 0 -183 80.5t-74 189.5t73.5 189.5t181.5 80.5q105 0 176 -77
t71 -185q0 -22 -18.5 -40t-40.5 -18z" />
    <glyph glyph-name="f" unicode="f" horiz-adv-x="396" 
d="M129 0q-24 0 -44.5 17t-20.5 40q0 39 25 52q10 5 10 17v292h-27q-24 0 -39.5 15.5t-15.5 39.5q0 25 15.5 40.5t39.5 15.5h28v27q0 88 42 140.5t131 52.5q31 0 83 -13q43 -12 43 -58q0 -24 -17.5 -40.5t-42.5 -16.5q-10 0 -33.5 4.5t-32.5 4.5q-19 0 -30.5 -5.5t-16 -18
t-5.5 -22t-1 -28.5v-27h107q25 0 41 -16t16 -41q0 -22 -17 -38t-40 -16h-108v-329q0 -39 -25.5 -64t-64.5 -25z" />
    <glyph glyph-name="g" unicode="g" horiz-adv-x="651" 
d="M300 141q68 0 108.5 38.5t40.5 101.5q0 61 -38.5 101.5t-102.5 40.5t-105 -42t-41 -104q0 -59 37.5 -97.5t100.5 -38.5zM527 529q27 0 47 -19t20 -45q0 -29 -18 -43q-9 -7 -9 -14v-321q0 -137 -76 -202t-194 -65q-48 0 -81 9.5t-88 32.5q-26 11 -39.5 24t-13.5 37
q0 25 17 41.5t43 16.5q14 0 26 -6q78 -37 138 -37q66 0 106 43t40 115v14q-25 -36 -66.5 -56.5t-87.5 -20.5q-110 0 -179.5 68t-69.5 176q0 109 69.5 183t180.5 74q101 0 154 -74q6 31 27 50t54 19z" />
    <glyph glyph-name="h" unicode="h" horiz-adv-x="661" 
d="M122 750q39 0 64.5 -25t25.5 -64v-185q25 29 63 41.5t65 12.5q229 0 229 -242v-162q0 -12 10 -17q25 -13 25 -52q0 -23 -20.5 -40t-44.5 -17q-39 0 -64.5 25t-25.5 64v205q0 54 -32 85t-87 31q-50 0 -84 -31t-34 -80v-210q0 -39 -25.5 -64t-64.5 -25q-25 0 -45 16.5
t-20 40.5q0 39 25 52q10 5 10 17v498q0 12 -10 17q-25 13 -25 52q0 23 20.5 40t44.5 17z" />
    <glyph glyph-name="i" unicode="i" 
d="M139 613q-30 0 -51 21.5t-21 51.5t21 51.5t51 21.5t51.5 -21.5t21.5 -51.5t-21 -51.5t-52 -21.5zM77 421q-25 13 -25 52q0 23 20.5 40t44.5 17q39 0 64.5 -25t25.5 -64v-315q0 -12 10 -17q25 -13 25 -52q0 -23 -20.5 -40t-44.5 -17q-39 0 -64.5 25t-25.5 64v315
q0 12 -10 17z" />
    <glyph glyph-name="j" unicode="j" horiz-adv-x="303" 
d="M202 404v-421q0 -72 -41 -117.5t-109 -45.5h-13q-26 0 -44 17t-18 42q0 24 16.5 39.5t40.5 15.5h12q36 0 36 51v456q0 39 25.5 64t64.5 25q24 0 44.5 -17t20.5 -40q0 -39 -25 -52q-10 -5 -10 -17zM151 613q-30 0 -51 21.5t-21 51.5t21 51.5t51 21.5t51.5 -21.5
t21.5 -51.5t-21 -51.5t-52 -21.5z" />
    <glyph glyph-name="k" unicode="k" horiz-adv-x="563" 
d="M122 0q-24 0 -44.5 16.5t-20.5 40.5q0 39 25 52q10 5 10 17v498q0 12 -10 17q-25 13 -25 52q0 23 20.5 40t44.5 17q39 0 64.5 -25t25.5 -64v-276l-3 -60l36 43l94 94q6 6 6 11q0 1 -0.5 4.5t-0.5 5.5q0 25 17 41t42 16q29 0 49.5 -22.5t20.5 -51.5q0 -39 -31 -70
l-101 -102l119 -160q5 -6 17 -8q22 -1 36.5 -17.5t14.5 -38.5q0 -29 -22 -49.5t-51 -20.5q-44 0 -76 42l-124 167l-43 -44v-76q0 -39 -25.5 -64t-64.5 -25z" />
    <glyph glyph-name="l" unicode="l" 
d="M77 641q-25 13 -25 52q0 23 20.5 40t44.5 17q39 0 64.5 -25t25.5 -64v-535q0 -12 10 -17q25 -13 25 -52q0 -23 -20.5 -40t-44.5 -17q-39 0 -64.5 25t-25.5 64v535q0 12 -10 17z" />
    <glyph glyph-name="m" unicode="m" horiz-adv-x="959" 
d="M877 109q25 -13 25 -52q0 -23 -20.5 -40t-44.5 -17q-39 0 -64.5 25t-25.5 64v231q0 4 -0.5 10t-6.5 22t-16.5 28t-32.5 22t-52 10q-46 0 -74.5 -31.5t-28.5 -81.5v-238q0 -23 -17.5 -42t-41.5 -19q-25 0 -43 19t-18 42v259q0 31 -24 60.5t-71 29.5t-78 -33.5t-31 -82.5
v-205q0 -39 -25.5 -64t-64.5 -25q-24 0 -44.5 17t-20.5 40q0 39 25 52q10 5 10 17v286q0 6 -11 15q-18 15 -18 42q0 25 20 43t44 18q31 0 51.5 -18t24.5 -53q14 30 56.5 50.5t77.5 20.5q117 0 158 -69q22 30 64 49.5t90 19.5q100 0 159 -59.5t59 -165.5v-179q0 -12 10 -17z
" />
    <glyph glyph-name="n" unicode="n" horiz-adv-x="661" 
d="M82 109q10 5 10 17v286q0 6 -11 15q-18 15 -18 42q0 25 20 43t44 18q31 0 51.5 -18t24.5 -53q20 35 59 53t75 18q107 0 169.5 -57t62.5 -175v-172q0 -12 10 -17q25 -13 25 -52q0 -23 -20 -40t-45 -17q-39 0 -64.5 25t-25.5 64v215q0 107 -119 107q-50 0 -84 -33t-34 -84
v-205q0 -39 -25.5 -64t-64.5 -25q-27 0 -46 16.5t-19 40.5q0 39 25 52z" />
    <glyph glyph-name="o" unicode="o" horiz-adv-x="621" 
d="M310 414q-62 0 -105 -44t-43 -106q0 -61 43 -104.5t105 -43.5t106 43.5t44 104.5q0 62 -44 106t-106 44zM310 -4q-110 0 -189 79t-79 189q0 111 78.5 190t189.5 79q112 0 190.5 -78.5t78.5 -190.5q0 -110 -79 -189t-190 -79z" />
    <glyph glyph-name="p" unicode="p" horiz-adv-x="643" 
d="M82 -71q10 5 10 17v465q0 6 -11 15q-18 15 -18 42q0 25 20 43t44 18q30 0 51 -17.5t30 -45.5q57 67 147 67q106 0 176 -79.5t70 -194.5q0 -108 -68 -185.5t-178 -77.5q-35 0 -74.5 15.5t-68.5 48.5v-151q0 -39 -25.5 -64t-64.5 -25q-25 0 -45 17t-20 40q0 39 25 52z
M341 116q56 0 96 44t40 106q0 63 -40 106.5t-96 43.5q-57 0 -98.5 -43.5t-41.5 -106.5q0 -61 39.5 -105.5t100.5 -44.5z" />
    <glyph glyph-name="q" unicode="q" horiz-adv-x="637" 
d="M288 533q90 0 147 -67q9 28 30 45.5t51 17.5q24 0 44 -18t20 -43q0 -27 -18 -42q-11 -9 -11 -15v-471q0 -8 8 -16q19 -19 19 -44t-19 -42.5t-46 -17.5q-38 0 -60 26t-22 68v146q-29 -33 -68.5 -48.5t-74.5 -15.5q-110 0 -178 77.5t-68 185.5q0 115 70 194.5t176 79.5z
M302 116q61 0 100.5 44.5t39.5 105.5q0 63 -41.5 106.5t-98.5 43.5q-56 0 -96 -43.5t-40 -106.5q0 -62 40 -106t96 -44z" />
    <glyph glyph-name="r" unicode="r" horiz-adv-x="467" 
d="M82 109q10 5 10 17v284q0 6 -12 15q-17 13 -17 43q0 25 20 43.5t46 18.5q61 0 79 -65q45 68 119 68q48 0 90 -21q28 -14 28 -49q0 -22 -15.5 -39.5t-38.5 -17.5q-12 0 -36.5 8t-38.5 8h-4q-41 0 -70 -29q-30 -31 -30 -98v-206q0 -39 -25.5 -64t-64.5 -25q-24 0 -44.5 17
t-20.5 40q0 39 25 52z" />
    <glyph glyph-name="s" unicode="s" horiz-adv-x="457" 
d="M41 92q0 25 16.5 41.5t40.5 18.5q22 0 39 -12q30 -21 77 -21q79 0 79 41q0 28 -29 43.5t-78.5 30t-75.5 31.5q-73 46 -73 115q0 73 59 115t135 42q75 0 136 -45q24 -18 24 -46q0 -25 -16 -42t-44 -17q-14 0 -30 8q-44 23 -77 23q-25 0 -45.5 -9t-20.5 -30
q0 -12 12.5 -22.5t26 -16t36 -13t27.5 -9.5q34 -13 56.5 -25t47.5 -31t38 -45.5t13 -60.5q0 -74 -63.5 -115t-141.5 -41t-139 41q-28 18 -30 51z" />
    <glyph glyph-name="t" unicode="t" horiz-adv-x="442" 
d="M282 127q22 0 42 5t30 5q24 0 42.5 -19.5t18.5 -44.5q0 -21 -13.5 -38.5t-34.5 -22.5q-37 -12 -85 -12q-183 0 -183 225v193h-19q-26 0 -42 15t-16 39q0 25 16.5 41t41.5 16h18v39q0 5 -12 15q-18 20 -18 43q0 27 20.5 45.5t47.5 18.5q40 0 61 -29t21 -70v-62h110
q25 0 42.5 -16t17.5 -40t-17 -39.5t-43 -15.5h-108v-193q0 -98 62 -98z" />
    <glyph glyph-name="u" unicode="u" horiz-adv-x="663" 
d="M212 442v-198q0 -67 30 -97t97 -30q51 0 81.5 30t30.5 80v215q0 39 25.5 64t64.5 25q24 0 44.5 -17t20.5 -40q0 -40 -25 -52q-10 -5 -10 -17v-291q0 -5 1 -7t4 -3.5t5 -3.5q14 -13 14 -39q0 -25 -19 -43t-45 -18q-28 0 -48.5 18.5t-20.5 47.5q-17 -31 -57 -48.5
t-77 -17.5q-117 0 -176.5 62.5t-59.5 181.5v161q0 12 -10 17q-25 12 -25 52q0 23 20.5 40t44.5 17q39 0 64.5 -25t25.5 -64z" />
    <glyph glyph-name="v" unicode="v" horiz-adv-x="566" 
d="M480 407l-142 -365q-15 -42 -56 -42t-56 42l-141 365q-1 4 -3 5.5t-6.5 2.5t-5.5 2q-14 4 -23.5 20.5t-9.5 32.5q0 24 20.5 42t45.5 18t45.5 -17.5t30.5 -43.5l78 -196l24 -83h2l25 83l78 196q11 27 31 44t45 17q27 0 47 -18t20 -44q0 -16 -9.5 -31.5t-22.5 -19.5
q-15 -5 -17 -10z" />
    <glyph glyph-name="w" unicode="w" horiz-adv-x="908" 
d="M454 531q43 0 58 -40l79 -218l24 -78h1l26 78l85 198q27 59 77 59q26 0 46.5 -18t20.5 -44q0 -16 -9.5 -32t-24.5 -20q-15 -5 -17 -9l-151 -367q-17 -40 -55 -40q-45 0 -58 41l-67 171l-34 101h-1l-35 -101l-67 -171q-13 -41 -58 -41q-38 0 -55 40l-151 367q-2 4 -17 9
q-15 4 -24.5 20t-9.5 32q0 26 20.5 44t46.5 18q50 0 77 -59l85 -198l26 -78h1l24 78l79 218q15 40 58 40z" />
    <glyph glyph-name="x" unicode="x" horiz-adv-x="586" 
d="M327 408l61 82q30 40 75 40q26 0 47 -20t21 -46q0 -21 -13.5 -38t-33.5 -18q-15 -2 -17 -5l-102 -138l105 -139q3 -4 17 -6q20 -1 33.5 -17.5t13.5 -37.5q0 -26 -20 -45.5t-48 -19.5q-43 0 -75 40l-62 82l-36 57h-1l-35 -57l-62 -82q-32 -40 -75 -40q-27 0 -47.5 18.5
t-20.5 46.5q0 21 13.5 37.5t33.5 17.5q14 2 17 6l105 139l-102 138q-2 3 -17 5q-20 1 -33.5 18t-13.5 38q0 26 21 46t47 20q45 0 75 -40l60 -82l34 -57h1z" />
    <glyph glyph-name="y" unicode="y" horiz-adv-x="618" 
d="M192 462l76 -199l37 -123h3l37 123l81 199q29 68 83 68q29 0 50.5 -19.5t21.5 -48.5q0 -16 -10.5 -32.5t-24.5 -21.5q-14 -3 -16 -10l-40.5 -102.5l-35.5 -90l-29.5 -74l-25.5 -63.5l-20 -50.5t-18 -43l-14 -32t-12 -27t-10 -18.5q-43 -77 -134 -77q-36 0 -88 19
q-19 7 -30 23t-11 35q0 25 18 43.5t42 18.5q12 0 23 -4q30 -10 40 -10q26 0 41 28l13 27l-150 398q-2 6 -17 10q-15 6 -25 22.5t-10 33.5q0 28 21.5 47t50.5 19q27 0 49 -19t34 -49z" />
    <glyph glyph-name="z" unicode="z" horiz-adv-x="532" 
d="M155 530h243q30 0 48.5 -17t18.5 -45q0 -23 -12 -40l-203 -278l-39 -43l51 3h125q4 0 6 1t5 5t4 5q12 16 39 16q24 0 41 -19t17 -43q0 -36 -26.5 -55.5t-63.5 -19.5h-289q-27 0 -45 17t-18 44q0 23 12 40l205 277l39 43l-51 -3h-131q-36 0 -62 21t-26 57q0 24 17 42.5
t41 18.5q25 0 38 -15q10 -12 16 -12z" />
    <glyph glyph-name="braceleft" unicode="{" horiz-adv-x="354" 
d="M262 31q24 -2 40.5 -19t16.5 -41q0 -27 -14.5 -42t-29.5 -17l-15 -1h-4q-84 4 -125 50q-35 38 -35 115q0 54 15 123q7 31 8 41q0 11 -23 13q-24 2 -41 18t-18 39q1 24 18 40t41 17q23 2 23 14q0 1 -8 41q-15 69 -15 122q0 77 35 116q40 46 125 50h4q24 0 41 -16.5
t18 -39.5v-4q0 -24 -16.5 -40.5t-40.5 -18.5q-45 -3 -45 -61q0 -26 13 -89q10 -52 10 -68q0 -46 -40 -63q20 -11 30 -31t10 -31q0 -26 -11.5 -77.5t-11.5 -79.5q0 -57 45 -60z" />
    <glyph glyph-name="bar" unicode="|" horiz-adv-x="313" 
d="M157 -151q-23 0 -38.5 16t-15.5 38v849q0 22 15.5 38.5t38.5 16.5q22 0 37.5 -16.5t15.5 -38.5v-849q0 -22 -15.5 -38t-37.5 -16z" />
    <glyph glyph-name="braceright" unicode="}" horiz-adv-x="354" 
d="M92 31q45 3 45 60q0 28 -11.5 79.5t-11.5 77.5q0 11 10 31t30 31q-40 17 -40 63q0 16 10 68q13 63 13 89q0 58 -45 61q-24 2 -40.5 18.5t-16.5 40.5v4q1 23 18 39.5t41 16.5h4q85 -4 125 -50q35 -39 35 -116q0 -53 -15 -122q-8 -40 -8 -41q0 -12 23 -14q24 -1 41 -17
t18 -40q-1 -23 -18 -39t-41 -18q-23 -2 -23 -13q1 -10 8 -41q15 -69 15 -123q0 -77 -35 -115q-41 -46 -125 -50h-4q-7 0 -16.5 1.5t-26 16.5t-16.5 42q0 24 16.5 41t40.5 19z" />
    <glyph glyph-name="asciitilde" unicode="~" horiz-adv-x="565" 
d="M70 316q16 44 53.5 75t78.5 31q38 0 77 -23l27 -17.5t23.5 -15l17.5 -10t17 -7.5t14 -1q5 0 9.5 3t8 6t7 8.5t5 8.5l5 10.5t4.5 8.5q13 25 40 25q25 0 36 -24t-1 -46q-46 -88 -111 -88q-21 0 -41 7t-30 12.5t-34 21.5l-16 9.5l-16 9.5t-13 7t-14.5 5.5t-13.5 1.5
q-17 0 -32.5 -15.5t-21.5 -34.5q-4 -12 -15.5 -21t-25.5 -8q-26 2 -35.5 21t-2.5 40z" />
    <glyph glyph-name="nbspace" unicode="&#xa0;" horiz-adv-x="280" 
 />
    <glyph glyph-name="exclamdown" unicode="&#xa1;" horiz-adv-x="313" 
d="M156 320q-34 0 -57.5 24t-23.5 59q0 34 23.5 58t57.5 24t58 -24t24 -58q0 -35 -24 -59t-58 -24zM108 247q1 25 15 38.5t33 13.5t33.5 -14t15.5 -38l24 -409q-1 -28 -22.5 -47.5t-49.5 -19.5q-29 0 -50 19t-21 48l12 228t10 181z" />
    <glyph glyph-name="cent" unicode="&#xa2;" horiz-adv-x="536" 
d="M358 534l12 46q6 24 31 24q15 0 24.5 -13t4.5 -27l-13 -47q27 -12 59 -35q23 -18 23 -44q0 -22 -17 -39t-39 -17q-19 0 -34 12q-9 7 -22 13l-79 -295q58 0 101 33q13 10 32 10q23 0 40.5 -16.5t17.5 -39.5q0 -27 -23 -44q-70 -56 -163 -56q-12 0 -34 2l-18 -64
q-2 -10 -11 -17t-20 -6q-16 1 -24 13.5t-4 25.5l17 63q-78 29 -126.5 98t-48.5 154q0 112 79 190.5t189 78.5q24 0 46 -3zM248 125l81 300l-16 1q-65 0 -111 -46t-46 -112q0 -47 25.5 -86t66.5 -57z" />
    <glyph glyph-name="sterling" unicode="&#xa3;" horiz-adv-x="576" 
d="M94 116q3 2 3 6v180h-15q-14 0 -24 10t-10 23q0 14 10 24t24 10h15v112q0 65 31 120.5t86 85.5q49 26 101 26q86 0 152 -63.5t66 -148.5q0 -25 -17.5 -42t-41.5 -17q-25 0 -42.5 17t-17.5 42q0 37 -30.5 65t-68.5 28q-42 0 -71 -35t-28 -78v-112h177q14 0 23.5 -10
t9.5 -24q0 -13 -10 -23t-23 -10h-177v-164q0 -3 -0.5 -8.5t-0.5 -9.5h261q25 0 42 -17.5t17 -41.5q0 -25 -17 -43t-42 -18h-360q-25 0 -42.5 18t-17.5 42q0 39 38 56z" />
    <glyph glyph-name="yen" unicode="&#xa5;" horiz-adv-x="622" 
d="M311 0q-23 0 -40.5 17t-17.5 41v99h-94q-13 0 -23 9.5t-10 23.5q0 13 9.5 22.5t23.5 9.5h94v57h-94q-13 0 -23 9.5t-10 23.5q0 13 9.5 22.5t23.5 9.5h83l-153 244q-4 6 -7 6q-21 3 -34 19.5t-13 38.5q0 28 18.5 45.5t48.5 17.5q49 0 74 -43l100 -173l35 -74l34 74
l102 173q25 43 73 43q31 0 49.5 -17.5t18.5 -45.5q0 -22 -13 -38.5t-34 -19.5q-4 0 -8 -6l-152 -244h83q14 0 23 -9t9 -23t-9.5 -23.5t-22.5 -9.5h-94v-57h94q14 0 23 -9t9 -23t-9.5 -23.5t-22.5 -9.5h-94v-99q0 -24 -17.5 -41t-41.5 -17z" />
    <glyph glyph-name="section" unicode="&#xa7;" horiz-adv-x="644" 
d="M307 175q45 0 103 16.5t58 50.5q0 33 -53.5 50.5t-95.5 17.5q-17 0 -39 -3.5t-47 -10.5t-42 -21t-17 -33q0 -29 47.5 -48t85.5 -19zM597 242q0 -80 -89 -137q84 -53 84 -138q0 -67 -49.5 -114t-111.5 -65.5t-124 -18.5q-102 0 -185 44q-34 19 -34 57q0 40 33 57
q31 15 62 -4q54 -27 124 -27q24 0 59 6t68.5 23.5t33.5 41.5q0 15 -10 26t-30.5 18.5t-37.5 12t-45 10l-38 7.5q-40 9 -70.5 18t-68.5 26t-62.5 37.5t-41.5 52.5t-17 71q0 77 83 138q-78 47 -82 125v11q0 44 25 83t64 64q79 48 182 48q97 0 176 -43q15 -8 24 -24.5t9 -32.5
q0 -37 -33 -54t-64 1q-49 27 -112 27q-42 0 -93 -17.5t-51 -52.5q0 -38 43.5 -58.5t105.5 -30.5t124 -25t105.5 -55.5t43.5 -107.5z" />
    <glyph glyph-name="dieresis" unicode="&#xa8;" horiz-adv-x="595" 
d="M115 667q0 29 20 49t49 20t49.5 -20t20.5 -49q0 -28 -20.5 -47.5t-49.5 -19.5t-49 19.5t-20 47.5zM342 667q0 29 20 49t49 20t49 -20t20 -49q0 -28 -20 -47.5t-49 -19.5t-49 19.5t-20 47.5z" />
    <glyph glyph-name="copyright" unicode="&#xa9;" horiz-adv-x="783" 
d="M392 715q147 0 251.5 -105t104.5 -252t-105 -252.5t-251 -105.5q-148 0 -252.5 105t-104.5 253q0 147 104.5 252t252.5 105zM392 51q126 0 215.5 90.5t89.5 216.5q0 125 -90 215.5t-215 90.5q-126 0 -216 -90t-90 -216q0 -127 89.5 -217t216.5 -90zM457 263q12 7 23 7
q17 0 28.5 -11.5t11.5 -29.5q0 -22 -18 -34q-44 -28 -103 -30q-77 -2 -134.5 55.5t-57.5 137.5q0 77 58.5 134t133.5 57q50 0 89 -23q14 -8 19.5 -22.5t-1.5 -30.5q-8 -14 -23.5 -18.5t-31.5 2.5q-25 12 -52 12q-45 0 -78.5 -33.5t-33.5 -80.5q0 -42 32.5 -75t78.5 -33
q33 0 59 16z" />
    <glyph glyph-name="ordfeminine" unicode="&#xaa;" horiz-adv-x="444" 
d="M83 221h267q18 0 29 11.5t11 29.5t-11 29.5t-29 11.5h-267q-18 0 -30.5 -11.5t-12.5 -29.5t12.5 -29.5t30.5 -11.5zM362 607v-179q0 -6 6 -9q13 -9 13 -30q0 -17 -14 -30.5t-32 -13.5q-38 0 -53 39q-14 -18 -39 -30t-48 -12q-62 0 -103.5 36t-41.5 95q0 62 43.5 96
t104.5 34q18 0 38 -3.5t31 -6.5l11 -3q0 32 -7 41q-10 12 -42 12q-30 0 -86 -16q-21 -5 -39 4t-19 35q-1 13 6.5 24t19.5 16q57 22 117 22q42 0 76.5 -18t49.5 -53q8 -17 8 -50zM278 486v36q-34 9 -61 9q-82 0 -82 -65q0 -22 18.5 -34.5t41.5 -12.5q31 0 57 18.5t26 48.5z
" />
    <glyph glyph-name="guillemotleft" unicode="&#xab;" horiz-adv-x="624" 
d="M561 432l-146 -166l55 -63q66 -77 91 -104q12 -13 12 -36q0 -21 -15.5 -37t-37.5 -16t-42 18l-186 202q-14 15 -14 36q0 23 13 37l187 201q17 17 42 17q23 0 38.5 -15t15.5 -37q0 -23 -13 -37zM320 432l-146 -166l55 -63q66 -77 91 -104q12 -13 12 -36q0 -21 -15.5 -37
t-37.5 -16t-42 18l-186 202q-14 15 -14 36q0 23 13 37l187 201q17 17 42 17q23 0 38.5 -15t15.5 -37q0 -23 -13 -37z" />
    <glyph glyph-name="registered" unicode="&#xae;" horiz-adv-x="491" 
d="M245 711q95 0 162.5 -67.5t67.5 -162.5q0 -94 -68 -161.5t-162 -67.5q-95 0 -162 67t-67 162t67 162.5t162 67.5zM245 296q75 0 130.5 54t55.5 131t-54.5 131.5t-131.5 54.5q-76 0 -130.5 -54.5t-54.5 -131.5t54 -131t131 -54zM359 375q0 -11 -9 -17.5t-21 -6.5
q-17 0 -27 17l-47 87h-52v-71q0 -14 -9.5 -23.5t-24.5 -9.5q-9 0 -15.5 6t-6.5 15q0 12 9 17q4 2 4 4v175q0 2 -4 4q-9 4 -9 17q0 9 6.5 15t15.5 6h96q32 0 55 -22.5t23 -55.5q0 -47 -43 -69l36 -66q1 -1 5 -1q8 0 13 -6.5t5 -14.5zM265 498q14 0 24.5 10t10.5 24
q0 15 -10.5 25t-24.5 10h-63q1 -3 1 -11v-58h62z" />
    <glyph glyph-name="macron" unicode="&#xaf;" horiz-adv-x="466" 
d="M76 672q0 19 13.5 32.5t34.5 13.5h218q19 0 33.5 -13.5t14.5 -32.5q0 -20 -14.5 -33.5t-33.5 -13.5h-218q-21 0 -34.5 13.5t-13.5 33.5z" />
    <glyph glyph-name="degree" unicode="&#xb0;" horiz-adv-x="339" 
d="M170 628q-11 0 -19 -7.5t-8 -18.5q0 -12 8 -20.5t19 -8.5t19.5 8.5t8.5 20.5q0 10 -8.5 18t-19.5 8zM170 487q-47 0 -80.5 34t-33.5 81t33.5 80.5t80.5 33.5t80 -33.5t33 -80.5t-33.5 -81t-79.5 -34z" />
    <glyph glyph-name="plusminus" unicode="&#xb1;" horiz-adv-x="539" 
d="M427 43h-315q-23 0 -39.5 16t-16.5 39t16.5 39t39.5 16h315q24 0 40 -16t16 -39t-16 -39t-40 -16zM427 328h-102v-103q0 -23 -16 -39.5t-39 -16.5t-39.5 16.5t-16.5 39.5v103h-102q-23 0 -39.5 16.5t-16.5 39.5t16.5 39t39.5 16h102v103q0 23 16.5 39.5t39.5 16.5
t39 -16.5t16 -39.5v-103h102q24 0 40 -16t16 -39t-16 -39.5t-40 -16.5z" />
    <glyph glyph-name="twosuperior" unicode="&#xb2;" horiz-adv-x="425" 
d="M159 347h153q20 0 33.5 -14t13.5 -33q0 -21 -13.5 -34.5t-33.5 -13.5h-223q-22 0 -36 13.5t-14 34.5q0 52 29.5 86.5t82.5 70.5q5 4 23 15t29.5 19t25.5 19.5t21 24.5t7 26q0 25 -19 38t-46 13q-39 0 -54 -27q-14 -26 -41 -26q-26 0 -40.5 23t-2.5 47q38 79 138 79
q66 0 113.5 -37.5t47.5 -109.5q0 -48 -31 -83t-85 -70q-53 -36 -78 -61z" />
    <glyph glyph-name="threesuperior" unicode="&#xb3;" horiz-adv-x="391" 
d="M192 449q-19 0 -33 14t-14 34q0 18 13.5 32.5t33.5 14.5q19 0 35.5 10t17.5 28t-18 28t-39 10q-44 0 -58 -29q-12 -26 -41 -26q-25 0 -39 22.5t-2 46.5q19 37 57 57.5t83 20.5q59 0 104.5 -37t45.5 -93q0 -21 -9 -44.5t-26 -35.5q57 -31 57 -105q0 -67 -52 -107t-120 -40
q-67 0 -119.5 40.5t-52.5 106.5q0 19 13 32.5t32 13.5q20 0 35 -13.5t15 -32.5q0 -25 25 -40t52 -15t52.5 15.5t25.5 39.5q0 26 -23.5 39t-50.5 13z" />
    <glyph glyph-name="acute" unicode="&#xb4;" horiz-adv-x="555" 
d="M375 664q-3 -1 -134 -58q-12 -5 -20 -5q-16 0 -27 11.5t-11 26.5q0 19 16 34l110 93q40 30 76 0q30 -26 24 -61q-5 -27 -34 -41z" />
    <glyph glyph-name="mu" unicode="&#xb5;" horiz-adv-x="630" 
d="M197 -139q0 -36 -22.5 -63.5t-59.5 -27.5q-24 0 -43.5 17.5t-19.5 42.5q0 26 18 40q11 7 11 14v533q0 7 -10 15q-16 15 -16 39t18.5 41.5t42.5 17.5q37 0 59 -27t22 -64v-195q0 -69 31 -99.5t99 -30.5q52 0 83.5 33t31.5 85v207q0 37 21.5 64t57.5 27q25 0 43.5 -17.5
t18.5 -41.5t-16 -39q-10 -8 -10 -15v-304q0 -7 10 -15q16 -13 16 -39q0 -24 -18.5 -41.5t-43.5 -17.5q-27 0 -47 17t-22 43q-15 -30 -50.5 -45t-75.5 -15q-44 0 -76.5 11.5t-42.5 22.5l-10 12v-185z" />
    <glyph glyph-name="paragraph" unicode="&#xb6;" horiz-adv-x="566" 
d="M331 94v190h-90q-85 0 -145.5 63.5t-60.5 148.5q0 87 62 149.5t150 62.5h184q25 0 42 -17.5t17 -41.5q0 -34 -37 -53q-4 -4 -4 -10v-477q0 -5 3 -7q19 -14 19 -44q0 -25 -16 -41.5t-41 -16.5q-32 0 -56 22q-27 28 -27 72z" />
    <glyph glyph-name="periodcentered" unicode="&#xb7;" horiz-adv-x="292" 
d="M145 384q34 0 58.5 -24t24.5 -58t-24.5 -58t-58.5 -24q-33 0 -57 24t-24 58t24 58t57 24z" />
    <glyph glyph-name="cedilla" unicode="&#xb8;" horiz-adv-x="568" 
d="M296 -4l-3 -25q42 -2 65 -24.5t23 -61.5q0 -50 -37 -74.5t-87 -24.5q-55 0 -91 36q-18 20 -12 41.5t25 26.5t39 -9q13 -13 36 -13q36 0 36 23q0 19 -37 22q-17 2 -27.5 13t-10.5 26l12 49q7 22 25.5 29t33 -3t10.5 -31z" />
    <glyph glyph-name="onesuperior" unicode="&#xb9;" horiz-adv-x="364" 
d="M88 297q0 17 13.5 30t30.5 13h30v225l-26 -23q-13 -11 -30 -11q-19 0 -32 13.5t-13 31.5q0 21 17 35l98 85q14 13 31 13q19 0 32 -12.5t13 -33.5v-323h27q18 0 31.5 -13t13.5 -30q0 -19 -13.5 -32t-31.5 -13h-147q-18 0 -31 13t-13 32z" />
    <glyph glyph-name="ordmasculine" unicode="&#xba;" horiz-adv-x="450" 
d="M225 646q-44 0 -77 -31t-33 -73q0 -47 32.5 -80t77.5 -33q44 0 76.5 33t32.5 80q0 42 -32.5 73t-76.5 31zM225 342q-81 0 -138 58.5t-57 141.5q0 80 57 136t138 56q82 0 139 -56t57 -136q0 -83 -57 -141.5t-139 -58.5zM371 221h-300q-19 0 -30.5 11.5t-11.5 29.5
t11.5 29.5t30.5 11.5h300q19 0 30 -11.5t11 -29.5t-11 -29.5t-30 -11.5z" />
    <glyph glyph-name="guillemotright" unicode="&#xbb;" horiz-adv-x="624" 
d="M209 266l-146 166q-13 14 -13 37q0 22 15.5 37t38.5 15q25 0 42 -17l187 -201q13 -14 13 -37q0 -21 -14 -36l-186 -202q-20 -18 -42 -18t-37.5 16t-15.5 37q0 23 12 36q25 27 91 104zM450 266l-146 166q-13 14 -13 37q0 22 15.5 37t38.5 15q25 0 42 -17l187 -201
q13 -14 13 -37q0 -21 -14 -36l-186 -202q-20 -18 -42 -18t-37.5 16t-15.5 37q0 23 12 36q25 27 91 104z" />
    <glyph glyph-name="onequarter" unicode="&#xbc;" horiz-adv-x="1015" 
d="M778 292l-78 -97h78v97zM890 101h-19v-53q0 -20 -13.5 -34t-31.5 -14q-20 0 -34 14t-14 34v53h-160q-20 0 -33.5 13.5t-13.5 33.5q0 14 12 32q163 200 205 258q16 18 38 18q16 0 30.5 -13.5t14.5 -33.5v-214h19q19 0 33.5 -14.5t14.5 -33.5t-14.5 -32.5t-33.5 -13.5z
M371 -9q-21 0 -36 15.5t-15 36.5q0 11 5 24l259 612q16 37 51 37q23 0 38 -16.5t15 -38.5q0 -10 -5 -23l-261 -614q-14 -33 -51 -33zM104 297q0 17 13.5 30t30.5 13h30v225l-26 -23q-13 -11 -30 -11q-19 0 -32 13.5t-13 31.5q0 21 17 35l98 85q14 13 31 13q19 0 32 -12.5
t13 -33.5v-323h27q18 0 31.5 -13t13.5 -30q0 -19 -13.5 -32t-31.5 -13h-147q-18 0 -31 13t-13 32z" />
    <glyph glyph-name="onehalf" unicode="&#xbd;" horiz-adv-x="1027" 
d="M750 95h153q20 0 33.5 -14t13.5 -33q0 -21 -13.5 -34.5t-33.5 -13.5h-223q-22 0 -36 13.5t-14 34.5q0 30 10 55.5t32.5 47t38.5 33.5t47 32q4 3 25 16.5t32 22t22 24t11 30.5q0 25 -19 38t-46 13q-39 0 -54 -27q-14 -26 -41 -26q-26 0 -40.5 22.5t-2.5 47.5q39 79 138 79
q66 0 113.5 -37.5t47.5 -109.5q0 -48 -31 -83t-85 -70q-53 -36 -78 -61zM104 297q0 17 13.5 30t30.5 13h30v225l-26 -23q-13 -11 -30 -11q-19 0 -32 13.5t-13 31.5q0 21 17 35l98 85q14 13 31 13q19 0 32 -12.5t13 -33.5v-323h27q18 0 31.5 -13t13.5 -30q0 -19 -13.5 -32
t-31.5 -13h-147q-18 0 -31 13t-13 32zM370 -9q-21 0 -36 15.5t-15 36.5q0 11 5 24l259 612q16 37 51 37q23 0 38 -16.5t15 -38.5q0 -10 -5 -23l-261 -614q-14 -33 -51 -33z" />
    <glyph glyph-name="threequarters" unicode="&#xbe;" horiz-adv-x="1051" 
d="M814 292l-78 -97h78v97zM926 101h-19v-53q0 -20 -13.5 -34t-31.5 -14q-20 0 -34 14t-14 34v53h-160q-20 0 -33.5 13.5t-13.5 33.5q0 14 12 32q163 200 205 258q16 18 38 18q16 0 30.5 -13.5t14.5 -33.5v-214h19q19 0 33.5 -14.5t14.5 -33.5t-14.5 -32.5t-33.5 -13.5z
M426 -9q-21 0 -36 15.5t-15 36.5q0 11 5 24l259 612q16 37 51 37q23 0 38 -16.5t15 -38.5q0 -10 -5 -23l-261 -614q-14 -33 -51 -33zM253 449q-19 0 -33 14t-14 34q0 18 13.5 32.5t33.5 14.5q19 0 36 10.5t17 27.5q0 16 -19 27t-38 11q-43 0 -58 -29q-12 -26 -41 -26
q-24 0 -38.5 22.5t-2.5 46.5q18 37 56.5 57.5t83.5 20.5q59 0 104.5 -37t45.5 -93q0 -21 -9 -44.5t-26 -35.5q57 -31 57 -105q0 -67 -52 -107t-120 -40q-67 0 -119.5 40.5t-52.5 106.5q0 19 13 32.5t32 13.5q20 0 35 -13.5t15 -32.5q0 -25 25 -40t52 -15t52.5 15.5
t25.5 39.5q0 26 -23.5 39t-50.5 13z" />
    <glyph glyph-name="questiondown" unicode="&#xbf;" horiz-adv-x="429" 
d="M319 -90q15 12 35 12q23 0 39.5 -16t16.5 -38q0 -30 -24 -49q-61 -49 -149 -49q-111 0 -169 80q-34 45 -34 106q0 43 25 84.5t65.5 85t50.5 59.5q14 23 14 45v9q0 23 16 39t42 16q23 0 39.5 -16t16.5 -40v-8q0 -61 -34 -112q-11 -17 -41 -47.5t-47.5 -58t-17.5 -57.5
q0 -34 20 -53t52 -19q49 0 84 27zM247 345q-30 0 -50.5 21t-20.5 50t20.5 50t50.5 21q29 0 49.5 -21t20.5 -50t-20.5 -50t-49.5 -21z" />
    <glyph glyph-name="Agrave" unicode="&#xc0;" horiz-adv-x="719" 
d="M268 293h182l-65 171l-26 81h-1l-26 -82zM421 681l213 -562q2 -5 16 -9q12 -4 21 -18.5t9 -29.5q0 -26 -19.5 -44t-45.5 -18q-28 0 -52 18.5t-34 44.5l-46 122h-248l-45 -122q-10 -26 -34.5 -44.5t-52.5 -18.5q-26 0 -45 17.5t-19 43.5q0 37 30 49q14 4 15 9l213 562
q15 42 62 42q45 0 62 -42zM297 852q-43 21 -34 63q8 36 41 49q30 12 59 -10l110 -93q16 -15 16 -34q0 -15 -11 -26.5t-27 -11.5q-8 0 -20 5q-131 57 -134 58z" />
    <glyph glyph-name="Aacute" unicode="&#xc1;" horiz-adv-x="719" 
d="M268 293h182l-65 171l-26 81h-1l-26 -82zM421 681l213 -562q2 -5 16 -9q12 -4 21 -18.5t9 -29.5q0 -26 -19.5 -44t-45.5 -18q-28 0 -52 18.5t-34 44.5l-46 122h-248l-45 -122q-10 -26 -34.5 -44.5t-52.5 -18.5q-26 0 -45 17.5t-19 43.5q0 37 30 49q14 4 15 9l213 562
q15 42 62 42q45 0 62 -42zM427 852q-3 -1 -134 -58q-12 -5 -20 -5q-16 0 -27 11.5t-11 26.5q0 19 16 34l110 93q40 30 76 0q30 -26 24 -61q-5 -27 -34 -41z" />
    <glyph glyph-name="Acircumflex" unicode="&#xc2;" horiz-adv-x="719" 
d="M268 293h182l-65 171l-26 81h-1l-26 -82zM421 681l213 -562q2 -5 16 -9q12 -4 21 -18.5t9 -29.5q0 -26 -19.5 -44t-45.5 -18q-28 0 -52 18.5t-34 44.5l-46 122h-248l-45 -122q-10 -26 -34.5 -44.5t-52.5 -18.5q-26 0 -45 17.5t-19 43.5q0 37 30 49q14 4 15 9l213 562
q15 42 62 42q45 0 62 -42zM359 957q6 0 11 -1t11.5 -5t11.5 -7.5t15 -13l18.5 -18l25 -25l31.5 -30.5q13 -13 13 -28q0 -17 -12 -29t-30 -12q-14 0 -22 6l-73 48l-73 -48q-8 -6 -22 -6q-18 0 -30 12t-12 29q0 15 13 28l31.5 30.5l25 25l18.5 18t15 13t11.5 7.5t11.5 5t11 1z
" />
    <glyph glyph-name="Atilde" unicode="&#xc3;" horiz-adv-x="719" 
d="M268 293h182l-65 171l-26 81h-1l-26 -82zM421 681l213 -562q2 -5 16 -9q12 -4 21 -18.5t9 -29.5q0 -26 -19.5 -44t-45.5 -18q-28 0 -52 18.5t-34 44.5l-46 122h-248l-45 -122q-10 -26 -34.5 -44.5t-52.5 -18.5q-26 0 -45 17.5t-19 43.5q0 37 30 49q14 4 15 9l213 562
q15 42 62 42q45 0 62 -42zM486 952q28 -1 39 -26t-2 -48q-42 -75 -109 -75q-27 0 -64.5 25.5t-46.5 25.5q-13 0 -31.5 -25.5t-38.5 -26.5q-30 -1 -40 25.5t4 48.5q42 75 108 75q27 0 63.5 -25.5t47.5 -25.5q12 0 30.5 26t39.5 26z" />
    <glyph glyph-name="Adieresis" unicode="&#xc4;" horiz-adv-x="719" 
d="M268 293h182l-65 171l-26 81h-1l-26 -82zM421 681l213 -562q2 -5 16 -9q12 -4 21 -18.5t9 -29.5q0 -26 -19.5 -44t-45.5 -18q-28 0 -52 18.5t-34 44.5l-46 122h-248l-45 -122q-10 -26 -34.5 -44.5t-52.5 -18.5q-26 0 -45 17.5t-19 43.5q0 37 30 49q14 4 15 9l213 562
q15 42 62 42q45 0 62 -42zM177 855q0 29 20 49t49 20t49.5 -20t20.5 -49q0 -28 -20.5 -47.5t-49.5 -19.5t-49 19.5t-20 47.5zM404 855q0 29 20 49t49 20t49 -20t20 -49q0 -28 -20 -47.5t-49 -19.5t-49 19.5t-20 47.5z" />
    <glyph glyph-name="Aring" unicode="&#xc5;" horiz-adv-x="719" 
d="M634 119q1 -3 16 -9q13 -4 21.5 -18.5t8.5 -29.5q0 -18 -11 -34t-28 -23q-13 -5 -26 -5q-28 0 -52 18.5t-34 44.5l-46 122h-248l-45 -122q-10 -26 -34.5 -44.5t-52.5 -18.5q-25 0 -44.5 17.5t-19.5 43.5q0 38 30 49q2 1 6 2t6 2.5t3 4.5l213 562q2 4 3 7q-38 28 -38 73
q0 39 30 66t67 27q39 0 67.5 -25.5t28.5 -67.5q0 -47 -37 -74l3 -6zM450 293l-91 241l-91 -241h182zM359 724q16 0 28.5 10t12.5 27q0 16 -12.5 26t-28.5 10t-28.5 -10t-12.5 -26q0 -17 12 -27t29 -10z" />
    <glyph glyph-name="AE" unicode="&#xc6;" horiz-adv-x="997" 
d="M898 118q24 0 41 -17t17 -42q0 -24 -17.5 -41.5t-40.5 -17.5h-420q-26 0 -42.5 17t-16.5 42q0 40 35 53q6 4 6 9v57h-194l-77 -130q-13 -21 -36 -34.5t-47 -13.5q-27 0 -47 18t-20 44q0 19 12.5 35t26.5 18t17 6l330 552q24 41 57 41h397q25 0 42 -17.5t17 -41.5
q0 -25 -17 -42t-42 -17h-305q4 -16 4 -28v-160h247q24 0 41 -17.5t17 -41.5q0 -25 -16.5 -41.5t-41.5 -16.5h-247v-143q0 -19 -4 -30h324zM460 298v207l-123 -207h123z" />
    <glyph glyph-name="Ccedilla" unicode="&#xc7;" horiz-adv-x="670" 
d="M617 48q-86 -56 -193 -58l-5 -20q42 -2 65 -24.5t23 -61.5q0 -48 -37.5 -73.5t-86.5 -25.5q-56 0 -94 38q-10 12 -10.5 27.5t11.5 28.5q10 10 26 10.5t29 -9.5q12 -12 35 -12q36 0 36 22q0 19 -37 22q-17 2 -28 13t-11 26q0 19 11 46q-128 24 -213.5 126t-85.5 233
q0 151 105.5 259.5t262.5 108.5q92 0 173 -45q21 -12 28 -35t-4 -46q-11 -22 -36 -29.5t-47 4.5q-56 29 -125 29q-99 -5 -168 -76t-69 -170q0 -102 74.5 -173t173.5 -71q70 0 129 39q15 9 34 9q25 0 42.5 -17.5t17.5 -42.5q0 -35 -26 -52z" />
    <glyph glyph-name="Egrave" unicode="&#xc8;" horiz-adv-x="642" 
d="M540 0h-393q-24 0 -42 17t-18 41q0 34 24 48q10 5 10 13v474q0 10 -10 15q-24 14 -24 48q0 24 18 41t42 17h395q24 0 41.5 -18t17.5 -42q0 -25 -17 -42.5t-42 -17.5h-307q6 -10 6 -29v-158h246q24 0 41.5 -16.5t17.5 -39.5q0 -26 -17 -44t-42 -18h-246v-139q0 -23 -6 -30
h305q25 0 42.5 -18t17.5 -43q0 -24 -17.5 -41.5t-42.5 -17.5zM256 852q-43 21 -34 63q8 36 41 49q30 12 59 -10l110 -93q16 -15 16 -34q0 -15 -11 -26.5t-27 -11.5q-8 0 -20 5q-131 57 -134 58z" />
    <glyph glyph-name="Eacute" unicode="&#xc9;" horiz-adv-x="642" 
d="M540 0h-393q-24 0 -42 17t-18 41q0 34 24 48q10 5 10 13v474q0 10 -10 15q-24 14 -24 48q0 24 18 41t42 17h395q24 0 41.5 -18t17.5 -42q0 -25 -17 -42.5t-42 -17.5h-307q6 -10 6 -29v-158h246q24 0 41.5 -16.5t17.5 -39.5q0 -26 -17 -44t-42 -18h-246v-139q0 -23 -6 -30
h305q25 0 42.5 -18t17.5 -43q0 -24 -17.5 -41.5t-42.5 -17.5zM465 852q-3 -1 -134 -58q-12 -5 -20 -5q-16 0 -27 11.5t-11 26.5q0 19 16 34l110 93q40 30 76 0q30 -26 24 -61q-5 -27 -34 -41z" />
    <glyph glyph-name="Ecircumflex" unicode="&#xca;" horiz-adv-x="642" 
d="M540 0h-393q-24 0 -42 17t-18 41q0 34 24 48q10 5 10 13v474q0 10 -10 15q-24 14 -24 48q0 24 18 41t42 17h395q24 0 41.5 -18t17.5 -42q0 -25 -17 -42.5t-42 -17.5h-307q6 -10 6 -29v-158h246q24 0 41.5 -16.5t17.5 -39.5q0 -26 -17 -44t-42 -18h-246v-139q0 -23 -6 -30
h305q25 0 42.5 -18t17.5 -43q0 -24 -17.5 -41.5t-42.5 -17.5zM349 957q6 0 11 -1t11.5 -5t11.5 -7.5t15 -13l18.5 -18l25 -25l31.5 -30.5q13 -13 13 -28q0 -17 -12 -29t-30 -12q-14 0 -22 6l-73 48l-73 -48q-8 -6 -22 -6q-18 0 -30 12t-12 29q0 15 13 28l31.5 30.5l25 25
l18.5 18t15 13t11.5 7.5t11.5 5t11 1z" />
    <glyph glyph-name="Edieresis" unicode="&#xcb;" horiz-adv-x="642" 
d="M540 0h-393q-24 0 -42 17t-18 41q0 34 24 48q10 5 10 13v474q0 10 -10 15q-24 14 -24 48q0 24 18 41t42 17h395q24 0 41.5 -18t17.5 -42q0 -25 -17 -42.5t-42 -17.5h-307q6 -10 6 -29v-158h246q24 0 41.5 -16.5t17.5 -39.5q0 -26 -17 -44t-42 -18h-246v-139q0 -23 -6 -30
h305q25 0 42.5 -18t17.5 -43q0 -24 -17.5 -41.5t-42.5 -17.5zM162 855q0 29 20 49t49 20t49.5 -20t20.5 -49q0 -28 -20.5 -47.5t-49.5 -19.5t-49 19.5t-20 47.5zM389 855q0 29 20 49t49 20t49 -20t20 -49q0 -28 -20 -47.5t-49 -19.5t-49 19.5t-20 47.5z" />
    <glyph glyph-name="Igrave" unicode="&#xcc;" horiz-adv-x="301" 
d="M81 852q-43 21 -34 63q8 36 41 49q30 12 59 -10l110 -93q16 -15 16 -34q0 -15 -11 -26.5t-27 -11.5q-8 0 -20 5q-131 57 -134 58zM150 0q23 0 40.5 18t17.5 41v596q0 25 -17 42t-41 17t-41.5 -17t-17.5 -42v-596q0 -25 17.5 -42t41.5 -17z" />
    <glyph glyph-name="Iacute" unicode="&#xcd;" horiz-adv-x="301" 
d="M151 0q-24 0 -41.5 17t-17.5 42v596q0 25 17.5 42t41.5 17t41 -17t17 -42v-596q0 -23 -17.5 -41t-40.5 -18zM219 852q-3 -1 -134 -58q-12 -5 -20 -5q-16 0 -27 11.5t-11 26.5q0 19 16 34l110 93q40 30 76 0q30 -26 24 -61q-5 -27 -34 -41z" />
    <glyph glyph-name="Icircumflex" unicode="&#xce;" horiz-adv-x="301" 
d="M150 0q-24 0 -41.5 17t-17.5 42v596q0 25 17.5 42t41.5 17t41 -17t17 -42v-596q0 -23 -17.5 -41t-40.5 -18zM149 957q6 0 11 -1t11.5 -5t11.5 -7.5t15 -13l18.5 -18l25 -25l31.5 -30.5q13 -13 13 -28q0 -17 -12 -29t-30 -12q-14 0 -22 6l-73 48l-73 -48q-8 -6 -22 -6
q-18 0 -30 12t-12 29q0 15 13 28l31.5 30.5l25 25l18.5 18t15 13t11.5 7.5t11.5 5t11 1z" />
    <glyph glyph-name="Idieresis" unicode="&#xcf;" horiz-adv-x="301" 
d="M151 0q23 0 40.5 18t17.5 41v596q0 25 -17 42t-41 17t-41.5 -17t-17.5 -42v-596q0 -25 17.5 -42t41.5 -17zM-32 855q0 29 20 49t49 20t49.5 -20t20.5 -49q0 -28 -20.5 -47.5t-49.5 -19.5t-49 19.5t-20 47.5zM195 855q0 29 20 49t49 20t49 -20t20 -49q0 -28 -20 -47.5
t-49 -19.5t-49 19.5t-20 47.5z" />
    <glyph glyph-name="Eth" unicode="&#xd0;" horiz-adv-x="734" 
d="M682 357q0 -97 -39 -181t-119 -131q-77 -45 -160 -45h-217q-24 0 -42 17t-18 41q0 34 24 48q10 5 10 10v206h-75q-13 0 -23 10.5t-10 24.5q0 13 9.5 22t23.5 9h75v211q0 5 -10 10q-24 14 -24 48q0 24 18 41t42 17h217q83 0 160 -45q79 -46 118.5 -129.5t39.5 -183.5z
M237 120h77q123 0 187 60q62 59 62 178q0 117 -62 177q-64 60 -187 60h-77q4 -9 4 -29v-178h91q14 0 24 -9t10 -22q0 -14 -10 -24.5t-24 -10.5h-91v-173q0 -20 -4 -29z" />
    <glyph glyph-name="Ntilde" unicode="&#xd1;" horiz-adv-x="818" 
d="M694 588v-462q0 -12 10 -17q27 -13 27 -52q0 -26 -20.5 -41.5t-46.5 -15.5q-43 0 -78 42l-297 359l-48 66h-2l4 -70v-308q0 -39 -25.5 -64t-64.5 -25q-24 0 -44.5 17t-20.5 40q0 39 25 52q10 5 10 17v463q0 10 -11 17q-25 13 -25 50q0 24 19 41t44 17q46 0 75 -36
l303 -365l48 -66h2l-4 70v308q0 39 25.5 64t64.5 25q24 0 44.5 -17t20.5 -40q0 -39 -25 -52q-10 -5 -10 -17zM536 952q28 -1 39 -26t-2 -48q-42 -75 -109 -75q-28 0 -65 25.5t-46 25.5q-13 0 -31.5 -25.5t-38.5 -26.5q-30 -1 -40 25.5t4 48.5q42 75 108 75q27 0 63.5 -25.5
t47.5 -25.5q12 0 30.5 26t39.5 26z" />
    <glyph glyph-name="Ograve" unicode="&#xd2;" horiz-adv-x="844" 
d="M420 604q103 0 176 -72t73 -173q0 -103 -72 -175.5t-173 -72.5q-104 0 -176 72.5t-72 175.5q0 101 71.5 173t172.5 72zM424 -10q146 0 255.5 109t109.5 260q0 146 -107 255.5t-258 109.5q-148 0 -258.5 -107t-110.5 -258q0 -150 108.5 -259.5t260.5 -109.5zM360 852
q-43 21 -34 63q8 36 41 49q30 12 59 -10l110 -93q16 -15 16 -34q0 -15 -11 -26.5t-27 -11.5q-8 0 -20 5q-131 57 -134 58z" />
    <glyph glyph-name="Oacute" unicode="&#xd3;" horiz-adv-x="844" 
d="M420 604q-101 0 -172.5 -72t-71.5 -173q0 -103 72 -175.5t176 -72.5q101 0 173 72.5t72 175.5q0 101 -73 173t-176 72zM424 -10q-152 0 -260.5 109.5t-108.5 259.5q0 151 110.5 258t258.5 107q151 0 258 -109.5t107 -255.5q0 -151 -109.5 -260t-255.5 -109zM493 852
q-3 -1 -134 -58q-12 -5 -20 -5q-16 0 -27 11.5t-11 26.5q0 19 16 34l110 93q40 30 76 0q30 -26 24 -61q-5 -27 -34 -41z" />
    <glyph glyph-name="Ocircumflex" unicode="&#xd4;" horiz-adv-x="844" 
d="M420 604q-101 0 -172.5 -72t-71.5 -173q0 -103 72 -175.5t176 -72.5q101 0 173 72.5t72 175.5q0 101 -73 173t-176 72zM424 -10q-152 0 -260.5 109.5t-108.5 259.5q0 151 110.5 258t258.5 107q151 0 258 -109.5t107 -255.5q0 -151 -109.5 -260t-255.5 -109zM422 957
q6 0 11 -1t11.5 -5t11.5 -7.5t15 -13l18.5 -18l25 -25l31.5 -30.5q13 -13 13 -28q0 -17 -12 -29t-30 -12q-14 0 -22 6l-73 48l-73 -48q-8 -6 -22 -6q-18 0 -30 12t-12 29q0 15 13 28l31.5 30.5l25 25l18.5 18t15 13t11.5 7.5t11.5 5t11 1z" />
    <glyph glyph-name="Otilde" unicode="&#xd5;" horiz-adv-x="844" 
d="M420 604q103 0 176 -72t73 -173q0 -103 -72 -175.5t-173 -72.5q-104 0 -176 72.5t-72 175.5q0 101 71.5 173t172.5 72zM424 -10q146 0 255.5 109t109.5 260q0 146 -107 255.5t-258 109.5q-148 0 -258.5 -107t-110.5 -258q0 -150 108.5 -259.5t260.5 -109.5zM549 952
q28 -1 39 -26t-2 -48q-42 -75 -109 -75q-27 0 -64 25.5t-47 25.5q-13 0 -31.5 -25.5t-38.5 -26.5q-30 -1 -40 25.5t4 48.5q42 75 108 75q27 0 63.5 -25.5t47.5 -25.5q12 0 30.5 26t39.5 26z" />
    <glyph glyph-name="Odieresis" unicode="&#xd6;" horiz-adv-x="844" 
d="M420 604q103 0 176 -72t73 -173q0 -103 -72 -175.5t-173 -72.5q-104 0 -176 72.5t-72 175.5q0 101 71.5 173t172.5 72zM424 -10q146 0 255.5 109t109.5 260q0 146 -107 255.5t-258 109.5q-148 0 -258.5 -107t-110.5 -258q0 -150 108.5 -259.5t260.5 -109.5zM240 855
q0 29 20 49t49 20t49.5 -20t20.5 -49q0 -28 -20.5 -47.5t-49.5 -19.5t-49 19.5t-20 47.5zM467 855q0 29 20 49t49 20t49 -20t20 -49q0 -28 -20 -47.5t-49 -19.5t-49 19.5t-20 47.5z" />
    <glyph glyph-name="multiply" unicode="&#xd7;" horiz-adv-x="482" 
d="M242 204l-63 -64q-19 -16 -41 -16q-24 0 -40 16.5t-16 39.5q0 22 17 39l64 64l-63 63q-18 15 -18 40q0 22 17.5 39.5t39.5 17.5q17 0 38 -17l64 -66q21 23 63 65q17 17 40 17q24 0 40 -17t16 -40q0 -24 -15 -38l-66 -65l64 -62q17 -17 17 -40q0 -24 -16.5 -40.5
t-39.5 -16.5t-38 17z" />
    <glyph glyph-name="Oslash" unicode="&#xd8;" horiz-adv-x="844" 
d="M673 672l-20 -29q63 -52 99.5 -126.5t36.5 -160.5q0 -152 -107.5 -259t-260.5 -107q-92 0 -175 44l-20 -29q-9 -15 -27 -15q-14 0 -24.5 9.5t-10.5 23.5q0 10 6 18l20 30q-63 51 -99 126t-36 159q0 153 107 260.5t259 107.5q95 0 177 -45l20 30q7 12 21.5 14.5t26.5 -5.5
q24 -19 7 -46zM532 581q-50 26 -111 26q-102 0 -175.5 -74t-73.5 -177q0 -113 85 -185zM312 132q52 -25 109 -25q104 0 177.5 73t73.5 176q0 112 -86 188z" />
    <glyph glyph-name="Ugrave" unicode="&#xd9;" horiz-adv-x="773" 
d="M677 604v-354q0 -101 -77 -172t-182 -78h-71q-99 8 -175.5 81t-76.5 171v352q0 6 -3 7q-20 14 -20 44q0 25 17 42t42 17t44 -12q39 -22 39 -77v-374q0 -54 45 -94t100 -40h46q55 1 104.5 41t49.5 93v374q0 54 40 77q17 12 43 12q24 0 41.5 -17t17.5 -42q0 -29 -21 -44
q-3 -1 -3 -7zM308 852q-43 21 -34 63q8 36 41 49q30 12 59 -10l110 -93q16 -15 16 -34q0 -15 -11 -26.5t-27 -11.5q-8 0 -20 5q-131 57 -134 58z" />
    <glyph glyph-name="Uacute" unicode="&#xda;" horiz-adv-x="773" 
d="M677 604v-354q0 -101 -77 -172t-182 -78h-71q-99 8 -175.5 81t-76.5 171v352q0 6 -3 7q-20 14 -20 44q0 25 17 42t42 17t44 -12q39 -22 39 -77v-374q0 -54 45 -94t100 -40h46q55 1 104.5 41t49.5 93v374q0 54 40 77q17 12 43 12q24 0 41.5 -17t17.5 -42q0 -29 -21 -44
q-3 -1 -3 -7zM475 852q-3 -1 -134 -58q-12 -5 -20 -5q-16 0 -27 11.5t-11 26.5q0 19 16 34l110 93q40 30 76 0q30 -26 24 -61q-5 -27 -34 -41z" />
    <glyph glyph-name="Ucircumflex" unicode="&#xdb;" horiz-adv-x="773" 
d="M677 604v-354q0 -101 -77 -172t-182 -78h-71q-99 8 -175.5 81t-76.5 171v352q0 6 -3 7q-20 14 -20 44q0 25 17 42t42 17t44 -12q39 -22 39 -77v-374q0 -54 45 -94t100 -40h46q55 1 104.5 41t49.5 93v374q0 54 40 77q17 12 43 12q24 0 41.5 -17t17.5 -42q0 -29 -21 -44
q-3 -1 -3 -7zM386 957q6 0 11 -1t11.5 -5t11.5 -7.5t15 -13l18.5 -18l25 -25l31.5 -30.5q13 -13 13 -28q0 -17 -12 -29t-30 -12q-14 0 -22 6l-73 48l-73 -48q-8 -6 -22 -6q-18 0 -30 12t-12 29q0 15 13 28l31.5 30.5l25 25l18.5 18t15 13t11.5 7.5t11.5 5t11 1z" />
    <glyph glyph-name="Udieresis" unicode="&#xdc;" horiz-adv-x="773" 
d="M677 604v-354q0 -101 -77 -172t-182 -78h-71q-99 8 -175.5 81t-76.5 171v352q0 6 -3 7q-20 14 -20 44q0 25 17 42t42 17t44 -12q39 -22 39 -77v-374q0 -54 45 -94t100 -40h46q55 1 104.5 41t49.5 93v374q0 54 40 77q17 12 43 12q24 0 41.5 -17t17.5 -42q0 -29 -21 -44
q-3 -1 -3 -7zM204 855q0 29 20 49t49 20t49.5 -20t20.5 -49q0 -28 -20.5 -47.5t-49.5 -19.5t-49 19.5t-20 47.5zM431 855q0 29 20 49t49 20t49 -20t20 -49q0 -28 -20 -47.5t-49 -19.5t-49 19.5t-20 47.5z" />
    <glyph glyph-name="Yacute" unicode="&#xdd;" horiz-adv-x="656" 
d="M352 464l116 204q24 44 74 46h4q29 0 52 -19t23 -48q0 -22 -13.5 -39t-34.5 -17q-12 0 -14 -4l-172 -298v-230q0 -24 -17 -41.5t-42 -17.5t-42 17.5t-17 41.5v230l-172 298q-2 4 -14 4q-21 0 -34.5 17t-13.5 39q0 29 23 48t52 19h4q50 -2 74 -46l116 -204l23 -52h1z
M412 852q-3 -1 -134 -58q-12 -5 -20 -5q-16 0 -27 11.5t-11 26.5q0 19 16 34l110 93q40 30 76 0q30 -26 24 -61q-5 -27 -34 -41z" />
    <glyph glyph-name="Thorn" unicode="&#xde;" horiz-adv-x="649" 
d="M226 620v-51h173q89 0 151 -63t62 -153q0 -86 -61.5 -150t-148.5 -64h-176v-44q0 -46 -27 -72q-25 -23 -57 -23q-23 0 -39.5 17.5t-16.5 41.5q0 27 15 41q8 6 8 14v489q0 6 -9 13q-14 12 -14 40q0 25 17 42t41 17q30 0 55 -22q27 -27 27 -73zM226 257h173q39 0 67.5 28
t28.5 68t-28.5 69t-67.5 29h-173v-194z" />
    <glyph glyph-name="germandbls" unicode="&#xdf;" horiz-adv-x="652" 
d="M508 379q46 -11 71.5 -58.5t25.5 -111.5q0 -87 -61.5 -148t-151.5 -61h-83q-24 0 -40.5 16.5t-16.5 40.5q0 23 17 39.5t40 16.5h80q45 0 74 25.5t29 70.5q0 49 -30.5 73.5t-79.5 24.5q-24 0 -41 16t-17 40q0 23 16.5 39.5t39.5 16.5q29 0 52 25q25 25 25 67
q0 41 -28.5 66t-69.5 25h-32q-40 0 -71 -24t-31 -62v-502q0 -35 -23 -62t-58 -27q-23 0 -40 16.5t-17 40.5q0 27 22 43q3 3 3 8v479q0 83 60.5 143t143.5 60h51q84 0 144 -60.5t60 -144.5q0 -114 -63 -131z" />
    <glyph glyph-name="agrave" unicode="&#xe0;" horiz-adv-x="547" 
d="M461 350v-236q0 -3 11 -12q18 -15 18 -42q0 -25 -20 -43t-44 -18q-49 0 -73 44q-48 -48 -126 -48q-79 0 -139.5 51t-60.5 130q0 84 59.5 129.5t146.5 45.5q52 0 115 -28q0 46 -12 67q-23 35 -89 35q-35 0 -89 -13q-10 -2 -15 -2q-23 0 -39.5 14.5t-16.5 37.5q0 43 42 56
q63 17 121 17q98 0 154 -46.5t57 -138.5zM143 171q0 -32 25.5 -50.5t59.5 -18.5q45 0 82.5 27t37.5 71v33q-34 21 -89 21q-116 0 -116 -83zM181 664q-43 21 -34 63q8 36 41 49q30 12 59 -10l110 -93q16 -15 16 -34q0 -15 -11 -26.5t-27 -11.5q-8 0 -20 5q-131 57 -134 58z
" />
    <glyph glyph-name="aacute" unicode="&#xe1;" horiz-adv-x="547" 
d="M461 350v-236q0 -3 11 -12q18 -15 18 -42q0 -25 -20 -43t-44 -18q-49 0 -73 44q-48 -48 -126 -48q-79 0 -139.5 51t-60.5 130q0 84 59.5 129.5t146.5 45.5q52 0 115 -28q0 46 -12 67q-23 35 -89 35q-35 0 -89 -13q-10 -2 -15 -2q-23 0 -39.5 14.5t-16.5 37.5q0 43 42 56
q63 17 121 17q98 0 154 -46.5t57 -138.5zM143 171q0 -32 25.5 -50.5t59.5 -18.5q45 0 82.5 27t37.5 71v33q-34 21 -89 21q-116 0 -116 -83zM350 664q-3 -1 -134 -58q-12 -5 -20 -5q-16 0 -27 11.5t-11 26.5q0 19 16 34l110 93q40 30 76 0q30 -26 24 -61q-5 -27 -34 -41z" />
    <glyph glyph-name="acircumflex" unicode="&#xe2;" horiz-adv-x="547" 
d="M461 350v-236q0 -3 11 -12q18 -15 18 -42q0 -25 -20 -43t-44 -18q-49 0 -73 44q-48 -48 -126 -48q-79 0 -139.5 51t-60.5 130q0 84 59.5 129.5t146.5 45.5q52 0 115 -28q0 46 -12 67q-23 35 -89 35q-35 0 -89 -13q-10 -2 -15 -2q-23 0 -39.5 14.5t-16.5 37.5q0 43 42 56
q63 17 121 17q98 0 154 -46.5t57 -138.5zM143 171q0 -32 25.5 -50.5t59.5 -18.5q45 0 82.5 27t37.5 71v33q-34 21 -89 21q-116 0 -116 -83zM258 769q6 0 11 -1t11.5 -5t11.5 -7.5t15 -13l18.5 -18l25 -25l31.5 -30.5q13 -13 13 -28q0 -17 -12 -29t-30 -12q-14 0 -22 6
l-73 48l-73 -48q-8 -6 -22 -6q-18 0 -30 12t-12 29q0 15 13 28l31.5 30.5l25 25l18.5 18t15 13t11.5 7.5t11.5 5t11 1z" />
    <glyph glyph-name="atilde" unicode="&#xe3;" horiz-adv-x="547" 
d="M461 350v-236q0 -3 11 -12q18 -15 18 -42q0 -25 -20 -43t-44 -18q-49 0 -73 44q-48 -48 -126 -48q-79 0 -139.5 51t-60.5 130q0 84 59.5 129.5t146.5 45.5q52 0 115 -28q0 46 -12 67q-23 35 -89 35q-35 0 -89 -13q-10 -2 -15 -2q-23 0 -39.5 14.5t-16.5 37.5q0 43 42 56
q63 17 121 17q98 0 154 -46.5t57 -138.5zM143 171q0 -32 25.5 -50.5t59.5 -18.5q45 0 82.5 27t37.5 71v33q-34 21 -89 21q-116 0 -116 -83zM395 764q28 -1 39 -26t-2 -48q-42 -75 -109 -75q-27 0 -64 25.5t-47 25.5q-13 0 -31.5 -25.5t-38.5 -26.5q-30 -1 -40 25.5t4 48.5
q42 75 108 75q27 0 63.5 -25.5t47.5 -25.5q12 0 30.5 26t39.5 26z" />
    <glyph glyph-name="adieresis" unicode="&#xe4;" horiz-adv-x="562" 
d="M461 350v-236q0 -3 11 -12q18 -15 18 -42q0 -25 -20 -43t-44 -18q-49 0 -73 44q-48 -48 -126 -48q-79 0 -139.5 51t-60.5 130q0 84 59.5 129.5t146.5 45.5q52 0 115 -28q0 46 -12 67q-23 35 -89 35q-35 0 -89 -13q-10 -2 -15 -2q-23 0 -39.5 14.5t-16.5 37.5q0 43 42 56
q63 17 121 17q98 0 154 -46.5t57 -138.5zM143 171q0 -32 25.5 -50.5t59.5 -18.5q45 0 82.5 27t37.5 71v33q-34 21 -89 21q-116 0 -116 -83zM80 667q0 29 20 49t49 20t49.5 -20t20.5 -49q0 -28 -20.5 -47.5t-49.5 -19.5t-49 19.5t-20 47.5zM307 667q0 29 20 49t49 20t49 -20
t20 -49q0 -28 -20 -47.5t-49 -19.5t-49 19.5t-20 47.5z" />
    <glyph glyph-name="aring" unicode="&#xe5;" horiz-adv-x="547" 
d="M461 350v-236q0 -3 11 -12q18 -15 18 -42q0 -25 -20 -43t-44 -18q-49 0 -73 44q-48 -48 -126 -48q-79 0 -139.5 51t-60.5 130q0 84 59.5 129.5t146.5 45.5q52 0 115 -28q0 46 -12 67q-23 35 -89 35q-35 0 -89 -13q-10 -2 -15 -2q-23 0 -39.5 14.5t-16.5 37.5q0 43 42 56
q63 17 121 17q98 0 154 -46.5t57 -138.5zM143 171q0 -32 25.5 -50.5t59.5 -18.5q45 0 82.5 27t37.5 71v33q-34 21 -89 21q-116 0 -116 -83zM260 563q-36 0 -66.5 27t-30.5 67q0 39 30 66t67 27q39 0 67.5 -25.5t28.5 -67.5q0 -43 -29.5 -68.5t-66.5 -25.5zM260 620
q16 0 28.5 10t12.5 27q0 16 -12.5 26t-28.5 10t-28.5 -10t-12.5 -26q0 -17 12 -27t29 -10z" />
    <glyph glyph-name="ae" unicode="&#xe6;" horiz-adv-x="881" 
d="M790 211h-321q15 -42 53.5 -72t80.5 -30q61 0 123 40q32 20 63 2.5t31 -53.5q0 -15 -6 -27t-12 -17l-7 -5q-92 -54 -193 -54q-125 0 -201 103q-26 -45 -72 -74t-102 -29q-79 0 -139.5 51t-60.5 130q0 84 59.5 128t146.5 44q59 0 115 -25q0 46 -12 67q-23 35 -89 35
q-35 0 -89 -13q-10 -2 -15 -2q-23 0 -39.5 14.5t-16.5 37.5q0 43 42 56q63 17 121 17q119 0 175 -72q0 -2 2 -2q74 74 175 74q105 0 176 -79t71 -187q0 -22 -18.5 -40t-40.5 -18zM143 171q0 -32 25.5 -50.5t59.5 -18.5q45 0 82.5 27t37.5 71v33q-34 21 -89 21
q-116 0 -116 -83zM604 417q-50 0 -84.5 -30t-50.5 -81h262q-8 48 -44 79.5t-83 31.5z" />
    <glyph glyph-name="ccedilla" unicode="&#xe7;" horiz-adv-x="543" 
d="M323 -5l-6 -27q42 -2 65 -24.5t23 -61.5q0 -48 -37.5 -73.5t-86.5 -25.5q-56 0 -92 38q-12 12 -12 28t12.5 27.5t28.5 11.5q15 0 26 -10q12 -14 34 -14q36 0 36 24q0 19 -37 22q-17 2 -27.5 13t-10.5 26l12 53q-91 20 -150 94t-59 169q0 112 79 191t190 79q91 0 165 -55
q25 -20 25 -49q0 -24 -18.5 -42t-43.5 -18q-21 0 -37 12q-40 31 -90 31q-62 0 -105.5 -43.5t-43.5 -105.5q0 -61 43.5 -104.5t104.5 -43.5q48 0 91 32q15 10 35 10q24 0 44 -17.5t20 -42.5q0 -28 -25 -48q-67 -51 -153 -56z" />
    <glyph glyph-name="egrave" unicode="&#xe8;" horiz-adv-x="584" 
d="M299 417q-50 0 -84.5 -30t-50.5 -81h262q-8 48 -44 79.5t-83 31.5zM485 215h-321q12 -44 50.5 -75t85.5 -31q66 0 126 33q19 9 37 7q22 -2 37.5 -18.5t16.5 -38.5q0 -39 -34 -56q-93 -41 -184 -41q-109 0 -183 80.5t-74 189.5t73.5 189.5t181.5 80.5q105 0 176 -77
t71 -185q0 -22 -18.5 -40t-40.5 -18zM243 664q-43 21 -34 63q8 36 41 49q30 12 59 -10l110 -93q16 -15 16 -34q0 -15 -11 -26.5t-27 -11.5q-8 0 -20 5q-131 57 -134 58z" />
    <glyph glyph-name="eacute" unicode="&#xe9;" horiz-adv-x="584" 
d="M299 417q-50 0 -84.5 -30t-50.5 -81h262q-8 48 -44 79.5t-83 31.5zM485 215h-321q12 -44 50.5 -75t85.5 -31q66 0 126 33q19 9 37 7q22 -2 37.5 -18.5t16.5 -38.5q0 -39 -34 -56q-93 -41 -184 -41q-109 0 -183 80.5t-74 189.5t73.5 189.5t181.5 80.5q105 0 176 -77
t71 -185q0 -22 -18.5 -40t-40.5 -18zM375 664q-3 -1 -134 -58q-12 -5 -20 -5q-16 0 -27 11.5t-11 26.5q0 19 16 34l110 93q40 30 76 0q30 -26 24 -61q-5 -27 -34 -41z" />
    <glyph glyph-name="ecircumflex" unicode="&#xea;" horiz-adv-x="584" 
d="M299 417q-50 0 -84.5 -30t-50.5 -81h262q-8 48 -44 79.5t-83 31.5zM485 215h-321q12 -44 50.5 -75t85.5 -31q66 0 126 33q19 9 37 7q22 -2 37.5 -18.5t16.5 -38.5q0 -39 -34 -56q-93 -41 -184 -41q-109 0 -183 80.5t-74 189.5t73.5 189.5t181.5 80.5q105 0 176 -77
t71 -185q0 -22 -18.5 -40t-40.5 -18zM297 769q6 0 11 -1t11.5 -5t11.5 -7.5t15 -13l18.5 -18l25 -25l31.5 -30.5q13 -13 13 -28q0 -17 -12 -29t-30 -12q-14 0 -22 6l-73 48l-73 -48q-8 -6 -22 -6q-18 0 -30 12t-12 29q0 15 13 28l31.5 30.5l25 25l18.5 18t15 13t11.5 7.5
t11.5 5t11 1z" />
    <glyph glyph-name="edieresis" unicode="&#xeb;" horiz-adv-x="584" 
d="M299 417q-50 0 -84.5 -30t-50.5 -81h262q-8 48 -44 79.5t-83 31.5zM485 215h-321q12 -44 50.5 -75t85.5 -31q66 0 126 33q19 9 37 7q22 -2 37.5 -18.5t16.5 -38.5q0 -39 -34 -56q-93 -41 -184 -41q-109 0 -183 80.5t-74 189.5t73.5 189.5t181.5 80.5q105 0 176 -77
t71 -185q0 -22 -18.5 -40t-40.5 -18zM117 667q0 29 20 49t49 20t49.5 -20t20.5 -49q0 -28 -20.5 -47.5t-49.5 -19.5t-49 19.5t-20 47.5zM344 667q0 29 20 49t49 20t49 -20t20 -49q0 -28 -20 -47.5t-49 -19.5t-49 19.5t-20 47.5z" />
    <glyph glyph-name="igrave" unicode="&#xec;" 
d="M77 421q-25 13 -25 52q0 23 20.5 40t44.5 17q39 0 64.5 -25t25.5 -64v-315q0 -12 10 -17q25 -13 25 -52q0 -23 -20.5 -40t-44.5 -17q-39 0 -64.5 25t-25.5 64v315q0 12 -10 17zM57 664q-43 21 -34 63q8 36 41 49q30 12 59 -10l110 -93q16 -15 16 -34q0 -15 -11 -26.5
t-27 -11.5q-8 0 -20 5q-131 57 -134 58z" />
    <glyph glyph-name="iacute" unicode="&#xed;" 
d="M73 421q-25 13 -25 52q0 23 20.5 40t44.5 17q39 0 64.5 -25t25.5 -64v-315q0 -12 10 -17q25 -13 25 -52q0 -23 -20.5 -40t-44.5 -17q-39 0 -64.5 25t-25.5 64v315q0 12 -10 17zM206 664q-3 -1 -134 -58q-12 -5 -20 -5q-16 0 -27 11.5t-11 26.5q0 19 16 34l110 93
q40 30 76 0q30 -26 24 -61q-5 -27 -34 -41z" />
    <glyph glyph-name="icircumflex" unicode="&#xee;" 
d="M76 421q-25 13 -25 52q0 23 20.5 40t44.5 17q39 0 64.5 -25t25.5 -64v-315q0 -12 10 -17q25 -13 25 -52q0 -23 -20.5 -40t-44.5 -17q-39 0 -64.5 25t-25.5 64v315q0 12 -10 17zM129 766q6 0 11 -1t11.5 -5t11.5 -7.5t15 -13l18.5 -18l25 -25l31.5 -30.5q13 -13 13 -28
q0 -17 -12 -29t-30 -12q-14 0 -22 6l-73 48l-73 -48q-8 -6 -22 -6q-18 0 -30 12t-12 29q0 15 13 28l31.5 30.5l25 25l18.5 18t15 13t11.5 7.5t11.5 5t11 1z" />
    <glyph glyph-name="idieresis" unicode="&#xef;" 
d="M-47 667q0 29 20 49t49 20t49.5 -20t20.5 -49q0 -28 -20.5 -47.5t-49.5 -19.5t-49 19.5t-20 47.5zM160 667q0 29 20 49t49 20t49 -20t20 -49q0 -28 -20 -47.5t-49 -19.5t-49 19.5t-20 47.5zM77 421q-25 13 -25 52q0 23 20.5 40t44.5 17q39 0 64.5 -25t25.5 -64v-315
q0 -12 10 -17q25 -13 25 -52q0 -23 -20.5 -40t-44.5 -17q-39 0 -64.5 25t-25.5 64v315q0 12 -10 17z" />
    <glyph glyph-name="eth" unicode="&#xf0;" horiz-adv-x="617" 
d="M237 565q-16 0 -27.5 10.5t-11.5 27.5q0 24 19 33l6 3l-23 8q-16 6 -27 22.5t-11 34.5q0 29 23 43.5t50 6.5q44 -14 105 -43l24.5 15.5l22.5 14.5q10 5 20 5q16 0 28 -11t12 -28q0 -22 -20 -35l-14 -9q82 -63 122 -155.5t40 -199.5q0 -37 -5 -77q-13 -99 -88 -166
t-176 -67q-110 0 -188 78t-78 188q0 111 78 188.5t188 77.5h9q50 -2 97 -21q-31 49 -102 93q-4 -2 -23 -14t-29 -17q-10 -6 -21 -6zM306 417q-62 0 -106.5 -44.5t-44.5 -108.5q0 -62 44.5 -106.5t106.5 -44.5q63 0 107.5 44.5t44.5 106.5q0 64 -44.5 108.5t-107.5 44.5z" />
    <glyph glyph-name="ntilde" unicode="&#xf1;" horiz-adv-x="661" 
d="M82 109q10 5 10 17v286q0 6 -11 15q-18 15 -18 42q0 25 20 43t44 18q31 0 51.5 -18t24.5 -53q20 35 59 53t75 18q107 0 169.5 -57t62.5 -175v-172q0 -12 10 -17q25 -13 25 -52q0 -23 -20 -40t-45 -17q-39 0 -64.5 25t-25.5 64v215q0 107 -119 107q-50 0 -84 -33t-34 -84
v-205q0 -39 -25.5 -64t-64.5 -25q-27 0 -46 16.5t-19 40.5q0 39 25 52zM460 764q28 -1 39 -26t-2 -48q-42 -75 -109 -75q-28 0 -65 25.5t-46 25.5q-13 0 -31.5 -25.5t-38.5 -26.5q-30 -1 -40 25.5t4 48.5q42 75 108 75q27 0 63.5 -25.5t47.5 -25.5q12 0 30.5 26t39.5 26z
" />
    <glyph glyph-name="ograve" unicode="&#xf2;" horiz-adv-x="621" 
d="M310 414q62 0 106 -44t44 -106q0 -61 -44 -104.5t-106 -43.5t-105 43.5t-43 104.5q0 62 43 106t105 44zM310 -4q111 0 190 79t79 189q0 112 -78.5 190.5t-190.5 78.5q-111 0 -189.5 -79t-78.5 -190q0 -110 79 -189t189 -79zM241 664q-43 21 -34 63q8 36 41 49
q30 12 59 -10l110 -93q16 -15 16 -34q0 -15 -11 -26.5t-27 -11.5q-8 0 -20 5q-131 57 -134 58z" />
    <glyph glyph-name="oacute" unicode="&#xf3;" horiz-adv-x="621" 
d="M310 414q-62 0 -105 -44t-43 -106q0 -61 43 -104.5t105 -43.5t106 43.5t44 104.5q0 62 -44 106t-106 44zM310 -4q-110 0 -189 79t-79 189q0 111 78.5 190t189.5 79q112 0 190.5 -78.5t78.5 -190.5q0 -110 -79 -189t-190 -79zM378 664q-3 -1 -134 -58q-12 -5 -20 -5
q-16 0 -27 11.5t-11 26.5q0 19 16 34l110 93q40 30 76 0q30 -26 24 -61q-5 -27 -34 -41z" />
    <glyph glyph-name="ocircumflex" unicode="&#xf4;" horiz-adv-x="621" 
d="M310 414q-62 0 -105 -44t-43 -106q0 -61 43 -104.5t105 -43.5t106 43.5t44 104.5q0 62 -44 106t-106 44zM310 -4q-110 0 -189 79t-79 189q0 111 78.5 190t189.5 79q112 0 190.5 -78.5t78.5 -190.5q0 -110 -79 -189t-190 -79zM310 769q6 0 11 -1t11.5 -5t11.5 -7.5t15 -13
l18.5 -18l25 -25l31.5 -30.5q13 -13 13 -28q0 -17 -12 -29t-30 -12q-14 0 -22 6l-73 48l-73 -48q-8 -6 -22 -6q-18 0 -30 12t-12 29q0 15 13 28l31.5 30.5l25 25l18.5 18t15 13t11.5 7.5t11.5 5t11 1z" />
    <glyph glyph-name="otilde" unicode="&#xf5;" horiz-adv-x="621" 
d="M310 414q62 0 106 -44t44 -106q0 -61 -44 -104.5t-106 -43.5t-105 43.5t-43 104.5q0 62 43 106t105 44zM310 -4q111 0 190 79t79 189q0 112 -78.5 190.5t-190.5 78.5q-111 0 -189.5 -79t-78.5 -190q0 -110 79 -189t189 -79zM440 764q28 -1 39 -26t-2 -48
q-42 -75 -109 -75q-28 0 -65 25.5t-46 25.5q-13 0 -31.5 -25.5t-38.5 -26.5q-30 -1 -40 25.5t4 48.5q42 75 108 75q27 0 63.5 -25.5t47.5 -25.5q12 0 30.5 26t39.5 26z" />
    <glyph glyph-name="odieresis" unicode="&#xf6;" horiz-adv-x="621" 
d="M310 414q62 0 106 -44t44 -106q0 -61 -44 -104.5t-106 -43.5t-105 43.5t-43 104.5q0 62 43 106t105 44zM310 -4q111 0 190 79t79 189q0 112 -78.5 190.5t-190.5 78.5q-111 0 -189.5 -79t-78.5 -190q0 -110 79 -189t189 -79zM128 667q0 29 20 49t49 20t49.5 -20t20.5 -49
q0 -28 -20.5 -47.5t-49.5 -19.5t-49 19.5t-20 47.5zM355 667q0 29 20 49t49 20t49 -20t20 -49q0 -28 -20 -47.5t-49 -19.5t-49 19.5t-20 47.5z" />
    <glyph glyph-name="divide" unicode="&#xf7;" horiz-adv-x="583" 
d="M214 473q0 31 23 54t55 23t55 -22.5t23 -54.5q0 -33 -23 -56.5t-55 -23.5t-55 23.5t-23 56.5zM214 96q0 33 23 56t55 23t55 -23.5t23 -55.5t-23 -55t-55 -23t-55 23t-23 55zM537 285q0 -23 -16 -40t-39 -17h-378q-24 0 -40.5 15.5t-17.5 39.5q0 23 16.5 40t39.5 17h378
q23 0 40 -16t17 -39z" />
    <glyph glyph-name="oslash" unicode="&#xf8;" horiz-adv-x="622" 
d="M515 524l-31 -49q96 -81 96 -206q0 -111 -79 -190t-190 -79q-63 0 -119 28l-31 -48q-10 -16 -28 -16q-13 0 -22.5 10t-9.5 23q0 11 5 18l32 48q-96 80 -96 206q0 112 78.5 190.5t190.5 78.5q62 0 118 -27l31 48q9 15 28 15q14 0 23.5 -10t9.5 -23q0 -9 -6 -17zM367 415
q-30 10 -56 10q-65 0 -110.5 -45.5t-45.5 -110.5t45 -110zM255 123q28 -10 56 -10q65 0 110.5 45.5t45.5 110.5q0 64 -46 110z" />
    <glyph glyph-name="ugrave" unicode="&#xf9;" horiz-adv-x="663" 
d="M212 442v-198q0 -67 30 -97t97 -30q51 0 81.5 30t30.5 80v215q0 39 25.5 64t64.5 25q24 0 44.5 -17t20.5 -40q0 -40 -25 -52q-10 -5 -10 -17v-291q0 -5 1 -7t4 -3.5t5 -3.5q14 -13 14 -39q0 -25 -19 -43t-45 -18q-28 0 -48.5 18.5t-20.5 47.5q-17 -31 -57 -48.5
t-77 -17.5q-117 0 -176.5 62.5t-59.5 181.5v161q0 12 -10 17q-25 12 -25 52q0 23 20.5 40t44.5 17q39 0 64.5 -25t25.5 -64zM242 664q-43 21 -34 63q8 36 41 49q30 12 59 -10l110 -93q16 -15 16 -34q0 -15 -11 -26.5t-27 -11.5q-8 0 -20 5q-131 57 -134 58z" />
    <glyph glyph-name="uacute" unicode="&#xfa;" horiz-adv-x="663" 
d="M212 442v-198q0 -67 30 -97t97 -30q51 0 81.5 30t30.5 80v215q0 39 25.5 64t64.5 25q24 0 44.5 -17t20.5 -40q0 -40 -25 -52q-10 -5 -10 -17v-291q0 -5 1 -7t4 -3.5t5 -3.5q14 -13 14 -39q0 -25 -19 -43t-45 -18q-28 0 -48.5 18.5t-20.5 47.5q-17 -31 -57 -48.5
t-77 -17.5q-117 0 -176.5 62.5t-59.5 181.5v161q0 12 -10 17q-25 12 -25 52q0 23 20.5 40t44.5 17q39 0 64.5 -25t25.5 -64zM420 664q-3 -1 -134 -58q-12 -5 -20 -5q-16 0 -27 11.5t-11 26.5q0 19 16 34l110 93q40 30 76 0q30 -26 24 -61q-5 -27 -34 -41z" />
    <glyph glyph-name="ucircumflex" unicode="&#xfb;" horiz-adv-x="663" 
d="M212 442v-198q0 -67 30 -97t97 -30q51 0 81.5 30t30.5 80v215q0 39 25.5 64t64.5 25q24 0 44.5 -17t20.5 -40q0 -40 -25 -52q-10 -5 -10 -17v-291q0 -5 1 -7t4 -3.5t5 -3.5q14 -13 14 -39q0 -25 -19 -43t-45 -18q-28 0 -48.5 18.5t-20.5 47.5q-17 -31 -57 -48.5
t-77 -17.5q-117 0 -176.5 62.5t-59.5 181.5v161q0 12 -10 17q-25 12 -25 52q0 23 20.5 40t44.5 17q39 0 64.5 -25t25.5 -64zM325 769q6 0 11 -1t11.5 -5t11.5 -7.5t15 -13l18.5 -18l25 -25l31.5 -30.5q13 -13 13 -28q0 -17 -12 -29t-30 -12q-14 0 -22 6l-73 48l-73 -48
q-8 -6 -22 -6q-18 0 -30 12t-12 29q0 15 13 28l31.5 30.5l25 25l18.5 18t15 13t11.5 7.5t11.5 5t11 1z" />
    <glyph glyph-name="udieresis" unicode="&#xfc;" horiz-adv-x="663" 
d="M212 442v-198q0 -67 30 -97t97 -30q51 0 81.5 30t30.5 80v215q0 39 25.5 64t64.5 25q24 0 44.5 -17t20.5 -40q0 -40 -25 -52q-10 -5 -10 -17v-291q0 -5 1 -7t4 -3.5t5 -3.5q14 -13 14 -39q0 -25 -19 -43t-45 -18q-28 0 -48.5 18.5t-20.5 47.5q-17 -31 -57 -48.5
t-77 -17.5q-117 0 -176.5 62.5t-59.5 181.5v161q0 12 -10 17q-25 12 -25 52q0 23 20.5 40t44.5 17q39 0 64.5 -25t25.5 -64zM143 667q0 29 20 49t49 20t49.5 -20t20.5 -49q0 -28 -20.5 -47.5t-49.5 -19.5t-49 19.5t-20 47.5zM370 667q0 29 20 49t49 20t49 -20t20 -49
q0 -28 -20 -47.5t-49 -19.5t-49 19.5t-20 47.5z" />
    <glyph glyph-name="yacute" unicode="&#xfd;" horiz-adv-x="618" 
d="M192 462l76 -199l37 -123h3l37 123l81 199q29 68 83 68q29 0 50.5 -19.5t21.5 -48.5q0 -16 -10.5 -32.5t-24.5 -21.5q-14 -3 -16 -10l-40.5 -102.5l-35.5 -90l-29.5 -74l-25.5 -63.5l-20 -50.5t-18 -43l-14 -32t-12 -27t-10 -18.5q-43 -77 -134 -77q-36 0 -88 19
q-19 7 -30 23t-11 35q0 25 18 43.5t42 18.5q12 0 23 -4q30 -10 40 -10q26 0 41 28l13 27l-150 398q-2 6 -17 10q-15 6 -25 22.5t-10 33.5q0 28 21.5 47t50.5 19q27 0 49 -19t34 -49zM391 664q-3 -1 -134 -58q-12 -5 -20 -5q-16 0 -27 11.5t-11 26.5q0 19 16 34l110 93
q40 30 76 0q30 -26 24 -61q-5 -27 -34 -41z" />
    <glyph glyph-name="thorn" unicode="&#xfe;" horiz-adv-x="657" 
d="M223 656v-180q42 58 141 58q105 0 178 -83.5t73 -189.5q0 -107 -75 -185.5t-187 -78.5q-96 6 -129 61v-190q0 -38 -22 -66.5t-60 -28.5q-25 0 -44.5 18.5t-19.5 42.5q0 30 16 43q9 9 9 12v741q0 8 -9 17q-19 16 -19 41t20 43.5t46 18.5q37 0 59.5 -28t22.5 -66zM358 117
q56 0 96 43.5t40 105.5t-40 105.5t-96 43.5t-96.5 -43.5t-40.5 -105.5q0 -61 38.5 -105t98.5 -44z" />
    <glyph glyph-name="ydieresis" unicode="&#xff;" horiz-adv-x="618" 
d="M268 263l-76 199q-12 30 -34 49t-49 19q-29 0 -50.5 -19t-21.5 -47q0 -17 10 -33.5t25 -22.5q15 -4 17 -10l150 -398l-13 -27q-15 -28 -41 -28q-10 0 -40 10q-11 4 -23 4q-24 0 -42 -18.5t-18 -43.5q0 -19 11 -35t30 -23q52 -19 88 -19q91 0 134 77q5 8 10 18.5t12 27
l14 32t18 43l20 50.5l25.5 63.5l29.5 74l35.5 90l40.5 102.5q2 7 16 10q14 5 24.5 21.5t10.5 32.5q0 29 -21.5 48.5t-50.5 19.5q-54 0 -83 -68l-81 -199l-37 -123h-3zM127 667q0 29 20 49t49 20t49.5 -20t20.5 -49q0 -28 -20.5 -47.5t-49.5 -19.5t-49 19.5t-20 47.5z
M354 667q0 29 20 49t49 20t49 -20t20 -49q0 -28 -20 -47.5t-49 -19.5t-49 19.5t-20 47.5z" />
    <glyph glyph-name="Amacron" unicode="&#x100;" horiz-adv-x="719" 
d="M268 293h182l-65 171l-26 81h-1l-26 -82zM421 681l213 -562q2 -5 16 -9q12 -4 21 -18.5t9 -29.5q0 -26 -19.5 -44t-45.5 -18q-28 0 -52 18.5t-34 44.5l-46 122h-248l-45 -122q-10 -26 -34.5 -44.5t-52.5 -18.5q-26 0 -45 17.5t-19 43.5q0 37 30 49q14 4 15 9l213 562
q15 42 62 42q45 0 62 -42zM202 856q0 19 13.5 32.5t34.5 13.5h218q19 0 33.5 -13.5t14.5 -32.5q0 -20 -14.5 -33.5t-33.5 -13.5h-218q-21 0 -34.5 13.5t-13.5 33.5z" />
    <glyph glyph-name="amacron" unicode="&#x101;" horiz-adv-x="547" 
d="M461 350v-236q0 -3 11 -12q18 -15 18 -42q0 -25 -20 -43t-44 -18q-49 0 -73 44q-48 -48 -126 -48q-79 0 -139.5 51t-60.5 130q0 84 59.5 129.5t146.5 45.5q52 0 115 -28q0 46 -12 67q-23 35 -89 35q-35 0 -89 -13q-10 -2 -15 -2q-23 0 -39.5 14.5t-16.5 37.5q0 43 42 56
q63 17 121 17q98 0 154 -46.5t57 -138.5zM143 171q0 -32 25.5 -50.5t59.5 -18.5q45 0 82.5 27t37.5 71v33q-34 21 -89 21q-116 0 -116 -83zM112 672q0 19 13.5 32.5t34.5 13.5h218q19 0 33.5 -13.5t14.5 -32.5q0 -20 -14.5 -33.5t-33.5 -13.5h-218q-21 0 -34.5 13.5
t-13.5 33.5z" />
    <glyph glyph-name="Abreve" unicode="&#x102;" horiz-adv-x="719" 
d="M268 293h182l-65 171l-26 81h-1l-26 -82zM421 681l213 -562q2 -5 16 -9q12 -4 21 -18.5t9 -29.5q0 -26 -19.5 -44t-45.5 -18q-28 0 -52 18.5t-34 44.5l-46 122h-248l-45 -122q-10 -26 -34.5 -44.5t-52.5 -18.5q-26 0 -45 17.5t-19 43.5q0 37 30 49q14 4 15 9l213 562
q15 42 62 42q45 0 62 -42zM360 783q-50 0 -89 22t-58 58q-6 12 -6 27q0 22 15 37.5t37 15.5q26 0 43 -26q23 -32 58 -32q32 0 53 32q16 26 45 26q22 0 36.5 -15t14.5 -37q0 -16 -7 -28q-43 -80 -142 -80z" />
    <glyph glyph-name="abreve" unicode="&#x103;" horiz-adv-x="547" 
d="M461 350v-236q0 -3 11 -12q18 -15 18 -42q0 -25 -20 -43t-44 -18q-49 0 -73 44q-48 -48 -126 -48q-79 0 -139.5 51t-60.5 130q0 84 59.5 129.5t146.5 45.5q52 0 115 -28q0 46 -12 67q-23 35 -89 35q-35 0 -89 -13q-10 -2 -15 -2q-23 0 -39.5 14.5t-16.5 37.5q0 43 42 56
q63 17 121 17q98 0 154 -46.5t57 -138.5zM143 171q0 -32 25.5 -50.5t59.5 -18.5q45 0 82.5 27t37.5 71v33q-34 21 -89 21q-116 0 -116 -83zM260 599q-50 0 -89 22t-58 58q-6 12 -6 27q0 22 15 37.5t37 15.5q26 0 43 -26q23 -32 58 -32q32 0 53 32q16 26 45 26q22 0 36.5 -15
t14.5 -37q0 -16 -7 -28q-43 -80 -142 -80z" />
    <glyph glyph-name="Aogonek" unicode="&#x104;" horiz-adv-x="696" 
d="M421 681l213 -562q2 -5 16 -9q12 -4 21 -18.5t9 -29.5q0 -25 -18.5 -43t-43.5 -19q-14 0 -22 -11.5t-8 -28.5t13 -27.5t28 -10.5q35 0 35 -35q0 -14 -10 -23t-24 -9q-103 0 -103 86q0 47 48 69h1q-34 17 -47 53l-46 122h-248l-45 -122q-10 -26 -34.5 -44.5t-52.5 -18.5
q-26 0 -45 17.5t-19 43.5q0 37 30 49q14 4 15 9l213 562q15 42 62 42q45 0 62 -42zM268 293h182l-65 171l-26 81h-1l-26 -82z" />
    <glyph glyph-name="aogonek" unicode="&#x105;" horiz-adv-x="547" 
d="M461 350v-236q0 -3 11 -12q18 -15 18 -42q0 -25 -19.5 -42.5t-43.5 -18.5h-5q-25 -1 -25 -39q0 -17 13 -27.5t28 -10.5q36 0 36 -35q0 -14 -10 -23t-25 -9q-45 0 -74 21t-29 65q0 20 7 34.5t15 19.5l7 5q8 5 19 10q-1 0 -8 5q-15 11 -23 28q-48 -48 -126 -48
q-79 0 -139.5 51t-60.5 130q0 84 59.5 129.5t146.5 45.5q52 0 115 -28q0 46 -12 67q-23 35 -89 35q-35 0 -89 -13q-10 -2 -15 -2q-23 0 -39.5 14.5t-16.5 37.5q0 43 42 56q63 17 121 17q98 0 154 -46.5t57 -138.5zM143 171q0 -32 25.5 -50.5t59.5 -18.5q45 0 82.5 27
t37.5 71v33q-34 21 -89 21q-116 0 -116 -83z" />
    <glyph glyph-name="Cacute" unicode="&#x106;" horiz-adv-x="671" 
d="M420 -10q-150 0 -259 108.5t-109 257.5q0 151 106 259.5t262 108.5q93 0 174 -45q21 -11 28 -34.5t-4 -45.5q-10 -22 -35.5 -29.5t-47.5 4.5q-56 29 -126 29q-99 -5 -168 -76.5t-69 -170.5q0 -102 75 -173.5t173 -71.5q72 0 130 40q27 18 60.5 1.5t33.5 -53.5
q0 -34 -26 -51q-88 -58 -198 -58zM502 852q-3 -1 -134 -58q-12 -5 -20 -5q-16 0 -27 11.5t-11 26.5q0 19 16 34l110 93q40 30 76 0q30 -26 24 -61q-5 -27 -34 -41z" />
    <glyph glyph-name="cacute" unicode="&#x107;" horiz-adv-x="543" 
d="M312 414q-62 0 -105.5 -43.5t-43.5 -105.5q0 -61 43.5 -104.5t104.5 -43.5q48 0 91 32q16 11 36 11q25 0 43.5 -16.5t18.5 -41.5q0 -31 -26 -52q-72 -55 -162 -55q-112 0 -191 79t-79 191t79 191t190 79q91 0 165 -55q25 -20 25 -49q0 -25 -19 -42.5t-43 -17.5
q-21 0 -37 12q-40 31 -90 31zM379 664q-3 -1 -134 -58q-12 -5 -20 -5q-16 0 -27 11.5t-11 26.5q0 19 16 34l110 93q40 30 76 0q30 -26 24 -61q-5 -27 -34 -41z" />
    <glyph glyph-name="Ccircumflex" unicode="&#x108;" horiz-adv-x="671" 
d="M420 -10q-150 0 -259 108.5t-109 257.5q0 151 106 259.5t262 108.5q93 0 174 -45q21 -11 28 -34.5t-4 -45.5q-10 -22 -35.5 -29.5t-47.5 4.5q-56 29 -126 29q-99 -5 -168 -76.5t-69 -170.5q0 -102 75 -173.5t173 -71.5q72 0 130 40q27 18 60.5 1.5t33.5 -53.5
q0 -34 -26 -51q-88 -58 -198 -58zM423 957q6 0 11 -1t11.5 -5t11.5 -7.5t15 -13l18.5 -18l25 -25l31.5 -30.5q13 -13 13 -28q0 -17 -12 -29t-30 -12q-14 0 -22 6l-73 48l-73 -48q-8 -6 -22 -6q-18 0 -30 12t-12 29q0 15 13 28l31.5 30.5l25 25l18.5 18t15 13t11.5 7.5
t11.5 5t11 1z" />
    <glyph glyph-name="ccircumflex" unicode="&#x109;" horiz-adv-x="543" 
d="M312 414q-62 0 -105.5 -43.5t-43.5 -105.5q0 -61 43.5 -104.5t104.5 -43.5q48 0 91 32q16 11 36 11q25 0 43.5 -16.5t18.5 -41.5q0 -31 -26 -52q-72 -55 -162 -55q-112 0 -191 79t-79 191t79 191t190 79q91 0 165 -55q25 -20 25 -49q0 -25 -19 -42.5t-43 -17.5
q-21 0 -37 12q-40 31 -90 31zM314 769q6 0 11 -1t11.5 -5t11.5 -7.5t15 -13l18.5 -18l25 -25l31.5 -30.5q13 -13 13 -28q0 -17 -12 -29t-30 -12q-14 0 -22 6l-73 48l-73 -48q-8 -6 -22 -6q-18 0 -30 12t-12 29q0 15 13 28l31.5 30.5l25 25l18.5 18t15 13t11.5 7.5t11.5 5
t11 1z" />
    <glyph glyph-name="Cdotaccent" unicode="&#x10a;" horiz-adv-x="671" 
d="M420 -10q-150 0 -259 108.5t-109 257.5q0 151 106 259.5t262 108.5q93 0 174 -45q21 -11 28 -34.5t-4 -45.5q-10 -22 -35.5 -29.5t-47.5 4.5q-56 29 -126 29q-99 -5 -168 -76.5t-69 -170.5q0 -102 75 -173.5t173 -71.5q72 0 130 40q27 18 60.5 1.5t33.5 -53.5
q0 -34 -26 -51q-88 -58 -198 -58zM354 855q0 29 20 49t49 20t49.5 -20t20.5 -49q0 -28 -20.5 -47.5t-49.5 -19.5t-49 19.5t-20 47.5z" />
    <glyph glyph-name="cdotaccent" unicode="&#x10b;" horiz-adv-x="543" 
d="M312 414q50 0 90 -31q16 -12 37 -12q24 0 43 17.5t19 42.5q0 29 -25 49q-74 55 -165 55q-111 0 -190 -79t-79 -191t79 -191t191 -79q90 0 162 55q26 21 26 52q0 25 -18.5 41.5t-43.5 16.5q-20 0 -36 -11q-43 -32 -91 -32q-61 0 -104.5 43.5t-43.5 104.5q0 62 43.5 105.5
t105.5 43.5zM236 667q0 29 20 49t49 20t49.5 -20t20.5 -49q0 -28 -20.5 -47.5t-49.5 -19.5t-49 19.5t-20 47.5z" />
    <glyph glyph-name="Ccaron" unicode="&#x10c;" horiz-adv-x="671" 
d="M420 -10q-150 0 -259 108.5t-109 257.5q0 151 106 259.5t262 108.5q93 0 174 -45q21 -11 28 -34.5t-4 -45.5q-10 -22 -35.5 -29.5t-47.5 4.5q-56 29 -126 29q-99 -5 -168 -76.5t-69 -170.5q0 -102 75 -173.5t173 -71.5q72 0 130 40q27 18 60.5 1.5t33.5 -53.5
q0 -34 -26 -51q-88 -58 -198 -58zM420 788q-6 0 -11 1t-11.5 5t-11.5 7.5t-15 13l-18.5 18l-25 25l-31.5 30.5q-13 13 -13 28q0 17 12 29t30 12q14 0 22 -6l73 -48l73 48q8 6 22 6q18 0 30 -12t12 -29q0 -15 -13 -28l-31.5 -30.5l-25 -25l-18.5 -18t-15 -13t-11.5 -7.5
t-11.5 -5t-11 -1z" />
    <glyph glyph-name="ccaron" unicode="&#x10d;" horiz-adv-x="543" 
d="M312 414q50 0 90 -31q16 -12 37 -12q24 0 43 17.5t19 42.5q0 29 -25 49q-74 55 -165 55q-111 0 -190 -79t-79 -191t79 -191t191 -79q90 0 162 55q26 21 26 52q0 25 -18.5 41.5t-43.5 16.5q-20 0 -36 -11q-43 -32 -91 -32q-61 0 -104.5 43.5t-43.5 104.5q0 62 43.5 105.5
t105.5 43.5zM308 600q-6 0 -11 1t-11.5 5t-11.5 7.5t-15 13l-18.5 18l-25 25l-31.5 30.5q-13 13 -13 28q0 17 12 29t30 12q14 0 22 -6l73 -48l73 48q8 6 22 6q18 0 30 -12t12 -29q0 -15 -13 -28l-31.5 -30.5l-25 -25l-18.5 -18t-15 -13t-11.5 -7.5t-11.5 -5t-11 -1z" />
    <glyph glyph-name="Dcaron" unicode="&#x10e;" horiz-adv-x="734" 
d="M121 116v482q0 5 -10 10q-24 14 -24 48q0 24 18 41t42 17h216q83 0 160 -45q81 -47 120 -130t39 -182q-2 -221 -159 -312q-77 -45 -160 -45h-216q-24 0 -42 17t-18 41q0 34 24 48q10 5 10 10zM235 594q6 -10 6 -29v-416q0 -19 -6 -29h79q122 0 186 60q62 59 62 177
q0 117 -62 177q-64 60 -186 60h-79zM316 788q-6 0 -11 1t-11.5 5t-11.5 7.5t-15 13l-18.5 18l-25 25l-31.5 30.5q-13 13 -13 28q0 17 12 29t30 12q14 0 22 -6l73 -48l73 48q8 6 22 6q18 0 30 -12t12 -29q0 -15 -13 -28l-31.5 -30.5l-25 -25l-18.5 -18t-15 -13t-11.5 -7.5
t-11.5 -5t-11 -1z" />
    <glyph glyph-name="dcaron" unicode="&#x10f;" horiz-adv-x="731" 
d="M677 507q-12 0 -21 9t-9 20q0 8 5 16q35 50 35 111q0 6 -1.5 18t-1.5 15q0 22 10 35q16 19 40 19q52 0 52 -71q0 -49 -24 -87t-67 -78q-7 -7 -18 -7zM288 -5q90 0 147 67q9 -28 30 -45.5t51 -17.5q24 0 44 18t20 43q0 27 -18 42q-11 9 -11 15v513q0 8 8 16q19 19 19 44
t-19 42.5t-46 17.5q-38 0 -60 -26t-22 -68v-188q-29 33 -68.5 48.5t-74.5 15.5q-110 0 -178 -77.5t-68 -185.5q0 -107 71 -190.5t175 -83.5zM302 412q61 0 100.5 -44.5t39.5 -105.5q0 -63 -41.5 -106.5t-98.5 -43.5q-56 0 -96 43.5t-40 106.5q0 62 40 106t96 44z" />
    <glyph glyph-name="Dcroat" unicode="&#x110;" horiz-adv-x="733" 
d="M681 356q0 -88 -29 -161q-40 -99 -129 -150q-77 -45 -160 -45h-216q-24 0 -42 17t-18 41q0 34 24 48q10 5 10 10v206h-75q-14 0 -23.5 10t-9.5 24q0 13 9.5 22t23.5 9h75v211q0 5 -10 10q-24 14 -24 48q0 24 18 41t42 17h216q83 0 160 -45q89 -51 129 -150
q29 -73 29 -163zM237 120h77q122 0 186 60q31 29 47 73q15 45 15 104t-15 104q-16 44 -47 73q-64 60 -186 60h-77q4 -9 4 -29v-178h91q14 0 23.5 -9t9.5 -22q0 -14 -9.5 -24t-23.5 -10h-91v-173q0 -20 -4 -29z" />
    <glyph glyph-name="dcroat" unicode="&#x111;" horiz-adv-x="613" 
d="M288 -5q-104 0 -175 83.5t-71 190.5q0 108 68 185.5t178 77.5q35 0 74.5 -15.5t68.5 -48.5v109h-75q-11 0 -18 7t-7 16q0 11 7 17.5t18 6.5h75v32q0 42 22 68t60 26q27 0 46 -17.5t19 -42.5t-19 -44q-8 -8 -8 -16v-6h36q11 0 18 -6.5t7 -17.5q0 -9 -7 -16t-18 -7h-36
v-460q0 -6 11 -15q18 -15 18 -42q0 -25 -20 -43t-44 -18q-30 0 -51 17.5t-30 45.5q-57 -67 -147 -67zM302 412q-56 0 -96 -44t-40 -106q0 -63 40 -106.5t96 -43.5q57 0 98.5 43.5t41.5 106.5q0 61 -39.5 105.5t-100.5 44.5z" />
    <glyph glyph-name="Emacron" unicode="&#x112;" horiz-adv-x="642" 
d="M540 0h-393q-24 0 -42 17t-18 41q0 34 24 48q10 5 10 13v474q0 10 -10 15q-24 14 -24 48q0 24 18 41t42 17h395q24 0 41.5 -18t17.5 -42q0 -25 -17 -42.5t-42 -17.5h-307q6 -10 6 -29v-158h246q24 0 41.5 -16.5t17.5 -39.5q0 -26 -17 -44t-42 -18h-246v-139q0 -23 -6 -30
h305q25 0 42.5 -18t17.5 -43q0 -24 -17.5 -41.5t-42.5 -17.5zM197 856q0 19 13.5 32.5t34.5 13.5h218q19 0 33.5 -13.5t14.5 -32.5q0 -20 -14.5 -33.5t-33.5 -13.5h-218q-21 0 -34.5 13.5t-13.5 33.5z" />
    <glyph glyph-name="emacron" unicode="&#x113;" horiz-adv-x="584" 
d="M299 417q-50 0 -84.5 -30t-50.5 -81h262q-8 48 -44 79.5t-83 31.5zM485 215h-321q12 -44 50.5 -75t85.5 -31q66 0 126 33q19 9 37 7q22 -2 37.5 -18.5t16.5 -38.5q0 -39 -34 -56q-93 -41 -184 -41q-109 0 -183 80.5t-74 189.5t73.5 189.5t181.5 80.5q105 0 176 -77
t71 -185q0 -22 -18.5 -40t-40.5 -18zM143 672q0 19 13.5 32.5t34.5 13.5h218q19 0 33.5 -13.5t14.5 -32.5q0 -20 -14.5 -33.5t-33.5 -13.5h-218q-21 0 -34.5 13.5t-13.5 33.5z" />
    <glyph glyph-name="Ebreve" unicode="&#x114;" horiz-adv-x="642" 
d="M540 0h-393q-24 0 -42 17t-18 41q0 34 24 48q10 5 10 13v474q0 10 -10 15q-24 14 -24 48q0 24 18 41t42 17h395q24 0 41.5 -18t17.5 -42q0 -25 -17 -42.5t-42 -17.5h-307q6 -10 6 -29v-158h246q24 0 41.5 -16.5t17.5 -39.5q0 -26 -17 -44t-42 -18h-246v-139q0 -23 -6 -30
h305q25 0 42.5 -18t17.5 -43q0 -24 -17.5 -41.5t-42.5 -17.5zM351 783q-50 0 -89 22t-58 58q-6 12 -6 27q0 22 15 37.5t37 15.5q26 0 43 -26q23 -32 58 -32q32 0 53 32q16 26 45 26q22 0 36.5 -15t14.5 -37q0 -16 -7 -28q-43 -80 -142 -80z" />
    <glyph glyph-name="ebreve" unicode="&#x115;" horiz-adv-x="584" 
d="M299 417q-50 0 -84.5 -30t-50.5 -81h262q-8 48 -44 79.5t-83 31.5zM485 215h-321q12 -44 50.5 -75t85.5 -31q66 0 126 33q19 9 37 7q22 -2 37.5 -18.5t16.5 -38.5q0 -39 -34 -56q-93 -41 -184 -41q-109 0 -183 80.5t-74 189.5t73.5 189.5t181.5 80.5q105 0 176 -77
t71 -185q0 -22 -18.5 -40t-40.5 -18zM297 599q-50 0 -89 22t-58 58q-6 12 -6 27q0 22 15 37.5t37 15.5q26 0 43 -26q23 -32 58 -32q32 0 53 32q16 26 45 26q22 0 36.5 -15t14.5 -37q0 -16 -7 -28q-43 -80 -142 -80z" />
    <glyph glyph-name="Edotaccent" unicode="&#x116;" horiz-adv-x="642" 
d="M540 0h-393q-24 0 -42 17t-18 41q0 34 24 48q10 5 10 13v474q0 10 -10 15q-24 14 -24 48q0 24 18 41t42 17h395q24 0 41.5 -18t17.5 -42q0 -25 -17 -42.5t-42 -17.5h-307q6 -10 6 -29v-158h246q24 0 41.5 -16.5t17.5 -39.5q0 -26 -17 -44t-42 -18h-246v-139q0 -23 -6 -30
h305q25 0 42.5 -18t17.5 -43q0 -24 -17.5 -41.5t-42.5 -17.5zM283 855q0 29 20 49t49 20t49.5 -20t20.5 -49q0 -28 -20.5 -47.5t-49.5 -19.5t-49 19.5t-20 47.5z" />
    <glyph glyph-name="edotaccent" unicode="&#x117;" horiz-adv-x="584" 
d="M299 417q-50 0 -84.5 -30t-50.5 -81h262q-8 48 -44 79.5t-83 31.5zM485 215h-321q12 -44 50.5 -75t85.5 -31q66 0 126 33q19 9 37 7q22 -2 37.5 -18.5t16.5 -38.5q0 -39 -34 -56q-93 -41 -184 -41q-109 0 -183 80.5t-74 189.5t73.5 189.5t181.5 80.5q105 0 176 -77
t71 -185q0 -22 -18.5 -40t-40.5 -18zM230 667q0 29 20 49t49 20t49.5 -20t20.5 -49q0 -28 -20.5 -47.5t-49.5 -19.5t-49 19.5t-20 47.5z" />
    <glyph glyph-name="Eogonek" unicode="&#x118;" horiz-adv-x="642" 
d="M241 565v-158h246q24 0 41.5 -16.5t17.5 -39.5q0 -26 -17 -44t-42 -18h-246v-140q0 -20 -4 -29h303q25 0 42.5 -18t17.5 -43q0 -23 -16 -40t-38 -19q-30 -2 -30 -40q0 -17 13 -27.5t28 -10.5q35 0 35 -35q0 -14 -10 -23t-24 -9q-48 0 -75 21.5t-28 64.5q0 20 7 34.5
t14 19.5l8 5h-337q-24 0 -42 17t-18 41q0 34 24 48q10 5 10 10v482q0 5 -10 10q-24 14 -24 48q0 24 18 41t42 17h395q24 0 41.5 -18t17.5 -42q0 -25 -17 -42.5t-42 -17.5h-305q4 -9 4 -29z" />
    <glyph glyph-name="eogonek" unicode="&#x119;" horiz-adv-x="584" 
d="M485 211h-321q16 -44 52 -73t82 -29q77 0 128 35q15 10 33 10q24 0 40 -16t16 -40q0 -21 -10.5 -33t-33.5 -27q-61 -38 -61 -84q0 -15 13 -26.5t31 -11.5q23 0 32 -17t0 -34.5t-31 -17.5q-46 0 -75.5 21.5t-29.5 66.5q0 20 9.5 37t18.5 24l10 8q3 1 8 4q-50 -13 -99 -13
q-109 0 -182 80t-73 190q0 109 73.5 189.5t181.5 80.5q105 0 176 -79t71 -187q0 -22 -18.5 -40t-40.5 -18zM299 417q-50 0 -84.5 -30t-50.5 -81h262q-8 48 -44 79.5t-83 31.5z" />
    <glyph glyph-name="Ecaron" unicode="&#x11a;" horiz-adv-x="642" 
d="M540 0h-393q-24 0 -42 17t-18 41q0 34 24 48q10 5 10 13v474q0 10 -10 15q-24 14 -24 48q0 24 18 41t42 17h395q24 0 41.5 -18t17.5 -42q0 -25 -17 -42.5t-42 -17.5h-307q6 -10 6 -29v-158h246q24 0 41.5 -16.5t17.5 -39.5q0 -26 -17 -44t-42 -18h-246v-139q0 -23 -6 -30
h305q25 0 42.5 -18t17.5 -43q0 -24 -17.5 -41.5t-42.5 -17.5zM351 788q-6 0 -11 1t-11.5 5t-11.5 7.5t-15 13l-18.5 18l-25 25l-31.5 30.5q-13 13 -13 28q0 17 12 29t30 12q14 0 22 -6l73 -48l73 48q8 6 22 6q18 0 30 -12t12 -29q0 -15 -13 -28l-31.5 -30.5l-25 -25
l-18.5 -18t-15 -13t-11.5 -7.5t-11.5 -5t-11 -1z" />
    <glyph glyph-name="ecaron" unicode="&#x11b;" horiz-adv-x="584" 
d="M299 417q-50 0 -84.5 -30t-50.5 -81h262q-8 48 -44 79.5t-83 31.5zM485 215h-321q12 -44 50.5 -75t85.5 -31q66 0 126 33q19 9 37 7q22 -2 37.5 -18.5t16.5 -38.5q0 -39 -34 -56q-93 -41 -184 -41q-109 0 -183 80.5t-74 189.5t73.5 189.5t181.5 80.5q105 0 176 -77
t71 -185q0 -22 -18.5 -40t-40.5 -18zM299 600q-6 0 -11 1t-11.5 5t-11.5 7.5t-15 13l-18.5 18l-25 25l-31.5 30.5q-13 13 -13 28q0 17 12 29t30 12q14 0 22 -6l73 -48l73 48q8 6 22 6q18 0 30 -12t12 -29q0 -15 -13 -28l-31.5 -30.5l-25 -25l-18.5 -18t-15 -13t-11.5 -7.5
t-11.5 -5t-11 -1z" />
    <glyph glyph-name="Gcircumflex" unicode="&#x11c;" horiz-adv-x="812" 
d="M646 644q24 -16 24 -48q0 -28 -16.5 -43.5t-41.5 -15.5q-24 0 -39 14q-72 52 -153 52q-103 0 -175 -72t-72 -175q0 -101 72 -173t175 -72q110 0 174 71v68q0 6 1.5 11t2.5 7l2 1h-139q-26 0 -45 17.5t-19 42.5q0 26 19 44t45 18h235q24 0 41.5 -18t17.5 -44
q0 -39 -36 -55q-6 -2 -6 -8v-105q0 -22 -12 -37q-102 -134 -281 -134q-153 0 -260.5 107t-107.5 259t107.5 260t260.5 108q129 0 226 -80zM415 957q6 0 11 -1t11.5 -5t11.5 -7.5t15 -13l18.5 -18l25 -25l31.5 -30.5q13 -13 13 -28q0 -17 -12 -29t-30 -12q-14 0 -22 6l-73 48
l-73 -48q-8 -6 -22 -6q-18 0 -30 12t-12 29q0 15 13 28l31.5 30.5l25 25l18.5 18t15 13t11.5 7.5t11.5 5t11 1z" />
    <glyph glyph-name="gcircumflex" unicode="&#x11d;" horiz-adv-x="651" 
d="M300 141q68 0 108.5 38.5t40.5 101.5q0 61 -38.5 101.5t-102.5 40.5t-105 -42t-41 -104q0 -59 37.5 -97.5t100.5 -38.5zM527 529q27 0 47 -19t20 -45q0 -29 -18 -43q-9 -7 -9 -14v-321q0 -137 -76 -202t-194 -65q-48 0 -81 9.5t-88 32.5q-26 11 -39.5 24t-13.5 37
q0 25 17 41.5t43 16.5q14 0 26 -6q78 -37 138 -37q66 0 106 43t40 115v14q-25 -36 -66.5 -56.5t-87.5 -20.5q-110 0 -179.5 68t-69.5 176q0 109 69.5 183t180.5 74q101 0 154 -74q6 31 27 50t54 19zM294 769q6 0 11 -1t11.5 -5t11.5 -7.5t15 -13l18.5 -18l25 -25l31.5 -30.5
q13 -13 13 -28q0 -17 -12 -29t-30 -12q-14 0 -22 6l-73 48l-73 -48q-8 -6 -22 -6q-18 0 -30 12t-12 29q0 15 13 28l31.5 30.5l25 25l18.5 18t15 13t11.5 7.5t11.5 5t11 1z" />
    <glyph glyph-name="Gbreve" unicode="&#x11e;" horiz-adv-x="812" 
d="M646 644q-97 80 -226 80q-153 0 -260.5 -108t-107.5 -260t107.5 -259t260.5 -107q179 0 281 134q12 15 12 37v105q0 6 6 8q36 16 36 55q0 26 -17.5 44t-41.5 18h-235q-26 0 -45 -18t-19 -44q0 -25 19 -42.5t45 -17.5h139q-6 -5 -6 -19v-68q-64 -71 -174 -71
q-103 0 -175 72t-72 173q0 103 72 175t175 72q81 0 153 -52q15 -14 39 -14q25 0 41.5 15.5t16.5 43.5q0 32 -24 48zM421 783q-50 0 -89 22t-58 58q-6 12 -6 27q0 22 15 37.5t37 15.5q26 0 43 -26q23 -32 58 -32q32 0 53 32q16 26 45 26q22 0 36.5 -15t14.5 -37q0 -16 -7 -28
q-43 -80 -142 -80z" />
    <glyph glyph-name="gbreve" unicode="&#x11f;" horiz-adv-x="651" 
d="M300 141q68 0 108.5 38.5t40.5 101.5q0 61 -38.5 101.5t-102.5 40.5t-105 -42t-41 -104q0 -59 37.5 -97.5t100.5 -38.5zM527 529q27 0 47 -19t20 -45q0 -29 -18 -43q-9 -7 -9 -14v-321q0 -137 -76 -202t-194 -65q-48 0 -81 9.5t-88 32.5q-26 11 -39.5 24t-13.5 37
q0 25 17 41.5t43 16.5q14 0 26 -6q78 -37 138 -37q66 0 106 43t40 115v14q-25 -36 -66.5 -56.5t-87.5 -20.5q-110 0 -179.5 68t-69.5 176q0 109 69.5 183t180.5 74q101 0 154 -74q6 31 27 50t54 19zM299 599q-50 0 -89 22t-58 58q-6 12 -6 27q0 22 15 37.5t37 15.5
q26 0 43 -26q23 -32 58 -32q32 0 53 32q16 26 45 26q22 0 36.5 -15t14.5 -37q0 -16 -7 -28q-43 -80 -142 -80z" />
    <glyph glyph-name="Gdotaccent" unicode="&#x120;" horiz-adv-x="812" 
d="M646 644q-97 80 -226 80q-153 0 -260.5 -108t-107.5 -260t107.5 -259t260.5 -107q179 0 281 134q12 15 12 37v105q0 6 6 8q36 16 36 55q0 26 -17.5 44t-41.5 18h-235q-26 0 -45 -18t-19 -44q0 -25 19 -42.5t45 -17.5h139q-6 -5 -6 -19v-68q-64 -71 -174 -71
q-103 0 -175 72t-72 173q0 103 72 175t175 72q81 0 153 -52q15 -14 39 -14q25 0 41.5 15.5t16.5 43.5q0 32 -24 48zM345 855q0 29 20 49t49 20t49.5 -20t20.5 -49q0 -28 -20.5 -47.5t-49.5 -19.5t-49 19.5t-20 47.5z" />
    <glyph glyph-name="gdotaccent" unicode="&#x121;" horiz-adv-x="651" 
d="M300 141q68 0 108.5 38.5t40.5 101.5q0 61 -38.5 101.5t-102.5 40.5t-105 -42t-41 -104q0 -59 37.5 -97.5t100.5 -38.5zM527 529q27 0 47 -19t20 -45q0 -29 -18 -43q-9 -7 -9 -14v-321q0 -137 -76 -202t-194 -65q-48 0 -81 9.5t-88 32.5q-26 11 -39.5 24t-13.5 37
q0 25 17 41.5t43 16.5q14 0 26 -6q78 -37 138 -37q66 0 106 43t40 115v14q-25 -36 -66.5 -56.5t-87.5 -20.5q-110 0 -179.5 68t-69.5 176q0 109 69.5 183t180.5 74q101 0 154 -74q6 31 27 50t54 19zM231 667q0 29 20 49t49 20t49.5 -20t20.5 -49q0 -28 -20.5 -47.5
t-49.5 -19.5t-49 19.5t-20 47.5z" />
    <glyph glyph-name="Gcommaaccent" unicode="&#x122;" horiz-adv-x="812" 
d="M370 -204q33 20 43 49h-4q-22 0 -36 15t-14 36q0 23 17 38.5t40 15.5q32 0 51 -25.5t19 -59.5q0 -42 -34 -84t-71 -42q-12 0 -20.5 9t-8.5 20q0 16 18 28zM646 644q24 -16 24 -48q0 -20 -10 -34q-18 -25 -48 -25q-24 0 -39 14q-72 52 -153 52q-103 0 -175 -72t-72 -175
q0 -101 72 -173t175 -72q110 0 174 71v68q0 6 1.5 11t2.5 7l2 1h-139q-26 0 -45 17.5t-19 42.5q0 26 19 44t45 18h235q24 0 41.5 -18t17.5 -44q0 -39 -36 -55q-6 -2 -6 -8v-105q0 -22 -12 -37q-102 -134 -281 -134q-153 0 -260.5 107t-107.5 259t107.5 260t260.5 108
q129 0 226 -80z" />
    <glyph glyph-name="gcommaaccent" unicode="&#x123;" horiz-adv-x="651" 
d="M336 739q-32 -22 -42 -49h4q21 0 35.5 -13.5t14.5 -36.5t-17.5 -39t-39.5 -16q-33 0 -52 25.5t-19 58.5q0 42 32.5 83.5t71.5 41.5q12 0 20.5 -8t8.5 -20q0 -15 -17 -27zM300 141q68 0 108.5 38.5t40.5 101.5q0 61 -38.5 101.5t-102.5 40.5t-105 -42t-41 -104
q0 -59 37.5 -97.5t100.5 -38.5zM527 529q27 0 47 -19t20 -45q0 -29 -18 -43q-9 -7 -9 -14v-321q0 -137 -76 -202t-194 -65q-48 0 -81 9.5t-88 32.5q-26 11 -39.5 24t-13.5 37q0 25 17 41.5t43 16.5q14 0 26 -6q78 -37 138 -37q66 0 106 43t40 115v14q-25 -36 -66.5 -56.5
t-87.5 -20.5q-110 0 -179.5 68t-69.5 176q0 109 69.5 183t180.5 74q101 0 154 -74q6 31 27 50t54 19z" />
    <glyph glyph-name="Hcircumflex" unicode="&#x124;" horiz-adv-x="834" 
d="M593 89v201h-352v-201q0 -39 -25.5 -64t-64.5 -25q-24 0 -44.5 17t-20.5 40q0 39 25 52q10 5 10 17v462q0 12 -10 17q-25 13 -25 52q0 23 20.5 40t44.5 17q39 0 64.5 -25t25.5 -64v-215h352v215q0 39 25.5 64t64.5 25q24 0 44.5 -17t20.5 -40q0 -39 -25 -52
q-10 -5 -10 -17v-462q0 -12 10 -17q25 -13 25 -52q0 -23 -20.5 -40t-44.5 -17q-39 0 -64.5 25t-25.5 64zM417 957q6 0 11 -1t11.5 -5t11.5 -7.5t15 -13l18.5 -18l25 -25l31.5 -30.5q13 -13 13 -28q0 -17 -12 -29t-30 -12q-14 0 -22 6l-73 48l-73 -48q-8 -6 -22 -6
q-18 0 -30 12t-12 29q0 15 13 28l31.5 30.5l25 25l18.5 18t15 13t11.5 7.5t11.5 5t11 1z" />
    <glyph glyph-name="hcircumflex" unicode="&#x125;" horiz-adv-x="661" 
d="M122 750q39 0 64.5 -25t25.5 -64v-185q25 29 63 41.5t65 12.5q229 0 229 -242v-162q0 -12 10 -17q25 -13 25 -52q0 -23 -20.5 -40t-44.5 -17q-39 0 -64.5 25t-25.5 64v205q0 54 -32 85t-87 31q-50 0 -84 -31t-34 -80v-210q0 -39 -25.5 -64t-64.5 -25q-25 0 -45 16.5
t-20 40.5q0 39 25 52q10 5 10 17v498q0 12 -10 17q-25 13 -25 52q0 23 20.5 40t44.5 17zM134 957q6 0 11 -1t11.5 -5t11.5 -7.5t15 -13l18.5 -18l25 -25l31.5 -30.5q13 -13 13 -28q0 -17 -12 -29t-30 -12q-14 0 -22 6l-73 48l-73 -48q-8 -6 -22 -6q-18 0 -30 12t-12 29
q0 15 13 28l31.5 30.5l25 25l18.5 18t15 13t11.5 7.5t11.5 5t11 1z" />
    <glyph glyph-name="Hbar" unicode="&#x126;" horiz-adv-x="848" 
d="M128 126v385h-58q-14 0 -23.5 10t-9.5 24q0 13 9.5 23t23.5 10h58v12q0 12 -10 17q-26 13 -26 50q0 23 18.5 40t42.5 17q39 0 67 -25.5t28 -63.5v-47h352v47q0 39 25.5 64t64.5 25q24 0 45 -17t21 -40q0 -39 -26 -52q-10 -5 -10 -17v-10h59q13 0 22.5 -10t9.5 -23
q0 -14 -9.5 -24t-22.5 -10h-59v-385q0 -12 10 -17q26 -13 26 -52q0 -23 -18.5 -40t-42.5 -17q-39 0 -67 25.5t-28 63.5v201h-352v-201q0 -38 -28 -63.5t-67 -25.5q-24 0 -42.5 17t-18.5 40q0 39 26 52q10 5 10 17zM600 511h-352v-101h352v101z" />
    <glyph glyph-name="hbar" unicode="&#x127;" horiz-adv-x="683" 
d="M232 656v-32h64q11 0 18 -6.5t7 -17.5q0 -9 -7 -16t-18 -7h-64v-101q45 53 118 53q121 0 180 -59t59 -182v-170q0 -6 11 -15q18 -15 18 -42q0 -25 -20 -43t-44 -18q-39 0 -62 28t-23 66v200q0 54 -32 85t-87 31q-50 0 -84 -31t-34 -80v-205q0 -38 -23 -66t-62 -28
q-24 0 -44 18t-20 43q0 27 18 42q11 9 11 15v459h-32q-11 0 -18 7t-7 16q0 11 7 17.5t18 6.5h32v6q0 8 -8 16q-20 20 -20 42q0 25 20 43.5t46 18.5q37 0 59.5 -28t22.5 -66z" />
    <glyph glyph-name="Itilde" unicode="&#x128;" horiz-adv-x="301" 
d="M151 0q23 0 40.5 18t17.5 41v596q0 25 -17 42t-41 17t-41.5 -17t-17.5 -42v-596q0 -25 17.5 -42t41.5 -17zM277 952q28 -1 39 -26t-2 -48q-42 -75 -109 -75q-27 0 -64 25.5t-47 25.5q-13 0 -31.5 -25.5t-38.5 -26.5q-30 -1 -40 25.5t4 48.5q42 75 108 75q27 0 63.5 -25.5
t47.5 -25.5q12 0 30.5 26t39.5 26z" />
    <glyph glyph-name="itilde" unicode="&#x129;" 
d="M48 421q-25 13 -25 52q0 23 20.5 40t44.5 17q39 0 64.5 -25t25.5 -64v-315q0 -12 10 -17q25 -13 25 -52q0 -23 -20.5 -40t-44.5 -17q-39 0 -64.5 25t-25.5 64v315q0 12 -10 17zM253 764q28 -1 39 -26t-2 -48q-42 -75 -109 -75q-27 0 -64 25.5t-47 25.5q-13 0 -31.5 -25.5
t-38.5 -26.5q-30 -1 -40 25.5t4 48.5q42 75 108 75q27 0 63.5 -25.5t47.5 -25.5q12 0 30.5 26t39.5 26z" />
    <glyph glyph-name="Imacron" unicode="&#x12a;" horiz-adv-x="301" 
d="M151 0q23 0 40.5 18t17.5 41v596q0 25 -17 42t-41 17t-41.5 -17t-17.5 -42v-596q0 -25 17.5 -42t41.5 -17zM-7 856q0 19 13.5 32.5t34.5 13.5h218q19 0 33.5 -13.5t14.5 -32.5q0 -20 -14.5 -33.5t-33.5 -13.5h-218q-21 0 -34.5 13.5t-13.5 33.5z" />
    <glyph glyph-name="imacron" unicode="&#x12b;" 
d="M-8 672q0 19 13.5 32.5t34.5 13.5h178q19 0 33.5 -13.5t14.5 -32.5q0 -20 -14.5 -33.5t-33.5 -13.5h-178q-21 0 -34.5 13.5t-13.5 33.5zM77 421q-25 13 -25 52q0 23 20.5 40t44.5 17q39 0 64.5 -25t25.5 -64v-315q0 -12 10 -17q25 -13 25 -52q0 -23 -20.5 -40t-44.5 -17
q-39 0 -64.5 25t-25.5 64v315q0 12 -10 17z" />
    <glyph glyph-name="Ibreve" unicode="&#x12c;" horiz-adv-x="301" 
d="M151 0q23 0 40.5 18t17.5 41v596q0 25 -17 42t-41 17t-41.5 -17t-17.5 -42v-596q0 -25 17.5 -42t41.5 -17zM152 783q-50 0 -89 22t-58 58q-6 12 -6 27q0 22 15 37.5t37 15.5q26 0 43 -26q23 -32 58 -32q32 0 53 32q16 26 45 26q22 0 36.5 -15t14.5 -37q0 -16 -7 -28
q-43 -80 -142 -80z" />
    <glyph glyph-name="ibreve" unicode="&#x12d;" 
d="M123 603q-98 0 -137 76q-6 12 -6 27q0 22 15 37.5t37 15.5q26 0 43 -26q8 -12 11.5 -16t13 -8.5t23.5 -4.5q13 0 21.5 5t11 8t10.5 16q16 26 45 26q22 0 36.5 -15t14.5 -38q0 -16 -7 -27q-24 -37 -54 -56.5t-78 -19.5zM46 421q-25 13 -25 52q0 23 20.5 40t44.5 17
q39 0 64.5 -25t25.5 -64v-315q0 -12 10 -17q25 -13 25 -52q0 -23 -20.5 -40t-44.5 -17q-39 0 -64.5 25t-25.5 64v315q0 12 -10 17z" />
    <glyph glyph-name="Iogonek" unicode="&#x12e;" horiz-adv-x="301" 
d="M96 0q9 6 21 11q-24 18 -24 48v596q0 25 17.5 42t41.5 17t41 -17t17 -42v-596q0 -21 -16 -40t-36 -19q-14 0 -22 -11.5t-8 -28.5t13 -27.5t28 -10.5q35 0 35 -35q0 -14 -10 -23t-24 -9q-103 0 -103 86q0 20 7.5 34.5t14.5 19.5z" />
    <glyph glyph-name="iogonek" unicode="&#x12f;" 
d="M76 421q-25 13 -25 52q0 23 20.5 40t44.5 17q39 0 64.5 -25t25.5 -64v-315q0 -12 10 -17q25 -13 25 -52q0 -23 -20.5 -40t-44.5 -17h-4q-14 0 -21.5 -11.5t-7.5 -28.5t13 -27.5t28 -10.5q35 0 35 -35q0 -14 -10 -23t-24 -9q-103 0 -103 86q0 53 49 70q-45 23 -45 78v315
q0 12 -10 17zM137 613q-30 0 -51 21.5t-21 51.5t21 51.5t51 21.5t51.5 -21.5t21.5 -51.5t-21 -51.5t-52 -21.5z" />
    <glyph glyph-name="Idotaccent" unicode="&#x130;" horiz-adv-x="301" 
d="M150 0q23 0 40.5 18t17.5 41v596q0 25 -17 42t-41 17t-41.5 -17t-17.5 -42v-596q0 -25 17.5 -42t41.5 -17zM80 851q0 29 20 49t49 20t49.5 -20t20.5 -49q0 -28 -20.5 -47.5t-49.5 -19.5t-49 19.5t-20 47.5z" />
    <glyph glyph-name="dotlessi" unicode="&#x131;" 
d="M78 421q-25 13 -25 52q0 23 20.5 40t44.5 17q39 0 64.5 -25t25.5 -64v-315q0 -12 10 -17q25 -13 25 -52q0 -23 -20.5 -40t-44.5 -17q-39 0 -64.5 25t-25.5 64v315q0 12 -10 17z" />
    <glyph glyph-name="Jcircumflex" unicode="&#x134;" horiz-adv-x="589" 
d="M479 588v-333q0 -122 -62.5 -188.5t-169.5 -66.5q-68 0 -115 26t-92 78q-25 28 -10.5 63.5t52.5 35.5q28 0 46 -21q24 -27 35.5 -38.5t33.5 -20.5t52 -9q56 0 83 38.5t27 101.5v371q0 39 25.5 64t64.5 25q24 0 44.5 -17t20.5 -40q0 -39 -25 -52q-10 -5 -10 -17zM429 957
q6 0 11 -1t11.5 -5t11.5 -7.5t15 -13l18.5 -18l25 -25l31.5 -30.5q13 -13 13 -28q0 -17 -12 -29t-30 -12q-14 0 -22 6l-73 48l-73 -48q-8 -6 -22 -6q-18 0 -30 12t-12 29q0 15 13 28l31.5 30.5l25 25l18.5 18t15 13t11.5 7.5t11.5 5t11 1z" />
    <glyph glyph-name="jcircumflex" unicode="&#x135;" horiz-adv-x="301" 
d="M200 404v-421q0 -72 -41 -117.5t-109 -45.5h-13q-26 0 -44 17t-18 42q0 24 16.5 39.5t40.5 15.5h12q36 0 36 51v456q0 39 25.5 64t64.5 25q24 0 44.5 -17t20.5 -40q0 -39 -25 -52q-10 -5 -10 -17zM150 769q6 0 11 -1t11.5 -5t11.5 -7.5t15 -13l18.5 -18l25 -25
l31.5 -30.5q13 -13 13 -28q0 -17 -12 -29t-30 -12q-14 0 -22 6l-73 48l-73 -48q-8 -6 -22 -6q-18 0 -30 12t-12 29q0 15 13 28l31.5 30.5l25 25l18.5 18t15 13t11.5 7.5t11.5 5t11 1z" />
    <glyph glyph-name="Kcommaaccent" unicode="&#x136;" horiz-adv-x="731" 
d="M298 -204q-18 -12 -18 -28q0 -9 4 -14q8 -15 25 -15q7 0 19 5q60 33 76 75q10 23 10 46q0 34 -19 59.5t-51 25.5q-23 0 -40 -15.5t-17 -38.5q0 -22 15 -37q14 -14 35 -14h4q-10 -29 -43 -49zM241 624v-193l-3 -56l1 -1l51 58l201 209q4 4 4 8q-3 26 16 47q18 18 43 18
q27 0 47.5 -22t20.5 -49q0 -40 -31 -73l-170 -176l209 -265q3 -4 7 -4q24 -1 40.5 -19t16.5 -41q0 -26 -21.5 -45.5t-48.5 -19.5q-47 0 -78 40l-210 266l-95 -99v-117q0 -41 -38 -71q-25 -19 -57 -19q-24 0 -42 17t-18 41q0 33 25 48q10 6 10 10v482q0 4 -10 10
q-25 15 -25 48q0 23 18 40.5t42 17.5q40 0 67.5 -25.5t27.5 -64.5z" />
    <glyph glyph-name="kcommaaccent" unicode="&#x137;" horiz-adv-x="563" 
d="M235 -204q-18 -12 -18 -28q0 -11 8.5 -20t20.5 -9q7 0 19 5q86 47 86 121q0 34 -19 59.5t-51 25.5q-23 0 -40 -15.5t-17 -38.5t15.5 -37.5t38.5 -13.5q-10 -29 -43 -49zM122 0q-24 0 -44.5 16.5t-20.5 40.5q0 39 25 52q10 5 10 17v498q0 12 -10 17q-25 13 -25 52
q0 23 20.5 40t44.5 17q39 0 64.5 -25t25.5 -64v-276l-3 -60l36 43l94 94q6 6 6 11q0 1 -0.5 4.5t-0.5 5.5q0 25 17 41t42 16q29 0 49.5 -22.5t20.5 -51.5q0 -39 -31 -70l-101 -102l119 -160q5 -6 17 -8q22 -1 36.5 -17.5t14.5 -38.5q0 -29 -22 -49.5t-51 -20.5q-44 0 -76 42
l-124 167l-43 -44v-76q0 -39 -25.5 -64t-64.5 -25z" />
    <glyph glyph-name="kgreenlandic" unicode="&#x138;" horiz-adv-x="554" 
d="M123 0q-24 0 -43.5 16.5t-21.5 40.5q-2 16 5 30.5t20 21.5q10 5 10 17v278q0 12 -10 17q-28 14 -25 52q2 23 22 40t43 17q39 0 64.5 -25t25.5 -64v-66l-3 -60l36 43l84 94q6 6 6 11q0 1 -0.5 4.5t-0.5 5.5q0 25 17 41t42 16q29 0 49.5 -22.5t20.5 -51.5q0 -36 -31 -70
l-96 -106l114 -146q5 -6 17 -8q22 -1 36.5 -17.5t14.5 -38.5q0 -29 -22 -49.5t-51 -20.5q-44 0 -76 42l-114 157l-43 -44v-66q0 -39 -25.5 -64t-64.5 -25z" />
    <glyph glyph-name="Lacute" unicode="&#x139;" horiz-adv-x="612" 
d="M229 120h293q24 0 42 -18t18 -42t-17.5 -42t-42.5 -18h-382q-24 0 -42 17.5t-18 42.5q0 34 25 47q10 6 10 11v480q0 6 -10 10q-25 15 -25 48q0 23 18 40.5t42 17.5q33 0 53 -13q42 -29 42 -77v-472q0 -22 -6 -32zM235 852q-3 -1 -134 -58q-12 -5 -20 -5q-16 0 -27 11.5
t-11 26.5q0 19 16 34l110 93q40 30 76 0q30 -26 24 -61q-5 -27 -34 -41z" />
    <glyph glyph-name="lacute" unicode="&#x13a;" 
d="M78 641q-25 13 -25 52q0 23 20.5 40t44.5 17q39 0 64.5 -25t25.5 -64v-535q0 -12 10 -17q25 -13 25 -52q0 -23 -20.5 -40t-44.5 -17q-39 0 -64.5 25t-25.5 64v535q0 12 -10 17zM202 852q-3 -1 -134 -58q-12 -5 -20 -5q-16 0 -27 11.5t-11 26.5q0 19 16 34l110 93
q40 30 76 0q30 -26 24 -61q-5 -27 -34 -41z" />
    <glyph glyph-name="Lcommaaccent" unicode="&#x13b;" horiz-adv-x="618" 
d="M277 -204q33 20 43 49h-4q-21 0 -35 14q-15 15 -15 37q0 23 17 38.5t40 15.5q32 0 51 -25.5t19 -59.5q0 -23 -10 -46v1q-16 -43 -76 -76q-30 -14 -44 10q-15 22 14 42zM235 120h293q24 0 42 -18t18 -42t-17.5 -42t-42.5 -18h-382q-24 0 -42 17.5t-18 42.5q0 34 25 47
q10 6 10 11v480q0 6 -10 10q-25 15 -25 48q0 23 18 40.5t42 17.5q33 0 53 -13q42 -29 42 -77v-472q0 -22 -6 -32z" />
    <glyph glyph-name="lcommaaccent" unicode="&#x13c;" 
d="M96 -204q-18 -12 -18 -28q0 -11 8.5 -20t20.5 -9q7 0 19 5q60 33 76 75q10 23 10 46q0 34 -19 59.5t-51 25.5q-23 0 -40 -15.5t-17 -38.5q0 -22 15 -37q14 -14 35 -14h4q-10 -29 -43 -49zM77 642q-25 12 -25 52q0 23 20.5 40t44.5 17q39 0 64.5 -25t25.5 -64v-535
q0 -12 10 -17q25 -12 25 -52q0 -23 -20.5 -40t-44.5 -17q-39 0 -64.5 25t-25.5 64v535q0 12 -10 17z" />
    <glyph glyph-name="Lcaron" unicode="&#x13d;" horiz-adv-x="618" 
d="M340 452q-15 0 -22 7q-8 8 -8 22q0 8 5 16q35 50 35 111q0 3 -1.5 16t-1.5 21q0 21 15 35.5t35 14.5q52 0 52 -71q0 -49 -23.5 -86t-67.5 -79q-7 -7 -18 -7zM235 120h293q24 0 42 -18t18 -42t-17.5 -42t-42.5 -18h-382q-24 0 -42 17.5t-18 42.5q0 34 25 47q10 6 10 11
v480q0 6 -10 10q-25 15 -25 48q0 23 18 40.5t42 17.5q33 0 53 -13q42 -29 42 -77v-472q0 -22 -6 -32z" />
    <glyph glyph-name="lcaron" unicode="&#x13e;" horiz-adv-x="336" 
d="M287 507q11 0 18 7q43 40 67 78t24 87q0 71 -52 71q-24 0 -40 -19q-10 -13 -10 -31v-4q0 -3 1.5 -15t1.5 -18q0 -61 -35 -111q-5 -8 -5 -16q0 -11 9 -20t21 -9zM77 642q-25 12 -25 52q0 23 20.5 40t44.5 17q39 0 64.5 -25t25.5 -64v-535q0 -12 10 -17q25 -12 25 -52
q0 -23 -20.5 -40t-44.5 -17q-39 0 -64.5 25t-25.5 64v535q0 12 -10 17z" />
    <glyph glyph-name="Ldot" unicode="&#x13f;" horiz-adv-x="618" 
d="M235 120h293q24 0 42 -18t18 -42t-17.5 -42t-42.5 -18h-382q-24 0 -42 17.5t-18 42.5q0 34 25 47q10 6 10 11v480q0 6 -10 10q-25 15 -25 48q0 23 18 40.5t42 17.5q33 0 53 -13q42 -29 42 -77v-472q0 -22 -6 -32zM404 410q25 0 43 -17.5t18 -42.5t-18 -42.5t-43 -17.5
q-24 0 -42 17.5t-18 42.5t18 42.5t42 17.5z" />
    <glyph glyph-name="ldot" unicode="&#x140;" horiz-adv-x="415" 
d="M77 641q-25 13 -25 52q0 23 20.5 40t44.5 17q39 0 64.5 -25t25.5 -64v-535q0 -12 10 -17q25 -13 25 -52q0 -23 -20.5 -40t-44.5 -17q-39 0 -64.5 25t-25.5 64v535q0 12 -10 17zM327 442q-24 0 -42 -17.5t-18 -42.5t18 -42.5t42 -17.5q25 0 43 17.5t18 42.5t-18 42.5
t-43 17.5z" />
    <glyph glyph-name="Lslash" unicode="&#x141;" horiz-adv-x="604" 
d="M221 120h293q24 0 42 -18t18 -42t-17.5 -42t-42.5 -18h-382q-24 0 -42 17.5t-18 42.5q0 34 25 47q10 6 10 11v184l-23 -10q-13 -5 -26 1t-18 19q-11 29 14 43q34 14 53 21v222q0 6 -10 10q-25 15 -25 48q0 23 18 40.5t42 17.5q40 0 67.5 -25.5t27.5 -64.5v-198l107 45
q13 4 26 -1.5t18 -17.5t0 -25.5t-17 -18.5l-134 -56v-200q0 -16 -6 -32z" />
    <glyph glyph-name="lslash" unicode="&#x142;" horiz-adv-x="401" 
d="M130 641q-25 13 -25 52q0 23 20.5 40t44.5 17q39 0 64.5 -25t25.5 -64v-253l51 15q17 5 27 -5t6.5 -24.5t-19.5 -19.5l-65 -19v-229q0 -12 10 -17q25 -13 25 -52q0 -23 -20.5 -40t-44.5 -17q-39 0 -64.5 25t-25.5 64v227l-52 -16q-11 -3 -19.5 0.5t-12 10t-4 14.5t5 15
t15.5 10l67 19v255q0 12 -10 17z" />
    <glyph glyph-name="Nacute" unicode="&#x143;" horiz-adv-x="818" 
d="M694 588v-462q0 -12 10 -17q27 -13 27 -52q0 -26 -20.5 -41.5t-46.5 -15.5q-43 0 -78 42l-297 359l-48 66h-2l4 -70v-308q0 -39 -25.5 -64t-64.5 -25q-24 0 -44.5 17t-20.5 40q0 39 25 52q10 5 10 17v463q0 10 -11 17q-25 13 -25 50q0 24 19 41t44 17q46 0 75 -36
l303 -365l48 -66h2l-4 70v308q0 39 25.5 64t64.5 25q24 0 44.5 -17t20.5 -40q0 -39 -25 -52q-10 -5 -10 -17zM503 852q-3 -1 -134 -58q-12 -5 -20 -5q-16 0 -27 11.5t-11 26.5q0 19 16 34l110 93q40 30 76 0q30 -26 24 -61q-5 -27 -34 -41z" />
    <glyph glyph-name="nacute" unicode="&#x144;" horiz-adv-x="661" 
d="M82 109q10 5 10 17v286q0 6 -11 15q-18 15 -18 42q0 25 20 43t44 18q31 0 51.5 -18t24.5 -53q20 35 59 53t75 18q107 0 169.5 -57t62.5 -175v-172q0 -12 10 -17q25 -13 25 -52q0 -23 -20 -40t-45 -17q-39 0 -64.5 25t-25.5 64v215q0 107 -119 107q-50 0 -84 -33t-34 -84
v-205q0 -39 -25.5 -64t-64.5 -25q-27 0 -46 16.5t-19 40.5q0 39 25 52zM430 664q-3 -1 -134 -58q-12 -5 -20 -5q-16 0 -27 11.5t-11 26.5q0 19 16 34l110 93q40 30 76 0q30 -26 24 -61q-5 -27 -34 -41z" />
    <glyph glyph-name="Ncommaaccent" unicode="&#x145;" horiz-adv-x="818" 
d="M358 -204q-28 -19 -14 -42.5t44 -9.5q86 47 86 121q0 37 -18 61t-51 24q-23 0 -40.5 -15.5t-17.5 -38.5t14.5 -37t35.5 -14h4q-9 -27 -43 -49zM694 588v-462q0 -12 10 -17q27 -13 27 -52q0 -26 -20.5 -41.5t-46.5 -15.5q-43 0 -78 42l-297 359l-48 66h-2l4 -70v-308
q0 -39 -25.5 -64t-64.5 -25q-24 0 -44.5 17t-20.5 40q0 39 25 52q10 5 10 17v463q0 10 -11 17q-25 13 -25 50q0 24 19 41t44 17q46 0 75 -36l303 -365l48 -66h2l-4 70v308q0 39 25.5 64t64.5 25q24 0 44.5 -17t20.5 -40q0 -39 -25 -52q-10 -5 -10 -17z" />
    <glyph glyph-name="ncommaaccent" unicode="&#x146;" horiz-adv-x="661" 
d="M279 -204q-18 -12 -18 -28q0 -11 8.5 -20t20.5 -9q7 0 19 5q60 33 76 75q10 23 10 46q0 34 -19 59.5t-51 25.5q-23 0 -40 -15.5t-17 -38.5q0 -21 14.5 -36t35.5 -15h4q-10 -29 -43 -49zM82 109q10 5 10 17v286q0 6 -11 15q-18 15 -18 42q0 25 20 43t44 18q31 0 51.5 -18
t24.5 -53q20 35 59 53t75 18q107 0 169.5 -57t62.5 -175v-172q0 -12 10 -17q25 -13 25 -52q0 -23 -20 -40t-45 -17q-39 0 -64.5 25t-25.5 64v215q0 107 -119 107q-50 0 -84 -33t-34 -84v-205q0 -39 -25.5 -64t-64.5 -25q-27 0 -46 16.5t-19 40.5q0 39 25 52z" />
    <glyph glyph-name="Ncaron" unicode="&#x147;" horiz-adv-x="818" 
d="M694 588v-462q0 -12 10 -17q27 -13 27 -52q0 -26 -20.5 -41.5t-46.5 -15.5q-43 0 -78 42l-297 359l-48 66h-2l4 -70v-308q0 -39 -25.5 -64t-64.5 -25q-24 0 -44.5 17t-20.5 40q0 39 25 52q10 5 10 17v463q0 10 -11 17q-25 13 -25 50q0 24 19 41t44 17q46 0 75 -36
l303 -365l48 -66h2l-4 70v308q0 39 25.5 64t64.5 25q24 0 44.5 -17t20.5 -40q0 -39 -25 -52q-10 -5 -10 -17zM409 788q-6 0 -11 1t-11.5 5t-11.5 7.5t-15 13l-18.5 18l-25 25l-31.5 30.5q-13 13 -13 28q0 17 12 29t30 12q14 0 22 -6l73 -48l73 48q8 6 22 6q18 0 30 -12
t12 -29q0 -15 -13 -28l-31.5 -30.5l-25 -25l-18.5 -18t-15 -13t-11.5 -7.5t-11.5 -5t-11 -1z" />
    <glyph glyph-name="ncaron" unicode="&#x148;" horiz-adv-x="661" 
d="M82 109q10 5 10 17v286q0 6 -11 15q-18 15 -18 42q0 25 20 43t44 18q31 0 51.5 -18t24.5 -53q20 35 59 53t75 18q107 0 169.5 -57t62.5 -175v-172q0 -12 10 -17q25 -13 25 -52q0 -23 -20 -40t-45 -17q-39 0 -64.5 25t-25.5 64v215q0 107 -119 107q-50 0 -84 -33t-34 -84
v-205q0 -39 -25.5 -64t-64.5 -25q-27 0 -46 16.5t-19 40.5q0 39 25 52zM336 600q-6 0 -11 1t-11.5 5t-11.5 7.5t-15 13l-18.5 18l-25 25l-31.5 30.5q-13 13 -13 28q0 17 12 29t30 12q14 0 22 -6l73 -48l73 48q8 6 22 6q18 0 30 -12t12 -29q0 -15 -13 -28l-31.5 -30.5
l-25 -25l-18.5 -18t-15 -13t-11.5 -7.5t-11.5 -5t-11 -1z" />
    <glyph glyph-name="Eng" unicode="&#x14a;" horiz-adv-x="814" 
d="M123 116v483q0 4 -11 11q-25 13 -25 47q0 24 18 41t42 17q48 0 77 -36l349 -479v425q0 49 41 77q20 13 53 13q24 0 42 -17t18 -41q0 -34 -25 -47q-9 -5 -9 -11v-669q0 -72 -41 -117t-109 -45h-12q-27 0 -44.5 16.5t-17.5 42.5q0 23 16.5 39t40.5 16h11q36 0 36 50v68
l-331 457v-367q0 -39 -27.5 -64.5t-67.5 -25.5q-24 0 -42 17t-18 41q0 34 25 47q11 7 11 11z" />
    <glyph glyph-name="eng" unicode="&#x14b;" horiz-adv-x="608" 
d="M405 -118q36 0 36 50v356q0 64 -30 93t-95 29q-49 0 -79.5 -31t-30.5 -81v-205q0 -38 -23 -66t-62 -28q-24 0 -44 18t-20 43q0 27 18 42q11 9 11 15v297q0 5 -11 14q-15 12 -15 41q0 25 19 43.5t45 18.5q25 0 45.5 -14.5t25.5 -36.5q18 25 52.5 38t69.5 13
q118 0 181 -62.5t63 -180.5v-358q0 -72 -41 -117t-109 -45h-12q-27 0 -44.5 16.5t-17.5 42.5q0 23 16.5 39t40.5 16h11z" />
    <glyph glyph-name="Omacron" unicode="&#x14c;" horiz-adv-x="844" 
d="M420 604q103 0 176 -72t73 -173q0 -103 -72 -175.5t-173 -72.5q-104 0 -176 72.5t-72 175.5q0 101 71.5 173t172.5 72zM424 -10q146 0 255.5 109t109.5 260q0 146 -107 255.5t-258 109.5q-148 0 -258.5 -107t-110.5 -258q0 -150 108.5 -259.5t260.5 -109.5zM284 856
q0 19 13.5 32.5t34.5 13.5h218q19 0 33.5 -13.5t14.5 -32.5q0 -20 -14.5 -33.5t-33.5 -13.5h-218q-21 0 -34.5 13.5t-13.5 33.5z" />
    <glyph glyph-name="omacron" unicode="&#x14d;" horiz-adv-x="621" 
d="M310 414q62 0 106 -44t44 -106q0 -61 -44 -104.5t-106 -43.5t-105 43.5t-43 104.5q0 62 43 106t105 44zM310 -4q111 0 190 79t79 189q0 112 -78.5 190.5t-190.5 78.5q-111 0 -189.5 -79t-78.5 -190q0 -110 79 -189t189 -79zM153 672q0 19 13.5 32.5t34.5 13.5h218
q19 0 33.5 -13.5t14.5 -32.5q0 -20 -14.5 -33.5t-33.5 -13.5h-218q-21 0 -34.5 13.5t-13.5 33.5z" />
    <glyph glyph-name="Obreve" unicode="&#x14e;" horiz-adv-x="844" 
d="M420 604q103 0 176 -72t73 -173q0 -103 -72 -175.5t-173 -72.5q-104 0 -176 72.5t-72 175.5q0 101 71.5 173t172.5 72zM424 -10q146 0 255.5 109t109.5 260q0 146 -107 255.5t-258 109.5q-148 0 -258.5 -107t-110.5 -258q0 -150 108.5 -259.5t260.5 -109.5zM424 783
q-50 0 -89 22t-58 58q-6 12 -6 27q0 22 15 37.5t37 15.5q26 0 43 -26q23 -32 58 -32q32 0 53 32q16 26 45 26q22 0 36.5 -15t14.5 -37q0 -16 -7 -28q-43 -80 -142 -80z" />
    <glyph glyph-name="obreve" unicode="&#x14f;" horiz-adv-x="621" 
d="M310 414q62 0 106 -44t44 -106q0 -61 -44 -104.5t-106 -43.5t-105 43.5t-43 104.5q0 62 43 106t105 44zM310 -4q111 0 190 79t79 189q0 112 -78.5 190.5t-190.5 78.5q-111 0 -189.5 -79t-78.5 -190q0 -110 79 -189t189 -79zM312 599q-50 0 -89 22t-58 58q-6 12 -6 27
q0 22 15 37.5t37 15.5q26 0 43 -26q23 -32 58 -32q32 0 53 32q16 26 45 26q22 0 36.5 -15t14.5 -37q0 -16 -7 -28q-43 -80 -142 -80z" />
    <glyph glyph-name="Ohungarumlaut" unicode="&#x150;" horiz-adv-x="844" 
d="M420 604q-101 0 -172.5 -72t-71.5 -173q0 -103 72 -175.5t176 -72.5q101 0 173 72.5t72 175.5q0 101 -73 173t-176 72zM424 -10q-152 0 -260.5 109.5t-108.5 259.5q0 151 110.5 258t258.5 107q151 0 258 -109.5t107 -255.5q0 -151 -109.5 -260t-255.5 -109zM421 881
l-102 -85q-14 -11 -29 -11q-16 0 -26.5 10.5t-10.5 26.5q0 14 8 26l71 110q15 22 43 22q27 0 45.5 -17.5t18.5 -43.5q0 -23 -18 -38zM607 880l-105 -84q-14 -11 -29 -11q-16 0 -26 10.5t-10 26.5q0 14 8 26l70 112q14 22 43 22q26 0 46 -19t20 -45q0 -23 -17 -38z" />
    <glyph glyph-name="ohungarumlaut" unicode="&#x151;" horiz-adv-x="621" 
d="M310 414q-62 0 -105 -44t-43 -106q0 -61 43 -104.5t105 -43.5t106 43.5t44 104.5q0 62 -44 106t-106 44zM310 -4q-110 0 -189 79t-79 189q0 111 78.5 190t189.5 79q112 0 190.5 -78.5t78.5 -190.5q0 -110 -79 -189t-190 -79zM319 697l-102 -85q-14 -11 -29 -11
q-16 0 -26.5 10.5t-10.5 26.5q0 14 8 26l71 110q15 22 43 22q27 0 45.5 -17.5t18.5 -43.5q0 -23 -18 -38zM505 696l-105 -84q-14 -11 -29 -11q-16 0 -26 10.5t-10 26.5q0 14 8 26l70 112q14 22 43 22q26 0 46 -19t20 -45q0 -23 -17 -38z" />
    <glyph glyph-name="OE" unicode="&#x152;" horiz-adv-x="1031" 
d="M929 0h-519q-148 0 -250 105q-105 107 -105 252q0 147 105 254q103 103 252 103h519q24 0 41.5 -18t17.5 -42q0 -25 -17 -42.5t-42 -17.5h-305q4 -9 4 -29v-158h246q24 0 41.5 -16.5t17.5 -39.5q0 -26 -17 -44t-42 -18h-246v-140q0 -20 -4 -29h303q25 0 42.5 -18
t17.5 -43q0 -24 -17.5 -41.5t-42.5 -17.5zM172 357q0 -100 70 -170t170 -70h98v477h-98q-100 0 -170 -68.5t-70 -168.5z" />
    <glyph glyph-name="oe" unicode="&#x153;" horiz-adv-x="1051" 
d="M951 215h-330q15 -47 51 -76.5t82 -29.5q77 0 118 42q16 18 43 18q23 0 40.5 -16.5t17.5 -40.5t-16 -41q-74 -75 -204 -75q-69 0 -125.5 34t-90.5 92q-36 -58 -96.5 -92t-130.5 -34q-110 0 -189 79t-79 189q0 111 78.5 190t189.5 79q71 0 131 -34t96 -91q34 58 90.5 92.5
t125.5 34.5q106 0 181 -78.5t75 -185.5q0 -22 -17.5 -39t-40.5 -17zM310 414q-62 0 -105 -44t-43 -106q0 -61 43 -104.5t105 -43.5t106 43.5t44 104.5q0 62 -44 106t-106 44zM755 418q-49 0 -85.5 -32t-49.5 -80h266q-12 47 -47.5 79t-83.5 33z" />
    <glyph glyph-name="Racute" unicode="&#x154;" horiz-adv-x="729" 
d="M672 66q0 -29 -24.5 -47.5t-57.5 -18.5q-23 0 -43 13.5t-31 33.5l-132 239h-141v-196q0 -50 -41 -77q-22 -13 -53 -13q-24 0 -43 17t-19 41q0 34 26 47q10 6 10 11v482q0 5 -10 11q-26 13 -26 47q0 24 18.5 41t42.5 17h265q89 0 151.5 -62.5t62.5 -151.5
q0 -62 -32.5 -113.5t-85.5 -77.5l100 -181q2 -4 14 -4q21 0 35 -18t14 -40zM243 565v-161h170q40 0 68 28t28 68t-28 67t-68 27h-174q4 -9 4 -29zM417 852q-3 -1 -134 -58q-12 -5 -20 -5q-16 0 -27 11.5t-11 26.5q0 19 16 34l110 93q40 30 76 0q30 -26 24 -61
q-5 -27 -34 -41z" />
    <glyph glyph-name="racute" unicode="&#x155;" horiz-adv-x="467" 
d="M82 109q10 5 10 17v284q0 6 -12 15q-17 13 -17 43q0 25 20 43.5t46 18.5q61 0 79 -65q45 68 119 68q48 0 90 -21q28 -14 28 -49q0 -22 -15.5 -39.5t-38.5 -17.5q-12 0 -36.5 8t-38.5 8h-4q-41 0 -70 -29q-30 -31 -30 -98v-206q0 -39 -25.5 -64t-64.5 -25q-24 0 -44.5 17
t-20.5 40q0 39 25 52zM323 664q-3 -1 -134 -58q-12 -5 -20 -5q-16 0 -27 11.5t-11 26.5q0 19 16 34l110 93q40 30 76 0q30 -26 24 -61q-5 -27 -34 -41z" />
    <glyph glyph-name="Rcommaaccent" unicode="&#x156;" horiz-adv-x="729" 
d="M310 -204q-29 -20 -14 -42q14 -24 44 -10q60 33 76 76v-1q10 23 10 46q0 34 -19 59.5t-51 25.5q-23 0 -40 -15.5t-17 -38.5q0 -22 15 -37q14 -14 35 -14h4q-10 -29 -43 -49zM672 66q0 -29 -24.5 -47.5t-57.5 -18.5q-23 0 -43 13.5t-31 33.5l-132 239h-141v-196
q0 -50 -41 -77q-22 -13 -53 -13q-24 0 -43 17t-19 41q0 34 26 47q10 6 10 11v482q0 5 -10 11q-26 13 -26 47q0 24 18.5 41t42.5 17h265q89 0 151.5 -62.5t62.5 -151.5q0 -62 -32.5 -113.5t-85.5 -77.5l100 -181q2 -4 14 -4q21 0 35 -18t14 -40zM243 565v-161h170q40 0 68 28
t28 68t-28 67t-68 27h-174q4 -9 4 -29z" />
    <glyph glyph-name="rcommaaccent" unicode="&#x157;" horiz-adv-x="467" 
d="M84 -204q-18 -12 -18 -28q0 -11 8.5 -20t20.5 -9q7 0 19 5q37 18 61.5 51t24.5 70q0 34 -19 59.5t-51 25.5q-23 0 -40 -15.5t-17 -38.5q0 -21 14.5 -36t35.5 -15h4q-10 -29 -43 -49zM82 109q10 5 10 17v284q0 6 -12 15q-17 13 -17 43q0 25 20 43.5t46 18.5q61 0 79 -65
q45 68 119 68q48 0 90 -21q28 -14 28 -49q0 -22 -15.5 -39.5t-38.5 -17.5q-12 0 -36.5 8t-38.5 8h-4q-41 0 -70 -29q-30 -31 -30 -98v-206q0 -39 -25.5 -64t-64.5 -25q-24 0 -44.5 17t-20.5 40q0 39 25 52z" />
    <glyph glyph-name="Rcaron" unicode="&#x158;" horiz-adv-x="729" 
d="M672 66q0 -29 -24.5 -47.5t-57.5 -18.5q-23 0 -43 13.5t-31 33.5l-132 239h-141v-196q0 -50 -41 -77q-22 -13 -53 -13q-24 0 -43 17t-19 41q0 34 26 47q10 6 10 11v482q0 5 -10 11q-26 13 -26 47q0 24 18.5 41t42.5 17h265q89 0 151.5 -62.5t62.5 -151.5
q0 -62 -32.5 -113.5t-85.5 -77.5l100 -181q2 -4 14 -4q21 0 35 -18t14 -40zM243 565v-161h170q40 0 68 28t28 68t-28 67t-68 27h-174q4 -9 4 -29zM315 788q-6 0 -11 1t-11.5 5t-11.5 7.5t-15 13l-18.5 18l-25 25l-31.5 30.5q-13 13 -13 28q0 17 12 29t30 12q14 0 22 -6
l73 -48l73 48q8 6 22 6q18 0 30 -12t12 -29q0 -15 -13 -28l-31.5 -30.5l-25 -25l-18.5 -18t-15 -13t-11.5 -7.5t-11.5 -5t-11 -1z" />
    <glyph glyph-name="rcaron" unicode="&#x159;" horiz-adv-x="467" 
d="M82 109q10 5 10 17v284q0 6 -12 15q-17 13 -17 43q0 25 20 43.5t46 18.5q61 0 79 -65q45 68 119 68q48 0 90 -21q28 -14 28 -49q0 -22 -15.5 -39.5t-38.5 -17.5q-12 0 -36.5 8t-38.5 8h-4q-41 0 -70 -29q-30 -31 -30 -98v-206q0 -39 -25.5 -64t-64.5 -25q-24 0 -44.5 17
t-20.5 40q0 39 25 52zM248 600q-6 0 -11 1t-11.5 5t-11.5 7.5t-15 13l-18.5 18l-25 25l-31.5 30.5q-13 13 -13 28q0 17 12 29t30 12q14 0 22 -6l73 -48l73 48q8 6 22 6q18 0 30 -12t12 -29q0 -15 -13 -28l-31.5 -30.5l-25 -25l-18.5 -18t-15 -13t-11.5 -7.5t-11.5 -5t-11 -1
z" />
    <glyph glyph-name="Sacute" unicode="&#x15a;" horiz-adv-x="588" 
d="M539 192q0 -53 -25 -93.5t-64.5 -63.5t-83 -34t-87.5 -11q-135 0 -209 70q-18 20 -17.5 43.5t14.5 37.5t35.5 19t46.5 -12q58 -39 128 -39q60 0 101.5 22.5t41.5 57.5q0 17 -10.5 32.5t-22.5 25.5t-38 22t-37.5 16.5t-40.5 14.5q-43 15 -67.5 25t-58.5 29.5t-52.5 40.5
t-32 54.5t-13.5 75.5q0 86 74.5 142.5t173.5 56.5q117 0 194 -66q20 -17 21.5 -41.5t-12.5 -40.5t-35.5 -22.5t-47.5 12.5q-54 39 -120 39q-54 0 -91.5 -23t-37.5 -57q0 -21 12 -39t37 -32.5t45.5 -23.5t54.5 -21q39 -14 62 -23t58 -28.5t54.5 -40t34.5 -53t15 -72.5z
M368 852q-3 -1 -134 -58q-12 -5 -20 -5q-16 0 -27 11.5t-11 26.5q0 19 16 34l110 93q40 30 76 0q30 -26 24 -61q-5 -27 -34 -41z" />
    <glyph glyph-name="sacute" unicode="&#x15b;" horiz-adv-x="457" 
d="M41 92q0 25 16.5 41.5t40.5 18.5q22 0 39 -12q30 -21 77 -21q79 0 79 41q0 28 -29 43.5t-78.5 30t-75.5 31.5q-73 46 -73 115q0 73 59 115t135 42q75 0 136 -45q24 -18 24 -46q0 -25 -16 -42t-44 -17q-14 0 -30 8q-44 23 -77 23q-25 0 -45.5 -9t-20.5 -30
q0 -12 12.5 -22.5t26 -16t36 -13t27.5 -9.5q34 -13 56.5 -25t47.5 -31t38 -45.5t13 -60.5q0 -74 -63.5 -115t-141.5 -41t-139 41q-28 18 -30 51zM298 664q-3 -1 -134 -58q-12 -5 -20 -5q-16 0 -27 11.5t-11 26.5q0 19 16 34l110 93q40 30 76 0q30 -26 24 -61q-5 -27 -34 -41
z" />
    <glyph glyph-name="Scircumflex" unicode="&#x15c;" horiz-adv-x="587" 
d="M538 192q0 -53 -25 -93.5t-64.5 -63.5t-83 -34t-87.5 -11q-135 0 -209 70q-18 20 -17.5 43.5t14.5 37.5t35.5 19t46.5 -12q58 -39 128 -39q60 0 101.5 22.5t41.5 57.5q0 17 -10.5 32.5t-22.5 25.5t-38 22t-37.5 16.5t-40.5 14.5q-43 15 -67.5 25t-58.5 29.5t-52.5 40.5
t-32 54.5t-13.5 75.5q0 86 74.5 142.5t173.5 56.5q117 0 194 -66q20 -17 21.5 -41.5t-12.5 -40.5t-35.5 -22.5t-47.5 12.5q-54 39 -120 39q-54 0 -91.5 -23t-37.5 -57q0 -21 12 -39t37 -32.5t45.5 -23.5t54.5 -21q39 -14 62 -23t58 -28.5t54.5 -40t34.5 -53t15 -72.5z
M296 957q6 0 11 -1t11.5 -5t11.5 -7.5t15 -13l18.5 -18l25 -25l31.5 -30.5q13 -13 13 -28q0 -17 -12 -29t-30 -12q-14 0 -22 6l-73 48l-73 -48q-8 -6 -22 -6q-18 0 -30 12t-12 29q0 15 13 28l31.5 30.5l25 25l18.5 18t15 13t11.5 7.5t11.5 5t11 1z" />
    <glyph glyph-name="scircumflex" unicode="&#x15d;" horiz-adv-x="457" 
d="M41 92q0 25 16.5 41.5t40.5 18.5q22 0 39 -12q30 -21 77 -21q79 0 79 41q0 28 -29 43.5t-78.5 30t-75.5 31.5q-73 46 -73 115q0 73 59 115t135 42q75 0 136 -45q24 -18 24 -46q0 -25 -16 -42t-44 -17q-14 0 -30 8q-44 23 -77 23q-25 0 -45.5 -9t-20.5 -30
q0 -12 12.5 -22.5t26 -16t36 -13t27.5 -9.5q34 -13 56.5 -25t47.5 -31t38 -45.5t13 -60.5q0 -74 -63.5 -115t-141.5 -41t-139 41q-28 18 -30 51zM227 769q6 0 11 -1t11.5 -5t11.5 -7.5t15 -13l18.5 -18l25 -25l31.5 -30.5q13 -13 13 -28q0 -17 -12 -29t-30 -12q-14 0 -22 6
l-73 48l-73 -48q-8 -6 -22 -6q-18 0 -30 12t-12 29q0 15 13 28l31.5 30.5l25 25l18.5 18t15 13t11.5 7.5t11.5 5t11 1z" />
    <glyph glyph-name="Scedilla" unicode="&#x15e;" horiz-adv-x="588" 
d="M539 192q0 -74 -46 -121t-116 -67h1h-1q-43 -12 -77 -13l-4 -20q89 -5 89 -86q0 -48 -37.5 -73.5t-87.5 -25.5q-61 0 -95 37q-10 11 -9.5 28t11.5 28q14 12 29 12t25 -10q17 -13 35 -13q37 0 37 23q0 19 -38 22q-16 2 -27 13t-11 27q0 4 7 41q-99 12 -154 66
q-18 20 -17.5 43.5t14.5 37.5t35.5 19t46.5 -12q58 -39 128 -39q60 0 101.5 22.5t41.5 57.5q0 17 -10.5 32.5t-22.5 25.5t-38 22t-37.5 16.5t-40.5 14.5q-43 15 -67.5 25t-58.5 29.5t-52.5 40.5t-32 54.5t-13.5 75.5q0 86 74.5 142.5t173.5 56.5q117 0 194 -66
q20 -17 21.5 -41.5t-12.5 -40.5t-35.5 -22.5t-47.5 12.5q-54 39 -120 39q-54 0 -91.5 -23t-37.5 -57q0 -21 12 -39t37 -32.5t45.5 -23.5t54.5 -21q39 -14 62 -23t58 -28.5t54.5 -40t34.5 -53t15 -72.5z" />
    <glyph glyph-name="scedilla" unicode="&#x15f;" horiz-adv-x="457" 
d="M41 92q0 25 16.5 41.5t40.5 18.5q22 0 39 -12q30 -21 77 -21q79 0 79 41q0 28 -29 43.5t-78.5 30t-75.5 31.5q-73 46 -73 115q0 73 59 115t135 42q75 0 136 -45q24 -18 24 -46q0 -25 -16 -42t-44 -17q-14 0 -30 8q-44 23 -77 23q-25 0 -45.5 -9t-20.5 -30
q0 -12 12.5 -22.5t26 -16t36 -13t27.5 -9.5q34 -13 56.5 -25t47.5 -31t38 -45.5t13 -60.5q0 -65 -51 -107.5t-127 -47.5l-6 -33q42 -2 65 -24.5t23 -61.5q0 -48 -37.5 -73.5t-86.5 -25.5q-54 0 -90 38q-12 12 -12 28t11.5 27.5t27.5 11.5q15 0 26 -10q10 -12 34 -12
q36 0 36 22q0 19 -37 22q-19 2 -31 15.5t-6 33.5q9 28 12 44l-2 1h-2q-2 0 -5 1t-4 1q-43 9 -82 35q-28 18 -30 51z" />
    <glyph glyph-name="Scaron" unicode="&#x160;" horiz-adv-x="588" 
d="M539 192q0 -53 -25 -93.5t-64.5 -63.5t-83 -34t-87.5 -11q-135 0 -209 70q-18 20 -17.5 43.5t14.5 37.5t35.5 19t46.5 -12q58 -39 128 -39q60 0 101.5 22.5t41.5 57.5q0 17 -10.5 32.5t-22.5 25.5t-38 22t-37.5 16.5t-40.5 14.5q-43 15 -67.5 25t-58.5 29.5t-52.5 40.5
t-32 54.5t-13.5 75.5q0 86 74.5 142.5t173.5 56.5q117 0 194 -66q20 -17 21.5 -41.5t-12.5 -40.5t-35.5 -22.5t-47.5 12.5q-54 39 -120 39q-54 0 -91.5 -23t-37.5 -57q0 -21 12 -39t37 -32.5t45.5 -23.5t54.5 -21q39 -14 62 -23t58 -28.5t54.5 -40t34.5 -53t15 -72.5z
M293 788q-6 0 -11 1t-11.5 5t-11.5 7.5t-15 13l-18.5 18l-25 25l-31.5 30.5q-13 13 -13 28q0 17 12 29t30 12q14 0 22 -6l73 -48l73 48q8 6 22 6q18 0 30 -12t12 -29q0 -15 -13 -28l-31.5 -30.5l-25 -25l-18.5 -18t-15 -13t-11.5 -7.5t-11.5 -5t-11 -1z" />
    <glyph glyph-name="scaron" unicode="&#x161;" horiz-adv-x="457" 
d="M41 92q2 -33 30 -51q61 -41 139 -41t141.5 41t63.5 115q0 34 -13 60.5t-38 45.5t-47.5 31t-56.5 25q-5 2 -27.5 9.5t-36 13t-26 16t-12.5 22.5q0 21 20.5 30t45.5 9q33 0 77 -23q16 -8 30 -8q28 0 44 17t16 42q0 28 -24 46q-61 45 -136 45q-76 0 -135 -42t-59 -115
q0 -69 73 -115q26 -17 75.5 -31.5t78.5 -30t29 -43.5q0 -41 -79 -41q-47 0 -77 21q-17 12 -39 12q-24 -2 -40.5 -18.5t-16.5 -41.5zM229 600q-6 0 -11 1t-11.5 5t-11.5 7.5t-15 13l-18.5 18l-25 25l-31.5 30.5q-13 13 -13 28q0 17 12 29t30 12q14 0 22 -6l73 -48l73 48
q8 6 22 6q18 0 30 -12t12 -29q0 -15 -13 -28l-31.5 -30.5l-25 -25l-18.5 -18t-15 -13t-11.5 -7.5t-11.5 -5t-11 -1z" />
    <glyph glyph-name="Tcommaaccent" unicode="&#x162;" horiz-adv-x="695" 
d="M301 -204q33 20 43 49h-4q-21 0 -35 14q-15 15 -15 37q0 23 17 38.5t40 15.5q32 0 51 -25.5t19 -59.5q0 -23 -10 -46q-16 -42 -76 -75q-12 -5 -19 -5q-12 0 -20.5 9t-8.5 20q0 16 18 28zM603 594h-195v-534q0 -25 -17.5 -42.5t-42.5 -17.5t-43 17.5t-18 42.5v534h-194
q-26 0 -43.5 17t-17.5 42t18 43t43 18h510q25 0 42.5 -18t17.5 -43t-17.5 -42t-42.5 -17z" />
    <glyph glyph-name="tcommaaccent" unicode="&#x163;" horiz-adv-x="442" 
d="M161 -204q33 20 43 49h-4q-21 0 -35 14q-15 15 -15 37q0 23 17 38.5t40 15.5q32 0 51 -25.5t19 -59.5q0 -23 -10 -46q-16 -42 -76 -75q-12 -5 -19 -5q-17 0 -25 15q-4 5 -4 14q0 16 18 28zM282 128q22 0 42 5t30 5q24 0 42.5 -19.5t18.5 -44.5q0 -21 -13.5 -38.5
t-34.5 -22.5q-37 -12 -85 -12q-183 0 -183 225v193h-19q-26 0 -42 15t-16 39q0 25 16.5 41t41.5 16h18v39q0 5 -12 15q-18 20 -18 43q0 27 20.5 45.5t47.5 18.5q40 0 61 -29t21 -70v-62h110q25 0 42.5 -16t17.5 -40t-17 -39.5t-43 -15.5h-108v-193q0 -98 62 -98z" />
    <glyph glyph-name="Tcaron" unicode="&#x164;" horiz-adv-x="695" 
d="M408 594h195q25 0 42.5 17t17.5 42t-17.5 43t-42.5 18h-510q-25 0 -43 -18t-18 -43t17.5 -42t43.5 -17h194v-534q0 -25 18 -42.5t43 -17.5t42.5 17.5t17.5 42.5v534zM347 788q-6 0 -11 1t-11.5 5t-11.5 7.5t-15 13l-18.5 18l-25 25l-31.5 30.5q-13 13 -13 28q0 17 12 29
t30 12q14 0 22 -6l73 -48l73 48q8 6 22 6q18 0 30 -12t12 -29q0 -15 -13 -28l-31.5 -30.5l-25 -25l-18.5 -18t-15 -13t-11.5 -7.5t-11.5 -5t-11 -1z" />
    <glyph glyph-name="tcaron" unicode="&#x165;" horiz-adv-x="442" 
d="M401 793q9 -53 -9 -97q-19 -42 -79 -98q-8 -7 -19.5 -6.5t-19.5 8.5q-17 17 -4 36q40 57 32 144q-2 20 10 35q16 19 40 19q18 0 32 -11.5t17 -29.5zM282 127q22 0 42 5t30 5q24 0 42.5 -19.5t18.5 -44.5q0 -21 -13.5 -38.5t-34.5 -22.5q-37 -12 -85 -12q-183 0 -183 225
v193h-19q-26 0 -42 15t-16 39q0 25 16.5 41t41.5 16h18v39q0 5 -12 15q-18 20 -18 43q0 27 20.5 45.5t47.5 18.5q40 0 61 -29t21 -70v-62h110q25 0 42.5 -16t17.5 -40t-17 -39.5t-43 -15.5h-108v-193q0 -98 62 -98z" />
    <glyph glyph-name="Tbar" unicode="&#x166;" horiz-adv-x="695" 
d="M603 594h-195v-94h176q10 0 17.5 -6.5t7.5 -16.5t-7.5 -17.5t-17.5 -7.5h-176v-392q0 -25 -17.5 -42.5t-42.5 -17.5t-43 17.5t-18 42.5v392h-176q-10 0 -17.5 7.5t-7.5 17.5t7.5 16.5t17.5 6.5h176v94h-194q-26 0 -43.5 17.5t-17.5 42.5t18 42.5t43 17.5h510
q25 0 42.5 -17.5t17.5 -42.5t-17.5 -42.5t-42.5 -17.5z" />
    <glyph glyph-name="tbar" unicode="&#x167;" horiz-adv-x="424" 
d="M277 127q23 0 42 5t30 5q24 0 42.5 -19.5t18.5 -44.5q0 -21 -13.5 -38.5t-34.5 -22.5q-38 -12 -85 -12q-183 0 -183 225v95h-38q-14 0 -24 9.5t-10 22.5q0 14 10 24t24 10h38v33h-19q-26 0 -42 15t-16 39q0 25 16.5 41t41.5 16h18v38q0 5 -12 15q-18 20 -18 43
q0 27 20.5 45.5t47.5 18.5q40 0 62 -29t22 -70v-61h108q25 0 42.5 -16t17.5 -40t-17 -39.5t-43 -15.5h-108v-33h122q14 0 24 -10t10 -24q0 -13 -10 -22.5t-24 -9.5h-122v-95q0 -98 62 -98z" />
    <glyph glyph-name="Utilde" unicode="&#x168;" horiz-adv-x="773" 
d="M677 604v-354q0 -101 -77 -172t-182 -78h-71q-99 8 -175.5 81t-76.5 171v352q0 6 -3 7q-20 14 -20 44q0 25 17 42t42 17t44 -12q39 -22 39 -77v-374q0 -54 45 -94t100 -40h46q55 1 104.5 41t49.5 93v374q0 54 40 77q17 12 43 12q24 0 41.5 -17t17.5 -42q0 -29 -21 -44
q-3 -1 -3 -7zM513 952q28 -1 39 -26t-2 -48q-42 -75 -109 -75q-27 0 -64 25.5t-47 25.5q-13 0 -31.5 -25.5t-38.5 -26.5q-30 -1 -40 25.5t4 48.5q42 75 108 75q27 0 63.5 -25.5t47.5 -25.5q12 0 30.5 26t39.5 26z" />
    <glyph glyph-name="utilde" unicode="&#x169;" horiz-adv-x="663" 
d="M212 442v-198q0 -67 30 -97t97 -30q51 0 81.5 30t30.5 80v215q0 39 25.5 64t64.5 25q24 0 44.5 -17t20.5 -40q0 -40 -25 -52q-10 -5 -10 -17v-291q0 -5 1 -7t4 -3.5t5 -3.5q14 -13 14 -39q0 -25 -19 -43t-45 -18q-28 0 -48.5 18.5t-20.5 47.5q-17 -31 -57 -48.5
t-77 -17.5q-117 0 -176.5 62.5t-59.5 181.5v161q0 12 -10 17q-25 12 -25 52q0 23 20.5 40t44.5 17q39 0 64.5 -25t25.5 -64zM466 764q28 -1 39 -26t-2 -48q-42 -75 -109 -75q-28 0 -65 25.5t-46 25.5q-13 0 -31.5 -25.5t-38.5 -26.5q-30 -1 -40 25.5t4 48.5q42 75 108 75
q27 0 63.5 -25.5t47.5 -25.5q12 0 30.5 26t39.5 26z" />
    <glyph glyph-name="Umacron" unicode="&#x16a;" horiz-adv-x="773" 
d="M677 604v-354q0 -101 -77 -172t-182 -78h-71q-99 8 -175.5 81t-76.5 171v352q0 6 -3 7q-20 14 -20 44q0 25 17 42t42 17t44 -12q39 -22 39 -77v-374q0 -54 45 -94t100 -40h46q55 1 104.5 41t49.5 93v374q0 54 40 77q17 12 43 12q24 0 41.5 -17t17.5 -42q0 -29 -21 -44
q-3 -1 -3 -7zM229 856q0 19 13.5 32.5t34.5 13.5h218q19 0 33.5 -13.5t14.5 -32.5q0 -20 -14.5 -33.5t-33.5 -13.5h-218q-21 0 -34.5 13.5t-13.5 33.5z" />
    <glyph glyph-name="umacron" unicode="&#x16b;" horiz-adv-x="663" 
d="M212 442v-198q0 -67 30 -97t97 -30q51 0 81.5 30t30.5 80v215q0 39 25.5 64t64.5 25q24 0 44.5 -17t20.5 -40q0 -40 -25 -52q-10 -5 -10 -17v-291q0 -5 1 -7t4 -3.5t5 -3.5q14 -13 14 -39q0 -25 -19 -43t-45 -18q-28 0 -48.5 18.5t-20.5 47.5q-17 -31 -57 -48.5
t-77 -17.5q-117 0 -176.5 62.5t-59.5 181.5v161q0 12 -10 17q-25 12 -25 52q0 23 20.5 40t44.5 17q39 0 64.5 -25t25.5 -64zM166 672q0 19 13.5 32.5t34.5 13.5h218q19 0 33.5 -13.5t14.5 -32.5q0 -20 -14.5 -33.5t-33.5 -13.5h-218q-21 0 -34.5 13.5t-13.5 33.5z" />
    <glyph glyph-name="Ubreve" unicode="&#x16c;" horiz-adv-x="773" 
d="M677 604v-354q0 -101 -77 -172t-182 -78h-71q-99 8 -175.5 81t-76.5 171v352q0 6 -3 7q-20 14 -20 44q0 25 17 42t42 17t44 -12q39 -22 39 -77v-374q0 -54 45 -94t100 -40h46q55 1 104.5 41t49.5 93v374q0 54 40 77q17 12 43 12q24 0 41.5 -17t17.5 -42q0 -29 -21 -44
q-3 -1 -3 -7zM388 783q-50 0 -89 22t-58 58q-6 12 -6 27q0 22 15 37.5t37 15.5q26 0 43 -26q23 -32 58 -32q32 0 53 32q16 26 45 26q22 0 36.5 -15t14.5 -37q0 -16 -7 -28q-43 -80 -142 -80z" />
    <glyph glyph-name="ubreve" unicode="&#x16d;" horiz-adv-x="663" 
d="M212 442v-198q0 -67 30 -97t97 -30q51 0 81.5 30t30.5 80v215q0 39 25.5 64t64.5 25q24 0 44.5 -17t20.5 -40q0 -40 -25 -52q-10 -5 -10 -17v-291q0 -5 1 -7t4 -3.5t5 -3.5q14 -13 14 -39q0 -25 -19 -43t-45 -18q-28 0 -48.5 18.5t-20.5 47.5q-17 -31 -57 -48.5
t-77 -17.5q-117 0 -176.5 62.5t-59.5 181.5v161q0 12 -10 17q-25 12 -25 52q0 23 20.5 40t44.5 17q39 0 64.5 -25t25.5 -64zM335 599q-50 0 -89 22t-58 58q-6 12 -6 27q0 22 15 37.5t37 15.5q26 0 43 -26q23 -32 58 -32q32 0 53 32q16 26 45 26q22 0 36.5 -15t14.5 -37
q0 -16 -7 -28q-43 -80 -142 -80z" />
    <glyph glyph-name="Uring" unicode="&#x16e;" horiz-adv-x="773" 
d="M677 604v-354q0 -101 -77 -172t-182 -78h-71q-99 8 -175.5 81t-76.5 171v352q0 6 -3 7q-20 14 -20 44q0 25 17 42t42 17t44 -12q39 -22 39 -77v-374q0 -54 45 -94t100 -40h46q55 1 104.5 41t49.5 93v374q0 54 40 77q17 12 43 12q24 0 41.5 -17t17.5 -42q0 -29 -21 -44
q-3 -1 -3 -7zM387 747q-36 0 -66.5 27t-30.5 67q0 39 30 66t67 27q39 0 67.5 -25.5t28.5 -67.5q0 -43 -29.5 -68.5t-66.5 -25.5zM387 804q16 0 28.5 10t12.5 27q0 16 -12.5 26t-28.5 10t-28.5 -10t-12.5 -26q0 -17 12 -27t29 -10z" />
    <glyph glyph-name="uring" unicode="&#x16f;" horiz-adv-x="663" 
d="M212 442v-198q0 -67 30 -97t97 -30q51 0 81.5 30t30.5 80v215q0 39 25.5 64t64.5 25q24 0 44.5 -17t20.5 -40q0 -40 -25 -52q-10 -5 -10 -17v-291q0 -5 1 -7t4 -3.5t5 -3.5q14 -13 14 -39q0 -25 -19 -43t-45 -18q-28 0 -48.5 18.5t-20.5 47.5q-17 -31 -57 -48.5
t-77 -17.5q-117 0 -176.5 62.5t-59.5 181.5v161q0 12 -10 17q-25 12 -25 52q0 23 20.5 40t44.5 17q39 0 64.5 -25t25.5 -64zM329 563q-36 0 -66.5 27t-30.5 67q0 39 30 66t67 27q39 0 67.5 -25.5t28.5 -67.5q0 -43 -29.5 -68.5t-66.5 -25.5zM329 620q16 0 28.5 10t12.5 27
q0 16 -12.5 26t-28.5 10t-28.5 -10t-12.5 -26q0 -17 12 -27t29 -10z" />
    <glyph glyph-name="Uhungarumlaut" unicode="&#x170;" horiz-adv-x="773" 
d="M677 604v-354q0 -101 -77 -172t-182 -78h-71q-99 8 -175.5 81t-76.5 171v352q0 6 -3 7q-20 14 -20 44q0 25 17 42t42 17t44 -12q39 -22 39 -77v-374q0 -54 45 -94t100 -40h46q55 1 104.5 41t49.5 93v374q0 54 40 77q17 12 43 12q24 0 41.5 -17t17.5 -42q0 -29 -21 -44
q-3 -1 -3 -7zM401 881l-102 -85q-14 -11 -29 -11q-16 0 -26.5 10.5t-10.5 26.5q0 14 8 26l71 110q15 22 43 22q27 0 45.5 -17.5t18.5 -43.5q0 -23 -18 -38zM587 880l-105 -84q-14 -11 -29 -11q-16 0 -26 10.5t-10 26.5q0 14 8 26l70 112q14 22 43 22q26 0 46 -19t20 -45
q0 -23 -17 -38z" />
    <glyph glyph-name="uhungarumlaut" unicode="&#x171;" horiz-adv-x="663" 
d="M212 442v-198q0 -67 30 -97t97 -30q51 0 81.5 30t30.5 80v215q0 39 25.5 64t64.5 25q24 0 44.5 -17t20.5 -40q0 -40 -25 -52q-10 -5 -10 -17v-291q0 -5 1 -7t4 -3.5t5 -3.5q14 -13 14 -39q0 -25 -19 -43t-45 -18q-28 0 -48.5 18.5t-20.5 47.5q-17 -31 -57 -48.5
t-77 -17.5q-117 0 -176.5 62.5t-59.5 181.5v161q0 12 -10 17q-25 12 -25 52q0 23 20.5 40t44.5 17q39 0 64.5 -25t25.5 -64zM334 697l-102 -85q-14 -11 -29 -11q-16 0 -26.5 10.5t-10.5 26.5q0 14 8 26l71 110q15 22 43 22q27 0 45.5 -17.5t18.5 -43.5q0 -23 -18 -38z
M520 696l-105 -84q-14 -11 -29 -11q-16 0 -26 10.5t-10 26.5q0 14 8 26l70 112q14 22 43 22q26 0 46 -19t20 -45q0 -23 -17 -38z" />
    <glyph glyph-name="Uogonek" unicode="&#x172;" horiz-adv-x="773" 
d="M677 604v-354q0 -103 -77.5 -176.5t-181.5 -73.5q-14 0 -22 -11.5t-8 -28.5t13 -27.5t28 -10.5q35 0 35 -35q0 -14 -10 -23t-24 -9q-103 0 -103 86q0 20 7.5 34.5t14.5 19.5l7 5h-9q-99 8 -175.5 81t-76.5 171v352q0 6 -3 7q-20 14 -20 44q0 25 17 42t42 17t44 -12
q39 -22 39 -77v-374q0 -54 45 -94t100 -40h46q55 1 104.5 41t49.5 93v374q0 54 40 77q17 12 43 12q24 0 41.5 -17t17.5 -42q0 -29 -21 -44q-3 -1 -3 -7z" />
    <glyph glyph-name="uogonek" unicode="&#x173;" horiz-adv-x="663" 
d="M212 442v-198q0 -67 30 -97t97 -30q50 0 81 32.5t31 82.5v210q0 39 25.5 64t64.5 25q24 0 44.5 -17t20.5 -40q0 -40 -25 -52q-10 -5 -10 -17v-291q0 -5 1 -7t4 -3.5t5 -3.5q14 -13 14 -39q0 -23 -18.5 -41t-45.5 -20t-27 -40q0 -17 13 -27.5t28 -10.5q35 0 35 -35
q0 -14 -10 -23t-24 -9q-103 0 -103 86q0 20 7.5 34.5t14.5 19.5l7 5q8 6 20 11q-26 17 -30 45q-18 -26 -53.5 -41t-70.5 -15q-118 0 -182 63t-64 181v161q0 12 -10 17q-25 12 -25 52q0 23 20.5 40t44.5 17q39 0 64.5 -25t25.5 -64z" />
    <glyph glyph-name="Wcircumflex" unicode="&#x174;" horiz-adv-x="1112" 
d="M359 0q-41 0 -55 40l-204 546q-4 10 -16 12q-18 3 -30 19t-12 34q0 31 23.5 47t54.5 16q26 0 49 -17t32 -40l129 -335l25 -101h2l24 101l115 349q15 43 60 43t60 -43l115 -349l24 -101h2l25 101l129 335q9 23 32 40t49 17q31 0 54.5 -16t23.5 -47q0 -18 -12 -34t-30 -19
q-12 -2 -16 -12l-204 -546q-14 -40 -55 -40q-20 0 -36.5 11.5t-22.5 30.5l-138 409l-138 -409q-6 -19 -22.5 -30.5t-36.5 -11.5zM556 957q6 0 11 -1t11.5 -5t11.5 -7.5t15 -13l18.5 -18l25 -25l31.5 -30.5q13 -13 13 -28q0 -17 -12 -29t-30 -12q-14 0 -22 6l-73 48l-73 -48
q-8 -6 -22 -6q-18 0 -30 12t-12 29q0 15 13 28l31.5 30.5l25 25l18.5 18t15 13t11.5 7.5t11.5 5t11 1z" />
    <glyph glyph-name="wcircumflex" unicode="&#x175;" horiz-adv-x="908" 
d="M454 531q43 0 58 -40l79 -218l24 -78h1l26 78l85 198q27 59 77 59q26 0 46.5 -18t20.5 -44q0 -16 -9.5 -32t-24.5 -20q-15 -5 -17 -9l-151 -367q-17 -40 -55 -40q-45 0 -58 41l-67 171l-34 101h-1l-35 -101l-67 -171q-13 -41 -58 -41q-38 0 -55 40l-151 367q-2 4 -17 9
q-15 4 -24.5 20t-9.5 32q0 26 20.5 44t46.5 18q50 0 77 -59l85 -198l26 -78h1l24 78l79 218q15 40 58 40zM454 769q6 0 11 -1t11.5 -5t11.5 -7.5t15 -13l18.5 -18l25 -25l31.5 -30.5q13 -13 13 -28q0 -17 -12 -29t-30 -12q-14 0 -22 6l-73 48l-73 -48q-8 -6 -22 -6
q-18 0 -30 12t-12 29q0 15 13 28l31.5 30.5l25 25l18.5 18t15 13t11.5 7.5t11.5 5t11 1z" />
    <glyph glyph-name="Ycircumflex" unicode="&#x176;" horiz-adv-x="656" 
d="M352 464l116 204q24 44 74 46h4q29 0 52 -19t23 -48q0 -22 -13.5 -39t-34.5 -17q-12 0 -14 -4l-172 -298v-230q0 -24 -17 -41.5t-42 -17.5t-42 17.5t-17 41.5v230l-172 298q-2 4 -14 4q-21 0 -34.5 17t-13.5 39q0 29 23 48t52 19h4q50 -2 74 -46l116 -204l23 -52h1z
M328 957q6 0 11 -1t11.5 -5t11.5 -7.5t15 -13l18.5 -18l25 -25l31.5 -30.5q13 -13 13 -28q0 -17 -12 -29t-30 -12q-14 0 -22 6l-73 48l-73 -48q-8 -6 -22 -6q-18 0 -30 12t-12 29q0 15 13 28l31.5 30.5l25 25l18.5 18t15 13t11.5 7.5t11.5 5t11 1z" />
    <glyph glyph-name="ycircumflex" unicode="&#x177;" horiz-adv-x="618" 
d="M192 462l76 -199l37 -123h3l37 123l81 199q29 68 83 68q29 0 50.5 -19.5t21.5 -48.5q0 -16 -10.5 -32.5t-24.5 -21.5q-14 -3 -16 -10l-40.5 -102.5l-35.5 -90l-29.5 -74l-25.5 -63.5l-20 -50.5t-18 -43l-14 -32t-12 -27t-10 -18.5q-43 -77 -134 -77q-36 0 -88 19
q-19 7 -30 23t-11 35q0 25 18 43.5t42 18.5q12 0 23 -4q30 -10 40 -10q26 0 41 28l13 27l-150 398q-2 6 -17 10q-15 6 -25 22.5t-10 33.5q0 28 21.5 47t50.5 19q27 0 49 -19t34 -49zM309 769q6 0 11 -1t11.5 -5t11.5 -7.5t15 -13l18.5 -18l25 -25l31.5 -30.5q13 -13 13 -28
q0 -17 -12 -29t-30 -12q-14 0 -22 6l-73 48l-73 -48q-8 -6 -22 -6q-18 0 -30 12t-12 29q0 15 13 28l31.5 30.5l25 25l18.5 18t15 13t11.5 7.5t11.5 5t11 1z" />
    <glyph glyph-name="Ydieresis" unicode="&#x178;" horiz-adv-x="656" 
d="M146 855q0 29 20 49t49 20t49.5 -20t20.5 -49q0 -28 -20.5 -47.5t-49.5 -19.5t-49 19.5t-20 47.5zM373 855q0 29 20 49t49 20t49 -20t20 -49q0 -28 -20 -47.5t-49 -19.5t-49 19.5t-20 47.5zM352 464l116 204q24 44 74 46h4q29 0 52 -19t23 -48q0 -22 -13.5 -39t-34.5 -17
q-12 0 -14 -4l-172 -298v-230q0 -24 -17 -41.5t-42 -17.5t-42 17.5t-17 41.5v230l-172 298q-2 4 -14 4q-21 0 -34.5 17t-13.5 39q0 29 23 48t52 19h4q50 -2 74 -46l116 -204l23 -52h1z" />
    <glyph glyph-name="Zacute" unicode="&#x179;" horiz-adv-x="673" 
d="M67 103l334 449l37 44l-49 -2h-245q-50 0 -77 42q-13 22 -13 52q0 25 17 43t41 18q33 0 48 -25q6 -10 10 -10h365q29 0 50 -18.5t21 -47.5q0 -23 -14 -40l-330 -445l-38 -46l51 3h235q4 0 10 8q19 26 49 26q23 0 41 -19.5t18 -42.5q0 -40 -26.5 -66t-65.5 -26h-418
q-28 0 -46.5 18t-18.5 43t14 42zM431 852q-3 -1 -134 -58q-12 -5 -20 -5q-16 0 -27 11.5t-11 26.5q0 19 16 34l110 93q40 30 76 0q30 -26 24 -61q-5 -27 -34 -41z" />
    <glyph glyph-name="zacute" unicode="&#x17a;" horiz-adv-x="532" 
d="M155 530h243q30 0 48.5 -17t18.5 -45q0 -23 -12 -40l-203 -278l-39 -43l51 3h125q4 0 6 1t5 5t4 5q12 16 39 16q24 0 41 -19t17 -43q0 -36 -26.5 -55.5t-63.5 -19.5h-289q-27 0 -45 17t-18 44q0 23 12 40l205 277l39 43l-51 -3h-131q-36 0 -62 21t-26 57q0 24 17 42.5
t41 18.5q25 0 38 -15q10 -12 16 -12zM363 664q-3 -1 -134 -58q-12 -5 -20 -5q-16 0 -27 11.5t-11 26.5q0 19 16 34l110 93q40 30 76 0q30 -26 24 -61q-5 -27 -34 -41z" />
    <glyph glyph-name="Zdotaccent" unicode="&#x17b;" horiz-adv-x="673" 
d="M67 103q-14 -17 -14 -42t18.5 -43t46.5 -18h418q39 0 65.5 26t26.5 66q0 23 -18 42.5t-41 19.5q-30 0 -49 -26q-6 -8 -10 -8h-235l-51 -3l38 46l330 445q14 17 14 40q0 29 -21 47.5t-50 18.5h-365q-4 0 -10 10q-15 25 -48 25q-24 0 -41 -18t-17 -43q0 -30 13 -52
q27 -42 77 -42h245l49 2l-37 -44zM275 855q0 29 20 49t49 20t49.5 -20t20.5 -49q0 -28 -20.5 -47.5t-49.5 -19.5t-49 19.5t-20 47.5z" />
    <glyph glyph-name="zdotaccent" unicode="&#x17c;" horiz-adv-x="532" 
d="M398 530h-243q-6 0 -16 12q-13 15 -38 15q-24 0 -41 -18.5t-17 -42.5q0 -36 26 -57t62 -21h131l51 3l-39 -43l-205 -277q-12 -17 -12 -40q0 -27 18 -44t45 -17h289q37 0 63.5 19.5t26.5 55.5q0 24 -17 43t-41 19q-27 0 -39 -16q-1 -1 -4 -5t-5 -5t-6 -1h-125l-51 -3
l39 43l203 278q12 17 12 40q0 28 -18.5 45t-48.5 17zM203 667q0 29 20 49t49 20t49.5 -20t20.5 -49q0 -28 -20.5 -47.5t-49.5 -19.5t-49 19.5t-20 47.5z" />
    <glyph glyph-name="Zcaron" unicode="&#x17d;" horiz-adv-x="673" 
d="M67 103q-14 -17 -14 -42t18.5 -43t46.5 -18h418q39 0 65.5 26t26.5 66q0 23 -18 42.5t-41 19.5q-30 0 -49 -26q-6 -8 -10 -8h-235l-51 -3l38 46l330 445q14 17 14 40q0 29 -21 47.5t-50 18.5h-365q-4 0 -10 10q-15 25 -48 25q-24 0 -41 -18t-17 -43q0 -30 13 -52
q27 -42 77 -42h245l49 2l-37 -44zM354 788q-6 0 -11 1t-11.5 5t-11.5 7.5t-15 13l-18.5 18l-25 25l-31.5 30.5q-13 13 -13 28q0 17 12 29t30 12q14 0 22 -6l73 -48l73 48q8 6 22 6q18 0 30 -12t12 -29q0 -15 -13 -28l-31.5 -30.5l-25 -25l-18.5 -18t-15 -13t-11.5 -7.5
t-11.5 -5t-11 -1z" />
    <glyph glyph-name="zcaron" unicode="&#x17e;" horiz-adv-x="532" 
d="M398 530h-243q-6 0 -16 12q-13 15 -38 15q-24 0 -41 -18.5t-17 -42.5q0 -36 26 -57t62 -21h131l51 3l-39 -43l-205 -277q-12 -17 -12 -40q0 -27 18 -44t45 -17h289q37 0 63.5 19.5t26.5 55.5q0 24 -17 43t-41 19q-27 0 -39 -16q-1 -1 -4 -5t-5 -5t-6 -1h-125l-51 -3
l39 43l203 278q12 17 12 40q0 28 -18.5 45t-48.5 17zM288 600q-6 0 -11 1t-11.5 5t-11.5 7.5t-15 13l-18.5 18l-25 25l-31.5 30.5q-13 13 -13 28q0 17 12 29t30 12q14 0 22 -6l73 -48l73 48q8 6 22 6q18 0 30 -12t12 -29q0 -15 -13 -28l-31.5 -30.5l-25 -25l-18.5 -18
t-15 -13t-11.5 -7.5t-11.5 -5t-11 -1z" />
    <glyph glyph-name="florin" unicode="&#x192;" horiz-adv-x="711" 
d="M491 569l-26 -176h87q27 0 45 -18.5t18 -45.5v-8q-4 -25 -22.5 -41.5t-43.5 -16.5h-107l-32 -206q-10 -63 -18.5 -99.5t-34.5 -83t-67 -73.5q-46 -31 -107 -31q-51 0 -104 21q-18 7 -29.5 24t-11.5 35q0 27 20 46t46 19q13 0 22 -4q31 -12 58 -12q22 0 37 9
q19 13 32.5 43t17.5 50t10 59l31 204h-35q-25 0 -43 18.5t-18 43.5q0 28 20 47.5t48 19.5h48q25 175 25 180q11 85 70.5 131t139.5 46q37 0 89 -19q41 -16 41 -60q0 -35 -28.5 -52.5t-59.5 -7.5q-34 10 -48 10q-62 0 -70 -52z" />
    <glyph glyph-name="AEacute" unicode="&#x1fc;" horiz-adv-x="997" 
d="M898 118q24 0 41 -17t17 -42q0 -24 -17.5 -41.5t-40.5 -17.5h-420q-26 0 -42.5 17t-16.5 42q0 40 35 53q6 4 6 9v57h-194l-77 -130q-13 -21 -36 -34.5t-47 -13.5q-27 0 -47 18t-20 44q0 19 12.5 35t26.5 18t17 6l330 552q24 41 57 41h397q25 0 42 -17.5t17 -41.5
q0 -25 -17 -42t-42 -17h-305q4 -16 4 -28v-160h247q24 0 41 -17.5t17 -41.5q0 -25 -16.5 -41.5t-41.5 -16.5h-247v-143q0 -19 -4 -30h324zM460 298v207l-123 -207h123zM779 852q-3 -1 -134 -58q-12 -5 -20 -5q-16 0 -27 11.5t-11 26.5q0 19 16 34l110 93q40 30 76 0
q30 -26 24 -61q-5 -27 -34 -41z" />
    <glyph glyph-name="aeacute" unicode="&#x1fd;" horiz-adv-x="881" 
d="M790 212h-321q15 -42 53.5 -72t80.5 -30q61 0 123 40q32 20 63 2.5t31 -53.5q0 -15 -6 -27t-12 -17l-7 -5q-92 -54 -193 -54q-125 0 -201 103q-26 -45 -72 -74t-102 -29q-79 0 -139.5 51t-60.5 130q0 84 59.5 128t146.5 44q59 0 115 -25q0 46 -12 67q-23 35 -89 35
q-35 0 -89 -13q-10 -2 -15 -2q-23 0 -39.5 14.5t-16.5 37.5q0 43 42 56q63 17 121 17q119 0 175 -72q0 -2 2 -2q74 74 175 74q105 0 176 -79t71 -187q0 -22 -18.5 -40t-40.5 -18zM143 172q0 -32 25.5 -50.5t59.5 -18.5q45 0 82.5 27t37.5 71v33q-34 21 -89 21
q-116 0 -116 -83zM604 418q-50 0 -84.5 -30t-50.5 -81h262q-8 48 -44 79.5t-83 31.5zM532 664q-3 -1 -134 -58q-12 -5 -20 -5q-16 0 -27 11.5t-11 26.5q0 19 16 34l110 93q40 30 76 0q30 -26 24 -61q-5 -27 -34 -41z" />
    <glyph glyph-name="Oslashacute" unicode="&#x1fe;" horiz-adv-x="844" 
d="M673 672l-20 -29q63 -52 99.5 -126.5t36.5 -160.5q0 -152 -107.5 -259t-260.5 -107q-92 0 -175 44l-20 -29q-9 -15 -27 -15q-14 0 -24.5 9.5t-10.5 23.5q0 10 6 18l20 30q-63 51 -99 126t-36 159q0 153 107 260.5t259 107.5q95 0 177 -45l20 30q9 15 27 15q12 0 21 -6
q13 -10 13 -27q0 -10 -6 -19zM532 581q-50 26 -111 26q-102 0 -175.5 -74t-73.5 -177q0 -113 85 -185zM312 132q52 -25 109 -25q104 0 177.5 73t73.5 176q0 112 -86 188zM499 852q-3 -1 -134 -58q-12 -5 -20 -5q-16 0 -27 11.5t-11 26.5q0 19 16 34l110 93q40 30 76 0
q30 -26 24 -61q-5 -27 -34 -41z" />
    <glyph glyph-name="oslashacute" unicode="&#x1ff;" horiz-adv-x="622" 
d="M515 524l-31 -49q96 -81 96 -206q0 -111 -79 -190t-190 -79q-63 0 -119 28l-31 -48q-7 -12 -20.5 -15t-24.5 4q-12 8 -15 21.5t5 24.5l32 48q-96 80 -96 206q0 112 78.5 190.5t190.5 78.5q62 0 118 -27l31 48q7 11 20.5 14t25.5 -4q11 -8 14 -21t-5 -24zM367 415
q-30 10 -56 10q-65 0 -110.5 -45.5t-45.5 -110.5t45 -110zM255 123q28 -10 56 -10q65 0 110.5 45.5t45.5 110.5q0 64 -46 110zM383 664q-3 -1 -134 -58q-12 -5 -20 -5q-16 0 -27 11.5t-11 26.5q0 19 16 34l110 93q40 30 76 0q30 -26 24 -61q-5 -27 -34 -41z" />
    <glyph glyph-name="Scommaaccent" unicode="&#x218;" horiz-adv-x="588" 
d="M232 -204q-29 -20 -14 -42q14 -24 44 -10q60 33 76 76v-1q10 23 10 46q0 34 -19 59.5t-51 25.5q-23 0 -40 -15.5t-17 -38.5q0 -22 15 -37q14 -14 35 -14h4q-10 -29 -43 -49zM539 192q0 -53 -25 -93.5t-64.5 -63.5t-83 -34t-87.5 -11q-135 0 -209 70q-18 20 -17.5 43.5
t14.5 37.5t35.5 19t46.5 -12q58 -39 128 -39q60 0 101.5 22.5t41.5 57.5q0 17 -10.5 32.5t-22.5 25.5t-38 22t-37.5 16.5t-40.5 14.5q-43 15 -67.5 25t-58.5 29.5t-52.5 40.5t-32 54.5t-13.5 75.5q0 86 74.5 142.5t173.5 56.5q117 0 194 -66q20 -17 21.5 -41.5t-12.5 -40.5
t-35.5 -22.5t-47.5 12.5q-54 39 -120 39q-54 0 -91.5 -23t-37.5 -57q0 -21 12 -39t37 -32.5t45.5 -23.5t54.5 -21q39 -14 62 -23t58 -28.5t54.5 -40t34.5 -53t15 -72.5z" />
    <glyph glyph-name="scommaaccent" unicode="&#x219;" horiz-adv-x="457" 
d="M163 -204q33 20 43 49h-4q-21 0 -35 14q-15 15 -15 37q0 23 17 38.5t40 15.5q32 0 51 -25.5t19 -59.5q0 -37 -24.5 -70t-61.5 -51q-30 -14 -44 10q-15 22 14 42zM41 92q0 25 16.5 41.5t40.5 18.5q22 0 39 -12q30 -21 77 -21q79 0 79 41q0 28 -29 43.5t-78.5 30
t-75.5 31.5q-73 46 -73 115q0 73 59 115t135 42q75 0 136 -45q24 -18 24 -46q0 -25 -16 -42t-44 -17q-14 0 -30 8q-44 23 -77 23q-25 0 -45.5 -9t-20.5 -30q0 -12 12.5 -22.5t26 -16t36 -13t27.5 -9.5q34 -13 56.5 -25t47.5 -31t38 -45.5t13 -60.5q0 -74 -63.5 -115
t-141.5 -41t-139 41q-28 18 -30 51z" />
    <glyph glyph-name="circumflex" unicode="&#x2c6;" horiz-adv-x="520" 
d="M260 769q6 0 11 -1t11.5 -5t11.5 -7.5t15 -13l18.5 -18l25 -25l31.5 -30.5q13 -13 13 -28q0 -17 -12 -29t-30 -12q-14 0 -22 6l-73 48l-73 -48q-8 -6 -22 -6q-18 0 -30 12t-12 29q0 15 13 28l31.5 30.5l25 25l18.5 18t15 13t11.5 7.5t11.5 5t11 1z" />
    <glyph glyph-name="caron" unicode="&#x2c7;" horiz-adv-x="520" 
d="M260 600q-6 0 -11 1t-11.5 5t-11.5 7.5t-15 13l-18.5 18l-25 25l-31.5 30.5q-13 13 -13 28q0 17 12 29t30 12q14 0 22 -6l73 -48l73 48q8 6 22 6q18 0 30 -12t12 -29q0 -15 -13 -28l-31.5 -30.5l-25 -25l-18.5 -18t-15 -13t-11.5 -7.5t-11.5 -5t-11 -1z" />
    <glyph glyph-name="breve" unicode="&#x2d8;" horiz-adv-x="506" 
d="M255 599q-50 0 -89 22t-58 58q-6 12 -6 27q0 22 15 37.5t37 15.5q26 0 43 -26q23 -32 58 -32q32 0 53 32q16 26 45 26q22 0 36.5 -15t14.5 -37q0 -16 -7 -28q-43 -80 -142 -80z" />
    <glyph glyph-name="dotaccent" unicode="&#x2d9;" horiz-adv-x="531" 
d="M196 667q0 29 20 49t49 20t49.5 -20t20.5 -49q0 -28 -20.5 -47.5t-49.5 -19.5t-49 19.5t-20 47.5z" />
    <glyph glyph-name="ring" unicode="&#x2da;" horiz-adv-x="461" 
d="M231 563q-36 0 -66.5 27t-30.5 67q0 39 30 66t67 27q39 0 67.5 -25.5t28.5 -67.5q0 -43 -29.5 -68.5t-66.5 -25.5zM231 620q16 0 28.5 10t12.5 27q0 16 -12.5 26t-28.5 10t-28.5 -10t-12.5 -26q0 -17 12 -27t29 -10z" />
    <glyph glyph-name="ogonek" unicode="&#x2db;" horiz-adv-x="472" 
d="M266 19q12 0 12 -9q0 -10 -10 -10q-14 0 -22 -11.5t-8 -28.5t13 -27.5t28 -10.5q36 0 36 -35q0 -14 -10 -22.5t-25 -9.5q-48 -2 -75.5 19.5t-27.5 66.5q0 35 25.5 55.5t63.5 22.5z" />
    <glyph glyph-name="tilde" unicode="&#x2dc;" horiz-adv-x="515" 
d="M384 764q28 -1 39 -26t-2 -48q-42 -75 -109 -75q-28 0 -65 25.5t-46 25.5q-13 0 -31.5 -25.5t-38.5 -26.5q-30 -1 -40 25.5t4 48.5q42 75 108 75q27 0 63.5 -25.5t47.5 -25.5q12 0 30.5 26t39.5 26z" />
    <glyph glyph-name="hungarumlaut" unicode="&#x2dd;" horiz-adv-x="550" 
d="M259 697l-102 -85q-14 -11 -29 -11q-16 0 -26.5 10.5t-10.5 26.5q0 14 8 26l71 110q15 22 43 22q27 0 45.5 -17.5t18.5 -43.5q0 -23 -18 -38zM445 696l-105 -84q-14 -11 -29 -11q-16 0 -26 10.5t-10 26.5q0 14 8 26l70 112q14 22 43 22q26 0 46 -19t20 -45q0 -23 -17 -38
z" />
    <glyph glyph-name="Wgrave" unicode="&#x1e80;" horiz-adv-x="1112" 
d="M359 0q-41 0 -55 40l-204 546q-4 10 -16 12q-18 3 -30 19t-12 34q0 31 23.5 47t54.5 16q26 0 49 -17t32 -40l129 -335l25 -101h2l24 101l115 349q15 43 60 43t60 -43l115 -349l24 -101h2l25 101l129 335q9 23 32 40t49 17q31 0 54.5 -16t23.5 -47q0 -18 -12 -34t-30 -19
q-12 -2 -16 -12l-204 -546q-14 -40 -55 -40q-20 0 -36.5 11.5t-22.5 30.5l-138 409l-138 -409q-6 -19 -22.5 -30.5t-36.5 -11.5zM491 852q-43 21 -34 63q8 36 41 49q30 12 59 -10l110 -93q16 -15 16 -34q0 -15 -11 -26.5t-27 -11.5q-8 0 -20 5q-131 57 -134 58z" />
    <glyph glyph-name="wgrave" unicode="&#x1e81;" horiz-adv-x="908" 
d="M454 531q43 0 58 -40l79 -218l24 -78h1l26 78l85 198q27 59 77 59q26 0 46.5 -18t20.5 -44q0 -16 -9.5 -32t-24.5 -20q-15 -5 -17 -9l-151 -367q-17 -40 -55 -40q-45 0 -58 41l-67 171l-34 101h-1l-35 -101l-67 -171q-13 -41 -58 -41q-38 0 -55 40l-151 367q-2 4 -17 9
q-15 4 -24.5 20t-9.5 32q0 26 20.5 44t46.5 18q50 0 77 -59l85 -198l26 -78h1l24 78l79 218q15 40 58 40zM388 664q-43 21 -34 63q8 36 41 49q30 12 59 -10l110 -93q16 -15 16 -34q0 -15 -11 -26.5t-27 -11.5q-8 0 -20 5q-131 57 -134 58z" />
    <glyph glyph-name="Wacute" unicode="&#x1e82;" horiz-adv-x="1112" 
d="M359 0q-41 0 -55 40l-204 546q-4 10 -16 12q-18 3 -30 19t-12 34q0 31 23.5 47t54.5 16q26 0 49 -17t32 -40l129 -335l25 -101h2l24 101l115 349q15 43 60 43t60 -43l115 -349l24 -101h2l25 101l129 335q9 23 32 40t49 17q31 0 54.5 -16t23.5 -47q0 -18 -12 -34t-30 -19
q-12 -2 -16 -12l-204 -546q-14 -40 -55 -40q-20 0 -36.5 11.5t-22.5 30.5l-138 409l-138 -409q-6 -19 -22.5 -30.5t-36.5 -11.5zM628 852q-3 -1 -134 -58q-12 -5 -20 -5q-16 0 -27 11.5t-11 26.5q0 19 16 34l110 93q40 30 76 0q30 -26 24 -61q-5 -27 -34 -41z" />
    <glyph glyph-name="wacute" unicode="&#x1e83;" horiz-adv-x="908" 
d="M454 531q43 0 58 -40l79 -218l24 -78h1l26 78l85 198q27 59 77 59q26 0 46.5 -18t20.5 -44q0 -16 -9.5 -32t-24.5 -20q-15 -5 -17 -9l-151 -367q-17 -40 -55 -40q-45 0 -58 41l-67 171l-34 101h-1l-35 -101l-67 -171q-13 -41 -58 -41q-38 0 -55 40l-151 367q-2 4 -17 9
q-15 4 -24.5 20t-9.5 32q0 26 20.5 44t46.5 18q50 0 77 -59l85 -198l26 -78h1l24 78l79 218q15 40 58 40zM523 664q-3 -1 -134 -58q-12 -5 -20 -5q-16 0 -27 11.5t-11 26.5q0 19 16 34l110 93q40 30 76 0q30 -26 24 -61q-5 -27 -34 -41z" />
    <glyph glyph-name="Wdieresis" unicode="&#x1e84;" horiz-adv-x="1112" 
d="M359 0q-41 0 -55 40l-204 546q-4 10 -16 12q-18 3 -30 19t-12 34q0 31 23.5 47t54.5 16q26 0 49 -17t32 -40l129 -335l25 -101h2l24 101l115 349q15 43 60 43t60 -43l115 -349l24 -101h2l25 101l129 335q9 23 32 40t49 17q31 0 54.5 -16t23.5 -47q0 -18 -12 -34t-30 -19
q-12 -2 -16 -12l-204 -546q-14 -40 -55 -40q-20 0 -36.5 11.5t-22.5 30.5l-138 409l-138 -409q-6 -19 -22.5 -30.5t-36.5 -11.5zM374 855q0 29 20 49t49 20t49.5 -20t20.5 -49q0 -28 -20.5 -47.5t-49.5 -19.5t-49 19.5t-20 47.5zM601 855q0 29 20 49t49 20t49 -20t20 -49
q0 -28 -20 -47.5t-49 -19.5t-49 19.5t-20 47.5z" />
    <glyph glyph-name="wdieresis" unicode="&#x1e85;" horiz-adv-x="908" 
d="M454 531q43 0 58 -40l79 -218l24 -78h1l26 78l85 198q27 59 77 59q26 0 46.5 -18t20.5 -44q0 -16 -9.5 -32t-24.5 -20q-15 -5 -17 -9l-151 -367q-17 -40 -55 -40q-45 0 -58 41l-67 171l-34 101h-1l-35 -101l-67 -171q-13 -41 -58 -41q-38 0 -55 40l-151 367q-2 4 -17 9
q-15 4 -24.5 20t-9.5 32q0 26 20.5 44t46.5 18q50 0 77 -59l85 -198l26 -78h1l24 78l79 218q15 40 58 40zM272 667q0 29 20 49t49 20t49.5 -20t20.5 -49q0 -28 -20.5 -47.5t-49.5 -19.5t-49 19.5t-20 47.5zM499 667q0 29 20 49t49 20t49 -20t20 -49q0 -28 -20 -47.5
t-49 -19.5t-49 19.5t-20 47.5z" />
    <glyph glyph-name="Ygrave" unicode="&#x1ef2;" horiz-adv-x="656" 
d="M352 464l116 204q24 44 74 46h4q29 0 52 -19t23 -48q0 -22 -13.5 -39t-34.5 -17q-12 0 -14 -4l-172 -298v-230q0 -24 -17 -41.5t-42 -17.5t-42 17.5t-17 41.5v230l-172 298q-2 4 -14 4q-21 0 -34.5 17t-13.5 39q0 29 23 48t52 19h4q50 -2 74 -46l116 -204l23 -52h1z
M257 852q-43 21 -34 63q8 36 41 49q30 12 59 -10l110 -93q16 -15 16 -34q0 -15 -11 -26.5t-27 -11.5q-8 0 -20 5q-131 57 -134 58z" />
    <glyph glyph-name="ygrave" unicode="&#x1ef3;" horiz-adv-x="618" 
d="M268 263l-76 199q-12 30 -34 49t-49 19q-29 0 -50.5 -19t-21.5 -47q0 -17 10 -33.5t25 -22.5q15 -4 17 -10l150 -398l-13 -27q-15 -28 -41 -28q-10 0 -40 10q-11 4 -23 4q-24 0 -42 -18.5t-18 -43.5q0 -19 11 -35t30 -23q52 -19 88 -19q91 0 134 77q5 8 10 18.5t12 27
l14 32t18 43l20 50.5l25.5 63.5l29.5 74l35.5 90l40.5 102.5q2 7 16 10q14 5 24.5 21.5t10.5 32.5q0 29 -21.5 48.5t-50.5 19.5q-54 0 -83 -68l-81 -199l-37 -123h-3zM216 664q-43 21 -34 63q8 36 41 49q30 12 59 -10l110 -93q16 -15 16 -34q0 -15 -11 -26.5t-27 -11.5
q-8 0 -20 5q-131 57 -134 58z" />
    <glyph glyph-name="endash" unicode="&#x2013;" horiz-adv-x="669" 
d="M621 284q0 -25 -16 -41.5t-39 -16.5h-461q-23 0 -40 16t-17 39q0 24 16 40.5t39 16.5h461q24 0 40.5 -15.5t16.5 -38.5z" />
    <glyph glyph-name="emdash" unicode="&#x2014;" horiz-adv-x="867" 
d="M819 284q0 -25 -16 -41.5t-39 -16.5h-659q-23 0 -40 16t-17 39q0 24 16 40.5t39 16.5h659q24 0 40.5 -15.5t16.5 -38.5z" />
    <glyph glyph-name="quoteleft" unicode="&#x2018;" horiz-adv-x="278" 
d="M197 672q-48 -27 -58 -68q33 3 53 -16.5t20 -50.5q0 -30 -24 -51t-53 -21q-44 0 -68 32t-25 78q-1 50 33 95.5t83 71.5q14 7 26 7q16 0 25.5 -11.5t9.5 -27.5q0 -23 -22 -38z" />
    <glyph glyph-name="quoteright" unicode="&#x2019;" horiz-adv-x="277" 
d="M63 543q48 27 58 68q-34 -3 -53.5 16.5t-19.5 50.5q0 30 24 51t53 21q49 0 76 -50q31 -56 5 -123q-13 -32 -42 -59.5t-62 -44.5q-14 -7 -26 -7q-16 0 -25.5 11.5t-9.5 27.5q0 23 22 38z" />
    <glyph glyph-name="quotesinglbase" unicode="&#x201a;" horiz-adv-x="276" 
d="M58 -67q48 27 58 68q-34 -4 -53.5 16t-19.5 51q0 30 24 51t53 21q43 0 67.5 -36t24.5 -79q0 -28 -11 -58q-13 -32 -42 -59.5t-62 -44.5q-14 -7 -26 -7q-16 0 -25.5 11.5t-9.5 27.5q0 23 22 38z" />
    <glyph glyph-name="quotedblleft" unicode="&#x201c;" horiz-adv-x="517" 
d="M195 673q-48 -27 -58 -68q33 4 53 -16t20 -51q0 -30 -24 -51.5t-53 -20.5q-46 1 -69 36t-23 79q0 52 33 94t82 68q14 7 26 7q16 0 25.5 -11.5t9.5 -27.5q0 -23 -22 -38zM436 673q-48 -27 -58 -68q33 4 53 -16t20 -51q0 -30 -24 -51.5t-53 -20.5q-46 1 -69 36t-23 79
q0 52 33 94t82 68q14 7 26 7q16 0 25.5 -11.5t9.5 -27.5q0 -23 -22 -38z" />
    <glyph glyph-name="quotedblright" unicode="&#x201d;" horiz-adv-x="517" 
d="M304 542q48 27 58 68q-33 -4 -53 16t-20 51q0 30 24 51.5t53 20.5q46 -1 69 -36t23 -79q0 -52 -33 -94t-82 -68q-14 -7 -26 -7q-16 0 -25.5 11.5t-9.5 27.5q0 23 22 38zM63 542q48 27 58 68q-33 -4 -53 16t-20 51q0 30 24 51.5t53 20.5q46 -1 69 -36t23 -79
q0 -52 -33 -94t-82 -68q-14 -7 -26 -7q-16 0 -25.5 11.5t-9.5 27.5q0 23 22 38z" />
    <glyph glyph-name="quotedblbase" unicode="&#x201e;" horiz-adv-x="517" 
d="M299 -69q48 27 58 68q-33 -4 -53 16t-20 51q0 30 24 51.5t53 20.5q46 -1 69 -36t23 -79q0 -52 -33 -94t-82 -68q-14 -7 -26 -7q-16 0 -25.5 11.5t-9.5 27.5q0 23 22 38zM58 -69q48 27 58 68q-33 -4 -53 16t-20 51q0 30 24 51.5t53 20.5q46 -1 69 -36t23 -79
q0 -52 -33 -94t-82 -68q-14 -7 -26 -7q-16 0 -25.5 11.5t-9.5 27.5q0 23 22 38z" />
    <glyph glyph-name="dagger" unicode="&#x2020;" horiz-adv-x="613" 
d="M93 564l99 -5q20 0 33.5 -13.5t13.5 -33.5q0 -19 -14 -33t-34 -15l-99 -3q-22 2 -36.5 16.5t-14.5 35.5q0 22 14.5 37t37.5 14zM522 461l-100 3q-19 1 -32.5 15t-13.5 33q0 20 13.5 33.5t32.5 13.5l50 3t49 2q21 0 36 -15t15 -35t-14.5 -36t-35.5 -17zM260 214l-4 451
q0 22 15.5 36t35.5 14q22 0 37 -15t15 -36l-4 -450q0 -19 -14 -33.5t-34 -14.5q-19 0 -33 14.5t-14 33.5z" />
    <glyph glyph-name="daggerdbl" unicode="&#x2021;" horiz-adv-x="628" 
d="M267 58l-5 606q0 21 15.5 36t36.5 15t36.5 -14.5t15.5 -36.5q0 -3 -3 -606q0 -19 -14.5 -33.5t-34.5 -14.5t-33.5 14t-13.5 34zM103 561l101 -5q19 -1 32.5 -14.5t13.5 -31.5q0 -21 -13.5 -35.5t-33.5 -15.5l-101 -2q-22 0 -36.5 15t-14.5 36q0 22 14.5 38t37.5 15z
M525 457l-100 2q-20 1 -34 15t-14 34q0 19 13.5 33t34.5 15l100 5q23 -2 37.5 -16.5t14.5 -35.5q0 -22 -14.5 -37.5t-37.5 -14.5zM103 301l101 -5q19 -1 32.5 -14.5t13.5 -32.5q0 -21 -13.5 -35.5t-33.5 -14.5q-16 0 -50 -1.5t-51 -2.5q-22 0 -36.5 15.5t-14.5 37.5t14.5 38
t37.5 15zM525 195l-100 4q-20 0 -34 14.5t-14 34.5q0 19 13.5 33t34.5 15l100 5q22 -2 37 -17t15 -35q0 -22 -14.5 -38.5t-37.5 -15.5z" />
    <glyph glyph-name="bullet" unicode="&#x2022;" horiz-adv-x="421" 
d="M211 238q-48 0 -83 34.5t-35 82.5q0 47 35.5 81.5t82.5 34.5q48 0 82.5 -34.5t34.5 -83.5q0 -47 -34.5 -81t-82.5 -34z" />
    <glyph glyph-name="ellipsis" unicode="&#x2026;" horiz-adv-x="746" 
d="M144 161q34 0 58 -24t24 -58q0 -33 -24 -57t-58 -24q-33 0 -56.5 24t-23.5 57q0 34 23.5 58t56.5 24zM365 161q34 0 58 -24t24 -58q0 -33 -24 -57t-58 -24q-33 0 -57 24t-24 57q0 34 24 58t57 24zM599 161q34 0 58.5 -24t24.5 -58q0 -33 -24.5 -57t-58.5 -24
q-32 0 -56 24t-24 57q0 34 24 58t56 24z" />
    <glyph glyph-name="perthousand" unicode="&#x2030;" horiz-adv-x="1181" 
d="M171 91l356 592q17 26 49 26q26 0 41.5 -16.5t15.5 -43.5q0 -17 -6 -30l-358 -594q-16 -25 -53 -25q-25 0 -40 18t-15 40q0 19 10 33zM199 367q-68 0 -115 52t-47 119t47 117.5t115 50.5t115 -50t47 -118t-48 -119.5t-114 -51.5zM199 475q23 0 39.5 19t16.5 44
q0 24 -16.5 43t-39.5 19q-24 0 -39.5 -18.5t-15.5 -43.5t15.5 -44t39.5 -19zM171 91l356 592q17 26 49 26q26 0 41.5 -16.5t15.5 -43.5q0 -17 -6 -30l-358 -594q-16 -25 -53 -25q-25 0 -40 18t-15 40q0 19 10 33zM603 -2q-68 0 -115 52t-47 119t47 117.5t115 50.5t115 -50
t47 -118t-48 -119.5t-114 -51.5zM603 106q23 0 39.5 19t16.5 44q0 24 -16.5 43t-39.5 19q-24 0 -39.5 -18.5t-15.5 -43.5t15.5 -44t39.5 -19zM982 -2q-68 0 -115 52t-47 119t47 117.5t115 50.5t115 -50t47 -118t-48 -119.5t-114 -51.5zM982 106q23 0 39.5 19t16.5 44
q0 24 -16.5 43t-39.5 19q-24 0 -39.5 -18.5t-15.5 -43.5t15.5 -44t39.5 -19z" />
    <glyph glyph-name="guilsinglleft" unicode="&#x2039;" horiz-adv-x="383" 
d="M175 266l146 -167q12 -13 12 -36t-15.5 -38t-37.5 -15q-20 0 -42 18l-185 202q-16 15 -16 35t15 38l186 201q19 17 41 17q23 0 38.5 -15.5t15.5 -37.5q0 -21 -12 -36z" />
    <glyph glyph-name="guilsinglright" unicode="&#x203a;" horiz-adv-x="383" 
d="M62 99l146 167l-146 166q-12 15 -12 36q0 22 15.5 37.5t38.5 15.5q22 0 41 -17l186 -201q15 -18 15 -38t-16 -35l-185 -202q-22 -18 -42 -18q-22 0 -37.5 15t-15.5 38t12 36z" />
    <glyph glyph-name="fraction" unicode="&#x2044;" horiz-adv-x="242" 
d="M-40 4q-31 14 -31 49q0 10 5 23l254 604q18 35 51 35q22 0 37 -15.5t15 -37.5q0 -10 -5 -23l-256 -605q-15 -34 -50 -34q-12 0 -20 4z" />
    <glyph glyph-name="Euro" unicode="&#x20ac;" horiz-adv-x="769" 
d="M332 540q-34 -33 -52 -77h203q13 0 22.5 -9.5t9.5 -23.5q0 -13 -9.5 -22.5t-22.5 -9.5h-220q-2 -24 -2 -37q0 -12 2 -36h220q13 0 22.5 -10t9.5 -23t-9.5 -22.5t-22.5 -9.5h-203q17 -43 52 -78q67 -64 168 -64q69 0 135 37q26 19 58 3t32 -51t-27 -51q-87 -56 -198 -56
q-93 0 -175 44t-130 119q-26 41 -39 97h-85q-14 0 -24 9.5t-10 22.5q0 14 10 23.5t24 9.5h75q-2 13 -2 35q0 14 2 38h-75q-14 0 -24 9.5t-10 22.5q0 14 10 23.5t24 9.5h85q13 54 40 96q46 73 123.5 116t169.5 48h10q94 0 176 -46q32 -17 32 -52q0 -23 -18.5 -40t-40.5 -17
q-15 0 -28 7q-56 28 -117 28h-10q-98 -5 -161 -63z" />
    <glyph glyph-name="trademark" unicode="&#x2122;" horiz-adv-x="694" 
d="M306 358q-15 0 -25 9t-9 25q1 9 7.5 15.5t6.5 9.5v231h-93v-259q0 -13 -9.5 -23t-23.5 -10t-23.5 9.5t-9.5 23.5v259h-90q-13 0 -23 10t-10 23q0 14 9.5 24t23.5 10h271q22 0 38 -25l124 -197l122 196q15 26 42 26q14 0 24 -10t10 -24q0 -8 -7 -15.5t-7 -11.5v-237
q0 -3 7 -10t7 -16q0 -16 -10 -25t-24 -9q-22 0 -34.5 15t-12.5 34v140l-88 -136q-10 -19 -30 -19t-29 18l-88 137v-139q0 -20 -13.5 -34.5t-32.5 -14.5z" />
    <glyph glyph-name="lessequal" unicode="&#x2264;" horiz-adv-x="464" 
d="M92 394q-35 15 -35 54q0 34 35 54l213 116q22 9 41 5.5t30.5 -17.5t16 -30.5t-3.5 -34t-28 -27.5l-148 -66l148 -68q32 -15 32.5 -47t-26.5 -51.5t-62 -4.5zM397 174q-1 17 -12 27.5t-27 10.5h-249q-16 0 -27 -12t-10 -28q0 -16 11.5 -26.5t27.5 -10.5h248q16 1 27 12
t11 27z" />
    <glyph glyph-name="greaterequal" unicode="&#x2265;" horiz-adv-x="488" 
d="M397 394l-215 -117q-22 -8 -40.5 -4.5t-29.5 17.5t-15 30.5t3.5 33.5t25.5 26l148 68l-148 66q-37 16 -30 57q5 36 37 50q23 9 49 -3l215 -116q34 -20 34 -54q0 -36 -34 -54zM92 174q1 16 11.5 27t26.5 11h249q16 0 27 -12t10 -28q0 -16 -11 -26.5t-28 -10.5h-249
q-15 1 -25.5 12t-10.5 27z" />
    <glyph glyph-name="commaaccent" unicode="&#xf6c3;" horiz-adv-x="496" 
d="M184 -206q32 21 42 51h-4q-21 0 -35.5 13.5t-14.5 36.5t17.5 39t39.5 16q33 0 52 -25t19 -59q0 -76 -83 -120q-10 -5 -21 -5q-29 0 -29 26q0 15 17 27z" />
    <glyph glyph-name="s_t" unicode="&#xfb06;" horiz-adv-x="865" 
d="M413 156q0 -74 -63 -115t-140 -41q-76 0 -141 47q-35 26 -21 66.5t57 40.5q18 0 36 -13q34 -24 75 -24q15 0 30.5 2.5t32 13t16.5 26.5q0 9 -7 17.5t-21 15.5t-23 11t-26 9l-17 6q-39 14 -61 23.5t-49.5 28.5t-40.5 46t-13 63q0 53 37 95q58 62 156 62q14 0 24.5 -0.5
t11.5 -0.5q-2 9 -2 24q0 67 48 117t122 50q78 0 138 -55t60 -131v-10h118q24 0 42.5 -17t18.5 -41q0 -25 -18 -43t-43 -18h-108v-186q0 -98 62 -98q22 0 42 5t30 5q25 0 43.5 -19t18.5 -45q0 -21 -13.5 -38.5t-34.5 -22.5q-39 -12 -86 -12q-183 0 -183 225v186h-9
q-26 0 -42 17.5t-16 42.5t16.5 42t41.5 17h11v9q0 31 -28 54t-61 23q-34 0 -60 -24t-26 -54q0 -25 21 -47q20 -25 20 -48q0 -24 -18 -42.5t-41 -18.5q-19 0 -37 13q-31 23 -68 23q-28 0 -49 -10.5t-21 -29.5q0 -9 7.5 -17.5t21.5 -15.5t25.5 -12t29 -11l23.5 -8
q67 -24 109 -60.5t42 -97.5z" />
    <glyph glyph-name="gdotaccent.alt" horiz-adv-x="589" 
d="M530 8q17 -30 17 -70q0 -57 -42 -96t-94.5 -53t-107.5 -14q-45 0 -86.5 7t-83 24t-66.5 52t-25 84q0 72 58 114q-21 28 -21 62q0 55 36 83q-20 21 -33 56t-13 68q0 83 65 144.5t149 61.5h14q40 0 93 -17l9 4q37 13 79 13q18 0 31.5 -14t13.5 -33v-5q-1 -16 -13 -26
t-30 -12q39 -49 39 -116q0 -88 -65.5 -144.5t-155.5 -56.5q-26 0 -54 7t-44 13l-15 7q-10 -10 -10 -25q0 -18 15.5 -27.5t40.5 -9.5l75 3q176 -4 224 -84zM300 422h-5q-42 0 -74.5 -28.5t-32.5 -68.5q0 -41 31.5 -69t75.5 -28q42 0 73.5 27.5t31.5 69.5q0 38 -31 67.5
t-69 29.5zM298 -115q11 0 28 2t43 6.5t43.5 16t17.5 28.5q0 18 -31 28.5t-57.5 12.5t-49.5 2q-50 0 -78 9q-21 -7 -38.5 -20.5t-17.5 -28.5q0 -17 15.5 -29t40 -17.5t45 -7.5t39.5 -2zM229 667q0 29 20 49t49 20t49.5 -20t20.5 -49q0 -28 -20.5 -47.5t-49.5 -19.5t-49 19.5
t-20 47.5z" />
    <glyph glyph-name="gcommaaccent.alt" horiz-adv-x="589" 
d="M340 749q-32 -22 -42 -49h4q21 0 35.5 -13.5t14.5 -36.5t-17.5 -39t-39.5 -16q-33 0 -52 25.5t-19 58.5q0 42 32.5 83.5t71.5 41.5q12 0 20.5 -8t8.5 -20q0 -15 -17 -27zM530 8q17 -30 17 -70q0 -57 -42 -96t-94.5 -53t-107.5 -14q-45 0 -86.5 7t-83 24t-66.5 52t-25 84
q0 72 58 114q-21 28 -21 62q0 55 36 83q-20 21 -33 56t-13 68q0 83 65 144.5t149 61.5h14q40 0 93 -17l9 4q37 13 79 13q18 0 31.5 -14t13.5 -33v-5q-1 -16 -13 -26t-30 -12q39 -49 39 -116q0 -88 -65.5 -144.5t-155.5 -56.5q-26 0 -54 7t-44 13l-15 7q-10 -10 -10 -25
q0 -18 15.5 -27.5t40.5 -9.5l75 3q176 -4 224 -84zM300 422h-5q-42 0 -74.5 -28.5t-32.5 -68.5q0 -41 31.5 -69t75.5 -28q42 0 73.5 27.5t31.5 69.5q0 38 -31 67.5t-69 29.5zM298 -115q11 0 28 2t43 6.5t43.5 16t17.5 28.5q0 18 -31 28.5t-57.5 12.5t-49.5 2q-50 0 -78 9
q-21 -7 -38.5 -20.5t-17.5 -28.5q0 -17 15.5 -29t40 -17.5t45 -7.5t39.5 -2z" />
    <glyph glyph-name="t_t" horiz-adv-x="982" 
d="M285 127q23 0 42 5t30 5q25 0 43 -19t18 -45q0 -21 -13.5 -38.5t-33.5 -23.5q-41 -11 -86 -11q-183 0 -183 225v193h-19q-26 0 -42 15t-16 39q0 25 16.5 41t41.5 16h18v39q0 5 -12 15q-18 20 -18 43q0 27 20.5 45.5t47.5 18.5q40 0 61 -29t21 -70v-62h234v39q0 5 -12 15
q-18 20 -18 43q0 27 20.5 45.5t47.5 18.5q40 0 61 -29t21 -70v-62h110q25 0 43 -16t18 -40t-17.5 -39.5t-43.5 -15.5h-108v-193q0 -98 62 -98q23 0 42 5t30 5q25 0 43.5 -19t18.5 -45q0 -21 -13.5 -38.5t-34.5 -22.5q-39 -12 -86 -12q-183 0 -183 225v193h-233v-193
q0 -98 62 -98z" />
    <glyph glyph-name="gcircumflex.alt" horiz-adv-x="589" 
d="M530 8q17 -30 17 -70q0 -57 -42 -96t-94.5 -53t-107.5 -14q-45 0 -86.5 7t-83 24t-66.5 52t-25 84q0 72 58 114q-21 28 -21 62q0 55 36 83q-20 21 -33 56t-13 68q0 83 65 144.5t149 61.5h14q40 0 93 -17l9 4q37 13 79 13q18 0 31.5 -14t13.5 -33v-5q-1 -16 -13 -26
t-30 -12q39 -49 39 -116q0 -88 -65.5 -144.5t-155.5 -56.5q-26 0 -54 7t-44 13l-15 7q-10 -10 -10 -25q0 -18 15.5 -27.5t40.5 -9.5l75 3q176 -4 224 -84zM300 422h-5q-42 0 -74.5 -28.5t-32.5 -68.5q0 -41 31.5 -69t75.5 -28q42 0 73.5 27.5t31.5 69.5q0 38 -31 67.5
t-69 29.5zM298 -115q11 0 28 2t43 6.5t43.5 16t17.5 28.5q0 18 -31 28.5t-57.5 12.5t-49.5 2q-50 0 -78 9q-21 -7 -38.5 -20.5t-17.5 -28.5q0 -17 15.5 -29t40 -17.5t45 -7.5t39.5 -2zM295 769q6 0 11 -1t11.5 -5t11.5 -7.5t15 -13l18.5 -18l25 -25l31.5 -30.5
q13 -13 13 -28q0 -17 -12 -29t-30 -12q-14 0 -22 6l-73 48l-73 -48q-8 -6 -22 -6q-18 0 -30 12t-12 29q0 15 13 28l31.5 30.5l25 25l18.5 18t15 13t11.5 7.5t11.5 5t11 1z" />
    <glyph glyph-name="gbreve.alt" horiz-adv-x="589" 
d="M530 8q17 -30 17 -70q0 -57 -42 -96t-94.5 -53t-107.5 -14q-45 0 -86.5 7t-83 24t-66.5 52t-25 84q0 72 58 114q-21 28 -21 62q0 55 36 83q-20 21 -33 56t-13 68q0 83 65 144.5t149 61.5h14q40 0 93 -17l9 4q37 13 79 13q18 0 31.5 -14t13.5 -33v-5q-1 -16 -13 -26
t-30 -12q39 -49 39 -116q0 -88 -65.5 -144.5t-155.5 -56.5q-26 0 -54 7t-44 13l-15 7q-10 -10 -10 -25q0 -18 15.5 -27.5t40.5 -9.5l75 3q176 -4 224 -84zM300 422h-5q-42 0 -74.5 -28.5t-32.5 -68.5q0 -41 31.5 -69t75.5 -28q42 0 73.5 27.5t31.5 69.5q0 38 -31 67.5
t-69 29.5zM298 -115q11 0 28 2t43 6.5t43.5 16t17.5 28.5q0 18 -31 28.5t-57.5 12.5t-49.5 2q-50 0 -78 9q-21 -7 -38.5 -20.5t-17.5 -28.5q0 -17 15.5 -29t40 -17.5t45 -7.5t39.5 -2zM299 599q-50 0 -89 22t-58 58q-6 12 -6 27q0 22 15 37.5t37 15.5q26 0 43 -26
q23 -32 58 -32q32 0 53 32q16 26 45 26q22 0 36.5 -15t14.5 -37q0 -16 -7 -28q-43 -80 -142 -80z" />
    <glyph glyph-name="g.alt" horiz-adv-x="589" 
d="M530 8q17 -30 17 -70q0 -57 -42 -96t-94.5 -53t-107.5 -14q-45 0 -86.5 7t-83 24t-66.5 52t-25 84q0 72 58 114q-21 28 -21 62q0 55 36 83q-20 21 -33 56t-13 68q0 83 65 144.5t149 61.5h14q40 0 93 -17l9 4q37 13 79 13q18 0 31.5 -14t13.5 -33v-5q-1 -16 -13 -26
t-30 -12q39 -49 39 -116q0 -88 -65.5 -144.5t-155.5 -56.5q-26 0 -54 7t-44 13l-15 7q-10 -10 -10 -25q0 -18 15.5 -27.5t40.5 -9.5l75 3q176 -4 224 -84zM300 422h-5q-42 0 -74.5 -28.5t-32.5 -68.5q0 -41 31.5 -69t75.5 -28q42 0 73.5 27.5t31.5 69.5q0 38 -31 67.5
t-69 29.5zM298 -115q11 0 28 2t43 6.5t43.5 16t17.5 28.5q0 18 -31 28.5t-57.5 12.5t-49.5 2q-50 0 -78 9q-21 -7 -38.5 -20.5t-17.5 -28.5q0 -17 15.5 -29t40 -17.5t45 -7.5t39.5 -2z" />
    <glyph glyph-name="caron_alt" horiz-adv-x="255" 
d="M178 718q9 -53 -9 -97q-19 -42 -79 -98q-7 -7 -18 -7t-20.5 9t-9.5 20q0 8 5 16q34 49 34 111q0 9 -2 33q0 22 10 35q16 19 40 19q18 0 32 -11.5t17 -29.5z" />
    <glyph glyph-name="c_t" horiz-adv-x="918" 
d="M312 414q-62 0 -105.5 -43.5t-43.5 -105.5q0 -61 43.5 -104.5t104.5 -43.5q48 0 91 32q20 14 45.5 9t41.5 -25q14 -19 11 -42.5t-24 -39.5q-74 -56 -164 -56q-112 0 -191 79t-79 191t79 191t190 79q23 0 53 -5q-15 77 29 140t129 63q51 0 94.5 -25t69.5 -67
q25 -47 25 -96v-21h72q22 0 38.5 -15t16.5 -37t-16 -38t-39 -16h-72v-214q0 -34 13 -61.5t44 -27.5q23 0 49 8q26 9 50 -9t23 -48q-1 -19 -13.5 -35t-30.5 -20q-39 -11 -78 -11q-63 0 -105 35q-61 52 -61 169v214h-18q-22 0 -37 15.5t-15 37.5q0 23 15 38t37 15h18v20
q0 31 -24 54.5t-56 23.5t-55 -22.5t-22 -54.5q0 -34 16 -50q29 -29 29 -53q0 -27 -18.5 -43.5t-43.5 -16.5q-20 0 -37 12q-30 20 -79 20z" />
    <glyph glyph-name="atilde.alt" horiz-adv-x="641" 
d="M292 0q-105 0 -177.5 82t-72.5 187q0 107 73 183.5t186 76.5q95 0 144 -69q5 32 25 51t53 19q24 0 42.5 -17t18.5 -41q0 -25 -15 -40q-11 -9 -11 -14v-305q0 -6 11 -15q15 -13 15 -39q0 -24 -18.5 -41.5t-42.5 -17.5q-32 0 -55 23.5t-23 55.5q-41 -72 -153 -79zM306 417
q-59 0 -101 -44.5t-42 -108.5t42 -109t101 -45q60 0 103 46t43 118v4q-2 57 -45 98t-101 41zM435 764q28 -1 39 -26t-2 -48q-42 -75 -109 -75q-27 0 -64 25.5t-47 25.5q-13 0 -31.5 -25.5t-38.5 -26.5q-30 -1 -40 25.5t4 48.5q42 75 108 75q27 0 63.5 -25.5t47.5 -25.5
q12 0 30.5 26t39.5 26z" />
    <glyph glyph-name="aring.alt" horiz-adv-x="641" 
d="M292 0q-105 0 -177.5 82t-72.5 187q0 107 73 183.5t186 76.5q95 0 144 -69q5 32 25 51t53 19q24 0 42.5 -17t18.5 -41q0 -25 -15 -40q-11 -9 -11 -14v-305q0 -6 11 -15q15 -13 15 -39q0 -24 -18.5 -41.5t-42.5 -17.5q-32 0 -55 23.5t-23 55.5q-41 -72 -153 -79zM306 417
q-59 0 -101 -44.5t-42 -108.5t42 -109t101 -45q60 0 103 46t43 118v4q-2 57 -45 98t-101 41zM294 563q-36 0 -66.5 27t-30.5 67q0 39 30 66t67 27q39 0 67.5 -25.5t28.5 -67.5q0 -43 -29.5 -68.5t-66.5 -25.5zM294 620q16 0 28.5 10t12.5 27q0 16 -12.5 26t-28.5 10
t-28.5 -10t-12.5 -26q0 -17 12 -27t29 -10z" />
    <glyph glyph-name="typedepot" horiz-adv-x="765" 
d="M552 94v196h197v-196h-197zM15 649h734v-197h-354v-358h-380v196h184v162h-184v197z" />
    <glyph glyph-name="aogonek.alt" horiz-adv-x="641" 
d="M292 0q-105 0 -177.5 82t-72.5 187q0 107 73 183.5t186 76.5q95 0 144 -69q5 32 25 51t53 19q24 0 42.5 -17t18.5 -41q0 -25 -15 -40q-11 -9 -11 -14v-305q0 -6 11 -15q15 -13 15 -39q0 -24 -17 -41t-41 -18h-1h-2q-28 -2 -28 -40q0 -17 13 -27.5t28 -10.5q35 0 35 -35
q0 -14 -10 -23t-24 -9q-103 0 -103 86q0 48 49 70q-38 23 -38 68q-41 -72 -153 -79zM306 417q-59 0 -101 -44.5t-42 -108.5t42 -109t101 -45q60 0 103 46t43 118v4q-2 57 -45 98t-101 41z" />
    <glyph glyph-name="ampersand.alt2" horiz-adv-x="746" 
d="M378 295q56 -56 116 -101q9 23 9 42q0 2 0.5 6t3.5 13.5t8 17t16.5 13.5t26.5 6q26 0 40.5 -14t15.5 -28l2 -14q0 -61 -31 -111q7 -9 20 -9q2 0 6.5 1t7.5 1q20 0 35 -18t15 -40q0 -26 -21.5 -44.5t-48.5 -18.5q-36 0 -61 20q-1 1 -35 27q-62 -44 -151 -44
q-107 0 -191 67t-84 170q0 94 74 163q-36 72 -36 133q0 84 55.5 130.5t139.5 46.5q70 0 122 -44.5t55 -114.5v-7q-2 -22 -18.5 -38t-40.5 -16q-23 0 -39 17t-16 41t-19 41t-44 17q-37 0 -59.5 -18t-22.5 -55q0 -93 150 -238zM351 113q28 0 52 7q-117 95 -187 183
q-24 -29 -24 -66q0 -56 48.5 -90t110.5 -34z" />
    <glyph glyph-name="ampersand.alt1" horiz-adv-x="801" 
d="M78 245q0 126 87 186q-31 47 -31 101q0 62 36 110q54 73 155 73q62 0 107 -28q29 -19 29 -53q0 -23 -18 -40t-40 -17q-14 0 -38.5 11.5t-39.5 11.5q-32 0 -54 -18t-22 -50q0 -54 72 -54h13q25 0 42 -16.5t17 -41.5q0 -23 -17 -40t-42 -17q-145 0 -145 -118
q0 -58 45.5 -93.5t105.5 -35.5q51 0 94 28.5t49 77.5h-19q-4 0 -6 -2q-20 -20 -43 -20q-25 0 -41 18t-16 42q0 32 30 55.5t61 23.5h168q3 0 7 2q20 18 42 18q25 0 41.5 -16t16.5 -40q0 -36 -28 -58.5t-64 -22.5h-32q-7 -96 -85 -159t-175 -63q-106 0 -184 70t-78 175z" />
    <glyph glyph-name="ampersand.alt" horiz-adv-x="679" 
d="M409 212v86h-121q-54 0 -78 -25q-19 -18 -19 -61q0 -46 24 -68q28 -29 85 -29t86 29q23 23 23 68zM77 212q0 90 52 143q-52 51 -52 142q0 96 60 153q60 59 163 59q83 0 142 -44q24 -16 24 -46q0 -24 -16.5 -40.5t-39.5 -16.5q-19 0 -34 11q-25 20 -75 22q-50 -2 -80 -27
t-30 -71q0 -43 19 -62q22 -23 79 -23h120v30q0 23 16.5 40t40.5 17q23 0 40 -17t17 -40v-30h22q24 0 40.5 -16.5t16.5 -40.5t-16.5 -40.5t-40.5 -16.5h-22v-86q0 -96 -60 -152q-63 -60 -163 -60q-102 0 -163 60q-60 56 -60 152z" />
    <glyph glyph-name="amacron.alt" horiz-adv-x="641" 
d="M292 0q-105 0 -177.5 82t-72.5 187q0 107 73 183.5t186 76.5q95 0 144 -69q5 32 25 51t53 19q24 0 42.5 -17t18.5 -41q0 -25 -15 -40q-11 -9 -11 -14v-305q0 -6 11 -15q15 -13 15 -39q0 -24 -18.5 -41.5t-42.5 -17.5q-32 0 -55 23.5t-23 55.5q-41 -72 -153 -79zM306 417
q-59 0 -101 -44.5t-42 -108.5t42 -109t101 -45q60 0 103 46t43 118v4q-2 57 -45 98t-101 41zM153 672q0 19 13.5 32.5t34.5 13.5h218q19 0 33.5 -13.5t14.5 -32.5q0 -20 -14.5 -33.5t-33.5 -13.5h-218q-21 0 -34.5 13.5t-13.5 33.5z" />
    <glyph glyph-name="agrave.alt" horiz-adv-x="641" 
d="M292 0q-105 0 -177.5 82t-72.5 187q0 107 73 183.5t186 76.5q95 0 144 -69q5 32 25 51t53 19q24 0 42.5 -17t18.5 -41q0 -25 -15 -40q-11 -9 -11 -14v-305q0 -6 11 -15q15 -13 15 -39q0 -24 -18.5 -41.5t-42.5 -17.5q-32 0 -55 23.5t-23 55.5q-41 -72 -153 -79zM306 417
q-59 0 -101 -44.5t-42 -108.5t42 -109t101 -45q60 0 103 46t43 118v4q-2 57 -45 98t-101 41zM233 664q-43 21 -34 63q8 36 41 49q30 12 59 -10l110 -93q16 -15 16 -34q0 -15 -11 -26.5t-27 -11.5q-8 0 -20 5q-131 57 -134 58z" />
    <glyph glyph-name="adieresis.alt" horiz-adv-x="641" 
d="M292 0q-105 0 -177.5 82t-72.5 187q0 107 73 183.5t186 76.5q95 0 144 -69q5 32 25 51t53 19q24 0 42.5 -17t18.5 -41q0 -25 -15 -40q-11 -9 -11 -14v-305q0 -6 11 -15q15 -13 15 -39q0 -24 -18.5 -41.5t-42.5 -17.5q-32 0 -55 23.5t-23 55.5q-41 -72 -153 -79zM306 417
q-59 0 -101 -44.5t-42 -108.5t42 -109t101 -45q60 0 103 46t43 118v4q-2 57 -45 98t-101 41zM118 667q0 29 20 49t49 20t49.5 -20t20.5 -49q0 -28 -20.5 -47.5t-49.5 -19.5t-49 19.5t-20 47.5zM345 667q0 29 20 49t49 20t49 -20t20 -49q0 -28 -20 -47.5t-49 -19.5t-49 19.5
t-20 47.5z" />
    <glyph glyph-name="acircumflex.alt" horiz-adv-x="641" 
d="M292 0q-105 0 -177.5 82t-72.5 187q0 107 73 183.5t186 76.5q95 0 144 -69q5 32 25 51t53 19q24 0 42.5 -17t18.5 -41q0 -25 -15 -40q-11 -9 -11 -14v-305q0 -6 11 -15q15 -13 15 -39q0 -24 -18.5 -41.5t-42.5 -17.5q-32 0 -55 23.5t-23 55.5q-41 -72 -153 -79zM306 417
q-59 0 -101 -44.5t-42 -108.5t42 -109t101 -45q60 0 103 46t43 118v4q-2 57 -45 98t-101 41zM297 769q6 0 11 -1t11.5 -5t11.5 -7.5t15 -13l18.5 -18l25 -25l31.5 -30.5q13 -13 13 -28q0 -17 -12 -29t-30 -12q-14 0 -22 6l-73 48l-73 -48q-8 -6 -22 -6q-18 0 -30 12t-12 29
q0 15 13 28l31.5 30.5l25 25l18.5 18t15 13t11.5 7.5t11.5 5t11 1z" />
    <glyph glyph-name="abreve.alt" horiz-adv-x="641" 
d="M292 0q-105 0 -177.5 82t-72.5 187q0 107 73 183.5t186 76.5q95 0 144 -69q5 32 25 51t53 19q24 0 42.5 -17t18.5 -41q0 -25 -15 -40q-11 -9 -11 -14v-305q0 -6 11 -15q15 -13 15 -39q0 -24 -18.5 -41.5t-42.5 -17.5q-32 0 -55 23.5t-23 55.5q-41 -72 -153 -79zM306 417
q-59 0 -101 -44.5t-42 -108.5t42 -109t101 -45q60 0 103 46t43 118v4q-2 57 -45 98t-101 41zM298 599q-50 0 -89 22t-58 58q-6 12 -6 27q0 22 15 37.5t37 15.5q26 0 43 -26q23 -32 58 -32q32 0 53 32q16 26 45 26q22 0 36.5 -15t14.5 -37q0 -16 -7 -28q-43 -80 -142 -80z
" />
    <glyph glyph-name="aacute.alt" horiz-adv-x="641" 
d="M292 0q-105 0 -177.5 82t-72.5 187q0 107 73 183.5t186 76.5q95 0 144 -69q5 32 25 51t53 19q24 0 42.5 -17t18.5 -41q0 -25 -15 -40q-11 -9 -11 -14v-305q0 -6 11 -15q15 -13 15 -39q0 -24 -18.5 -41.5t-42.5 -17.5q-32 0 -55 23.5t-23 55.5q-41 -72 -153 -79zM306 417
q-59 0 -101 -44.5t-42 -108.5t42 -109t101 -45q60 0 103 46t43 118v4q-2 57 -45 98t-101 41zM384 664q-3 -1 -134 -58q-12 -5 -20 -5q-16 0 -27 11.5t-11 26.5q0 19 16 34l110 93q40 30 76 0q30 -26 24 -61q-5 -27 -34 -41z" />
    <glyph glyph-name="a.alt" horiz-adv-x="641" 
d="M292 0q-105 0 -177.5 82t-72.5 187q0 107 73 183.5t186 76.5q95 0 144 -69q5 32 25 51t53 19q24 0 42.5 -17t18.5 -41q0 -25 -15 -40q-11 -9 -11 -14v-305q0 -6 11 -15q15 -13 15 -39q0 -24 -18.5 -41.5t-42.5 -17.5q-32 0 -55 23.5t-23 55.5q-41 -72 -153 -79zM306 417
q-59 0 -101 -44.5t-42 -108.5t42 -109t101 -45q60 0 103 46t43 118v4q-2 57 -45 98t-101 41z" />
    <glyph glyph-name="Rcommaaccent.alt" horiz-adv-x="722" 
d="M302 -204q-18 -12 -18 -28q0 -13 8 -21t21 -8q7 0 19 5q60 33 76 75q10 23 10 46q0 34 -19 59.5t-51 25.5q-23 0 -40 -15.5t-17 -38.5q0 -22 15 -37q14 -14 35 -14h4q-10 -29 -43 -49zM616 105q26 -13 26 -47q0 -24 -18.5 -41t-42.5 -17q-31 0 -53 13q-41 27 -41 77v77
q0 57 -28 86q-31 33 -71 33h-166v-196q0 -50 -42 -77q-20 -13 -53 -13q-24 0 -42 17t-18 41q0 34 25 47q10 5 10 11v482q0 6 -10 11q-25 13 -25 47q0 24 18 41t42 17h266q89 0 151.5 -62t62.5 -151q0 -56 -29 -110t-78 -54q38 0 63.5 -30.5t34 -66.5t8.5 -73v-51
q0 -5 10 -11zM393 405q40 0 68 28t28 68q0 39 -28 66t-68 27h-175q4 -11 4 -30v-159h171z" />
    <glyph glyph-name="Rcaron.alt" horiz-adv-x="722" 
d="M616 105q26 -13 26 -47q0 -24 -18.5 -41t-42.5 -17q-31 0 -53 13q-41 27 -41 77v77q0 57 -28 86q-31 33 -71 33h-166v-196q0 -50 -42 -77q-20 -13 -53 -13q-24 0 -42 17t-18 41q0 34 25 47q10 5 10 11v482q0 6 -10 11q-25 13 -25 47q0 24 18 41t42 17h266q89 0 151.5 -62
t62.5 -151q0 -56 -29 -110t-78 -54q38 0 63.5 -30.5t34 -66.5t8.5 -73v-51q0 -5 10 -11zM393 405q40 0 68 28t28 68q0 39 -28 66t-68 27h-175q4 -11 4 -30v-159h171zM307 788q-6 0 -11 1t-11.5 5t-11.5 7.5t-15 13l-18.5 18l-25 25l-31.5 30.5q-13 13 -13 28q0 17 12 29
t30 12q14 0 22 -6l73 -48l73 48q8 6 22 6q18 0 30 -12t12 -29q0 -15 -13 -28l-31.5 -30.5l-25 -25l-18.5 -18t-15 -13t-11.5 -7.5t-11.5 -5t-11 -1z" />
    <glyph glyph-name="Racute.alt" horiz-adv-x="722" 
d="M616 105q26 -13 26 -47q0 -24 -18.5 -41t-42.5 -17q-31 0 -53 13q-41 27 -41 77v77q0 57 -28 86q-31 33 -71 33h-166v-196q0 -50 -42 -77q-20 -13 -53 -13q-24 0 -42 17t-18 41q0 34 25 47q10 5 10 11v482q0 6 -10 11q-25 13 -25 47q0 24 18 41t42 17h266q89 0 151.5 -62
t62.5 -151q0 -56 -29 -110t-78 -54q38 0 63.5 -30.5t34 -66.5t8.5 -73v-51q0 -5 10 -11zM393 405q40 0 68 28t28 68q0 39 -28 66t-68 27h-175q4 -11 4 -30v-159h171zM423 852q-3 -1 -134 -58q-12 -5 -20 -5q-16 0 -27 11.5t-11 26.5q0 19 16 34l110 93q40 30 76 0
q30 -26 24 -61q-5 -27 -34 -41z" />
    <glyph glyph-name="R.alt" horiz-adv-x="722" 
d="M616 105q26 -13 26 -47q0 -24 -18.5 -41t-42.5 -17q-31 0 -53 13q-41 27 -41 77v77q0 57 -28 86q-31 33 -71 33h-166v-196q0 -50 -42 -77q-20 -13 -53 -13q-24 0 -42 17t-18 41q0 34 25 47q10 5 10 11v482q0 6 -10 11q-25 13 -25 47q0 24 18 41t42 17h266q89 0 151.5 -62
t62.5 -151q0 -56 -29 -110t-78 -54q38 0 63.5 -30.5t34 -66.5t8.5 -73v-51q0 -5 10 -11zM393 405q40 0 68 28t28 68q0 39 -28 66t-68 27h-175q4 -11 4 -30v-159h171z" />
    </font>
</defs>
</svg>
