<?xml version="1.0" standalone="no"?>
<!DOCTYPE svg PUBLIC "-//W3C//DTD SVG 1.1//EN" "http://www.w3.org/Graphics/SVG/1.1/DTD/svg11.dtd" >
<svg>
<metadata>
Created by FontForge 20090622 at Fri Nov 23 15:28:56 2018
 By deploy user
All Rights reserved.Copyright &#194;&#169; 2011 By typedepot.
</metadata>
<defs>
<font id="BandaSemibold-SemiBold" horiz-adv-x="639" >
  <font-face 
    font-family="Banda Semi bold"
    font-weight="600"
    font-stretch="normal"
    units-per-em="1000"
    panose-1="2 0 5 3 2 0 0 2 0 4"
    ascent="830"
    descent="-170"
    x-height="519"
    cap-height="700"
    bbox="-70.8571 -285.297 1145 961.25"
    underline-thickness="20"
    underline-position="-113"
    unicode-range="U+000D-U+FB06"
  />
<missing-glyph horiz-adv-x="445" 
d="M463 -160q0 -13 -11 -25.5t-27 -12.5h-406q-15 0 -26 11t-11 27v854q0 16 11 26.5t26 10.5h406q13 0 25.5 -12.5t12.5 -25.5v-853zM259 262l131 -267v539zM364 -125l-145 296l-145 -296h290zM363 656h-296l150 -306zM53 6l124 256l-124 261v-517z" />
    <glyph glyph-name="f_f" unicode="ff" horiz-adv-x="624" 
d="M403 0q-22 0 -37 14t-15 37q0 13 4.5 23t8.5 13l5 3q9 5 9 17v312h-181v-343q0 -34 -21 -55t-54 -21q-22 0 -37 14t-15 37q0 13 4.5 23t9.5 13l4 3q9 5 9 17v312h-25q-34 0 -48 25t0 50t48 25h25v34q0 86 39.5 132.5t120.5 46.5q18 0 35 -3t34 -16t17 -35
q0 -20 -13.5 -32t-35.5 -13q-8 0 -19.5 2t-17.5 2q-34 0 -46.5 -20t-12.5 -57v-41h180v34q0 86 39.5 132.5t120.5 46.5q18 0 35 -3t34 -16t17 -35q0 -20 -13.5 -32t-35.5 -13q-8 0 -19.5 2t-17.5 2q-34 0 -46.5 -20t-12.5 -57v-41h96q32 0 45.5 -25t0.5 -50t-46 -25h-97
v-343q0 -34 -21 -55t-54 -21z" />
    <glyph glyph-name="fi" unicode="fi" horiz-adv-x="547" 
d="M118 0q-22 0 -37 14t-15 37q0 13 4.5 23t9.5 13l4 3q9 5 9 17v312h-27q-30 0 -43 25t-0.5 50t43.5 25h27v15q0 84 54.5 141t137.5 57q26 0 40.5 -1.5t46 -13.5t67.5 -37q22 -16 22 -40q0 -20 -14 -34t-33 -14q-15 0 -26 7q-59 37 -99 37q-44 0 -70 -33t-26 -70v-14h201
q33 0 53 -25.5t20 -59.5v-332q0 -8 6 -14q17 -15 17 -38q0 -21 -15 -35.5t-38 -14.5q-28 0 -47.5 20.5t-21.5 48.5q-1 5 -1 15v323q0 12 -13 12h-161v-343q0 -34 -21 -55t-54 -21z" />
    <glyph glyph-name="fl" unicode="fl" horiz-adv-x="557" 
d="M448 0q-33 0 -54 21t-21 55v481q0 33 -25.5 56.5t-62.5 23.5q-36 0 -62 -24t-26 -56v-38h59q32 0 45.5 -25t0.5 -50t-46 -25h-59v-343q0 -34 -21 -55t-54 -21q-22 0 -37 14t-15 37q0 13 4.5 23t9.5 13l4 3q9 5 9 17v312h-28q-24 0 -37.5 15.5t-14 34.5t13.5 34.5t38 15.5
h28v38q0 71 57 124t131 53q78 0 133 -52.5t55 -126.5v-448q0 -12 9 -17q18 -9 18 -39q0 -23 -15 -37t-37 -14z" />
    <glyph glyph-name="f_f_i" unicode="ffi" horiz-adv-x="827" 
d="M122 0q-22 0 -37 14t-15 37q0 13 4.5 23t9.5 13l4 3q9 5 9 17v312h-25q-34 0 -48 25t0 50t48 25h25v34q0 86 39.5 132.5t120.5 46.5q18 0 35 -3t33 -16t16 -35q0 -42 -47 -44q-8 0 -19.5 1.5t-17.5 1.5q-34 0 -47 -20t-13 -57v-41h176v15q0 84 54.5 141t137.5 57
q29 0 42.5 -1t45.5 -13.5t66 -37.5q22 -17 22 -40q0 -20 -13.5 -33t-32.5 -13q-17 0 -26 8q-22 17 -44 25.5t-29.5 9t-26.5 0.5q-44 0 -70 -34t-26 -70v-14h201q33 0 53 -25.5t20 -59.5v-332q0 -8 6 -14q17 -15 17 -38q0 -21 -15 -35.5t-38 -14.5q-28 0 -47.5 20.5
t-21.5 48.5q-1 5 -1 15v323q0 12 -13 12h-161v-343q0 -34 -21 -55t-54 -21q-22 0 -37 14t-15 37q0 13 4.5 23t9.5 13l4 3q9 5 9 17v312h-176v-343q0 -34 -21 -55t-54 -21z" />
    <glyph glyph-name="f_f_l" unicode="ffl" horiz-adv-x="828" 
d="M122 0q-22 0 -37 14t-15 37q0 13 4.5 23t9.5 13l4 3q9 5 9 17v312h-25q-34 0 -48 25t0 50t48 25h25v34q0 86 39.5 132.5t120.5 46.5q18 0 35 -3t34 -16t17 -35q0 -21 -14 -36.5t-35 -16.5q-8 0 -19.5 1.5t-17.5 1.5q-35 0 -47 -16t-12 -52v-41h171v38q0 71 56.5 124
t130.5 53q79 0 134.5 -53t53.5 -126v-448q0 -12 9 -17q18 -9 18 -39q0 -23 -15 -37t-37 -14q-33 0 -54 21t-21 55v481q0 33 -25.5 56.5t-62.5 23.5q-36 0 -61.5 -24t-25.5 -56v-38h58q32 0 45.5 -25t0.5 -50t-46 -25h-59v-343q0 -34 -21 -55t-54 -21q-22 0 -37 14t-15 37
q0 13 4.5 23t8.5 13l5 3q9 5 9 17v312h-171v-343q0 -34 -21 -55t-54 -21z" />
    <glyph glyph-name="f_h" unicode="fh" horiz-adv-x="929" 
d="M473 555v-97q21 28 63 44.5t78 16.5q112 0 171.5 -60t59.5 -181v-171q0 -12 9 -17q18 -9 18 -39q0 -23 -15 -37t-37 -14q-33 0 -54 21t-21 55v208q0 63 -37 99.5t-100 36.5q-55 0 -95 -39t-40 -92v-213q0 -34 -21 -55t-54 -21q-22 0 -37 14t-15 37q0 13 4.5 23t9.5 13
l4 3q9 5 9 17v450q0 33 -25.5 56.5t-62.5 23.5q-36 0 -61.5 -24t-25.5 -56v-38h58q32 0 45.5 -25t0.5 -50t-46 -25h-59v-343q0 -34 -21 -55t-54 -21q-22 0 -37 14t-15 37q0 13 4.5 23t9.5 13l4 3q9 5 9 17v312h-28q-24 0 -37.5 15.5t-14 34.5t13.5 34.5t38 15.5h29v38
q0 71 56.5 123t130.5 52q79 0 134.5 -52t53.5 -125z" />
    <glyph glyph-name="f_t" unicode="ft" horiz-adv-x="698" 
d="M419 662q33 0 54 -21t21 -55v-67h104q33 0 46 -23.5t0 -47t-46 -23.5h-104v-224q0 -102 63 -102q21 0 50 9q31 9 49.5 -9.5t13 -45.5t-34.5 -39q-32 -14 -80 -14q-161 0 -161 200v225h-197v-349q0 -34 -21 -55t-54 -21q-22 0 -37 14t-15 37q0 13 4.5 23t9.5 13l4 3
q9 5 9 17v318h-25q-34 0 -48 23.5t0 47t48 23.5h25v34q0 86 39.5 132.5t120.5 46.5q18 0 34.5 -3t32.5 -16t16 -35q0 -21 -14 -36.5t-35 -16.5q-8 0 -18 1.5t-16 1.5q-35 0 -47 -16t-12 -52v-41h196v36q0 12 -9 17q-18 9 -18 39q0 23 15 37t37 14z" />
    <glyph glyph-name="f_k" unicode="fk" horiz-adv-x="807" 
d="M473 555v-265l155 155q9 9 6 19q-8 20 13 41q14 14 36 14q25 0 40 -14q24 -23 23 -53.5t-25 -54.5l-131 -132l114 -147q8 -10 19 -10q20 2 37 -18q14 -19 11.5 -40t-18.5 -34q-20 -16 -46 -16q-36 0 -62 32l-126 162l-46 -46v-72q0 -34 -21 -55t-54 -21q-22 0 -37 14
t-15 37q0 13 4.5 23t9.5 13l4 3q9 5 9 17v450q0 33 -25.5 56.5t-62.5 23.5q-36 0 -61.5 -24t-25.5 -56v-38h58q32 0 45.5 -25t0.5 -50t-46 -25h-59v-343q0 -34 -21 -55t-54 -21q-22 0 -37 14t-15 37q0 13 4.5 23t9.5 13l4 3q9 5 9 17v312h-28q-24 0 -37.5 15.5t-14 34.5
t13.5 34.5t38 15.5h29v38q0 71 56.5 124t130.5 53q79 0 134.5 -53t53.5 -126z" />
    <glyph glyph-name="f_b" unicode="fb" horiz-adv-x="916" 
d="M473 555v-123q27 45 73 67t87 22q107 0 174 -76t67 -182q0 -117 -68 -192.5t-173 -75.5q-103 0 -160 86v-5q0 -34 -21 -55t-54 -21q-22 0 -37 14t-15 37q0 13 4.5 23t9.5 13l4 3q9 5 9 17v450q0 33 -25.5 56.5t-62.5 23.5q-36 0 -61.5 -24t-25.5 -56v-38h58
q32 0 45.5 -25t0.5 -50t-46 -25h-59v-343q0 -34 -21 -55t-54 -21q-22 0 -37 14t-15 37q0 13 4.5 23t9.5 13l4 3q9 5 9 17v312h-28q-24 0 -37.5 15.5t-14 34.5t13.5 34.5t38 15.5h29v38q0 71 56.5 124t130.5 53q79 0 134.5 -53t53.5 -126zM625 420q-66 0 -108.5 -48.5
t-42.5 -113.5q0 -68 44.5 -115t106.5 -47q61 0 104.5 47t43.5 115q0 67 -43.5 114.5t-104.5 47.5z" />
    <glyph glyph-name="f_f_h" unicode="ffh" horiz-adv-x="1200" 
d="M635 90q9 5 9 17v450q0 33 -25.5 56.5t-62.5 23.5q-36 0 -61.5 -24t-25.5 -56v-38h58q32 0 45.5 -25t0.5 -50t-46 -25h-59v-343q0 -34 -21 -55t-54 -21q-22 0 -37 14t-15 37q0 13 4.5 23t8.5 13l5 3q9 5 9 17v312h-171v-343q0 -34 -21 -55t-54 -21q-22 0 -37 14t-15 37
q0 13 4.5 23t9.5 13l4 3q9 5 9 17v312h-25q-34 0 -48 25t0 50t48 25h25v34q0 86 39.5 132.5t120.5 46.5q18 0 35 -3t34 -16t17 -35q0 -21 -14 -36.5t-35 -16.5q-8 0 -19.5 1.5t-17.5 1.5q-35 0 -47 -16t-12 -52v-41h171v38q0 71 56.5 124t130.5 53q79 0 134.5 -53t53.5 -126
v-97q21 28 63 44.5t78 16.5q112 0 171.5 -60t59.5 -181v-171q0 -12 9 -17q18 -9 18 -39q0 -23 -15 -37t-37 -14q-33 0 -54 21t-21 55v208q0 63 -37 99.5t-100 36.5q-55 0 -95 -39t-40 -92v-213q0 -34 -21 -55t-54 -21q-22 0 -37 14t-15 37q0 13 4.5 23t8.5 13z" />
    <glyph glyph-name="f_f_b" unicode="ffb" horiz-adv-x="1187" 
d="M744 555v-123q27 45 73 67t87 22q107 0 174 -76t67 -182q0 -117 -68 -192.5t-173 -75.5q-103 0 -160 86v-5q0 -34 -21 -55t-54 -21q-22 0 -37 14t-15 37q0 13 4.5 23t8.5 13l5 3q9 5 9 17v450q0 33 -25.5 56.5t-62.5 23.5q-36 0 -61.5 -24t-25.5 -56v-38h58
q32 0 45.5 -25t0.5 -50t-46 -25h-59v-343q0 -34 -21 -55t-54 -21q-22 0 -37 14t-15 37q0 13 4.5 23t8.5 13l5 3q9 5 9 17v312h-171v-343q0 -34 -21 -55t-54 -21q-22 0 -37 14t-15 37q0 13 4.5 23t9.5 13l4 3q9 5 9 17v312h-25q-34 0 -48 25t0 50t48 25h25v34
q0 86 39.5 132.5t120.5 46.5q18 0 35 -3t34 -16t17 -35q0 -21 -14 -36.5t-35 -16.5q-8 0 -19.5 1.5t-17.5 1.5q-35 0 -47 -16t-12 -52v-41h171v38q0 71 56.5 124t130.5 53q79 0 134.5 -53t53.5 -126zM896 420q-66 0 -108.5 -48.5t-42.5 -113.5q0 -68 44.5 -115t106.5 -47
q61 0 104.5 47t43.5 115q0 67 -43.5 114.5t-104.5 47.5z" />
    <glyph glyph-name="f_f_k" unicode="ffk" horiz-adv-x="1078" 
d="M635 90q9 5 9 17v450q0 33 -25.5 56.5t-62.5 23.5q-36 0 -61.5 -24t-25.5 -56v-38h58q32 0 45.5 -25t0.5 -50t-46 -25h-59v-343q0 -34 -21 -55t-54 -21q-22 0 -37 14t-15 37q0 13 4.5 23t8.5 13l5 3q9 5 9 17v312h-171v-343q0 -34 -21 -55t-54 -21q-22 0 -37 14t-15 37
q0 13 4.5 23t9.5 13l4 3q9 5 9 17v312h-25q-34 0 -48 25t0 50t48 25h25v34q0 86 39.5 132.5t120.5 46.5q18 0 35 -3t34 -16t17 -35q0 -21 -14 -36.5t-35 -16.5q-8 0 -19.5 1.5t-17.5 1.5q-35 0 -47 -16t-12 -52v-41h171v38q0 71 56.5 124t130.5 53q79 0 134.5 -53t53.5 -126
v-265l155 155q9 9 6 19q-8 20 13 41q14 14 36 14q25 0 40 -14q24 -23 23 -53.5t-25 -54.5l-131 -132l114 -147q8 -10 19 -10q20 2 37 -18q23 -29 3.5 -59.5t-56.5 -30.5q-36 0 -62 32l-126 162l-46 -46v-72q0 -34 -21 -55t-54 -21q-22 0 -37 14t-15 37q0 13 4.5 23t8.5 13z
" />
    <glyph glyph-name=".notdef" horiz-adv-x="445" 
d="M463 -160q0 -13 -11 -25.5t-27 -12.5h-406q-15 0 -26 11t-11 27v854q0 16 11 26.5t26 10.5h406q13 0 25.5 -12.5t12.5 -25.5v-853zM259 262l131 -267v539zM364 -125l-145 296l-145 -296h290zM363 656h-296l150 -306zM53 6l124 256l-124 261v-517z" />
    <glyph glyph-name=".null" horiz-adv-x="0" 
 />
    <glyph glyph-name="nonmarkingreturn" horiz-adv-x="333" 
 />
    <glyph glyph-name="NUL" horiz-adv-x="0" 
 />
    <glyph glyph-name="NUL" horiz-adv-x="0" 
 />
    <glyph glyph-name="CR" unicode="&#xd;" horiz-adv-x="280" 
 />
    <glyph glyph-name="space" unicode=" " horiz-adv-x="300" 
 />
    <glyph glyph-name="exclam" unicode="!" horiz-adv-x="298" 
d="M149 147q31 0 52.5 -22t21.5 -53t-21.5 -52.5t-52.5 -21.5t-52.5 21.5t-21.5 52.5t21.5 53t52.5 22zM109 230l-23 414q0 27 19 43t45 16q25 0 44 -15.5t19 -40.5q0 -2 -22 -417q-1 -21 -13.5 -32.5t-28.5 -11.5t-27.5 11.5t-12.5 32.5z" />
    <glyph glyph-name="quotedbl" unicode="&#x22;" horiz-adv-x="447" 
d="M179 665l-43 -201q-5 -26 -26.5 -33.5t-40 5.5t-17.5 40l11 205q1 24 20.5 38t43.5 12q25 -2 41.5 -21.5t10.5 -44.5zM396 665l-43 -201q-6 -26 -27 -33.5t-39.5 5.5t-17.5 40l11 205q1 24 20.5 38t42.5 12q24 -2 41 -21.5t12 -44.5z" />
    <glyph glyph-name="numbersign" unicode="#" horiz-adv-x="759" 
d="M458 254l31 179h-186l-32 -179h187zM680 433h-89l-31 -179h78q20 0 35 -15t15 -36q0 -20 -15 -35t-35 -15h-96l-20 -111q-4 -20 -21 -32.5t-38 -8.5q-20 4 -32 21t-8 38l17 93h-187l-20 -111q-4 -20 -21 -32.5t-37 -8.5t-32.5 21t-8.5 38l17 93h-73q-21 0 -35.5 14.5
t-15.5 35.5q0 21 15 36t36 15h91l31 179h-79q-21 0 -36 15t-15 36t15 35.5t36 14.5h97l22 118q4 21 21 33t38 8q20 -4 32 -21t8 -38l-18 -100h186l22 118q4 21 21 33t37 8q21 -4 33 -21t8 -38l-19 -100h71q21 0 36 -14.5t15 -35.5t-15 -36t-36 -15z" />
    <glyph glyph-name="dollar" unicode="$" horiz-adv-x="569" 
d="M520 183q0 -58 -32.5 -100.5t-76.5 -62.5t-98 -27v-56q0 -13 -9.5 -22.5t-22.5 -9.5q-14 0 -23.5 9t-9.5 23v54q-121 5 -184 67q-15 15 -15 38q0 19 13 33t33 14q19 0 36 -12q51 -35 117 -41v216q-48 17 -78 31.5t-62.5 39t-48.5 60t-16 83.5q0 74 59.5 125.5t145.5 61.5
v62q0 14 9.5 23t23.5 9q13 0 22.5 -9.5t9.5 -22.5v-60q100 -9 159 -62q17 -17 17 -40q0 -20 -14 -34t-35 -14q-17 0 -30 10q-45 34 -97 39v-220q44 -15 73.5 -28.5t64 -37.5t52 -59t17.5 -80zM143 520q0 -37 27.5 -61.5t77.5 -45.5v194q-46 -8 -75.5 -31.5t-29.5 -55.5z
M419 180q0 64 -106 103v-189q47 9 76.5 31.5t29.5 54.5z" />
    <glyph glyph-name="percent" unicode="%" horiz-adv-x="796" 
d="M172 78l362 601q13 22 42 22q22 0 36.5 -14.5t14.5 -35.5q0 -14 -8 -27l-363 -602q-14 -22 -43 -22q-23 0 -36.5 15t-13.5 35q0 14 9 28zM603 325q65 0 110.5 -50.5t45.5 -112.5q0 -65 -45.5 -113.5t-110.5 -48.5t-110 48t-45 114q0 65 45.5 114t109.5 49zM603 229
q-26 0 -43.5 -20.5t-17.5 -46.5t17.5 -46.5t43.5 -20.5t43 20t17 47t-17 47t-43 20zM192 699q65 0 110.5 -50.5t45.5 -112.5q0 -65 -45.5 -113.5t-110.5 -48.5t-110 48t-45 114q0 65 45.5 114t109.5 49zM192 603q-26 0 -43.5 -20.5t-17.5 -46.5t17.5 -46.5t43.5 -20.5t43 20
t17 47t-17 47t-43 20z" />
    <glyph glyph-name="ampersand" unicode="&#x26;" horiz-adv-x="681" 
d="M382 180l-153 150q-35 -21 -51 -32t-32 -36t-16 -57q0 -47 36 -76.5t93 -29.5q41 0 73.5 22t49.5 59zM248 451q21 9 33.5 15.5t27 17.5t21.5 25.5t7 33.5q0 28 -20.5 45.5t-47.5 17.5q-29 0 -51.5 -18.5t-22.5 -46.5q0 -13 3.5 -25t15 -26t14.5 -18t20 -21zM539 288
l-41 -84l97 -95q5 -5 14 -5q20 0 34.5 -15t14.5 -35q0 -23 -18.5 -38.5t-41.5 -15.5q-34 0 -62 28l-82 81q-30 -50 -83.5 -79.5t-113.5 -29.5q-102 0 -164 57.5t-62 147.5q0 68 32 112t96 85q-31 37 -47 68t-16 71q0 70 50 114.5t120 44.5t120 -44t50 -113q0 -55 -31 -99.5
t-83 -66.5l104 -101q36 81 45 91q23 28 57 28q23 0 40 -13.5t17 -35.5q0 -17 -9.5 -31t-25.5 -17q-8 -2 -11 -10z" />
    <glyph glyph-name="quotesingle" unicode="'" horiz-adv-x="230" 
d="M179 665l-43 -201q-5 -26 -26.5 -33.5t-40 5.5t-17.5 40l11 205q1 24 20.5 38t43.5 12q25 -2 41.5 -21.5t10.5 -44.5z" />
    <glyph glyph-name="parenleft" unicode="(" horiz-adv-x="268" 
d="M174 -13q-30 0 -42 25q-79 150 -79 332q2 199 86 336q20 30 53.5 19t33.5 -44q0 -9 -5 -21q-62 -125 -64 -291q0 -140 59 -291q7 -24 -5.5 -44.5t-36.5 -20.5z" />
    <glyph glyph-name="parenright" unicode=")" horiz-adv-x="268" 
d="M77 -10q-17 8 -24 25.5t-1 36.5q59 151 59 291q-2 166 -64 291q-16 38 18 61q14 11 34 6t30 -21q84 -137 86 -336q0 -182 -79 -332q-8 -15 -25.5 -22t-33.5 0z" />
    <glyph glyph-name="asterisk" unicode="*" horiz-adv-x="428" 
d="M110 625l70 -26l-5 69q-1 18 11 29.5t28 11.5q17 0 29 -9.5t11 -29.5l-5 -70l70 25q16 5 30 -3t19 -24t-3 -31t-24 -18l-70 -13l48 -60q10 -13 7.5 -29t-15.5 -26t-30.5 -7.5t-25.5 16.5l-39 67l-40 -67q-9 -14 -26 -17t-30 6t-16.5 26t6.5 30l51 59l-72 15
q-16 4 -24.5 18t-4.5 30q5 16 20 25.5t30 2.5z" />
    <glyph glyph-name="plus" unicode="+" horiz-adv-x="483" 
d="M390 231h-101v-99q0 -20 -13.5 -34.5t-32.5 -14.5q-20 0 -35 14t-15 33v101h-98q-20 0 -34.5 13.5t-14.5 33.5t14 34.5t33 14.5h100v99q0 20 14 34.5t33 14.5q20 0 34.5 -14t14.5 -33v-101h99q20 0 34.5 -13.5t14.5 -33.5t-13.5 -34.5t-33.5 -14.5z" />
    <glyph glyph-name="comma" unicode="," horiz-adv-x="264" 
d="M123 5q-35 -15 -59 9q-19 19 -19 45q0 27 21.5 45.5t48.5 18.5q46 0 69 -45q31 -55 4 -119q-12 -30 -40 -56.5t-61 -43.5q-30 -16 -46 10q-14 25 17 45q25 15 44.5 40t20.5 51z" />
    <glyph glyph-name="hyphen" unicode="-" horiz-adv-x="460" 
d="M412 281q0 -20 -13.5 -35t-32.5 -15h-269q-20 0 -34.5 14t-14.5 33q0 21 13.5 35t33.5 14h268q20 0 34.5 -13.5t14.5 -32.5z" />
    <glyph glyph-name="period" unicode="." horiz-adv-x="275" 
d="M137 147q31 0 52.5 -21.5t21.5 -52.5q0 -30 -21.5 -51.5t-52.5 -21.5q-30 0 -51.5 21.5t-21.5 51.5q0 31 21.5 52.5t51.5 21.5z" />
    <glyph glyph-name="slash" unicode="/" horiz-adv-x="452" 
d="M457 756l-370 -814q-13 -31 -44 -29q-25 1 -36.5 21.5t-2.5 42.5l371 814q13 30 44 30q26 0 37 -22t1 -43z" />
    <glyph glyph-name="zero" unicode="0" horiz-adv-x="659" 
d="M149 351q0 -55 18.5 -110.5t61.5 -98t100 -42.5q58 0 101 42t61.5 97.5t18.5 111.5t-19 111t-62 96.5t-100 41.5q-56 0 -99 -41.5t-62 -97t-19 -110.5zM329 0q-52 0 -98.5 21t-79.5 56t-57 80t-35.5 94.5t-11.5 98.5q0 84 33 163t99 133t150 54t150.5 -54t99.5 -133
t33 -163t-32 -162.5t-98.5 -133t-152.5 -54.5z" />
    <glyph glyph-name="one" unicode="1" horiz-adv-x="303" 
d="M30 600l101 86q14 14 35 14q20 0 35 -14t15 -37v-599q0 -21 -15 -35.5t-36 -14.5t-36 15t-15 35v488l-17 -15q-16 -14 -35 -14q-21 0 -35.5 15t-14.5 36q0 24 18 40z" />
    <glyph glyph-name="two" unicode="2" horiz-adv-x="541" 
d="M499 52q0 -21 -14.5 -36.5t-35.5 -15.5h-372q-22 0 -36.5 15t-14.5 36q0 49 20.5 91.5t57 76t73.5 59l84 56.5t73 54q52 43 52 100q0 54 -39.5 82.5t-94.5 28.5q-84 0 -116 -61q-14 -25 -43 -27q-22 0 -37 15t-15 36q0 12 6 24q30 56 84 85t121 29h4q97 0 164 -60
t67 -157q0 -31 -7 -58.5t-26 -53t-32.5 -42t-46 -40l-46 -33t-52.5 -34.5q-109 -70 -137 -120h309q21 0 35.5 -14.5t14.5 -35.5z" />
    <glyph glyph-name="three" unicode="3" horiz-adv-x="597" 
d="M303 324q-23 0 -38.5 14.5t-15.5 35.5t15 35.5t37 14.5q41 0 78.5 24.5t37.5 62.5t-36 62t-78 24q-85 0 -117 -62q-14 -25 -44 -27q-22 0 -37 15.5t-15 36.5q0 12 6 24q30 57 84.5 86t122.5 29q86 -2 151.5 -55t65.5 -132q0 -46 -21.5 -82.5t-53.5 -48.5
q44 -14 71.5 -60.5t27.5 -108.5q0 -96 -74.5 -154.5t-177.5 -58.5q-98 0 -176.5 59t-78.5 154q0 22 14.5 37.5t36.5 15.5t37.5 -15.5t15.5 -37.5q4 -53 47.5 -82.5t102.5 -29.5q61 0 106.5 27.5t45.5 84.5q0 56 -40.5 84t-99.5 28z" />
    <glyph glyph-name="four" unicode="4" horiz-adv-x="598" 
d="M373 504l-189 -238h189v238zM514 164h-40v-113q0 -21 -14.5 -36t-35.5 -15t-36 15t-15 36v113h-294q-21 0 -35.5 15t-14.5 36q0 18 13 36l342 430q16 19 39 19q20 0 35.5 -14.5t15.5 -36.5v-383h40q21 0 36 -15t15 -36t-15 -36t-36 -15z" />
    <glyph glyph-name="five" unicode="5" horiz-adv-x="568" 
d="M438 599h-217l-23 -160q9 8 34 16.5t46 8.5q102 0 175.5 -61.5t73.5 -169.5q0 -101 -71 -167t-183 -66q-69 1 -129 32.5t-94 88.5q-8 13 -8 26q0 20 15.5 35.5t35.5 15.5q30 0 44 -24q42 -71 136 -71q69 0 111.5 35.5t42.5 93.5q0 65 -42.5 99t-111.5 34q-59 0 -103 -36
q-26 -22 -60 -5q-23 13 -23 46l39 286q2 19 16.5 31.5t33.5 12.5h262q21 0 36 -14.5t15 -36.5q0 -21 -15 -35.5t-36 -14.5z" />
    <glyph glyph-name="six" unicode="6" horiz-adv-x="597" 
d="M312 700q108 0 179 -56q19 -16 19 -39q0 -21 -13 -36t-38 -15q-16 0 -32 11q-51 34 -113 34q-77 0 -121.5 -64.5t-46.5 -157.5q61 91 159 91q100 0 172 -64t72 -174q0 -95 -75 -162.5t-172 -67.5q-69 0 -121 30t-80 79.5t-41.5 105t-13.5 115.5q0 51 7.5 99.5t26.5 98.5
t48 87.5t76.5 61t107.5 23.5zM163 232q0 -56 42 -96t99 -40t99 40t42 96t-42 96t-99 40t-99 -40t-42 -96z" />
    <glyph glyph-name="seven" unicode="7" horiz-adv-x="546" 
d="M496 615l-235 -582q-12 -33 -48 -33q-22 0 -36 15.5t-14 35.5q0 8 3 17l212 524h-290q-21 0 -36.5 14.5t-15.5 35.5t14.5 36t35.5 15h367q20 0 35 -14.5t15 -34.5q0 -12 -7 -29z" />
    <glyph glyph-name="eight" unicode="8" horiz-adv-x="571" 
d="M285 -10q-97 0 -171 59.5t-74 155.5q0 60 29 105.5t79 68.5q-68 60 -68 146q0 83 62 134t144 51t143.5 -51t61.5 -134q0 -85 -67 -146q50 -23 78.5 -68.5t28.5 -105.5q0 -97 -74 -156t-172 -59zM425 203q0 52 -41.5 85t-97.5 33t-97.5 -33t-41.5 -85q0 -51 41.5 -84
t97.5 -33t97.5 33t41.5 84zM393 521q0 40 -33 65.5t-74 25.5q-42 0 -75 -25.5t-33 -65.5q0 -41 33.5 -70t74.5 -29q40 0 73.5 29t33.5 70z" />
    <glyph glyph-name="nine" unicode="9" horiz-adv-x="597" 
d="M285 0q-108 0 -179 56q-23 19 -17.5 46.5t29.5 37.5t52 -5q51 -34 113 -34q77 0 121.5 64.5t46.5 157.5q-61 -91 -159 -91q-100 0 -172 64t-72 174q0 95 75 162.5t172 67.5q69 0 121 -30t80 -79.5t41.5 -105t13.5 -115.5q0 -51 -7.5 -99.5t-26.5 -98.5t-48 -87.5
t-76.5 -61t-107.5 -23.5zM434 468q0 56 -42 96t-99 40t-99 -40t-42 -96t42 -96t99 -40t99 40t42 96z" />
    <glyph glyph-name="colon" unicode=":" horiz-adv-x="285" 
d="M142 147q31 0 52.5 -21.5t21.5 -52.5q0 -30 -21.5 -51.5t-52.5 -21.5q-30 0 -51.5 21.5t-21.5 51.5q0 31 21.5 52.5t51.5 21.5zM142 469q31 0 52.5 -21.5t21.5 -51.5q0 -31 -21.5 -52.5t-52.5 -21.5q-30 0 -51.5 21.5t-21.5 52.5q0 30 21.5 51.5t51.5 21.5z" />
    <glyph glyph-name="semicolon" unicode=";" horiz-adv-x="272" 
d="M126 4q-6 -5 -23 -5q-23 0 -38.5 17.5t-15.5 41.5q0 27 21.5 45.5t48.5 18.5q44 0 69 -45q29 -55 4 -119q-12 -30 -40 -56.5t-61 -43.5q-9 -5 -20 -5q-13 0 -21.5 9t-8.5 21q0 17 20 30q26 16 45 40.5t20 50.5zM122 468q30 0 51.5 -21.5t21.5 -52.5q0 -30 -21.5 -51.5
t-51.5 -21.5t-51.5 21.5t-21.5 51.5q0 31 21.5 52.5t51.5 21.5z" />
    <glyph glyph-name="less" unicode="&#x3c;" horiz-adv-x="436" 
d="M72 302q-30 13 -30 47t30 47l217 118q18 10 38 5t32 -25q10 -17 4 -39t-25 -31l-168 -75l168 -76q19 -8 25 -29t-4 -40q-11 -18 -30.5 -24t-39.5 4z" />
    <glyph glyph-name="equal" unicode="=" horiz-adv-x="470" 
d="M409 355q0 -20 -14 -34.5t-33 -14.5h-252q-20 0 -34.5 13.5t-14.5 32.5q0 21 13.5 35.5t33.5 14.5h252q20 0 34 -14t15 -33zM409 206q0 -20 -14 -34.5t-33 -14.5h-252q-20 0 -34.5 13.5t-14.5 33.5t13.5 34.5t33.5 14.5h252q20 0 34 -13.5t15 -33.5z" />
    <glyph glyph-name="greater" unicode="&#x3e;" horiz-adv-x="436" 
d="M364 302l-217 -118q-14 -7 -25 -7q-21 0 -36 15.5t-15 36.5q0 32 27 44l168 76l-168 75q-27 12 -27 45q0 21 15.5 36.5t35.5 15.5q11 0 25 -7l217 -118q30 -13 30 -47t-30 -47z" />
    <glyph glyph-name="question" unicode="?" horiz-adv-x="413" 
d="M95 575q-17 -12 -35 -9.5t-30 16.5q-13 18 -9.5 38t19.5 33q61 47 144 47q106 0 162 -76q33 -46 33 -101q0 -34 -19 -70.5t-42 -62l-49 -52.5t-33 -38q-16 -26 -16 -50v-19q0 -20 -12 -33.5t-34 -13.5q-20 0 -33 14t-13 35v16q0 60 30 105q12 18 42.5 50t48.5 60.5
t18 59.5q0 38 -22.5 59t-59.5 21q-50 0 -90 -29zM175 146q31 0 52.5 -21.5t21.5 -52.5t-21.5 -53t-52.5 -22t-52.5 22t-21.5 53t21.5 52.5t52.5 21.5z" />
    <glyph glyph-name="at" unicode="@" horiz-adv-x="1057" 
d="M639 222q17 50 16 99t-33.5 86t-87.5 37q-80 0 -131.5 -65.5t-51.5 -147.5q0 -57 33.5 -99t86.5 -42q56 0 101.5 39t66.5 93zM752 -164q-104 -52 -220 -52q-133 0 -248 68t-182 183t-67 247q0 131 67 244.5t181.5 181t246.5 67.5q211 0 351.5 -137t140.5 -347
q0 -171 -78 -251q-52 -55 -131 -55q-109 0 -153 85q-86 -84 -190 -84q-102 0 -162.5 74t-60.5 176q0 66 26 128.5t73 107.5q82 76 191 76q54 0 103.5 -22.5t64.5 -64.5q13 32 51 32q22 0 36.5 -14.5t14.5 -35.5q0 -28 -23 -45q-7 -5 -8 -13q-3 -20 -10 -57t-10.5 -59
t-7 -50.5t-3.5 -49.5q1 -78 68 -78q32 0 54.5 21.5t32 56.5t13 64t3.5 59q0 167 -109.5 272t-276.5 105q-161 0 -275 -114t-114 -275q0 -160 115.5 -275t276.5 -115q92 0 175 43q29 13 53 -2t24 -48q0 -14 -8.5 -25.5t-16.5 -16.5z" />
    <glyph glyph-name="A" unicode="A" horiz-adv-x="707" 
d="M171 50q-19 -50 -68 -50q-28 0 -46 15t-17 40q0 16 9.5 31t24.5 17q11 2 15 12l19 49l192 516q14 37 54 37t54 -37l211 -565q4 -10 15 -12q15 -1 24.5 -16t9.5 -34q0 -24 -17 -38.5t-44 -14.5q-50 0 -70 50l-51 132h-264zM461 270l-87 240l-20 69h-1l-20 -70l-86 -239
h214z" />
    <glyph glyph-name="B" unicode="B" horiz-adv-x="663" 
d="M419 0h-279q-21 0 -37 15t-16 35q0 27 22 42q7 5 7 17v482q0 12 -7 17q-22 15 -22 42q0 20 16 35t37 15h230q88 0 149.5 -56t61.5 -144q0 -39 -15 -77.5t-52 -56.5q50 -15 75 -61t27 -104q0 -93 -55 -147t-142 -54zM419 304h-203v-183q0 -6 -2 -11t-4 -7l-2 -2h211
q45 0 70.5 30t25.5 71t-25.5 71.5t-70.5 30.5zM216 579v-175h157q45 0 76 26t31 70t-31.5 71.5t-77.5 27.5h-163q8 -7 8 -20z" />
    <glyph glyph-name="C" unicode="C" horiz-adv-x="657" 
d="M414 90q75 0 137 41q27 16 53 1.5t26 -43.5q0 -27 -23 -42q-89 -57 -195 -57q-148 0 -254 106.5t-106 254.5t103.5 253.5t257.5 105.5q92 0 170 -43q27 -13 27 -44q0 -21 -14.5 -35.5t-35.5 -14.5q-13 0 -25 6q-62 31 -122 31q-109 0 -185 -77t-76 -182q0 -107 78 -184
t184 -77z" />
    <glyph glyph-name="D" unicode="D" horiz-adv-x="711" 
d="M348 0h-208q-21 0 -37 15t-16 35q0 27 22 42q7 5 7 17v482q0 12 -7 17q-22 15 -22 42q0 20 16 35t37 15h152q173 0 270 -93q97 -92 97 -256q0 -217 -155 -307q-78 -44 -156 -44zM216 579v-459q0 -6 -2 -11t-4 -7l-2 -2h140q56 3 106 32q104 61 104 219q0 122 -66 184
q-68 64 -182 64h-102q8 -7 8 -20z" />
    <glyph glyph-name="E" unicode="E" horiz-adv-x="637" 
d="M216 579v-188h257q31 0 43 -25t-0.5 -50t-42.5 -25h-257v-170q0 -6 -2 -11t-4 -7l-2 -2h339q30 0 42.5 -25.5t0.5 -50.5t-43 -25h-407q-21 0 -37 15t-16 35q0 27 22 42q7 5 7 17v482q0 12 -7 17q-22 15 -22 42q0 20 16 35t37 15h388q21 0 36 -15t15 -36t-15 -35.5
t-36 -14.5h-320q8 -7 8 -20z" />
    <glyph glyph-name="F" unicode="F" horiz-adv-x="600" 
d="M215 579v-187h239q32 0 44.5 -25t-0.5 -50.5t-44 -25.5h-239v-215q0 -34 -21.5 -55t-54.5 -21q-21 0 -35.5 14t-14.5 37q0 27 17 39q9 7 9 17v484q0 12 -7 17q-22 15 -22 42q0 20 16 35t37 15h373q21 0 36 -15t15 -36t-15 -35.5t-36 -14.5h-305q8 -7 8 -20z" />
    <glyph glyph-name="G" unicode="G" horiz-adv-x="806" 
d="M696 131q-51 -67 -126.5 -104t-159.5 -37q-149 0 -253.5 105.5t-104.5 254.5t104 255q105 105 254 105q133 0 224 -78q19 -16 20 -37.5t-12.5 -35t-32 -18.5t-39.5 11q-74 58 -160 58q-106 0 -182 -77t-76 -183t76 -183t182 -77q115 0 196 92v83q0 6 2 10.5t4 6.5l1 1
h-152q-32 0 -45 25.5t0 50.5t45 25h237q21 0 36 -15t15 -35q0 -35 -31 -48q-12 -5 -12 -17v-106q0 -19 -10 -32z" />
    <glyph glyph-name="H" unicode="H" horiz-adv-x="811" 
d="M673 700q22 0 36.5 -14t14.5 -37q0 -28 -17 -39q-9 -5 -9 -17v-486q0 -12 9 -17q17 -11 17 -39q0 -23 -14.5 -37t-36.5 -14q-33 0 -54 21t-21 55v216h-385v-216q0 -34 -21 -55t-54 -21q-22 0 -36.5 14t-14.5 37q0 28 17 39q9 5 9 17v486q0 12 -9 17q-17 11 -17 39
q0 23 14.5 37t36.5 14q33 0 54 -21t21 -55v-231h385v231q0 34 21 55t54 21z" />
    <glyph glyph-name="I" unicode="I" horiz-adv-x="284" 
d="M142 0q-21 0 -35.5 15t-14.5 35v600q0 21 14.5 35.5t35.5 14.5q20 0 35 -14.5t15 -35.5v-600q0 -20 -15 -35t-35 -15z" />
    <glyph glyph-name="J" unicode="J" horiz-adv-x="550" 
d="M424 700q22 0 36.5 -14t14.5 -37q0 -31 -17 -39q-9 -5 -9 -17v-353q0 -109 -59.5 -174.5t-157.5 -65.5q-122 0 -195 98q-13 15 -12.5 36t13.5 34q14 15 36 13.5t35 -18.5q51 -69 125 -69q56 0 85.5 42t29.5 103v385q0 34 21 55t54 21z" />
    <glyph glyph-name="K" unicode="K" horiz-adv-x="699" 
d="M138 700q33 0 54 -21t21 -55v-199l-3 -82l72 82l197 206q7 9 6 21q-2 20 14.5 34t37.5 14q24 0 40 -16.5t16 -43.5q0 -36 -27 -65l-181 -189l215 -274q6 -8 13 -7q21 1 35 -13t14 -38t-19.5 -39t-45.5 -15q-39 3 -65 35l-218 277l-101 -105v-131q0 -34 -21 -55t-54 -21
q-22 0 -36.5 14t-14.5 37q0 28 17 39q9 5 9 17v486q0 12 -9 17q-18 11 -18 39q0 23 15 37t37 14z" />
    <glyph glyph-name="L" unicode="L" horiz-adv-x="595" 
d="M514 0h-375q-21 0 -37 15t-16 35q0 27 22 42q7 5 7 17v484q0 12 -9 17q-17 12 -17 39q0 23 15.5 37t37.5 14q33 0 53 -20.5t20 -54.5v-504q0 -6 -2 -11t-4 -7l-2 -2h307q21 0 36 -14t14 -37q-1 -21 -15.5 -35.5t-34.5 -14.5z" />
    <glyph glyph-name="M" unicode="M" horiz-adv-x="949" 
d="M812 700q21 0 36 -14.5t15 -35.5q0 -28 -22 -42q-7 -4 -7 -14v-486q0 -12 9 -17q19 -12 19 -38q0 -23 -15.5 -38t-37.5 -15q-33 0 -54 21.5t-21 55.5v315l3 55h-1l-28 -55l-189 -293q-16 -26 -45 -26t-44 26l-189 293l-28 55h-1l3 -55v-315q0 -34 -21 -55.5t-54 -21.5
q-21 0 -36 14.5t-15 37.5q0 26 17 39q9 7 9 17v486q0 10 -7 14q-22 14 -22 42q0 21 15 35.5t36 14.5q43 0 69 -42l269 -431l268 431q26 42 69 42z" />
    <glyph glyph-name="N" unicode="N" horiz-adv-x="784" 
d="M646 0q-37 0 -69 39l-313 379l-51 75h-1l3 -75v-341q0 -34 -21 -55.5t-54 -21.5q-22 0 -37 14.5t-15 37.5q0 26 18 39q9 5 9 17v487q0 12 -5 14q-23 12 -23 42q0 22 15 35.5t36 13.5q37 0 69 -39l313 -379l51 -75h1l-3 75v338q0 38 20.5 59t54.5 21q22 0 37 -14t15 -37
q0 -29 -18 -39q-9 -5 -9 -17v-488q0 -12 5 -14q23 -12 23 -42q0 -22 -15 -35.5t-36 -13.5z" />
    <glyph glyph-name="O" unicode="O" horiz-adv-x="824" 
d="M411 609q-106 0 -181.5 -76t-75.5 -182q0 -107 76 -183t183 -76t182.5 76t75.5 183q0 106 -76.5 182t-183.5 76zM413 -10q-156 0 -258.5 108t-102.5 253t107.5 252t253.5 107q145 0 252 -107t107 -252q0 -146 -107 -253.5t-252 -107.5z" />
    <glyph glyph-name="P" unicode="P" horiz-adv-x="635" 
d="M116 108v483q0 12 -7 17q-22 15 -22 42q0 20 16 35t37 15h258q85 0 145 -60.5t60 -145.5q0 -83 -59.5 -144.5t-142.5 -61.5h-185v-211q0 -34 -21 -55.5t-54 -21.5q-22 0 -37.5 15t-15.5 38q0 28 19 38q9 5 9 17zM216 579v-191h182q43 0 74 31.5t31 74.5t-31 74t-74 31
h-190q8 -7 8 -20z" />
    <glyph glyph-name="Q" unicode="Q" horiz-adv-x="823" 
d="M727 111q21 0 36 -14.5t15 -34.5q0 -30 -19 -46t-48 -16q-31 0 -62 26l-31 30q-91 -66 -205 -66q-148 0 -253 106t-105 254q0 149 105 254.5t253 105.5t253 -105.5t105 -254.5q0 -127 -77 -221l15 -14q5 -4 18 -4zM619 197q51 69 51 153q0 107 -75.5 182t-181.5 75
q-107 0 -182 -75t-75 -182t75 -182.5t182 -75.5q65 0 128 35l-86 79q-16 14 -19 32t5 31.5t21 22.5t31 7t33 -16z" />
    <glyph glyph-name="R" unicode="R" horiz-adv-x="694" 
d="M116 108v483q0 12 -7 17q-22 15 -22 42q0 20 16 35t37 15h257q86 0 146 -60t60 -146q0 -64 -35.5 -116.5t-93.5 -76.5l114 -199q3 -6 12.5 -6.5t14.5 -3.5q22 -12 22 -40q0 -23 -17.5 -37.5t-40.5 -14.5q-47 0 -73 44l-140 242h-150v-209q0 -34 -21 -55.5t-54 -21.5
q-22 0 -37.5 15t-15.5 38q0 28 19 38q9 5 9 17zM216 579v-192h181q44 0 75 31.5t31 75.5t-31 74.5t-75 30.5h-189q8 -7 8 -20z" />
    <glyph glyph-name="S" unicode="S" horiz-adv-x="573" 
d="M524 183q0 -41 -16 -74.5t-42 -55t-60 -36.5t-68 -21t-67 -6q-132 0 -203 68q-15 15 -15 38q0 19 13 33t33 14q19 0 36 -12q61 -41 134 -41q65 0 109.5 25t44.5 65q0 64 -112 105q-7 3 -45 16q-43 15 -66 24.5t-57 29t-51.5 40t-31 53t-13.5 72.5q0 82 72 136t168 54
q121 0 189 -63q18 -18 18 -38t-15 -35t-36 -15q-16 0 -29 10q-55 41 -127 41q-58 0 -99 -26t-41 -64q0 -24 12.5 -43.5t39.5 -35.5t47 -25t58 -23q39 -13 61 -22t56.5 -28t53.5 -38.5t34 -51.5t15 -70z" />
    <glyph glyph-name="T" unicode="T" horiz-adv-x="670" 
d="M588 599h-203v-549q0 -21 -14.5 -35.5t-35.5 -14.5t-35.5 14.5t-14.5 35.5v549h-203q-21 0 -35.5 14.5t-14.5 35.5t14.5 36t35.5 15h506q21 0 35.5 -15t14.5 -36t-14.5 -35.5t-35.5 -14.5z" />
    <glyph glyph-name="U" unicode="U" horiz-adv-x="741" 
d="M652 610q-9 -5 -9 -17v-349q0 -99 -79 -171.5t-179 -72.5h-28q-100 0 -179.5 72t-79.5 170v351q0 12 -9 17q-17 9 -17 39q0 23 14.5 37t36.5 14q33 0 54 -21t21 -55v-381q0 -57 50 -100t109 -43h28q58 0 108 43t50 99v382q0 34 21 55t54 21q22 0 36.5 -14t14.5 -37
q0 -30 -17 -39z" />
    <glyph glyph-name="V" unicode="V" horiz-adv-x="702" 
d="M530 650q20 50 69 50q30 0 49 -21.5t8 -51.5q-5 -12 -12.5 -19.5t-13.5 -8.5l-5 -1q-11 -2 -14 -12l-211 -549q-10 -37 -49 -37t-49 37l-211 549q-3 10 -14 12q-20 1 -31 29q-11 31 8.5 52t50.5 21q49 0 68 -50l138 -358l39 -117h2l39 117z" />
    <glyph glyph-name="W" unicode="W" horiz-adv-x="1075" 
d="M969 700q25 0 44 -14.5t20 -36.5q0 -17 -9.5 -32.5t-24.5 -18.5q-11 -2 -14 -12l-203 -552q-14 -34 -48 -34q-36 0 -48 36l-115 342l-32 107h-2l-32 -108l-115 -341q-12 -36 -48 -36q-34 0 -48 34l-204 552q-3 10 -14 12q-14 0 -24 17t-10 33q0 23 19 37.5t45 14.5
q48 -2 67 -51l136 -358l29 -91h1l25 91l124 372q12 37 50 37t50 -37l124 -372l26 -91h1l28 92l135 357q19 49 67 51z" />
    <glyph glyph-name="X" unicode="X" horiz-adv-x="693" 
d="M346 277l-58 -96l-105 -148q-23 -33 -60 -33q-27 0 -47.5 14.5t-20.5 43.5q0 19 14.5 34t32.5 16q12 0 17 8l166 235l-163 231q-5 9 -17 9q-19 0 -33 15.5t-14 35.5q0 27 20.5 42.5t45.5 15.5q37 0 62 -34l103 -146l57 -95h1l57 95l103 146q25 34 62 34q25 0 45.5 -15.5
t20.5 -42.5q0 -20 -14 -35.5t-33 -15.5q-12 0 -17 -9l-163 -231l166 -235q5 -8 17 -8q18 -1 31 -15.5t13 -34.5q0 -29 -19 -43.5t-46 -14.5q-38 0 -60 33l-105 148l-58 96h-1z" />
    <glyph glyph-name="Y" unicode="Y" horiz-adv-x="628" 
d="M527 700q26 1 44 -13t20 -35q1 -18 -8.5 -34.5t-29.5 -18.5q-6 -1 -12 -9l-177 -306v-234q0 -21 -15 -35.5t-35 -14.5t-35 14.5t-15 35.5v234l-177 306q-6 8 -12 9q-20 2 -29.5 18.5t-8.5 34.5q2 21 20 35t44 13q41 -4 68 -51l117 -205l27 -64h1l28 64l117 205
q27 47 68 51z" />
    <glyph glyph-name="Z" unicode="Z" horiz-adv-x="674" 
d="M53 673q1 23 15.5 38t37.5 15q25 0 39 -17q7 -9 17 -9h366q32 0 50 -22q12 -16 12 -35t-12 -35l-353 -476l-35 -35v-1l44 3h289q12 0 17 9q11 17 36 17q23 0 38 -15.5t15 -36.5q0 -34 -21 -53.5t-56 -19.5h-442q-22 0 -37.5 15.5t-15.5 37.5q0 20 12 35l355 479l36 35v1
l-45 -3h-284q-34 0 -56 20t-22 53z" />
    <glyph glyph-name="bracketleft" unicode="[" horiz-adv-x="304" 
d="M221 624h-51v-618h51q19 0 32.5 -13t13.5 -32t-13.5 -31.5t-32.5 -12.5h-95q-20 0 -33 12.5t-13 32.5v708q0 19 13.5 31.5t32.5 12.5h95q19 0 32.5 -12.5t13.5 -31.5t-13.5 -32.5t-32.5 -13.5z" />
    <glyph glyph-name="backslash" unicode="\" horiz-adv-x="428" 
d="M-20 756q-10 21 1 43t37 22q31 0 44 -30l371 -814q9 -22 -2.5 -42.5t-36.5 -21.5q-31 -2 -44 29z" />
    <glyph glyph-name="bracketright" unicode="]" horiz-adv-x="304" 
d="M132 624h-49q-19 0 -32.5 13.5t-13.5 32.5t13.5 31.5t32.5 12.5h95q19 0 32.5 -12.5t13.5 -31.5v-708q0 -20 -13 -32.5t-33 -12.5h-95q-19 0 -32.5 12.5t-13.5 31.5t13.5 32t32.5 13h49v618z" />
    <glyph glyph-name="asciicircum" unicode="^" horiz-adv-x="524" 
d="M401 442l-139 168l-139 -168q-11 -11 -25 -11q-21 0 -31 20t3 37l169 189q9 10 22 10q14 0 23 -10l170 -189q9 -12 7 -25q-2 -21 -23 -29t-37 8z" />
    <glyph glyph-name="underscore" unicode="_" horiz-adv-x="363" 
d="M357 -170h-351q-20 0 -34 13.5t-14 33.5t14 33.5t34 13.5h351q20 0 34 -13.5t14 -33.5t-14 -33.5t-34 -13.5z" />
    <glyph glyph-name="grave" unicode="`" horiz-adv-x="532" 
d="M169 666q-24 11 -24 40q0 23 14.5 39t37.5 16q15 0 26 -10l113 -94q21 -19 7.5 -42t-40.5 -10z" />
    <glyph glyph-name="a" unicode="a" horiz-adv-x="536" 
d="M427 0q-31 0 -50.5 16.5t-20.5 45.5q-49 -67 -133 -67q-80 0 -138 49t-58 128q0 86 58 128t144 42q64 0 124 -29q0 70 -26 93.5t-76 23.5q-30 0 -55.5 -3.5t-35.5 -6.5l-10 -4q-23 -8 -43 4.5t-20 36.5q0 18 10.5 31t25.5 18q66 19 123 19q102 0 154.5 -46t52.5 -132
v-239q0 -14 9 -19q17 -8 17 -38q0 -22 -14.5 -36.5t-37.5 -14.5zM353 232q-43 30 -98 30q-128 0 -128 -91q0 -37 29 -58t68 -21q48 0 87.5 27.5t41.5 72.5v40z" />
    <glyph glyph-name="b" unicode="b" horiz-adv-x="628" 
d="M110 732q33 0 54 -21t21 -55v-224q27 45 72.5 66.5t87.5 21.5q108 0 174.5 -75.5t66.5 -181.5q0 -104 -69.5 -183.5t-171.5 -79.5q-106 0 -160 81v-5q0 -34 -21 -55t-54 -21q-22 0 -37.5 14t-15.5 36q0 13 4.5 23t9.5 13l5 4q9 5 9 17v518q0 12 -9 17q-19 9 -19 39
q0 23 15.5 37t37.5 14zM337 421q-66 0 -108.5 -48.5t-42.5 -114.5q0 -68 44.5 -115t106.5 -47q61 0 104.5 47t43.5 115q0 67 -43.5 115t-104.5 48z" />
    <glyph glyph-name="c" unicode="c" horiz-adv-x="530" 
d="M467 470q21 -15 21 -39q0 -21 -15 -36t-35 -15q-18 0 -31 9q-48 38 -99 38q-69 -1 -118 -50.5t-49 -117.5q0 -67 49 -116.5t117 -49.5q52 0 100 37q13 9 30 9q20 0 35.5 -15t15.5 -36q0 -20 -21 -38q-67 -55 -159 -55q-111 0 -188.5 77t-77.5 187t77.5 188t187.5 78
q93 0 160 -55z" />
    <glyph glyph-name="d" unicode="d" horiz-adv-x="625" 
d="M516 0q-33 0 -54 21t-21 55v2q-57 -83 -158 -83q-102 0 -171.5 82t-69.5 186q0 106 66.5 181.5t174.5 75.5q42 0 86.5 -21t71.5 -65v222q0 34 21 55t54 21q22 0 37 -14t15 -37q0 -13 -4.5 -23t-9.5 -13l-4 -3q-9 -5 -9 -17v-518q0 -12 9 -17q18 -9 18 -39q0 -23 -15 -37
t-37 -14zM291 420q-61 0 -104.5 -47.5t-43.5 -114.5q0 -68 43.5 -115t104.5 -47q62 0 106.5 47t44.5 115q0 65 -42.5 113.5t-108.5 48.5z" />
    <glyph glyph-name="e" unicode="e" horiz-adv-x="574" 
d="M293 425q-54 0 -96 -38.5t-49 -96.5h279q-6 57 -44 96t-90 39zM481 213h-333q11 -52 54 -87.5t95 -35.5q67 0 125 31q16 9 30 9q22 0 36.5 -12.5t14.5 -33.5q0 -32 -28 -46q-79 -43 -179 -43q-108 0 -181 78.5t-73 185.5t71.5 186.5t177.5 79.5q104 0 173.5 -77.5
t69.5 -183.5q0 -21 -15 -36t-38 -15z" />
    <glyph glyph-name="f" unicode="f" horiz-adv-x="343" 
d="M122 0q-22 0 -37 14t-15 37q0 13 4.5 23t9.5 13l4 3q9 5 9 17v313h-25q-34 0 -48 25t0 50t48 25h25v33q0 86 39.5 132.5t120.5 46.5q18 0 35 -3t34 -16t17 -35q0 -20 -13.5 -31.5t-35.5 -12.5q-8 0 -19.5 1.5t-17.5 1.5q-34 0 -47 -20t-13 -57v-40h97q32 0 45.5 -25
t0.5 -50t-46 -25h-97v-344q0 -34 -21 -55t-54 -21z" />
    <glyph glyph-name="g" unicode="g" horiz-adv-x="637" 
d="M528 520q22 0 37 -14t15 -37q0 -13 -4.5 -23t-9.5 -13l-4 -3q-9 -5 -9 -17v-322q0 -69 -21.5 -121t-59.5 -81.5t-84 -44t-100 -14.5q-107 0 -192 52q-24 14 -24 42q0 19 13.5 33t35.5 14q6 0 13 -2.5t16 -7t13 -5.5q62 -26 127 -26q72 0 114 44.5t42 125.5v14
q-54 -83 -167 -83q-103 0 -169 72t-66 179q0 106 65 174.5t171 68.5q122 0 173 -81q0 34 21 55t54 21zM297 131q74 0 115.5 40t41.5 108q0 71 -42 108.5t-118 37.5q-63 0 -106 -44.5t-43 -105.5q0 -63 40 -103.5t112 -40.5z" />
    <glyph glyph-name="h" unicode="h" horiz-adv-x="640" 
d="M109 732q33 0 54 -21t21 -55v-207q20 33 62 52t79 19q112 0 171.5 -60t59.5 -181v-172q0 -12 9 -17q18 -9 18 -39q0 -23 -15 -37t-37 -14q-33 0 -54 21t-21 55v209q0 63 -37 99.5t-100 36.5q-55 0 -95 -39t-40 -92v-214q0 -34 -21 -55t-54 -21q-22 0 -37 14t-15 37
q0 13 4.5 23t8.5 13l5 3q9 5 9 17v518q0 12 -9 17q-18 9 -18 39q0 23 15 37t37 14z" />
    <glyph glyph-name="i" unicode="i" horiz-adv-x="263" 
d="M116 625q-26 0 -44 18.5t-18 44.5t18 44t44 18t44.5 -18t18.5 -44t-18.5 -44.5t-44.5 -18.5zM188 90q18 -9 18 -39q0 -23 -15 -37t-37 -14q-33 0 -54 21t-21 55v337q0 12 -9 17q-18 9 -18 39q0 23 15 37t37 14q33 0 54 -21t21 -55v-337q0 -12 9 -17z" />
    <glyph glyph-name="j" unicode="j" horiz-adv-x="270" 
d="M35 -74q20 0 31 17.5t11 36.5v464q0 34 21 55t54 21q22 0 37 -14t15 -37q0 -13 -4.5 -23t-9.5 -13l-4 -3q-9 -5 -9 -17v-435q0 -66 -37 -106q-36 -41 -99 -42h-12q-23 0 -37.5 14t-14.5 36q0 21 13.5 33.5t34.5 12.5h10zM138 750q28 0 46 -18.5t18 -45.5t-18 -45t-46 -18
q-27 0 -44.5 18t-17.5 45t17.5 45.5t44.5 18.5z" />
    <glyph glyph-name="k" unicode="k" horiz-adv-x="518" 
d="M464 16q-20 -16 -46 -16q-36 0 -62 32l-126 162l-46 -46v-72q0 -34 -21 -55t-54 -21q-22 0 -37 14t-15 37q0 13 4.5 23t8.5 13l5 3q9 5 9 17v518q0 12 -9 17q-18 9 -18 39q0 23 15 37t37 14q33 0 54 -21t21 -55v-294l-3 -82l75 82l84 84q9 9 6 19q-8 20 13 41
q14 14 36 14q25 0 40 -14q24 -23 23 -53.5t-25 -54.5l-132 -133l114 -147q8 -10 19 -10q20 2 37 -18q14 -19 11.5 -40t-18.5 -34z" />
    <glyph glyph-name="l" unicode="l" horiz-adv-x="263" 
d="M188 90q18 -9 18 -39q0 -23 -15 -37t-37 -14q-33 0 -54 21t-21 55v549q0 12 -9 17q-18 9 -18 39q0 23 15 37t37 14q33 0 54 -21t21 -55v-549q0 -12 9 -17z" />
    <glyph glyph-name="m" unicode="m" horiz-adv-x="951" 
d="M876 90q18 -9 18 -39q0 -23 -15 -37t-37 -14q-33 0 -54 21t-21 55v239q0 4 -0.5 11t-7.5 25.5t-18.5 32t-37.5 25t-61 11.5q-52 0 -86 -36.5t-34 -92.5v-239q0 -21 -14.5 -36.5t-35.5 -15.5t-36 15.5t-15 36.5v263q0 38 -30.5 71.5t-90.5 33.5h-4q-51 -2 -80.5 -35
t-31.5 -87v-222q0 -34 -21 -55t-54 -21q-22 0 -37 14t-15 37q0 13 4.5 23t8.5 13l5 3q9 5 9 17v306q0 12 -9 17q-18 9 -18 39q0 23 15 37t37 14q31 0 52 -19t23 -51q20 31 62 50.5t79 19.5q39 0 71 -8t49.5 -20t30 -24t16.5 -20l4 -8q52 80 157 80q99 0 156.5 -58.5
t57.5 -164.5v-190q0 -12 9 -17z" />
    <glyph glyph-name="n" unicode="n" 
d="M455 76v213q0 63 -36.5 99.5t-99.5 36.5q-56 0 -95.5 -40.5t-39.5 -90.5v-218q0 -34 -21 -55t-54 -21q-22 0 -37 14t-15 37q0 13 4.5 23t8.5 13l5 3q9 5 9 17v306q0 12 -9 17q-18 9 -18 39q0 23 15 37t37 14q31 0 51 -18.5t23 -48.5q24 30 65.5 51t77.5 21
q120 0 174.5 -59t54.5 -183v-176q0 -12 9 -17q18 -9 18 -39q0 -23 -15 -37t-37 -14q-33 0 -54 21t-21 55z" />
    <glyph glyph-name="o" unicode="o" horiz-adv-x="614" 
d="M307 425q-68 0 -116.5 -48t-48.5 -117q0 -68 48.5 -116.5t116.5 -48.5t116.5 48.5t48.5 116.5q0 69 -48.5 117t-116.5 48zM307 -5q-109 0 -187 78t-78 187t78 187t187 78t187 -77.5t78 -187.5q0 -109 -78 -187t-187 -78z" />
    <glyph glyph-name="p" unicode="p" horiz-adv-x="625" 
d="M75 430q-18 9 -18 39q0 23 15 37t37 14q33 0 54 -21t21 -55v-1q57 82 158 82q104 0 172.5 -78t68.5 -190q0 -106 -66.5 -181.5t-174.5 -75.5q-42 0 -86.5 21t-71.5 65v-180q0 -34 -21 -55t-54 -21q-22 0 -37 14t-15 37q0 13 4.5 23t8.5 13l5 3q9 5 9 17v476q0 12 -9 17z
M334 100q61 0 104.5 47.5t43.5 114.5q0 74 -42.5 118t-105.5 44q-62 0 -106.5 -47t-44.5 -115q0 -65 42.5 -113.5t108.5 -48.5z" />
    <glyph glyph-name="q" unicode="q" horiz-adv-x="625" 
d="M550 430q-9 -5 -9 -17v-476q0 -12 9 -17q18 -9 18 -39q0 -23 -15 -37t-37 -14q-33 0 -54 21t-21 55v180q-23 -45 -68.5 -65.5t-89.5 -20.5q-108 0 -174.5 75.5t-66.5 181.5q0 112 68.5 190t172.5 78q101 0 158 -83v2q0 34 21 55t54 21q22 0 37 -14t15 -37q0 -13 -4.5 -23
t-9.5 -13zM291 100q66 0 108.5 48.5t42.5 113.5q0 68 -44.5 115t-106.5 47q-63 0 -105.5 -44t-42.5 -118q0 -67 43.5 -114.5t104.5 -47.5z" />
    <glyph glyph-name="r" unicode="r" horiz-adv-x="429" 
d="M109 520q30 0 50 -18.5t24 -48.5q18 29 49 47.5t62 19.5q50 0 85 -17q22 -11 26.5 -35t-9.5 -44t-39 -20l-20 4q-24 12 -54 12q-11 0 -23 -3.5t-31.5 -14t-32 -39t-12.5 -70.5v-217q0 -34 -21 -55t-54 -21q-22 0 -37 14t-15 37q0 13 4.5 23t8.5 13l5 3q9 5 9 17v306
q0 12 -9 17q-18 9 -18 39q0 23 15 37t37 14z" />
    <glyph glyph-name="s" unicode="s" horiz-adv-x="445" 
d="M41 78q0 20 14 35t33 15q14 0 32 -11q33 -23 88 -23q20 0 38.5 3t36.5 16t18 35q0 16 -7 28t-23.5 20.5t-27.5 12.5t-33 11q-173 52 -173 155q0 70 57 110t131 40q77 0 134 -43q20 -15 20 -38q0 -22 -14 -36t-35 -14q-15 0 -27 7q-42 25 -85 25q-30 0 -55 -12t-25 -40
q0 -38 73 -61q39 -13 66 -24.5t59.5 -31.5t49.5 -48.5t17 -63.5q0 -70 -61.5 -110t-137.5 -40q-35 0 -70 7.5t-64 27t-29 48.5z" />
    <glyph glyph-name="t" unicode="t" horiz-adv-x="406" 
d="M127 670q33 0 54 -21t21 -55v-74h104q33 0 46 -25t0 -50t-46 -25h-104v-219q0 -102 63 -102q21 0 50 9q31 9 49.5 -9.5t13 -45.5t-34.5 -39q-32 -14 -80 -14q-161 0 -161 200v220h-26q-34 0 -48 25t0.5 50t47.5 25h26v43q0 12 -9 17q-18 9 -18 39q0 23 15 37t37 14z" />
    <glyph glyph-name="u" unicode="u" 
d="M530 0q-33 0 -52.5 20t-19.5 52q-16 -32 -58.5 -52t-79.5 -20q-124 0 -180 63t-56 189v161q0 12 -9 17q-18 9 -18 39q0 23 15 37t37 14q33 0 54 -21t21 -55v-192q0 -76 33.5 -114t111.5 -38q56 0 91 33.5t35 91.5v219q0 34 21 55t54 21q22 0 37 -14t15 -37
q0 -13 -4.5 -23t-9.5 -13l-4 -3q-9 -5 -9 -17v-306q0 -12 9 -17q18 -9 18 -39q0 -23 -15 -37t-37 -14z" />
    <glyph glyph-name="v" unicode="v" horiz-adv-x="554" 
d="M383 470q20 50 70 50q30 0 49 -21.5t8 -51.5q-5 -12 -12.5 -19.5t-13.5 -8.5l-5 -1q-11 -2 -14 -12l-141 -369q-14 -37 -49 -37t-49 37l-140 369q-3 10 -14 12q-20 1 -31 29q-11 31 8.5 52t50.5 21q49 0 68 -50l68 -179l38 -116h1l39 116z" />
    <glyph glyph-name="w" unicode="w" horiz-adv-x="886" 
d="M783 520q31 0 50.5 -21t8.5 -52q-5 -12 -12.5 -19.5t-13.5 -8.5l-5 -1q-11 -2 -14 -12l-145 -372q-14 -34 -50 -34q-35 0 -48 35l-111 286l-111 -286q-13 -35 -48 -35q-36 0 -50 34l-145 372q-3 10 -14 12q-20 1 -31 29q-11 31 8.5 52t50.5 21q49 0 68 -50l69 -179
l41 -122h1l40 122l73 195q12 34 48 34t48 -34l73 -195l40 -122h1l41 122l69 179q19 50 68 50z" />
    <glyph glyph-name="x" unicode="x" horiz-adv-x="568" 
d="M284 181l-27 -45l-77 -103q-25 -33 -60 -33q-25 0 -45.5 16t-20.5 40q0 21 12.5 37t32.5 15q11 0 17 8l106 144l-104 142q-7 9 -17 9q-19 0 -33 15.5t-14 35.5q0 25 21 41.5t45 16.5q37 0 62 -34l74 -102l28 -45l28 45l74 102q25 34 62 34q24 0 45 -16.5t21 -41.5
q0 -20 -14 -35.5t-33 -15.5q-10 0 -17 -9l-104 -142l106 -144q6 -8 17 -8q20 1 32.5 -15t12.5 -37q0 -24 -20.5 -40t-45.5 -16q-35 0 -60 33l-77 103z" />
    <glyph glyph-name="y" unicode="y" horiz-adv-x="590" 
d="M86 405q-3 10 -14 12q-20 1 -31 29q-11 31 8.5 52t50.5 21q49 0 68 -50l88 -228l36 -121h3l39 121l88 228q20 50 70 50q30 0 49 -21.5t8 -51.5q-5 -12 -12.5 -19.5t-12.5 -8.5l-6 -1q-11 -2 -14 -12l-152 -393q-70 -182 -178 -182q-35 0 -82 18q-14 5 -23 18.5t-9 28.5
q0 26 22 40t46 3q24 -10 42 -10q41 0 71 62l4 9l-11 27z" />
    <glyph glyph-name="z" unicode="z" horiz-adv-x="514" 
d="M390 108q9 18 39 18q23 0 37.5 -15t14.5 -37q0 -33 -21.5 -53.5t-55.5 -20.5h-293q-36 0 -50 30.5t6 57.5l225 300l35 34v1l-44 -2h-164q-34 0 -55 20t-21 53q0 22 14 37.5t37 15.5q13 0 23 -4.5t13 -8.5l3 -5q5 -9 17 -9h247q36 0 52 -30.5t-4 -58.5l-224 -299l-35 -36
v-1l44 4h143q12 0 17 9z" />
    <glyph glyph-name="braceleft" unicode="{" horiz-adv-x="339" 
d="M256 45q20 -2 34 -16.5t14 -34.5v-4q-1 -20 -15.5 -34t-34.5 -14h-4q-84 4 -121 47q-32 36 -32 112q0 27 3.5 54t10 62.5t8.5 48.5q0 21 -31 23q-21 2 -35.5 15.5t-15.5 33.5q1 20 15.5 33.5t35.5 15.5q31 2 31 23q-2 13 -8.5 48.5t-10 62.5t-3.5 54q0 76 32 112
q37 43 121 47h4q20 0 34.5 -14t15.5 -34v-4q0 -20 -14 -34.5t-34 -16.5q-55 -3 -55 -70q0 -29 11.5 -86t11.5 -73q0 -10 -3.5 -21t-19 -25.5t-42.5 -17.5q27 -3 42.5 -17.5t19 -25.5t3.5 -21q0 -16 -11.5 -73t-11.5 -86q0 -67 55 -70z" />
    <glyph glyph-name="bar" unicode="|" horiz-adv-x="296" 
d="M148 -153q-19 0 -32 13.5t-13 32.5v861q0 19 13 32.5t32 13.5t32 -13.5t13 -32.5v-861q0 -19 -13 -32.5t-32 -13.5z" />
    <glyph glyph-name="braceright" unicode="}" horiz-adv-x="339" 
d="M83 45q55 3 55 70q0 29 -11.5 86t-11.5 73q0 10 3.5 21t19 25.5t42.5 17.5q-27 3 -42.5 17.5t-19 25.5t-3.5 21q0 16 11.5 73t11.5 86q0 67 -55 70q-20 2 -34 16.5t-14 34.5v4q1 20 15.5 34t34.5 14h4q84 -4 121 -47q32 -36 32 -112q0 -27 -3.5 -54t-10 -62.5t-8.5 -48.5
q0 -21 31 -23q21 -2 35.5 -15.5t15.5 -33.5q-1 -20 -15.5 -33.5t-35.5 -15.5q-31 -2 -31 -23q2 -13 8.5 -48.5t10 -62.5t3.5 -54q0 -76 -32 -112q-37 -43 -121 -47h-4q-20 0 -34.5 14t-15.5 34v4q0 20 14 34.5t34 16.5z" />
    <glyph glyph-name="asciitilde" unicode="~" horiz-adv-x="557" 
d="M70 309q16 42 51.5 71.5t74.5 29.5q35 0 74 -22q6 -3 31 -20t42.5 -25t31.5 -8q23 0 48 50q11 21 32 21q24 0 32 -20q6 -15 -5 -38q-43 -84 -105 -84q-46 0 -101 40q-54 34 -79 34q-20 0 -38 -17t-24 -39q-5 -15 -20 -20.5t-30 1.5q-12 6 -16 20t1 26z" />
    <glyph glyph-name="nbspace" unicode="&#xa0;" horiz-adv-x="280" 
 />
    <glyph glyph-name="exclamdown" unicode="&#xa1;" horiz-adv-x="298" 
d="M149 331q-31 0 -52.5 22t-21.5 53t21.5 52.5t52.5 21.5t52.5 -21.5t21.5 -52.5t-21.5 -53t-52.5 -22zM109 248q1 21 12.5 32.5t27.5 11.5t28 -11.5t13 -32.5q23 -415 23 -417q0 -25 -19 -40.5t-44 -15.5q-27 0 -45.5 15t-18.5 41z" />
    <glyph glyph-name="cent" unicode="&#xa2;" horiz-adv-x="538" 
d="M475 474q21 -15 21 -40q0 -22 -15 -37t-35 -15t-33 10q-33 25 -73 33v-330q41 8 73 33q13 9 32 9q20 0 35.5 -15t15.5 -36t-21 -40q-56 -46 -135 -54v-62q0 -14 -9 -23t-23 -9t-23.5 9t-9.5 23v63q-99 14 -166 89.5t-67 176.5q0 102 67 178t166 90v57q0 14 9.5 23t23.5 9
t23 -9t9 -23v-55q77 -8 135 -55zM145 259q0 -58 37 -103.5t93 -58.5v325q-57 -13 -93.5 -58.5t-36.5 -104.5z" />
    <glyph glyph-name="sterling" unicode="&#xa3;" horiz-adv-x="567" 
d="M99 300h-20q-13 0 -22 9.5t-9 22.5t9 22.5t22 9.5h20v111q0 63 31.5 117.5t86.5 83.5q95 52 192 -1q54 -30 84.5 -84t30.5 -116q0 -21 -15 -35.5t-35 -14.5q-21 0 -35.5 14.5t-14.5 35.5q0 35 -17.5 66.5t-47.5 46.5q-46 25 -94 1q-30 -16 -47.5 -47.5t-17.5 -66.5v-111
h210q13 0 22 -9.5t9 -22.5t-9 -22.5t-22 -9.5h-210v-171q0 -25 -6 -29h282q21 0 35.5 -15t14.5 -35q0 -21 -14.5 -36t-35.5 -15h-368q-21 0 -36 15t-15 35q0 33 31 47q11 3 11 17v187z" />
    <glyph glyph-name="yen" unicode="&#xa5;" horiz-adv-x="617" 
d="M526 586l-163 -277h95q13 0 22.5 -9.5t9.5 -23.5q0 -13 -9.5 -22.5t-22.5 -9.5h-99v-56h99q14 0 23 -9t9 -23q0 -13 -9.5 -22.5t-22.5 -9.5h-99v-78q0 -20 -15.5 -34.5t-35.5 -14.5t-35 14.5t-15 34.5v78h-98q-14 0 -23.5 9.5t-9.5 22.5q0 14 9.5 23t23.5 9h98v56h-98
q-14 0 -23.5 9.5t-9.5 22.5q0 14 9.5 23.5t23.5 9.5h94l-162 277q-4 9 -14 9q-19 3 -33 20q-12 17 -9 38t20 34q18 12 37 13q21 2 40.5 -9t30.5 -30l144 -248l145 248q12 19 31.5 30t41.5 9q44 -4 54 -39q8 -23 -6 -45q-12 -18 -34 -21q-8 0 -14 -9z" />
    <glyph glyph-name="section" unicode="&#xa7;" horiz-adv-x="605" 
d="M288 180q17 0 41.5 3.5t53.5 10.5t49 22.5t20 36.5q0 36 -54.5 55t-97.5 19q-18 0 -40.5 -3.5t-48.5 -11.5t-43 -23.5t-17 -35.5q0 -32 49 -52.5t88 -20.5zM463 120q44 -23 67.5 -58t23.5 -75q0 -46 -27.5 -83t-69.5 -57t-85.5 -30.5t-83.5 -10.5q-98 0 -174 41
q-23 11 -26.5 35.5t10.5 44t38 19.5q17 0 28 -8q52 -28 124 -28q18 0 43.5 4t53.5 12.5t47.5 24.5t19.5 36q-1 24 -32 38q-41 22 -139 44t-153 54q-38 21 -59.5 56t-21.5 77q0 79 88 133q-37 19 -60.5 51t-26.5 71v9q2 60 43.5 102.5t95.5 60t113 17.5q91 0 165 -40
q20 -12 25 -34.5t-7 -40.5q-12 -17 -33.5 -21.5t-36.5 5.5q-45 27 -113 27q-18 0 -41 -3.5t-48 -11.5t-42 -24t-17 -37q0 -22 27 -37q42 -23 130.5 -43t98.5 -23q150 -44 150 -164q0 -79 -95 -133z" />
    <glyph glyph-name="dieresis" unicode="&#xa8;" horiz-adv-x="590" 
d="M249 665q0 -27 -19.5 -46t-47.5 -19t-47.5 19t-19.5 46q0 26 19.5 45t47.5 19t47.5 -19t19.5 -45zM475 665q0 -27 -19.5 -46t-47.5 -19t-47.5 19t-19.5 46q0 26 19.5 45t47.5 19t47.5 -19t19.5 -45z" />
    <glyph glyph-name="copyright" unicode="&#xa9;" horiz-adv-x="772" 
d="M386 702q145 0 248 -103t103 -248t-103 -248.5t-248 -103.5t-248 103t-103 249q0 145 103 248t248 103zM386 33q131 0 224 93.5t93 224.5t-93.5 224t-223.5 93t-223.5 -93t-93.5 -224q0 -132 93 -225t224 -93zM458 248q9 8 23 5t21 -14q6 -10 4 -23.5t-14 -20.5
q-44 -29 -98 -29q-73 0 -129 54.5t-56 130.5q0 77 55.5 130.5t129.5 53.5q45 0 86 -22q17 -8 17 -27q0 -13 -9 -22.5t-22 -9.5q-8 0 -15 4q-25 14 -57 14q-50 0 -86 -35t-36 -87q0 -48 35.5 -84.5t85.5 -36.5q33 0 65 19z" />
    <glyph glyph-name="ordfeminine" unicode="&#xaa;" horiz-adv-x="410" 
d="M280 480v56q-43 9 -68 9q-42 0 -69 -19t-27 -60q0 -28 22 -42.5t53 -14.5q34 0 61.5 20t27.5 51zM326 351q-27 0 -39 24q-43 -26 -96 -26q-59 0 -98.5 29.5t-39.5 87.5q0 67 45 104t116 37q29 0 66 -7q0 58 -65 58q-34 0 -82 -16q-15 -5 -26.5 5t-11.5 23q0 24 25 35
q42 15 95 15q54 -1 89.5 -32.5t35.5 -101.5v-178q16 -12 16 -26q0 -13 -8.5 -22t-21.5 -9zM324 244h-250q-15 0 -24.5 9.5t-9.5 23.5t9.5 23.5t24.5 9.5h250q14 0 23 -9.5t9 -23.5t-9 -23.5t-23 -9.5z" />
    <glyph glyph-name="guillemotleft" unicode="&#xab;" horiz-adv-x="615" 
d="M155 260l153 -175q19 -21 7 -48t-40 -27q-21 0 -36 15l-190 205q-12 12 -12 30q0 16 12 31l190 204q15 15 34 15q27 -1 40 -24.5t-5 -50.5zM553 435l-153 -175l153 -175q18 -19 7.5 -47t-39.5 -28q-22 0 -37 15l-190 205q-11 11 -11 30t11 31l190 204q14 15 35 15
q18 0 32 -12.5t14 -31.5q0 -16 -12 -31z" />
    <glyph glyph-name="registered" unicode="&#xae;" horiz-adv-x="479" 
d="M330 398q9 -3 11 -14v-4q0 -9 -8 -15.5t-17 -6.5h-4q-15 3 -22 18l-44 78q-1 0 -3 -0.5t-4 -0.5h-36v-63q0 -15 -10 -25q-8 -8 -20 -8q-9 0 -15 6.5t-6 15.5q0 7 4 12q4 4 4 11v155q0 6 -4 10q-4 5 -4 13q0 9 6 15.5t15 6.5h65q31 0 52.5 -22t21.5 -52q0 -34 -26 -57
l36 -65q3 -5 8 -8zM238 496q13 0 22 9.5t9 22.5t-9 22t-22 9h-35v-63h35zM240 703q92 0 157.5 -65.5t65.5 -158.5q0 -91 -65.5 -157t-157.5 -66q-93 0 -158.5 65.5t-65.5 157.5q0 93 65.5 158.5t158.5 65.5zM390 351q47 55 47 128q0 82 -58 140t-139 58q-82 0 -140 -58
t-58 -140t58 -139.5t140 -57.5q54 0 100 27q29 18 50 42z" />
    <glyph glyph-name="macron" unicode="&#xaf;" horiz-adv-x="452" 
d="M76 631q0 15 11.5 26.5t27.5 11.5h222q16 0 27.5 -11.5t11.5 -26.5q0 -16 -11.5 -27t-27.5 -11h-222q-17 0 -28 11t-11 27z" />
    <glyph glyph-name="degree" unicode="&#xb0;" horiz-adv-x="325" 
d="M163 637q-16 0 -26.5 -10.5t-10.5 -25.5t10.5 -26t26.5 -11q15 0 26.5 11t11.5 26t-11.5 25.5t-26.5 10.5zM163 494q-44 0 -75.5 31.5t-31.5 75.5t31.5 75.5t75.5 31.5t75 -31.5t31 -75.5t-31 -75.5t-75 -31.5z" />
    <glyph glyph-name="plusminus" unicode="&#xb1;" horiz-adv-x="508" 
d="M404 43h-300q-20 0 -34 13.5t-14 33.5t14 33.5t34 13.5h300q20 0 34 -13.5t14 -33.5t-14 -33.5t-34 -13.5zM403 332h-101v-99q0 -20 -13.5 -34.5t-32.5 -14.5q-20 0 -35 14t-15 33v101h-98q-20 0 -34.5 13.5t-14.5 33.5t14 34.5t33 14.5h100v99q0 20 14 34.5t33 14.5
q20 0 34.5 -14t14.5 -33v-101h99q20 0 34.5 -13.5t14.5 -33.5t-13.5 -34.5t-33.5 -14.5z" />
    <glyph glyph-name="twosuperior" unicode="&#xb2;" horiz-adv-x="412" 
d="M133 333h174q16 0 27.5 -11.5t11.5 -26.5q0 -17 -11 -28.5t-28 -11.5h-227q-17 0 -29 11.5t-12 28.5q0 28 10 52.5t32 45.5t38 33t45 31q2 1 22.5 14.5t27.5 19.5l21 18.5t19.5 25t5.5 25.5q0 30 -23 45t-52 15q-46 0 -63 -33q-11 -21 -33 -21q-23 0 -34.5 20t-1.5 39
q36 75 132 75q61 0 104.5 -33t49.5 -93v-14q0 -33 -15 -60t-39.5 -47t-50.5 -37t-55 -39t-46 -44z" />
    <glyph glyph-name="threesuperior" unicode="&#xb3;" horiz-adv-x="377" 
d="M187 451q-18 0 -30.5 12t-12.5 28q0 18 11.5 30t29.5 12q20 0 38.5 11t18.5 31t-19.5 32t-42.5 12q-45 0 -62 -33q-13 -21 -36 -21q-21 0 -34 19t-3 41q17 37 54 56t84 19q53 -2 95 -33q47 -39 47 -91q0 -19 -10.5 -42t-25.5 -36q24 -15 40.5 -45.5t16.5 -60.5
q0 -61 -51 -100t-114 -39q-64 0 -114.5 38.5t-50.5 100.5q0 18 11 30.5t29 12.5t30 -12.5t12 -29.5q2 -27 27.5 -43.5t54.5 -16.5q31 0 56 15.5t27 43.5q2 31 -20 45t-56 14z" />
    <glyph glyph-name="acute" unicode="&#xb4;" horiz-adv-x="532" 
d="M363 666l-134 -61q-27 -13 -40.5 10t7.5 42l113 94q11 10 26 10q23 0 37.5 -16t14.5 -39q0 -29 -24 -40z" />
    <glyph glyph-name="mu" unicode="&#xb5;" horiz-adv-x="624" 
d="M525 0q-30 0 -50 17t-24 45q-52 -59 -130 -61.5t-142 49.5v-144q0 -34 -21 -55t-54 -21q-22 0 -37 14t-15 37q0 13 4.5 23t9.5 13l4 3q9 5 9 17v475q0 12 -9 17q-18 9 -18 39q0 23 15 37t37 14q33 0 54 -21t21 -55v-201q0 -73 35 -107.5t110 -34.5q56 0 91 36t35 94v213
q0 34 21 55t54 21q22 0 37 -14t15 -37q0 -13 -4.5 -23t-8.5 -13l-5 -3q-9 -5 -9 -17v-305q0 -12 9 -17q18 -9 18 -39q0 -23 -15 -37t-37 -14z" />
    <glyph glyph-name="paragraph" unicode="&#xb6;" horiz-adv-x="555" 
d="M336 86v202h-101q-82 0 -141 61.5t-59 144.5q0 85 60.5 145.5t145.5 60.5h187q21 0 36 -15t15 -36q0 -33 -32 -46q-10 -5 -10 -17v-484q0 -8 6 -14q16 -14 16 -38q0 -21 -14 -35.5t-35 -14.5q-27 0 -50 21q-24 26 -24 65z" />
    <glyph glyph-name="periodcentered" unicode="&#xb7;" horiz-adv-x="275" 
d="M137 371q31 0 52.5 -21.5t21.5 -52.5q0 -30 -21.5 -51.5t-52.5 -21.5q-30 0 -51.5 21.5t-21.5 51.5q0 31 21.5 52.5t51.5 21.5z" />
    <glyph glyph-name="cedilla" unicode="&#xb8;" horiz-adv-x="552" 
d="M284 18l-9 -44q43 0 66.5 -20.5t23.5 -57.5q0 -44 -34.5 -67.5t-81.5 -23.5q-54 0 -88 34q-9 9 -9 22q0 12 9 22t22 10q11 0 21 -8q17 -15 41 -15q46 0 46 32q0 26 -46 31q-13 2 -21.5 10.5t-8.5 20.5q0 5 13 53q5 23 28 23q11 0 20.5 -5.5t7.5 -16.5z" />
    <glyph glyph-name="onesuperior" unicode="&#xb9;" horiz-adv-x="332" 
d="M74 627l75 64q12 9 26 9q15 0 25.5 -9.5t10.5 -25.5v-338h45q15 0 25.5 -10.5t10.5 -24.5q0 -15 -10.5 -25.5t-25.5 -10.5h-159q-14 0 -25 10.5t-11 25.5q0 14 11 24.5t25 10.5h40v258l-15 -13q-16 -16 -38.5 -7t-22.5 33q0 17 13 29z" />
    <glyph glyph-name="ordmasculine" unicode="&#xba;" horiz-adv-x="437" 
d="M219 655q-49 0 -85 -34.5t-36 -80.5q0 -51 36 -86.5t85 -35.5t84 35.5t35 86.5q0 46 -35.5 80.5t-83.5 34.5zM219 347q-79 0 -134 56.5t-55 136.5q0 78 55 132.5t134 54.5t134 -54.5t55 -132.5q0 -80 -55 -136.5t-134 -56.5zM367 244h-305q-15 0 -24 9.5t-9 23.5t9 23.5
t24 9.5h305q15 0 23.5 -9t8.5 -24t-8.5 -24t-23.5 -9z" />
    <glyph glyph-name="guillemotright" unicode="&#xbb;" horiz-adv-x="614" 
d="M306 85l153 175l-153 175q-11 12 -11 30q0 20 13.5 32.5t32.5 12.5q21 0 34 -15l190 -204q12 -15 12 -31q0 -18 -12 -30l-190 -205q-13 -14 -32.5 -15.5t-32.5 10.5q-14 14 -15 32.5t11 32.5zM214 260l-153 175q-12 15 -12 31q0 19 14 31.5t32 12.5q22 0 35 -15l190 -204
q11 -12 11 -31t-11 -30l-190 -205q-13 -15 -31.5 -16t-32.5 11q-15 12 -16 32.5t11 32.5z" />
    <glyph glyph-name="onequarter" unicode="&#xbc;" horiz-adv-x="930" 
d="M814 102h-18v-62q0 -16 -11 -28t-26 -12q-17 0 -28.5 12t-11.5 28v62h-171q-16 0 -27.5 11t-11.5 28q0 13 11 26l208 262q14 16 31 16q16 0 26.5 -11t10.5 -28v-226h18q16 0 27.5 -12t11.5 -28t-11.5 -27t-27.5 -11zM306 -1q-17 8 -23.5 26t1.5 35l257 610q8 19 25 26.5
t35 -0.5q17 -7 24 -25t-1 -36l-258 -610q-8 -18 -25.5 -25.5t-34.5 -0.5zM719 302l-99 -122h99v122zM90 627l75 64q12 9 26 9q15 0 25.5 -9.5t10.5 -25.5v-338h45q15 0 25.5 -10.5t10.5 -24.5q0 -15 -10.5 -25.5t-25.5 -10.5h-159q-14 0 -25 10.5t-11 25.5q0 14 11 24.5
t25 10.5h40v258l-15 -13q-16 -16 -38.5 -7t-22.5 33q0 17 13 29z" />
    <glyph glyph-name="onehalf" unicode="&#xbd;" horiz-adv-x="934" 
d="M644 78h174q16 0 27.5 -11.5t11.5 -26.5q0 -17 -11 -28.5t-28 -11.5h-227q-17 0 -29 11.5t-12 28.5q0 28 10 52.5t32 45.5t38 33t45 31q1 1 21 13.5t27.5 19l21.5 19t20 25t6 26.5q0 28 -22.5 44t-52.5 16q-46 0 -63 -33q-11 -21 -33 -21t-34 19.5t-2 39.5q36 75 132 75
q61 0 104.5 -33t49.5 -93v-14q0 -33 -15 -60t-39.5 -47t-50.5 -37t-55 -39t-46 -44zM296 -1q-17 8 -23.5 26t1.5 35l257 610q8 19 25 26.5t35 -0.5q17 -7 24 -25t-1 -36l-258 -610q-8 -18 -25.5 -25.5t-34.5 -0.5zM90 627l75 64q12 9 26 9q15 0 25.5 -9.5t10.5 -25.5v-338
h45q15 0 25.5 -10.5t10.5 -24.5q0 -15 -10.5 -25.5t-25.5 -10.5h-159q-14 0 -25 10.5t-11 25.5q0 14 11 24.5t25 10.5h40v258l-15 -13q-16 -16 -38.5 -7t-22.5 33q0 17 13 29z" />
    <glyph glyph-name="threequarters" unicode="&#xbe;" horiz-adv-x="979" 
d="M863 102h-18v-62q0 -16 -11 -28t-26 -12q-16 0 -28 12t-12 28v62h-171q-17 0 -28 11t-11 28q0 13 11 26l208 262q14 16 31 16q14 0 25.5 -11.5t11.5 -27.5v-226h18q16 0 27.5 -12t11.5 -28t-11.5 -27t-27.5 -11zM371 -1q-17 8 -23.5 26t1.5 35l257 610q8 19 25 26.5
t35 -0.5q17 -7 24 -25t-1 -36l-258 -610q-8 -18 -25.5 -25.5t-34.5 -0.5zM768 302l-99 -122h99v122zM248 451q-18 0 -30.5 12t-12.5 28q0 18 11.5 30t29.5 12q20 0 38.5 11t18.5 31t-19.5 32t-42.5 12q-45 0 -62 -33q-13 -21 -36 -21q-21 0 -34 19t-3 41q17 37 54 56t84 19
q50 0 95 -33q50 -42 47 -91q-3 -48 -36 -78q24 -15 40.5 -45.5t16.5 -60.5q0 -61 -51 -100t-114 -39q-64 0 -114.5 38.5t-50.5 100.5q0 18 11 30.5t29 12.5t30 -12.5t12 -29.5q2 -27 27.5 -43.5t54.5 -16.5q30 0 56.5 17t26.5 42q0 59 -76 59z" />
    <glyph glyph-name="questiondown" unicode="&#xbf;" horiz-adv-x="413" 
d="M318 -101q16 12 34.5 9.5t30.5 -16.5q14 -18 10 -38t-20 -33q-61 -47 -144 -47q-80 0 -137.5 50.5t-57.5 126.5q0 77 60 140l36 36q19 18 30 30t20.5 31t9.5 39v17q0 18 12.5 31t30.5 15h6q20 0 34 -13t14 -34v-16q0 -59 -32 -107q-12 -18 -42.5 -50t-48.5 -60.5
t-18 -59.5q0 -38 22.5 -59t59.5 -21q50 0 90 29zM238 328q-31 0 -52.5 21.5t-21.5 52.5t21.5 53t52.5 22t52.5 -22t21.5 -53t-21.5 -52.5t-52.5 -21.5z" />
    <glyph glyph-name="Agrave" unicode="&#xc0;" horiz-adv-x="707" 
d="M171 50q-19 -50 -68 -50q-28 0 -46 15t-17 40q0 16 9.5 31t24.5 17q11 2 15 12l19 49l192 516q14 37 54 37t54 -37l211 -565q4 -10 15 -12q15 -1 24.5 -16t9.5 -34q0 -24 -17 -38.5t-44 -14.5q-50 0 -70 50l-51 132h-264zM461 270l-87 240l-20 69h-1l-20 -70l-86 -239
h214zM275 850q-24 11 -24 40q0 23 14.5 39t37.5 16q15 0 26 -10l113 -94q21 -19 7.5 -42t-40.5 -10z" />
    <glyph glyph-name="Aacute" unicode="&#xc1;" horiz-adv-x="707" 
d="M171 50q-19 -50 -68 -50q-28 0 -46 15t-17 40q0 16 9.5 31t24.5 17q11 2 15 12l19 49l192 516q14 37 54 37t54 -37l211 -565q4 -10 15 -12q15 -1 24.5 -16t9.5 -34q0 -24 -17 -38.5t-44 -14.5q-50 0 -70 50l-51 132h-264zM461 270l-87 240l-20 69h-1l-20 -70l-86 -239
h214zM431 850l-134 -61q-27 -13 -40.5 10t7.5 42l113 94q11 10 26 10q23 0 37.5 -16t14.5 -39q0 -29 -24 -40z" />
    <glyph glyph-name="Acircumflex" unicode="&#xc2;" horiz-adv-x="707" 
d="M171 50q-19 -50 -68 -50q-28 0 -46 15t-17 40q0 16 9.5 31t24.5 17q11 2 15 12l19 49l192 516q14 37 54 37t54 -37l211 -565q4 -10 15 -12q15 -1 24.5 -16t9.5 -34q0 -24 -17 -38.5t-44 -14.5q-50 0 -70 50l-51 132h-264zM461 270l-87 240l-20 69h-1l-20 -70l-86 -239
h214zM353 938q20 0 35 -15l83 -84q22 -20 4 -44t-43 -8l-79 49l-79 -49q-25 -16 -43 8t4 44l83 84q15 15 35 15z" />
    <glyph glyph-name="Atilde" unicode="&#xc3;" horiz-adv-x="707" 
d="M171 50q-19 -50 -68 -50q-28 0 -46 15t-17 40q0 16 9.5 31t24.5 17q11 2 15 12l19 49l192 516q14 37 54 37t54 -37l211 -565q4 -10 15 -12q15 -1 24.5 -16t9.5 -34q0 -24 -17 -38.5t-44 -14.5q-50 0 -70 50l-51 132h-264zM461 270l-87 240l-20 69h-1l-20 -70l-86 -239
h214zM191 851q36 80 105 83q30 -1 69 -26t52 -25t23 24q10 23 37 23q25 0 36.5 -21.5t2.5 -42.5q-39 -73 -94 -73q-27 0 -69 26.5t-56 26.5q-13 0 -26 -27t-40 -27q-22 0 -35.5 20t-4.5 39z" />
    <glyph glyph-name="Adieresis" unicode="&#xc4;" horiz-adv-x="707" 
d="M171 50q-19 -50 -68 -50q-28 0 -46 15t-17 40q0 16 9.5 31t24.5 17q11 2 15 12l19 49l192 516q14 37 54 37t54 -37l211 -565q4 -10 15 -12q15 -1 24.5 -16t9.5 -34q0 -24 -17 -38.5t-44 -14.5q-50 0 -70 50l-51 132h-264zM461 270l-87 240l-20 69h-1l-20 -70l-86 -239
h214zM307 849q0 -27 -19.5 -46t-47.5 -19t-47.5 19t-19.5 46q0 26 19.5 45t47.5 19t47.5 -19t19.5 -45zM533 849q0 -27 -19.5 -46t-47.5 -19t-47.5 19t-19.5 46q0 26 19.5 45t47.5 19t47.5 -19t19.5 -45z" />
    <glyph glyph-name="Aring" unicode="&#xc5;" horiz-adv-x="707" 
d="M399 686q6 -10 9 -16l211 -555q4 -10 15 -12q15 -1 24.5 -16t9.5 -34q0 -23 -18 -38t-43 -15q-50 0 -70 50l-51 132h-264l-51 -132q-19 -50 -68 -50q-27 0 -45.5 15t-17.5 40q0 16 9.5 31t24.5 17q11 2 15 12l19 49l192 506q4 10 9 16v1q-45 25 -45 74q0 37 28 61.5
t61 24.5q36 0 62.5 -24t26.5 -62q0 -51 -43 -75zM461 270l-87 230l-20 69h-1l-20 -70l-86 -229h214zM353 713q20 0 35.5 13t15.5 35t-15 35t-36 13q-19 0 -34.5 -13.5t-15.5 -34.5t15 -34.5t35 -13.5z" />
    <glyph glyph-name="AE" unicode="&#xc6;" horiz-adv-x="931" 
d="M509 121q0 -6 -2 -11t-4 -7l-2 -2h340q30 0 42.5 -25.5t0.5 -50.5t-43 -25h-407q-21 0 -37 15t-16 35q0 27 22 42q7 5 7 17v72h-172l-56 -108q-11 -21 -20 -34.5t-28 -26t-42 -12.5q-22 0 -37.5 14t-15.5 36q0 17 11.5 30.5t27.5 17.5q7 2 16 19l298 556v-1q15 28 44 28
h403q21 0 36 -14.5t15 -34.5q0 -21 -15 -35.5t-36 -14.5h-330v-210h276q21 0 34.5 -14t13.5 -35t-13.5 -35.5t-34.5 -14.5h-276v-171zM410 509l-132 -240h132v240z" />
    <glyph glyph-name="Ccedilla" unicode="&#xc7;" horiz-adv-x="657" 
d="M414 92q75 0 137 41q12 8 27 8q21 0 36.5 -15t15.5 -37q0 -27 -23 -42q-81 -52 -182 -57l-3 -16q43 0 66.5 -20.5t23.5 -57.5q0 -44 -34.5 -67.5t-81.5 -23.5q-54 0 -88 34q-9 9 -9 22q0 12 9.5 22t21.5 10q11 0 21 -8q17 -15 41 -15q46 0 46 32q0 26 -46 31
q-13 2 -21.5 10.5t-8.5 20.5q0 5 6 29q-134 16 -225 119t-91 239q0 148 103.5 253.5t257.5 105.5q92 0 170 -43q27 -13 27 -44q0 -21 -15 -36t-36 -15q-12 0 -24 6q-60 30 -122 30q-110 0 -185 -76t-75 -181q0 -107 77.5 -183t183.5 -76z" />
    <glyph glyph-name="Egrave" unicode="&#xc8;" horiz-adv-x="636" 
d="M215 579v-188h257q31 0 43 -25t-0.5 -50t-42.5 -25h-257v-170q0 -6 -2 -11t-4 -7l-2 -2h339q30 0 42.5 -25.5t0.5 -50.5t-43 -25h-407q-21 0 -37 15t-16 35q0 27 22 42q7 5 7 17v482q0 12 -7 17q-22 15 -22 42q0 20 16 35t37 15h388q21 0 36 -15t15 -36t-15 -35.5
t-36 -14.5h-320q8 -7 8 -20zM253 850q-24 11 -24 40q0 23 14.5 39t37.5 16q15 0 26 -10l113 -94q21 -19 7.5 -42t-40.5 -10z" />
    <glyph glyph-name="Eacute" unicode="&#xc9;" horiz-adv-x="636" 
d="M215 579v-188h257q31 0 43 -25t-0.5 -50t-42.5 -25h-257v-170q0 -6 -2 -11t-4 -7l-2 -2h339q30 0 42.5 -25.5t0.5 -50.5t-43 -25h-407q-21 0 -37 15t-16 35q0 27 22 42q7 5 7 17v482q0 12 -7 17q-22 15 -22 42q0 20 16 35t37 15h388q21 0 36 -15t15 -36t-15 -35.5
t-36 -14.5h-320q8 -7 8 -20zM443 850l-134 -61q-27 -13 -40.5 10t7.5 42l113 94q11 10 26 10q23 0 37.5 -16t14.5 -39q0 -29 -24 -40z" />
    <glyph glyph-name="Ecircumflex" unicode="&#xca;" horiz-adv-x="636" 
d="M215 579v-188h257q31 0 43 -25t-0.5 -50t-42.5 -25h-257v-170q0 -6 -2 -11t-4 -7l-2 -2h339q30 0 42.5 -25.5t0.5 -50.5t-43 -25h-407q-21 0 -37 15t-16 35q0 27 22 42q7 5 7 17v482q0 12 -7 17q-22 15 -22 42q0 20 16 35t37 15h388q21 0 36 -15t15 -36t-15 -35.5
t-36 -14.5h-320q8 -7 8 -20zM342 938q20 0 35 -15l83 -84q22 -20 4 -44t-43 -8l-79 49l-79 -49q-25 -16 -43 8t4 44l83 84q15 15 35 15z" />
    <glyph glyph-name="Edieresis" unicode="&#xcb;" horiz-adv-x="636" 
d="M215 579v-188h257q31 0 43 -25t-0.5 -50t-42.5 -25h-257v-170q0 -6 -2 -11t-4 -7l-2 -2h339q30 0 42.5 -25.5t0.5 -50.5t-43 -25h-407q-21 0 -37 15t-16 35q0 27 22 42q7 5 7 17v482q0 12 -7 17q-22 15 -22 42q0 20 16 35t37 15h388q21 0 36 -15t15 -36t-15 -35.5
t-36 -14.5h-320q8 -7 8 -20zM292 849q0 -27 -19.5 -46t-47.5 -19t-47.5 19t-19.5 46q0 26 19.5 45t47.5 19t47.5 -19t19.5 -45zM518 849q0 -27 -19.5 -46t-47.5 -19t-47.5 19t-19.5 46q0 26 19.5 45t47.5 19t47.5 -19t19.5 -45z" />
    <glyph glyph-name="Igrave" unicode="&#xcc;" horiz-adv-x="284" 
d="M142 0q-21 0 -35.5 15t-14.5 35v600q0 21 14.5 35.5t35.5 14.5q20 0 35 -14.5t15 -35.5v-600q0 -20 -15 -35t-35 -15zM64 850q-24 11 -24 40q0 23 14.5 39t37.5 16q15 0 26 -10l113 -94q21 -19 7.5 -42t-40.5 -10z" />
    <glyph glyph-name="Iacute" unicode="&#xcd;" horiz-adv-x="284" 
d="M142 0q-21 0 -35.5 15t-14.5 35v600q0 21 14.5 35.5t35.5 14.5q20 0 35 -14.5t15 -35.5v-600q0 -20 -15 -35t-35 -15zM217 850l-134 -61q-27 -13 -40.5 10t7.5 42l113 94q11 10 26 10q23 0 37.5 -16t14.5 -39q0 -29 -24 -40z" />
    <glyph glyph-name="Icircumflex" unicode="&#xce;" horiz-adv-x="284" 
d="M142 0q-21 0 -35.5 15t-14.5 35v600q0 21 14.5 35.5t35.5 14.5q20 0 35 -14.5t15 -35.5v-600q0 -20 -15 -35t-35 -15zM142 938q20 0 35 -15l83 -84q22 -20 4 -44t-43 -8l-79 49l-79 -49q-25 -16 -43 8t4 44l83 84q15 15 35 15z" />
    <glyph glyph-name="Idieresis" unicode="&#xcf;" horiz-adv-x="284" 
d="M142 0q-21 0 -35.5 15t-14.5 35v600q0 21 14.5 35.5t35.5 14.5q20 0 35 -14.5t15 -35.5v-600q0 -20 -15 -35t-35 -15zM96 849q0 -27 -19.5 -46t-47.5 -19t-47.5 19t-19.5 46q0 26 19.5 45t47.5 19t47.5 -19t19.5 -45zM322 849q0 -27 -19.5 -46t-47.5 -19t-47.5 19
t-19.5 46q0 26 19.5 45t47.5 19t47.5 -19t19.5 -45z" />
    <glyph glyph-name="Eth" unicode="&#xd0;" horiz-adv-x="746" 
d="M380 0h-208q-21 0 -37 15t-16 35q0 27 22 42q7 5 7 17v208h-78q-20 0 -28.5 16t0 32t28.5 16h78v210q0 12 -7 17q-22 15 -22 42q0 20 16 35t37 15h152q173 0 270 -93q97 -92 97 -256q0 -217 -155 -307q-78 -44 -156 -44zM248 579v-198h93q20 0 28 -16t0 -32t-28 -16h-93
v-197q0 -6 -2 -11t-4 -7l-2 -2h140q56 3 106 32q104 61 104 219q0 122 -66 184q-68 64 -182 64h-102q8 -7 8 -20z" />
    <glyph glyph-name="Ntilde" unicode="&#xd1;" horiz-adv-x="782" 
d="M645 0q-37 0 -69 39l-313 379l-51 75h-1l3 -75v-341q0 -34 -21 -55.5t-54 -21.5q-22 0 -37 14.5t-15 37.5q0 26 18 39q9 5 9 17v487q0 12 -5 14q-23 12 -23 42q0 22 15 35.5t36 13.5q37 0 69 -39l313 -379l51 -75h1l-3 75v338q0 38 20.5 59t54.5 21q22 0 37 -14t15 -37
q0 -29 -18 -39q-9 -5 -9 -17v-488q0 -12 5 -14q23 -12 23 -42q0 -22 -15 -35.5t-36 -13.5zM229 851q36 80 105 83q30 -1 69 -26t52 -25t23 24q10 23 37 23q25 0 36.5 -21.5t2.5 -42.5q-39 -73 -94 -73q-27 0 -69 26.5t-56 26.5q-13 0 -26 -27t-40 -27q-22 0 -35.5 20
t-4.5 39z" />
    <glyph glyph-name="Ograve" unicode="&#xd2;" horiz-adv-x="830" 
d="M414 609q107 0 183.5 -76t76.5 -182q0 -107 -75.5 -183t-182.5 -76t-183 76t-76 183q0 106 75.5 182t181.5 76zM416 -10q145 0 252 107.5t107 253.5q0 145 -106.5 252t-252.5 107t-253.5 -107t-107.5 -252t102.5 -253t258.5 -108zM340 850q-24 11 -24 40q0 23 14.5 39
t37.5 16q15 0 26 -10l113 -94q21 -19 7.5 -42t-40.5 -10z" />
    <glyph glyph-name="Oacute" unicode="&#xd3;" horiz-adv-x="830" 
d="M414 609q-106 0 -181.5 -76t-75.5 -182q0 -107 76 -183t183 -76t182.5 76t75.5 183q0 106 -76.5 182t-183.5 76zM416 -10q-156 0 -258.5 108t-102.5 253t107.5 252t253.5 107t252.5 -107t106.5 -252q0 -146 -107 -253.5t-252 -107.5zM507 850l-134 -61q-27 -13 -40.5 10
t7.5 42l113 94q11 10 26 10q23 0 37.5 -16t14.5 -39q0 -29 -24 -40z" />
    <glyph glyph-name="Ocircumflex" unicode="&#xd4;" horiz-adv-x="830" 
d="M414 609q107 0 183.5 -76t76.5 -182q0 -107 -75.5 -183t-182.5 -76t-183 76t-76 183q0 106 75.5 182t181.5 76zM416 -10q145 0 252 107.5t107 253.5q0 145 -106.5 252t-252.5 107t-253.5 -107t-107.5 -252t102.5 -253t258.5 -108zM415 938q20 0 35 -15l83 -84
q22 -20 4 -44t-43 -8l-79 49l-79 -49q-25 -16 -43 8t4 44l83 84q15 15 35 15z" />
    <glyph glyph-name="Otilde" unicode="&#xd5;" horiz-adv-x="830" 
d="M414 609q-106 0 -181.5 -76t-75.5 -182q0 -107 76 -183t183 -76t182.5 76t75.5 183q0 106 -76.5 182t-183.5 76zM416 -10q-156 0 -258.5 108t-102.5 253t107.5 252t253.5 107t252.5 -107t106.5 -252q0 -146 -107 -253.5t-252 -107.5zM253 851q36 80 105 83q30 -1 69 -26
t52 -25t23 24q10 23 37 23q25 0 36.5 -21.5t2.5 -42.5q-39 -73 -94 -73q-27 0 -69 26.5t-56 26.5q-13 0 -26 -27t-40 -27q-22 0 -35.5 20t-4.5 39z" />
    <glyph glyph-name="Odieresis" unicode="&#xd6;" horiz-adv-x="830" 
d="M414 609q-106 0 -181.5 -76t-75.5 -182q0 -107 76 -183t183 -76t182.5 76t75.5 183q0 106 -76.5 182t-183.5 76zM416 -10q-156 0 -258.5 108t-102.5 253t107.5 252t253.5 107t252.5 -107t106.5 -252q0 -146 -107 -253.5t-252 -107.5zM369 849q0 -27 -19.5 -46t-47.5 -19
t-47.5 19t-19.5 46q0 26 19.5 45t47.5 19t47.5 -19t19.5 -45zM595 849q0 -27 -19.5 -46t-47.5 -19t-47.5 19t-19.5 46q0 26 19.5 45t47.5 19t47.5 -19t19.5 -45z" />
    <glyph glyph-name="multiply" unicode="&#xd7;" horiz-adv-x="469" 
d="M306 140l-71 71l-70 -70q-15 -13 -34.5 -13.5t-33.5 12.5q-15 15 -15 34.5t13 33.5l72 71l-70 70q-14 14 -14.5 33.5t12.5 33.5q16 14 35 15t33 -13l72 -71l69 70q14 13 34.5 13.5t33.5 -12.5q14 -14 14.5 -34t-12.5 -34l-72 -71l70 -70q14 -16 14.5 -34.5t-12.5 -33.5
q-16 -14 -34.5 -14.5t-33.5 13.5z" />
    <glyph glyph-name="Oslash" unicode="&#xd8;" horiz-adv-x="830" 
d="M662 662l-22 -32q63 -51 99 -124t36 -155q0 -150 -105.5 -255.5t-255.5 -105.5q-89 0 -172 44l-22 -34q-8 -14 -26 -14q-14 0 -23.5 9.5t-9.5 22.5q0 10 5 18l23 35q-63 50 -98.5 123t-35.5 157q0 149 105.5 254t253.5 105q92 0 174 -44l21 32q10 15 26 15
q12 0 22.5 -9.5t10.5 -22.5q0 -10 -6 -19zM531 582q-54 28 -117 28q-107 0 -183 -76t-76 -183q0 -120 89 -197zM299 118q53 -28 115 -28q108 0 184.5 76.5t76.5 184.5q0 117 -89 196z" />
    <glyph glyph-name="Ugrave" unicode="&#xd9;" horiz-adv-x="747" 
d="M655 610q-9 -5 -9 -17v-349q0 -99 -79 -171.5t-179 -72.5h-28q-100 0 -179.5 72t-79.5 170v351q0 12 -9 17q-17 9 -17 39q0 23 14.5 37t36.5 14q33 0 54 -21t21 -55v-381q0 -57 50 -100t109 -43h28q58 0 108 43t50 99v382q0 34 21 55t54 21q22 0 36.5 -14t14.5 -37
q0 -30 -17 -39zM295 850q-24 11 -24 40q0 23 14.5 39t37.5 16q15 0 26 -10l113 -94q21 -19 7.5 -42t-40.5 -10z" />
    <glyph glyph-name="Uacute" unicode="&#xda;" horiz-adv-x="747" 
d="M655 610q-9 -5 -9 -17v-349q0 -99 -79 -171.5t-179 -72.5h-28q-100 0 -179.5 72t-79.5 170v351q0 12 -9 17q-17 9 -17 39q0 23 14.5 37t36.5 14q33 0 54 -21t21 -55v-381q0 -57 50 -100t109 -43h28q58 0 108 43t50 99v382q0 34 21 55t54 21q22 0 36.5 -14t14.5 -37
q0 -30 -17 -39zM451 850l-134 -61q-27 -13 -40.5 10t7.5 42l113 94q11 10 26 10q23 0 37.5 -16t14.5 -39q0 -29 -24 -40z" />
    <glyph glyph-name="Ucircumflex" unicode="&#xdb;" horiz-adv-x="747" 
d="M655 610q-9 -5 -9 -17v-349q0 -99 -79 -171.5t-179 -72.5h-28q-100 0 -179.5 72t-79.5 170v351q0 12 -9 17q-17 9 -17 39q0 23 14.5 37t36.5 14q33 0 54 -21t21 -55v-381q0 -57 50 -100t109 -43h28q58 0 108 43t50 99v382q0 34 21 55t54 21q22 0 36.5 -14t14.5 -37
q0 -30 -17 -39zM373 938q20 0 35 -15l83 -84q22 -20 4 -44t-43 -8l-79 49l-79 -49q-25 -16 -43 8t4 44l83 84q15 15 35 15z" />
    <glyph glyph-name="Udieresis" unicode="&#xdc;" horiz-adv-x="747" 
d="M655 610q-9 -5 -9 -17v-349q0 -99 -79 -171.5t-179 -72.5h-28q-100 0 -179.5 72t-79.5 170v351q0 12 -9 17q-17 9 -17 39q0 23 14.5 37t36.5 14q33 0 54 -21t21 -55v-381q0 -57 50 -100t109 -43h28q58 0 108 43t50 99v382q0 34 21 55t54 21q22 0 36.5 -14t14.5 -37
q0 -30 -17 -39zM327 849q0 -27 -19.5 -46t-47.5 -19t-47.5 19t-19.5 46q0 26 19.5 45t47.5 19t47.5 -19t19.5 -45zM553 849q0 -27 -19.5 -46t-47.5 -19t-47.5 19t-19.5 46q0 26 19.5 45t47.5 19t47.5 -19t19.5 -45z" />
    <glyph glyph-name="Yacute" unicode="&#xdd;" horiz-adv-x="628" 
d="M527 700q26 1 44 -13t20 -35q1 -18 -8.5 -34.5t-29.5 -18.5q-6 -1 -12 -9l-177 -306v-234q0 -21 -15 -35.5t-35 -14.5t-35 14.5t-15 35.5v234l-177 306q-6 8 -12 9q-20 2 -29.5 18.5t-8.5 34.5q2 21 20 35t44 13q41 -4 68 -51l117 -205l27 -64h1l28 64l117 205
q27 47 68 51zM391 850l-134 -61q-27 -13 -40.5 10t7.5 42l113 94q11 10 26 10q23 0 37.5 -16t14.5 -39q0 -29 -24 -40z" />
    <glyph glyph-name="Thorn" unicode="&#xde;" horiz-adv-x="634" 
d="M209 614v-61h182q85 0 145.5 -60.5t60.5 -146.5q0 -83 -60 -144.5t-143 -61.5h-185v-54q0 -42 -24 -65q-21 -21 -51 -21q-20 0 -34 15t-14 35q0 23 17 38q6 4 6 13v498q0 9 -6 13q-17 15 -17 38q0 21 14.5 35.5t35.5 14.5q28 0 49 -21q24 -23 24 -65zM209 240h182
q43 0 74.5 31t31.5 75t-31.5 75t-74.5 31h-182v-212z" />
    <glyph glyph-name="germandbls" unicode="&#xdf;" horiz-adv-x="642" 
d="M105 13q9 5 9 17v465q0 81 60 143t139 62h42q84 0 145 -57t61 -140q0 -44 -16 -82.5t-50 -51.5q47 -14 73.5 -66t26.5 -102q0 -86 -58.5 -144t-146.5 -58h-74q-20 0 -34 14t-14 36q0 20 14 34.5t34 14.5h71q47 -2 79 26.5t32 76.5q0 50 -34 78t-85 28q-21 0 -35.5 14
t-14.5 35q0 20 14 33.5t34 13.5q37 0 61.5 31.5t24.5 69.5q0 45 -31.5 72t-79.5 27h-28q-41 0 -75.5 -31t-34.5 -72v-501q0 -34 -21 -55t-54 -21q-22 0 -37 14t-15 37q0 13 4.5 23t8.5 13z" />
    <glyph glyph-name="agrave" unicode="&#xe0;" horiz-adv-x="536" 
d="M427 0q-31 0 -50.5 16.5t-20.5 45.5q-49 -67 -133 -67q-80 0 -138 49t-58 128q0 86 58 128t144 42q64 0 124 -29q0 70 -26 93.5t-76 23.5q-30 0 -55.5 -3.5t-35.5 -6.5l-10 -4q-23 -8 -43 4.5t-20 36.5q0 18 10.5 31t25.5 18q66 19 123 19q102 0 154.5 -46t52.5 -132
v-239q0 -14 9 -19q17 -8 17 -38q0 -22 -14.5 -36.5t-37.5 -14.5zM353 232q-43 30 -98 30q-128 0 -128 -91q0 -37 29 -58t68 -21q48 0 87.5 27.5t41.5 72.5v40zM175 666q-24 11 -24 40q0 23 14.5 39t37.5 16q15 0 26 -10l113 -94q21 -19 7.5 -42t-40.5 -10z" />
    <glyph glyph-name="aacute" unicode="&#xe1;" horiz-adv-x="536" 
d="M427 0q-31 0 -50.5 16.5t-20.5 45.5q-49 -67 -133 -67q-80 0 -138 49t-58 128q0 86 58 128t144 42q64 0 124 -29q0 70 -26 93.5t-76 23.5q-30 0 -55.5 -3.5t-35.5 -6.5l-10 -4q-23 -8 -43 4.5t-20 36.5q0 18 10.5 31t25.5 18q66 19 123 19q102 0 154.5 -46t52.5 -132
v-239q0 -14 9 -19q17 -8 17 -38q0 -22 -14.5 -36.5t-37.5 -14.5zM353 232q-43 30 -98 30q-128 0 -128 -91q0 -37 29 -58t68 -21q48 0 87.5 27.5t41.5 72.5v40zM335 666l-134 -61q-27 -13 -40.5 10t7.5 42l113 94q11 10 26 10q23 0 37.5 -16t14.5 -39q0 -29 -24 -40z" />
    <glyph glyph-name="acircumflex" unicode="&#xe2;" horiz-adv-x="536" 
d="M427 0q-31 0 -50.5 16.5t-20.5 45.5q-49 -67 -133 -67q-80 0 -138 49t-58 128q0 86 58 128t144 42q64 0 124 -29q0 70 -26 93.5t-76 23.5q-30 0 -55.5 -3.5t-35.5 -6.5l-10 -4q-23 -8 -43 4.5t-20 36.5q0 18 10.5 31t25.5 18q66 19 123 19q102 0 154.5 -46t52.5 -132
v-239q0 -14 9 -19q17 -8 17 -38q0 -22 -14.5 -36.5t-37.5 -14.5zM353 232q-43 30 -98 30q-128 0 -128 -91q0 -37 29 -58t68 -21q48 0 87.5 27.5t41.5 72.5v40zM261 755q20 0 35 -15l83 -84q22 -20 4 -44t-43 -8l-79 49l-79 -49q-25 -16 -43 8t4 44l83 84q15 15 35 15z" />
    <glyph glyph-name="atilde" unicode="&#xe3;" horiz-adv-x="536" 
d="M427 0q-31 0 -50.5 16.5t-20.5 45.5q-49 -67 -133 -67q-80 0 -138 49t-58 128q0 86 58 128t144 42q64 0 124 -29q0 70 -26 93.5t-76 23.5q-30 0 -55.5 -3.5t-35.5 -6.5l-10 -4q-23 -8 -43 4.5t-20 36.5q0 18 10.5 31t25.5 18q66 19 123 19q102 0 154.5 -46t52.5 -132
v-239q0 -14 9 -19q17 -8 17 -38q0 -22 -14.5 -36.5t-37.5 -14.5zM353 232q-43 30 -98 30q-128 0 -128 -91q0 -37 29 -58t68 -21q48 0 87.5 27.5t41.5 72.5v40zM109 667q36 80 105 83q30 -1 69 -26t52 -25t23 24q10 23 37 23q25 0 36.5 -21.5t2.5 -42.5q-39 -73 -94 -73
q-27 0 -69 26.5t-56 26.5q-13 0 -26 -27t-40 -27q-22 0 -35.5 20t-4.5 39z" />
    <glyph glyph-name="adieresis" unicode="&#xe4;" horiz-adv-x="536" 
d="M427 0q-31 0 -50.5 16.5t-20.5 45.5q-49 -67 -133 -67q-80 0 -138 49t-58 128q0 86 58 128t144 42q64 0 124 -29q0 70 -26 93.5t-76 23.5q-30 0 -55.5 -3.5t-35.5 -6.5l-10 -4q-23 -8 -43 4.5t-20 36.5q0 18 10.5 31t25.5 18q66 19 123 19q102 0 154.5 -46t52.5 -132
v-239q0 -14 9 -19q17 -8 17 -38q0 -22 -14.5 -36.5t-37.5 -14.5zM353 232q-43 30 -98 30q-128 0 -128 -91q0 -37 29 -58t68 -21q48 0 87.5 27.5t41.5 72.5v40zM198 665q0 -27 -19.5 -46t-47.5 -19t-47.5 19t-19.5 46q0 26 19.5 45t47.5 19t47.5 -19t19.5 -45zM424 665
q0 -27 -19.5 -46t-47.5 -19t-47.5 19t-19.5 46q0 26 19.5 45t47.5 19t47.5 -19t19.5 -45z" />
    <glyph glyph-name="aring" unicode="&#xe5;" horiz-adv-x="536" 
d="M427 0q-31 0 -50.5 16.5t-20.5 45.5q-49 -67 -133 -67q-80 0 -138 49t-58 128q0 86 58 128t144 42q64 0 124 -29q0 70 -26 93.5t-76 23.5q-30 0 -55.5 -3.5t-35.5 -6.5l-10 -4q-23 -8 -43 4.5t-20 36.5q0 18 10.5 31t25.5 18q66 19 123 19q102 0 154.5 -46t52.5 -132
v-239q0 -14 9 -19q17 -8 17 -38q0 -22 -14.5 -36.5t-37.5 -14.5zM353 232q-43 30 -98 30q-128 0 -128 -91q0 -37 29 -58t68 -21q48 0 87.5 27.5t41.5 72.5v40zM269 571q-33 0 -61 24.5t-28 61.5t28 61.5t61 24.5q36 0 62.5 -24t26.5 -62q0 -39 -27 -62.5t-62 -23.5zM269 611
q20 0 35.5 12t15.5 34q0 21 -15 33.5t-36 12.5q-19 0 -34.5 -12.5t-15.5 -33.5t15 -33.5t35 -12.5z" />
    <glyph glyph-name="ae" unicode="&#xe6;" horiz-adv-x="885" 
d="M798 213h-339q16 -52 57 -86t90 -34q76 0 132 39q18 11 32 11q21 0 36.5 -16.5t15.5 -37.5q0 -14 -5.5 -24.5t-10.5 -14.5l-6 -4q-85 -56 -195 -56q-124 0 -213 114q-11 -21 -21.5 -36t-30 -34t-49.5 -29.5t-68 -10.5q-80 0 -138 49t-58 128q0 86 58 128t144 42
q64 0 124 -29q0 68 -25.5 90.5t-75.5 22.5q-30 0 -55.5 -2.5t-36.5 -5.5l-10 -3q-22 -6 -42.5 8t-20.5 38q0 18 10.5 31t25.5 18q55 16 123 16q129 0 179 -75q73 80 180 80q106 0 177 -78.5t71 -185.5q0 -21 -17 -37t-38 -16zM224 91q48 0 88.5 30.5t40.5 77.5v31
q-44 31 -98 31q-128 0 -128 -91q0 -37 29 -58t68 -21zM607 423q-53 0 -92.5 -37.5t-52.5 -94.5h285q-9 57 -48 94.5t-92 37.5z" />
    <glyph glyph-name="ccedilla" unicode="&#xe7;" horiz-adv-x="538" 
d="M475 474q21 -15 21 -40q0 -22 -15 -37t-35 -15t-33 10q-44 35 -100 35q-70 -1 -119 -50t-49 -118q0 -68 49 -117t118 -49q55 0 101 35q13 9 32 9q20 0 35.5 -15t15.5 -36t-21 -40q-71 -56 -161 -56v-16q44 0 69 -20.5t25 -57.5q0 -44 -34.5 -67.5t-81.5 -23.5
q-54 0 -88 34q-9 9 -9 22q0 12 9.5 22t21.5 10q11 0 21 -8q17 -15 41 -15q46 0 46 32q0 26 -46 31q-13 2 -21.5 10.5t-8.5 20.5q0 9 6 31q-95 17 -158.5 91.5t-63.5 172.5q0 112 79.5 191.5t190.5 79.5q95 0 163 -56z" />
    <glyph glyph-name="egrave" unicode="&#xe8;" horiz-adv-x="574" 
d="M293 425q-54 0 -96 -38.5t-49 -96.5h279q-6 57 -44 96t-90 39zM481 213h-333q11 -52 54 -87.5t95 -35.5q67 0 125 31q16 9 30 9q22 0 36.5 -12.5t14.5 -33.5q0 -32 -28 -46q-79 -43 -179 -43q-108 0 -181 78.5t-73 185.5t71.5 186.5t177.5 79.5q104 0 173.5 -77.5
t69.5 -183.5q0 -21 -15 -36t-38 -15zM232 666q-24 11 -24 40q0 23 14.5 39t37.5 16q15 0 26 -10l113 -94q21 -19 7.5 -42t-40.5 -10z" />
    <glyph glyph-name="eacute" unicode="&#xe9;" horiz-adv-x="574" 
d="M293 425q-54 0 -96 -38.5t-49 -96.5h279q-6 57 -44 96t-90 39zM481 213h-333q11 -52 54 -87.5t95 -35.5q67 0 125 31q16 9 30 9q22 0 36.5 -12.5t14.5 -33.5q0 -32 -28 -46q-79 -43 -179 -43q-108 0 -181 78.5t-73 185.5t71.5 186.5t177.5 79.5q104 0 173.5 -77.5
t69.5 -183.5q0 -21 -15 -36t-38 -15zM373 666l-134 -61q-27 -13 -40.5 10t7.5 42l113 94q11 10 26 10q23 0 37.5 -16t14.5 -39q0 -29 -24 -40z" />
    <glyph glyph-name="ecircumflex" unicode="&#xea;" horiz-adv-x="574" 
d="M293 425q-54 0 -96 -38.5t-49 -96.5h279q-6 57 -44 96t-90 39zM481 213h-333q11 -52 54 -87.5t95 -35.5q67 0 125 31q16 9 30 9q22 0 36.5 -12.5t14.5 -33.5q0 -32 -28 -46q-79 -43 -179 -43q-108 0 -181 78.5t-73 185.5t71.5 186.5t177.5 79.5q104 0 173.5 -77.5
t69.5 -183.5q0 -21 -15 -36t-38 -15zM287 755q20 0 35 -15l83 -84q22 -20 4 -44t-43 -8l-79 49l-79 -49q-25 -16 -43 8t4 44l83 84q15 15 35 15z" />
    <glyph glyph-name="edieresis" unicode="&#xeb;" horiz-adv-x="574" 
d="M293 425q-54 0 -96 -38.5t-49 -96.5h279q-6 57 -44 96t-90 39zM481 213h-333q11 -52 54 -87.5t95 -35.5q67 0 125 31q16 9 30 9q22 0 36.5 -12.5t14.5 -33.5q0 -32 -28 -46q-79 -43 -179 -43q-108 0 -181 78.5t-73 185.5t71.5 186.5t177.5 79.5q104 0 173.5 -77.5
t69.5 -183.5q0 -21 -15 -36t-38 -15zM249 665q0 -27 -19.5 -46t-47.5 -19t-47.5 19t-19.5 46q0 26 19.5 45t47.5 19t47.5 -19t19.5 -45zM475 665q0 -27 -19.5 -46t-47.5 -19t-47.5 19t-19.5 46q0 26 19.5 45t47.5 19t47.5 -19t19.5 -45z" />
    <glyph glyph-name="igrave" unicode="&#xec;" horiz-adv-x="263" 
d="M188 90q18 -9 18 -39q0 -23 -15 -37t-37 -14q-33 0 -54 21t-21 55v336q0 12 -9 17q-18 9 -18 39q0 23 15 37t37 14q33 0 54 -21t21 -55v-336q0 -12 9 -17zM49 666q-24 11 -24 40q0 23 14.5 39t37.5 16q15 0 26 -10l113 -94q21 -19 7.5 -42t-40.5 -10z" />
    <glyph glyph-name="iacute" unicode="&#xed;" horiz-adv-x="263" 
d="M188 90q18 -9 18 -39q0 -23 -15 -37t-37 -14q-33 0 -54 21t-21 55v336q0 12 -9 17q-18 9 -18 39q0 23 15 37t37 14q33 0 54 -21t21 -55v-336q0 -12 9 -17zM194 666l-134 -61q-27 -13 -40.5 10t7.5 42l113 94q11 10 26 10q23 0 37.5 -16t14.5 -39q0 -29 -24 -40z" />
    <glyph glyph-name="icircumflex" unicode="&#xee;" horiz-adv-x="263" 
d="M188 90q18 -9 18 -39q0 -23 -15 -37t-37 -14q-33 0 -54 21t-21 55v336q0 12 -9 17q-18 9 -18 39q0 23 15 37t37 14q33 0 54 -21t21 -55v-336q0 -12 9 -17zM182 605l-67 48l-67 -48q-25 -16 -45.5 9t1.5 45l76 81q15 15 35 15q19 0 35 -15l76 -81q22 -20 1.5 -45t-45.5 -9
z" />
    <glyph glyph-name="idieresis" unicode="&#xef;" horiz-adv-x="263" 
d="M188 90q18 -9 18 -39q0 -23 -15 -37t-37 -14q-33 0 -54 21t-21 55v336q0 12 -9 17q-18 9 -18 39q0 23 15 37t37 14q33 0 54 -21t21 -55v-336q0 -12 9 -17zM286 665q0 -27 -19.5 -46t-47.5 -19t-47.5 19t-19.5 46q0 26 19.5 45t47.5 19t47.5 -19t19.5 -45zM90 665
q0 -27 -19.5 -46t-47.5 -19t-47.5 19t-19.5 46q0 26 19.5 45t47.5 19t47.5 -19t19.5 -45z" />
    <glyph glyph-name="eth" unicode="&#xf0;" horiz-adv-x="607" 
d="M231 573q-12 0 -21 9t-9 21q0 18 16 28l19 12l-39 13q-15 4 -24 17.5t-9 28.5q0 20 13.5 34t32.5 14q10 0 17 -3q55 -17 108 -45l53 32q7 4 15 4q13 0 22 -8.5t9 -21.5q0 -17 -15 -27l-25 -15q3 -3 11 -9q81 -62 120.5 -154.5t39.5 -199.5q0 -35 -5 -77
q-12 -97 -86 -162.5t-173 -65.5q-107 0 -184 77t-77 184q0 109 77 185.5t184 76.5q70 0 131 -36q-33 64 -98 108q-11 9 -30 19l-56 -34q-8 -5 -17 -5zM301 423q-67 0 -114.5 -48t-47.5 -116q0 -67 47.5 -114.5t114.5 -47.5t115 47.5t48 114.5q0 68 -47.5 116t-115.5 48z" />
    <glyph glyph-name="ntilde" unicode="&#xf1;" 
d="M455 76v213q0 63 -36.5 99.5t-99.5 36.5q-56 0 -95.5 -40.5t-39.5 -90.5v-218q0 -34 -21 -55t-54 -21q-22 0 -37 14t-15 37q0 13 4.5 23t8.5 13l5 3q9 5 9 17v306q0 12 -9 17q-18 9 -18 39q0 23 15 37t37 14q31 0 51 -18.5t23 -48.5q24 30 65.5 51t77.5 21
q120 0 174.5 -59t54.5 -183v-176q0 -12 9 -17q18 -9 18 -39q0 -23 -15 -37t-37 -14q-33 0 -54 21t-21 55zM163 667q36 80 105 83q30 -1 69 -26t52 -25t23 24q10 23 37 23q25 0 36.5 -21.5t2.5 -42.5q-39 -73 -94 -73q-27 0 -69 26.5t-56 26.5q-13 0 -26 -27t-40 -27
q-22 0 -35.5 20t-4.5 39z" />
    <glyph glyph-name="ograve" unicode="&#xf2;" horiz-adv-x="614" 
d="M307 425q-68 0 -116.5 -48t-48.5 -117q0 -68 48.5 -116.5t116.5 -48.5t116.5 48.5t48.5 116.5q0 69 -48.5 117t-116.5 48zM307 -5q-109 0 -187 78t-78 187t78 187t187 78t187 -77.5t78 -187.5q0 -109 -78 -187t-187 -78zM229 666q-24 11 -24 40q0 23 14.5 39t37.5 16
q15 0 26 -10l113 -94q21 -19 7.5 -42t-40.5 -10z" />
    <glyph glyph-name="oacute" unicode="&#xf3;" horiz-adv-x="614" 
d="M307 425q-68 0 -116.5 -48t-48.5 -117q0 -68 48.5 -116.5t116.5 -48.5t116.5 48.5t48.5 116.5q0 69 -48.5 117t-116.5 48zM307 -5q-109 0 -187 78t-78 187t78 187t187 78t187 -77.5t78 -187.5q0 -109 -78 -187t-187 -78zM385 666l-134 -61q-27 -13 -40.5 10t7.5 42
l113 94q11 10 26 10q23 0 37.5 -16t14.5 -39q0 -29 -24 -40z" />
    <glyph glyph-name="ocircumflex" unicode="&#xf4;" horiz-adv-x="614" 
d="M307 425q-68 0 -116.5 -48t-48.5 -117q0 -68 48.5 -116.5t116.5 -48.5t116.5 48.5t48.5 116.5q0 69 -48.5 117t-116.5 48zM307 -5q-109 0 -187 78t-78 187t78 187t187 78t187 -77.5t78 -187.5q0 -109 -78 -187t-187 -78zM307 755q20 0 35 -15l83 -84q22 -20 4 -44t-43 -8
l-79 49l-79 -49q-25 -16 -43 8t4 44l83 84q15 15 35 15z" />
    <glyph glyph-name="otilde" unicode="&#xf5;" horiz-adv-x="614" 
d="M307 425q-68 0 -116.5 -48t-48.5 -117q0 -68 48.5 -116.5t116.5 -48.5t116.5 48.5t48.5 116.5q0 69 -48.5 117t-116.5 48zM307 -5q-109 0 -187 78t-78 187t78 187t187 78t187 -77.5t78 -187.5q0 -109 -78 -187t-187 -78zM145 667q36 80 105 83q30 -1 69 -26t52 -25t23 24
q10 23 37 23q25 0 36.5 -21.5t2.5 -42.5q-39 -73 -94 -73q-27 0 -69 26.5t-56 26.5q-13 0 -26 -27t-40 -27q-22 0 -35.5 20t-4.5 39z" />
    <glyph glyph-name="odieresis" unicode="&#xf6;" horiz-adv-x="614" 
d="M307 425q-68 0 -116.5 -48t-48.5 -117q0 -68 48.5 -116.5t116.5 -48.5t116.5 48.5t48.5 116.5q0 69 -48.5 117t-116.5 48zM307 -5q-109 0 -187 78t-78 187t78 187t187 78t187 -77.5t78 -187.5q0 -109 -78 -187t-187 -78zM261 665q0 -27 -19.5 -46t-47.5 -19t-47.5 19
t-19.5 46q0 26 19.5 45t47.5 19t47.5 -19t19.5 -45zM487 665q0 -27 -19.5 -46t-47.5 -19t-47.5 19t-19.5 46q0 26 19.5 45t47.5 19t47.5 -19t19.5 -45z" />
    <glyph glyph-name="divide" unicode="&#xf7;" horiz-adv-x="540" 
d="M200 471q0 29 20.5 49.5t49.5 20.5t50 -20.5t21 -49.5t-21 -50t-50 -21t-49.5 21t-20.5 50zM200 90q0 29 20.5 49.5t49.5 20.5t50 -20.5t21 -49.5t-21 -50t-50 -21t-49.5 21t-20.5 50zM494 279q0 -19 -14 -33t-33 -14h-352q-20 0 -34 13.5t-15 33.5q0 20 14 34.5t33 14.5
h352q20 0 34.5 -14t14.5 -35z" />
    <glyph glyph-name="oslash" unicode="&#xf8;" horiz-adv-x="614" 
d="M307 -5q-63 0 -116 27l-32 -49q-20 -28 -45 -14q-23 12 -15 37q2 6 6 12l32 49q-95 80 -95 203q0 109 78 187t187 78q63 0 117 -28l32 49q12 19 31 18t26 -16.5t-4 -35.5l-32 -49q95 -80 95 -203q0 -109 -78 -187t-187 -78zM307 426q-68 0 -116.5 -48.5t-48.5 -117.5
q0 -70 50 -118l177 272q-29 12 -62 12zM473 260q0 70 -51 119l-176 -273q30 -11 61 -11q68 0 117 48.5t49 116.5z" />
    <glyph glyph-name="ugrave" unicode="&#xf9;" 
d="M530 0q-33 0 -52.5 20t-19.5 52q-16 -32 -58.5 -52t-79.5 -20q-124 0 -180 63t-56 189v161q0 12 -9 17q-18 9 -18 39q0 23 15 37t37 14q33 0 54 -21t21 -55v-192q0 -76 33.5 -114t111.5 -38q56 0 91 33.5t35 91.5v219q0 34 21 55t54 21q22 0 37 -14t15 -37
q0 -13 -4.5 -23t-9.5 -13l-4 -3q-9 -5 -9 -17v-306q0 -12 9 -17q18 -9 18 -39q0 -23 -15 -37t-37 -14zM234 666q-24 11 -24 40q0 23 14.5 39t37.5 16q15 0 26 -10l113 -94q21 -19 7.5 -42t-40.5 -10z" />
    <glyph glyph-name="uacute" unicode="&#xfa;" 
d="M530 0q-33 0 -52.5 20t-19.5 52q-16 -32 -58.5 -52t-79.5 -20q-124 0 -180 63t-56 189v161q0 12 -9 17q-18 9 -18 39q0 23 15 37t37 14q33 0 54 -21t21 -55v-192q0 -76 33.5 -114t111.5 -38q56 0 91 33.5t35 91.5v219q0 34 21 55t54 21q22 0 37 -14t15 -37
q0 -13 -4.5 -23t-9.5 -13l-4 -3q-9 -5 -9 -17v-306q0 -12 9 -17q18 -9 18 -39q0 -23 -15 -37t-37 -14zM410 666l-134 -61q-27 -13 -40.5 10t7.5 42l113 94q11 10 26 10q23 0 37.5 -16t14.5 -39q0 -29 -24 -40z" />
    <glyph glyph-name="ucircumflex" unicode="&#xfb;" 
d="M530 0q-33 0 -52.5 20t-19.5 52q-16 -32 -58.5 -52t-79.5 -20q-124 0 -180 63t-56 189v161q0 12 -9 17q-18 9 -18 39q0 23 15 37t37 14q33 0 54 -21t21 -55v-192q0 -76 33.5 -114t111.5 -38q56 0 91 33.5t35 91.5v219q0 34 21 55t54 21q22 0 37 -14t15 -37
q0 -13 -4.5 -23t-9.5 -13l-4 -3q-9 -5 -9 -17v-306q0 -12 9 -17q18 -9 18 -39q0 -23 -15 -37t-37 -14zM322 755q20 0 35 -15l83 -84q22 -20 4 -44t-43 -8l-79 49l-79 -49q-25 -16 -43 8t4 44l83 84q15 15 35 15z" />
    <glyph glyph-name="udieresis" unicode="&#xfc;" 
d="M530 0q-33 0 -52.5 20t-19.5 52q-16 -32 -58.5 -52t-79.5 -20q-124 0 -180 63t-56 189v161q0 12 -9 17q-18 9 -18 39q0 23 15 37t37 14q33 0 54 -21t21 -55v-192q0 -76 33.5 -114t111.5 -38q56 0 91 33.5t35 91.5v219q0 34 21 55t54 21q22 0 37 -14t15 -37
q0 -13 -4.5 -23t-9.5 -13l-4 -3q-9 -5 -9 -17v-306q0 -12 9 -17q18 -9 18 -39q0 -23 -15 -37t-37 -14zM273 665q0 -27 -19.5 -46t-47.5 -19t-47.5 19t-19.5 46q0 26 19.5 45t47.5 19t47.5 -19t19.5 -45zM499 665q0 -27 -19.5 -46t-47.5 -19t-47.5 19t-19.5 46q0 26 19.5 45
t47.5 19t47.5 -19t19.5 -45z" />
    <glyph glyph-name="yacute" unicode="&#xfd;" horiz-adv-x="585" 
d="M83 405q-3 10 -14 12q-20 1 -31 29q-11 31 8.5 52t50.5 21q49 0 68 -50l88 -228l36 -121h3l39 121l88 228q20 50 70 50q30 0 49 -21.5t8 -51.5q-5 -12 -12.5 -19.5t-13.5 -8.5l-5 -1q-11 -2 -14 -12l-152 -393q-70 -182 -178 -182q-35 0 -82 18q-14 5 -23 18.5t-9 28.5
q0 26 22 40t46 3q24 -10 42 -10q41 0 71 62l4 9l-11 27zM389 666l-134 -61q-27 -13 -40.5 10t7.5 42l113 94q11 10 26 10q23 0 37.5 -16t14.5 -39q0 -29 -24 -40z" />
    <glyph glyph-name="thorn" unicode="&#xfe;" horiz-adv-x="655" 
d="M105 610q-18 9 -18 39q0 23 15 37t37 14q33 0 54 -21t21 -55v-182q57 83 158 83q104 0 172.5 -78t68.5 -190q0 -106 -66.5 -181.5t-174.5 -75.5q-42 0 -86.5 21t-71.5 65v-180q0 -34 -21 -55t-54 -21q-22 0 -37 14t-15 37q0 13 4.5 23t8.5 13l5 3q9 5 9 17v656
q0 12 -9 17zM364 100q61 0 104.5 47.5t43.5 114.5q0 74 -42.5 118t-105.5 44q-62 0 -106.5 -47t-44.5 -115q0 -65 42.5 -113.5t108.5 -48.5z" />
    <glyph glyph-name="ydieresis" unicode="&#xff;" horiz-adv-x="585" 
d="M83 405q-3 10 -14 12q-20 1 -31 29q-11 31 8.5 52t50.5 21q49 0 68 -50l88 -228l36 -121h3l39 121l88 228q20 50 70 50q30 0 49 -21.5t8 -51.5q-5 -12 -12.5 -19.5t-13.5 -8.5l-5 -1q-11 -2 -14 -12l-152 -393q-70 -182 -178 -182q-35 0 -82 18q-14 5 -23 18.5t-9 28.5
q0 26 22 40t46 3q24 -10 42 -10q41 0 71 62l4 9l-11 27zM246 665q0 -27 -19.5 -46t-47.5 -19t-47.5 19t-19.5 46q0 26 19.5 45t47.5 19t47.5 -19t19.5 -45zM472 665q0 -27 -19.5 -46t-47.5 -19t-47.5 19t-19.5 46q0 26 19.5 45t47.5 19t47.5 -19t19.5 -45z" />
    <glyph glyph-name="Amacron" unicode="&#x100;" horiz-adv-x="707" 
d="M171 50q-19 -50 -68 -50q-28 0 -46 15t-17 40q0 16 9.5 31t24.5 17q11 2 15 12l19 49l192 516q14 37 54 37t54 -37l211 -565q4 -10 15 -12q15 -1 24.5 -16t9.5 -34q0 -24 -17 -38.5t-44 -14.5q-50 0 -70 50l-51 132h-264zM461 270l-87 240l-20 69h-1l-20 -70l-86 -239
h214zM203 811q0 15 11.5 26.5t27.5 11.5h222q16 0 27.5 -11.5t11.5 -26.5q0 -16 -11.5 -27t-27.5 -11h-222q-17 0 -28 11t-11 27z" />
    <glyph glyph-name="amacron" unicode="&#x101;" horiz-adv-x="536" 
d="M427 0q-31 0 -50.5 16.5t-20.5 45.5q-49 -67 -133 -67q-80 0 -138 49t-58 128q0 86 58 128t144 42q64 0 124 -29q0 70 -26 93.5t-76 23.5q-30 0 -55.5 -3.5t-35.5 -6.5l-10 -4q-23 -8 -43 4.5t-20 36.5q0 18 10.5 31t25.5 18q66 19 123 19q102 0 154.5 -46t52.5 -132
v-239q0 -14 9 -19q17 -8 17 -38q0 -22 -14.5 -36.5t-37.5 -14.5zM353 232q-43 30 -98 30q-128 0 -128 -91q0 -37 29 -58t68 -21q48 0 87.5 27.5t41.5 72.5v40zM94 631q0 15 11.5 26.5t27.5 11.5h222q16 0 27.5 -11.5t11.5 -26.5q0 -16 -11.5 -27t-27.5 -11h-222
q-17 0 -28 11t-11 27z" />
    <glyph glyph-name="Abreve" unicode="&#x102;" horiz-adv-x="707" 
d="M171 50q-19 -50 -68 -50q-28 0 -46 15t-17 40q0 16 9.5 31t24.5 17q11 2 15 12l19 49l192 516q14 37 54 37t54 -37l211 -565q4 -10 15 -12q15 -1 24.5 -16t9.5 -34q0 -24 -17 -38.5t-44 -14.5q-50 0 -70 50l-51 132h-264zM461 270l-87 240l-20 69h-1l-20 -70l-86 -239
h214zM355 780q-99 0 -141 75q-11 22 0.5 45t37.5 23q25 0 37 -22q24 -37 66 -37q40 0 62 37q14 22 38 22q25 0 37.5 -23t-0.5 -45q-42 -75 -137 -75z" />
    <glyph glyph-name="abreve" unicode="&#x103;" horiz-adv-x="536" 
d="M427 0q-31 0 -50.5 16.5t-20.5 45.5q-49 -67 -133 -67q-80 0 -138 49t-58 128q0 86 58 128t144 42q64 0 124 -29q0 70 -26 93.5t-76 23.5q-30 0 -55.5 -3.5t-35.5 -6.5l-10 -4q-23 -8 -43 4.5t-20 36.5q0 18 10.5 31t25.5 18q66 19 123 19q102 0 154.5 -46t52.5 -132
v-239q0 -14 9 -19q17 -8 17 -38q0 -22 -14.5 -36.5t-37.5 -14.5zM353 232q-43 30 -98 30q-128 0 -128 -91q0 -37 29 -58t68 -21q48 0 87.5 27.5t41.5 72.5v40zM248 600q-99 0 -141 75q-11 22 0.5 45t37.5 23q25 0 37 -22q24 -37 66 -37q40 0 62 37q14 22 38 22
q25 0 37.5 -23t-0.5 -45q-42 -75 -137 -75z" />
    <glyph glyph-name="Aogonek" unicode="&#x104;" horiz-adv-x="684" 
d="M171 50q-19 -50 -68 -50q-28 0 -46 15t-17 40q0 16 9.5 31t24.5 17q11 2 15 12l19 49l192 516q14 37 54 37t54 -37l211 -565q4 -10 15 -12q15 -1 24.5 -16t9.5 -34q0 -24 -17 -38.5t-43 -14.5q-25 -6 -25 -42q0 -17 13.5 -29t29.5 -12q17 0 25 -8t8 -24q0 -28 -32 -30
q-100 0 -100 84q0 52 49 67q-27 13 -39 44l-51 132h-264zM461 270l-87 240l-20 69h-1l-20 -70l-86 -239h214z" />
    <glyph glyph-name="aogonek" unicode="&#x105;" horiz-adv-x="537" 
d="M345 -61q0 48 48 68q-28 13 -38 47q-8 -11 -20 -22.5t-43 -24t-69 -12.5q-80 0 -138 49t-58 128q0 86 58 128t144 42q64 0 124 -29q0 68 -25.5 90.5t-75.5 22.5q-30 0 -55.5 -3t-36.5 -5l-10 -3q-7 -2 -18 -2q-19 2 -32 15.5t-13 32.5q0 18 10.5 31t25.5 18q55 16 123 16
q102 0 154.5 -46.5t52.5 -132.5v-240q0 -12 9 -17q18 -9 18 -39q0 -22 -14.5 -36t-35.5 -15h-3q-26 -4 -26 -42q0 -17 13.5 -29t29.5 -12q33 0 33 -32q0 -28 -32 -30q-45 -2 -72.5 18.5t-27.5 65.5zM353 232q-43 30 -98 30q-128 0 -128 -91q0 -37 29 -58t68 -21
q48 0 88.5 30.5t40.5 77.5v32z" />
    <glyph glyph-name="Cacute" unicode="&#x106;" horiz-adv-x="657" 
d="M414 90q75 0 137 41q27 16 53 1.5t26 -43.5q0 -27 -23 -42q-89 -57 -195 -57q-148 0 -254 106.5t-106 254.5t103.5 253.5t257.5 105.5q92 0 170 -43q27 -13 27 -44q0 -21 -14.5 -35.5t-35.5 -14.5q-13 0 -25 6q-62 31 -122 31q-109 0 -185 -77t-76 -182q0 -107 78 -184
t184 -77zM483 850l-134 -61q-27 -13 -40.5 10t7.5 42l113 94q11 10 26 10q23 0 37.5 -16t14.5 -39q0 -29 -24 -40z" />
    <glyph glyph-name="cacute" unicode="&#x107;" horiz-adv-x="537" 
d="M470 470q21 -15 21 -39q0 -21 -14.5 -36t-35.5 -15q-17 0 -31 9q-48 38 -99 38q-69 -1 -118 -50.5t-49 -117.5q0 -67 49 -116.5t117 -49.5q52 0 100 37q14 9 30 9q20 0 35.5 -15t15.5 -36q0 -20 -21 -38q-67 -55 -159 -55q-111 0 -188.5 77t-77.5 187t77.5 188t187.5 78
q93 0 160 -55zM387 666l-134 -61q-27 -13 -40.5 10t7.5 42l113 94q11 10 26 10q23 0 37.5 -16t14.5 -39q0 -29 -24 -40z" />
    <glyph glyph-name="Ccircumflex" unicode="&#x108;" horiz-adv-x="657" 
d="M414 90q75 0 137 41q27 16 53 1.5t26 -43.5q0 -27 -23 -42q-89 -57 -195 -57q-148 0 -254 106.5t-106 254.5t103.5 253.5t257.5 105.5q92 0 170 -43q27 -13 27 -44q0 -21 -14.5 -35.5t-35.5 -14.5q-13 0 -25 6q-62 31 -122 31q-109 0 -185 -77t-76 -182q0 -107 78 -184
t184 -77zM411 938q20 0 35 -15l83 -84q22 -20 4 -44t-43 -8l-79 49l-79 -49q-25 -16 -43 8t4 44l83 84q15 15 35 15z" />
    <glyph glyph-name="ccircumflex" unicode="&#x109;" horiz-adv-x="537" 
d="M470 470q21 -15 21 -39q0 -21 -14.5 -36t-35.5 -15q-17 0 -31 9q-48 38 -99 38q-69 -1 -118 -50.5t-49 -117.5q0 -67 49 -116.5t117 -49.5q52 0 100 37q14 9 30 9q20 0 35.5 -15t15.5 -36q0 -20 -21 -38q-67 -55 -159 -55q-111 0 -188.5 77t-77.5 187t77.5 188t187.5 78
q93 0 160 -55zM308 755q20 0 35 -15l83 -84q22 -20 4 -44t-43 -8l-79 49l-79 -49q-25 -16 -43 8t4 44l83 84q15 15 35 15z" />
    <glyph glyph-name="Cdotaccent" unicode="&#x10a;" horiz-adv-x="657" 
d="M414 90q75 0 137 41q27 16 53 1.5t26 -43.5q0 -27 -23 -42q-89 -57 -195 -57q-148 0 -254 106.5t-106 254.5t103.5 253.5t257.5 105.5q92 0 170 -43q27 -13 27 -44q0 -21 -14.5 -35.5t-35.5 -14.5q-13 0 -25 6q-62 31 -122 31q-109 0 -185 -77t-76 -182q0 -107 78 -184
t184 -77zM482 849q0 -27 -19.5 -46t-47.5 -19t-47.5 19t-19.5 46q0 26 19.5 45t47.5 19t47.5 -19t19.5 -45z" />
    <glyph glyph-name="cdotaccent" unicode="&#x10b;" horiz-adv-x="537" 
d="M470 470q21 -15 21 -39q0 -21 -14.5 -36t-35.5 -15q-17 0 -31 9q-48 38 -99 38q-69 -1 -118 -50.5t-49 -117.5q0 -67 49 -116.5t117 -49.5q52 0 100 37q14 9 30 9q20 0 35.5 -15t15.5 -36q0 -20 -21 -38q-67 -55 -159 -55q-111 0 -188.5 77t-77.5 187t77.5 188t187.5 78
q93 0 160 -55zM377 665q0 -27 -19.5 -46t-47.5 -19t-47.5 19t-19.5 46q0 26 19.5 45t47.5 19t47.5 -19t19.5 -45z" />
    <glyph glyph-name="Ccaron" unicode="&#x10c;" horiz-adv-x="657" 
d="M414 90q75 0 137 41q27 16 53 1.5t26 -43.5q0 -27 -23 -42q-89 -57 -195 -57q-148 0 -254 106.5t-106 254.5t103.5 253.5t257.5 105.5q92 0 170 -43q27 -13 27 -44q0 -21 -14.5 -35.5t-35.5 -14.5q-13 0 -25 6q-62 31 -122 31q-109 0 -185 -77t-76 -182q0 -107 78 -184
t184 -77zM415 782q-20 0 -35 15l-83 84q-22 20 -4 44t43 8l79 -49l79 49q25 16 43 -8t-4 -44l-83 -84q-15 -15 -35 -15z" />
    <glyph glyph-name="ccaron" unicode="&#x10d;" horiz-adv-x="537" 
d="M470 470q21 -15 21 -39q0 -21 -14.5 -36t-35.5 -15q-17 0 -31 9q-48 38 -99 38q-69 -1 -118 -50.5t-49 -117.5q0 -67 49 -116.5t117 -49.5q52 0 100 37q14 9 30 9q20 0 35.5 -15t15.5 -36q0 -20 -21 -38q-67 -55 -159 -55q-111 0 -188.5 77t-77.5 187t77.5 188t187.5 78
q93 0 160 -55zM307 599q-20 0 -35 15l-83 84q-22 20 -4 44t43 8l79 -49l79 49q25 16 43 -8t-4 -44l-83 -84q-15 -15 -35 -15z" />
    <glyph glyph-name="Dcaron" unicode="&#x10e;" horiz-adv-x="713" 
d="M347 0h-208q-21 0 -37 15t-16 35q0 27 22 42q7 5 7 17v482q0 12 -7 17q-22 15 -22 42q0 20 16 35t37 15h152q173 0 270 -93q97 -92 97 -256q0 -217 -155 -307q-78 -44 -156 -44zM215 579v-459q0 -6 -2 -11t-4 -7l-2 -2h140q56 3 106 32q104 61 104 219q0 122 -66 184
q-68 64 -182 64h-102q8 -7 8 -20zM306 782q-20 0 -35 15l-83 84q-22 20 -4 44t43 8l79 -49l79 49q25 16 43 -8t-4 -44l-83 -84q-15 -15 -35 -15z" />
    <glyph glyph-name="dcaron" unicode="&#x10f;" horiz-adv-x="686" 
d="M748 697q3 -19 3 -37q0 -47 -22 -83t-67 -80q-6 -6 -14 -6q-9 0 -16 7t-7 18q0 7 4 12q37 58 37 128q0 19 -1 29v6q0 18 11.5 30.5t29.5 12.5q16 0 28 -10.5t14 -26.5zM516 0q-33 0 -54 21t-21 55v2q-57 -83 -158 -83q-102 0 -171.5 82t-69.5 186q0 106 67 182t174 76
q42 0 86.5 -21t71.5 -66v222q0 34 21 55t54 21q22 0 37 -14t15 -37q0 -13 -4.5 -23t-9.5 -13l-4 -3q-9 -5 -9 -17v-518q0 -12 9 -17q18 -9 18 -39q0 -23 -15 -37t-37 -14zM291 420q-61 0 -104.5 -47.5t-43.5 -114.5q0 -68 43.5 -115t104.5 -47q62 0 106.5 47t44.5 115
q0 65 -42.5 113.5t-108.5 48.5z" />
    <glyph glyph-name="Dcroat" unicode="&#x110;" horiz-adv-x="746" 
d="M380 0h-208q-21 0 -37 15t-16 35q0 27 22 42q7 5 7 17v208h-78q-20 0 -28.5 16t0 32t28.5 16h78v210q0 12 -7 17q-22 15 -22 42q0 20 16 35t37 15h152q173 0 270 -93q97 -92 97 -256q0 -217 -155 -307q-78 -44 -156 -44zM248 579v-198h93q20 0 28 -16t0 -32t-28 -16h-93
v-197q0 -6 -2 -11t-4 -7l-2 -2h140q56 3 106 32q104 61 104 219q0 122 -66 184q-68 64 -182 64h-102q8 -7 8 -20z" />
    <glyph glyph-name="dcroat" unicode="&#x111;" horiz-adv-x="607" 
d="M516 0q-33 0 -54 21t-21 55v2q-57 -83 -158 -83q-102 0 -171.5 82t-69.5 186q0 106 66.5 181t174.5 75q42 0 86.5 -20.5t71.5 -64.5v115h-72q-13 0 -22 9t-9 23t9 23.5t22 9.5h72v42q0 34 21 55t54 21q22 0 37 -14t15 -37q0 -13 -4.5 -23t-9.5 -13l-4 -3q-9 -5 -9 -17
v-11h33q13 0 22.5 -9.5t9.5 -23.5q0 -13 -9 -22.5t-23 -9.5h-33v-442q0 -12 9 -17q18 -9 18 -39q0 -23 -15 -37t-37 -14zM291 420q-61 0 -104.5 -47.5t-43.5 -114.5q0 -68 43.5 -115t104.5 -47q62 0 106.5 47t44.5 115q0 65 -42.5 113.5t-108.5 48.5z" />
    <glyph glyph-name="Emacron" unicode="&#x112;" horiz-adv-x="636" 
d="M215 579v-188h257q31 0 43 -25t-0.5 -50t-42.5 -25h-257v-170q0 -6 -2 -11t-4 -7l-2 -2h339q30 0 42.5 -25.5t0.5 -50.5t-43 -25h-407q-21 0 -37 15t-16 35q0 27 22 42q7 5 7 17v482q0 12 -7 17q-22 15 -22 42q0 20 16 35t37 15h388q21 0 36 -15t15 -36t-15 -35.5
t-36 -14.5h-320q8 -7 8 -20zM184 811q0 15 11.5 26.5t27.5 11.5h222q16 0 27.5 -11.5t11.5 -26.5q0 -16 -11.5 -27t-27.5 -11h-222q-17 0 -28 11t-11 27z" />
    <glyph glyph-name="emacron" unicode="&#x113;" horiz-adv-x="574" 
d="M293 425q-54 0 -96 -38.5t-49 -96.5h279q-6 57 -44 96t-90 39zM481 213h-333q11 -52 54 -87.5t95 -35.5q67 0 125 31q16 9 30 9q22 0 36.5 -12.5t14.5 -33.5q0 -32 -28 -46q-79 -43 -179 -43q-108 0 -181 78.5t-73 185.5t71.5 186.5t177.5 79.5q104 0 173.5 -77.5
t69.5 -183.5q0 -21 -15 -36t-38 -15zM137 631q0 15 11.5 26.5t27.5 11.5h222q16 0 27.5 -11.5t11.5 -26.5q0 -16 -11.5 -27t-27.5 -11h-222q-17 0 -28 11t-11 27z" />
    <glyph glyph-name="Ebreve" unicode="&#x114;" horiz-adv-x="636" 
d="M215 579v-188h257q31 0 43 -25t-0.5 -50t-42.5 -25h-257v-170q0 -6 -2 -11t-4 -7l-2 -2h339q30 0 42.5 -25.5t0.5 -50.5t-43 -25h-407q-21 0 -37 15t-16 35q0 27 22 42q7 5 7 17v482q0 12 -7 17q-22 15 -22 42q0 20 16 35t37 15h388q21 0 36 -15t15 -36t-15 -35.5
t-36 -14.5h-320q8 -7 8 -20zM344 780q-99 0 -141 75q-11 22 0.5 45t37.5 23q25 0 37 -22q24 -37 66 -37q40 0 62 37q14 22 38 22q25 0 37.5 -23t-0.5 -45q-42 -75 -137 -75z" />
    <glyph glyph-name="ebreve" unicode="&#x115;" horiz-adv-x="574" 
d="M293 425q-54 0 -96 -38.5t-49 -96.5h279q-6 57 -44 96t-90 39zM481 213h-333q11 -52 54 -87.5t95 -35.5q67 0 125 31q16 9 30 9q22 0 36.5 -12.5t14.5 -33.5q0 -32 -28 -46q-79 -43 -179 -43q-108 0 -181 78.5t-73 185.5t71.5 186.5t177.5 79.5q104 0 173.5 -77.5
t69.5 -183.5q0 -21 -15 -36t-38 -15zM289 600q-99 0 -141 75q-11 22 0.5 45t37.5 23q25 0 37 -22q24 -37 66 -37q40 0 62 37q14 22 38 22q25 0 37.5 -23t-0.5 -45q-42 -75 -137 -75z" />
    <glyph glyph-name="Edotaccent" unicode="&#x116;" horiz-adv-x="636" 
d="M215 579v-188h257q31 0 43 -25t-0.5 -50t-42.5 -25h-257v-170q0 -6 -2 -11t-4 -7l-2 -2h339q30 0 42.5 -25.5t0.5 -50.5t-43 -25h-407q-21 0 -37 15t-16 35q0 27 22 42q7 5 7 17v482q0 12 -7 17q-22 15 -22 42q0 20 16 35t37 15h388q21 0 36 -15t15 -36t-15 -35.5
t-36 -14.5h-320q8 -7 8 -20zM395 849q0 -27 -19.5 -46t-47.5 -19t-47.5 19t-19.5 46q0 26 19.5 45t47.5 19t47.5 -19t19.5 -45z" />
    <glyph glyph-name="edotaccent" unicode="&#x117;" horiz-adv-x="574" 
d="M293 425q-54 0 -96 -38.5t-49 -96.5h279q-6 57 -44 96t-90 39zM481 213h-333q11 -52 54 -87.5t95 -35.5q67 0 125 31q16 9 30 9q22 0 36.5 -12.5t14.5 -33.5q0 -32 -28 -46q-79 -43 -179 -43q-108 0 -181 78.5t-73 185.5t71.5 186.5t177.5 79.5q104 0 173.5 -77.5
t69.5 -183.5q0 -21 -15 -36t-38 -15zM354 665q0 -27 -19.5 -46t-47.5 -19t-47.5 19t-19.5 46q0 26 19.5 45t47.5 19t47.5 -19t19.5 -45z" />
    <glyph glyph-name="Eogonek" unicode="&#x118;" horiz-adv-x="636" 
d="M215 579v-188h257q31 0 43 -25t-0.5 -50t-42.5 -25h-257v-170q0 -6 -2 -11t-4 -7l-2 -2h339q30 0 42.5 -25.5t0.5 -50.5t-43 -25h-3q-26 -4 -26 -42q0 -17 13.5 -29t29.5 -12q17 0 25 -8t8 -24q0 -28 -32 -30q-100 0 -100 84q0 42 34 61h-356q-21 0 -37 15t-16 35
q0 27 22 42q7 5 7 17v482q0 12 -7 17q-22 15 -22 42q0 20 16 35t37 15h388q21 0 36 -15t15 -36t-15 -35.5t-36 -14.5h-320q8 -7 8 -20z" />
    <glyph glyph-name="eogonek" unicode="&#x119;" horiz-adv-x="574" 
d="M481 214h-333q16 -51 56 -84.5t88 -33.5q69 0 129 39q17 10 33 10q20 0 35 -16t15 -37q0 -14 -5 -24.5t-11 -14.5l-5 -4q-4 -3 -28 -17t-35 -25q-24 -26 -24 -50q0 -17 13.5 -29t31.5 -12q32 0 32 -32q0 -28 -31 -30q-100 0 -101 82q0 46 41 69q-17 -5 -32 -6
q-38 -4 -59 -4q-107 0 -178 78.5t-71 185.5t71.5 186.5t177.5 79.5q104 0 173.5 -77t69.5 -183q0 -20 -16.5 -35.5t-36.5 -15.5zM288 420q-51 0 -87.5 -36.5t-49.5 -93.5h279q-9 56 -49 93t-93 37z" />
    <glyph glyph-name="Ecaron" unicode="&#x11a;" horiz-adv-x="636" 
d="M215 579v-188h257q31 0 43 -25t-0.5 -50t-42.5 -25h-257v-170q0 -6 -2 -11t-4 -7l-2 -2h339q30 0 42.5 -25.5t0.5 -50.5t-43 -25h-407q-21 0 -37 15t-16 35q0 27 22 42q7 5 7 17v482q0 12 -7 17q-22 15 -22 42q0 20 16 35t37 15h388q21 0 36 -15t15 -36t-15 -35.5
t-36 -14.5h-320q8 -7 8 -20zM318 782q-20 0 -35 15l-83 84q-22 20 -4 44t43 8l79 -49l79 49q25 16 43 -8t-4 -44l-83 -84q-15 -15 -35 -15z" />
    <glyph glyph-name="ecaron" unicode="&#x11b;" horiz-adv-x="574" 
d="M293 425q-54 0 -96 -38.5t-49 -96.5h279q-6 57 -44 96t-90 39zM481 213h-333q11 -52 54 -87.5t95 -35.5q67 0 125 31q16 9 30 9q22 0 36.5 -12.5t14.5 -33.5q0 -32 -28 -46q-79 -43 -179 -43q-108 0 -181 78.5t-73 185.5t71.5 186.5t177.5 79.5q104 0 173.5 -77.5
t69.5 -183.5q0 -21 -15 -36t-38 -15zM287 599q-20 0 -35 15l-83 84q-22 20 -4 44t43 8l79 -49l79 49q25 16 43 -8t-4 -44l-83 -84q-15 -15 -35 -15z" />
    <glyph glyph-name="Gcircumflex" unicode="&#x11c;" horiz-adv-x="806" 
d="M696 131q-51 -67 -126.5 -104t-159.5 -37q-149 0 -253.5 105.5t-104.5 254.5t104 255q105 105 254 105q133 0 224 -78q19 -16 20 -37.5t-12.5 -35t-32 -18.5t-39.5 11q-74 58 -160 58q-106 0 -182 -77t-76 -183t76 -183t182 -77q115 0 196 92v83q0 6 2 10.5t4 6.5l1 1
h-152q-32 0 -45 25.5t0 50.5t45 25h237q21 0 36 -15t15 -35q0 -35 -31 -48q-12 -5 -12 -17v-106q0 -19 -10 -32zM407 938q20 0 35 -15l83 -84q22 -20 4 -44t-43 -8l-79 49l-79 -49q-25 -16 -43 8t4 44l83 84q15 15 35 15z" />
    <glyph glyph-name="gcircumflex" unicode="&#x11d;" horiz-adv-x="637" 
d="M528 520q22 0 37 -14t15 -37q0 -13 -4.5 -23t-9.5 -13l-4 -3q-9 -5 -9 -17v-322q0 -69 -21.5 -121t-59.5 -81.5t-84 -44t-100 -14.5q-107 0 -192 52q-24 14 -24 42q0 19 13.5 33t35.5 14q6 0 13 -2.5t16 -7t13 -5.5q62 -26 127 -26q72 0 114 44.5t42 125.5v14
q-54 -83 -167 -83q-103 0 -169 72t-66 179q0 106 65 174.5t171 68.5q122 0 173 -81q0 34 21 55t54 21zM297 131q74 0 115.5 40t41.5 108q0 71 -42 108.5t-118 37.5q-63 0 -106 -44.5t-43 -105.5q0 -63 40 -103.5t112 -40.5zM276 755q20 0 35 -15l83 -84q22 -20 4 -44t-43 -8
l-79 49l-79 -49q-25 -16 -43 8t4 44l83 84q15 15 35 15z" />
    <glyph glyph-name="Gbreve" unicode="&#x11e;" horiz-adv-x="806" 
d="M696 131q-51 -67 -126.5 -104t-159.5 -37q-149 0 -253.5 105.5t-104.5 254.5t104 255q105 105 254 105q133 0 224 -78q19 -16 20 -37.5t-12.5 -35t-32 -18.5t-39.5 11q-74 58 -160 58q-106 0 -182 -77t-76 -183t76 -183t182 -77q115 0 196 92v83q0 6 2 10.5t4 6.5l1 1
h-152q-32 0 -45 25.5t0 50.5t45 25h237q21 0 36 -15t15 -35q0 -35 -31 -48q-12 -5 -12 -17v-106q0 -19 -10 -32zM410 780q-99 0 -141 75q-11 22 0.5 45t37.5 23q25 0 37 -22q24 -37 66 -37q40 0 62 37q14 22 38 22q25 0 37.5 -23t-0.5 -45q-42 -75 -137 -75z" />
    <glyph glyph-name="gbreve" unicode="&#x11f;" horiz-adv-x="637" 
d="M528 520q22 0 37 -14t15 -37q0 -13 -4.5 -23t-9.5 -13l-4 -3q-9 -5 -9 -17v-322q0 -69 -21.5 -121t-59.5 -81.5t-84 -44t-100 -14.5q-107 0 -192 52q-24 14 -24 42q0 19 13.5 33t35.5 14q6 0 13 -2.5t16 -7t13 -5.5q62 -26 127 -26q72 0 114 44.5t42 125.5v14
q-54 -83 -167 -83q-103 0 -169 72t-66 179q0 106 65 174.5t171 68.5q122 0 173 -81q0 34 21 55t54 21zM297 131q74 0 115.5 40t41.5 108q0 71 -42 108.5t-118 37.5q-63 0 -106 -44.5t-43 -105.5q0 -63 40 -103.5t112 -40.5zM283 600q-99 0 -141 75q-11 22 0.5 45t37.5 23
q25 0 37 -22q24 -37 66 -37q40 0 62 37q14 22 38 22q25 0 37.5 -23t-0.5 -45q-42 -75 -137 -75z" />
    <glyph glyph-name="Gdotaccent" unicode="&#x120;" horiz-adv-x="806" 
d="M696 131q-51 -67 -126.5 -104t-159.5 -37q-149 0 -253.5 105.5t-104.5 254.5t104 255q105 105 254 105q133 0 224 -78q19 -16 20 -37.5t-12.5 -35t-32 -18.5t-39.5 11q-74 58 -160 58q-106 0 -182 -77t-76 -183t76 -183t182 -77q115 0 196 92v83q0 6 2 10.5t4 6.5l1 1
h-152q-32 0 -45 25.5t0 50.5t45 25h237q21 0 36 -15t15 -35q0 -35 -31 -48q-12 -5 -12 -17v-106q0 -19 -10 -32zM473 849q0 -27 -19.5 -46t-47.5 -19t-47.5 19t-19.5 46q0 26 19.5 45t47.5 19t47.5 -19t19.5 -45z" />
    <glyph glyph-name="gdotaccent" unicode="&#x121;" horiz-adv-x="637" 
d="M528 520q22 0 37 -14t15 -37q0 -13 -4.5 -23t-9.5 -13l-4 -3q-9 -5 -9 -17v-322q0 -69 -21.5 -121t-59.5 -81.5t-84 -44t-100 -14.5q-107 0 -192 52q-24 14 -24 42q0 19 13.5 33t35.5 14q6 0 13 -2.5t16 -7t13 -5.5q62 -26 127 -26q72 0 114 44.5t42 125.5v14
q-54 -83 -167 -83q-103 0 -169 72t-66 179q0 106 65 174.5t171 68.5q122 0 173 -81q0 34 21 55t54 21zM297 131q74 0 115.5 40t41.5 108q0 71 -42 108.5t-118 37.5q-63 0 -106 -44.5t-43 -105.5q0 -63 40 -103.5t112 -40.5zM350 665q0 -27 -19.5 -46t-47.5 -19t-47.5 19
t-19.5 46q0 26 19.5 45t47.5 19t47.5 -19t19.5 -45z" />
    <glyph glyph-name="Gcommaaccent" unicode="&#x122;" horiz-adv-x="806" 
d="M394 -144q-1 -22 -18 -43t-38 -33q-17 -11 -17 -26q0 -10 7.5 -17t18.5 -7q8 0 16 4q66 34 87 84q10 25 10 48q0 34 -20 61.5t-53 27.5q-23 0 -41 -15.5t-18 -38.5q0 -21 14.5 -35t35.5 -14q6 0 16 4zM696 131q-51 -67 -126.5 -104t-159.5 -37q-149 0 -253.5 105.5
t-104.5 254.5t104 255q105 105 254 105q133 0 224 -78q19 -16 20 -37.5t-12.5 -35t-32 -18.5t-39.5 11q-74 58 -160 58q-106 0 -182 -77t-76 -183t76 -183t182 -77q115 0 196 92v83q0 6 2 10.5t4 6.5l1 1h-152q-32 0 -45 25.5t0 50.5t45 25h237q21 0 36 -15t15 -35
q0 -35 -31 -48q-12 -5 -12 -17v-106q0 -19 -10 -32z" />
    <glyph glyph-name="gcommaaccent" unicode="&#x123;" horiz-adv-x="637" 
d="M280 678q10 4 16 4q21 0 35.5 -14t14.5 -35q0 -23 -18 -38.5t-41 -15.5q-33 0 -53 27.5t-20 61.5q0 23 10 48q21 50 87 84q8 4 16 4q16 0 23 -13q3 -6 3 -11q0 -15 -17 -26q-21 -12 -38 -33t-18 -43zM528 520q22 0 37 -14t15 -37q0 -13 -4.5 -23t-9.5 -13l-4 -3
q-9 -5 -9 -17v-322q0 -69 -21.5 -121t-59.5 -81.5t-84 -44t-100 -14.5q-107 0 -192 52q-24 14 -24 42q0 19 13.5 33t35.5 14q6 0 13 -2.5t16 -7t13 -5.5q62 -26 127 -26q72 0 114 44.5t42 125.5v14q-54 -83 -167 -83q-103 0 -169 72t-66 179q0 106 65 174.5t171 68.5
q122 0 173 -81q0 34 21 55t54 21zM297 131q74 0 115.5 40t41.5 108q0 71 -42 108.5t-118 37.5q-63 0 -106 -44.5t-43 -105.5q0 -63 40 -103.5t112 -40.5z" />
    <glyph glyph-name="Hcircumflex" unicode="&#x124;" horiz-adv-x="809" 
d="M672 700q22 0 36.5 -14t14.5 -37q0 -28 -17 -39q-9 -5 -9 -17v-486q0 -12 9 -17q17 -11 17 -39q0 -23 -14.5 -37t-36.5 -14q-33 0 -54 21t-21 55v216h-385v-216q0 -34 -21 -55t-54 -21q-22 0 -36.5 14t-14.5 37q0 28 17 39q9 5 9 17v486q0 12 -9 17q-17 11 -17 39
q0 23 14.5 37t36.5 14q33 0 54 -21t21 -55v-231h385v231q0 34 21 55t54 21zM404 938q20 0 35 -15l83 -84q22 -20 4 -44t-43 -8l-79 49l-79 -49q-25 -16 -43 8t4 44l83 84q15 15 35 15z" />
    <glyph glyph-name="hcircumflex" unicode="&#x125;" horiz-adv-x="618" 
d="M79 732q33 0 54 -21t21 -55v-207q20 33 62 52t79 19q112 0 171.5 -60t59.5 -181v-172q0 -12 9 -17q18 -9 18 -39q0 -23 -15 -37t-37 -14q-33 0 -54 21t-21 55v209q0 63 -37 99.5t-100 36.5q-55 0 -95 -39t-40 -92v-214q0 -34 -21 -55t-54 -21q-22 0 -37 14t-15 37
q0 13 4.5 23t8.5 13l5 3q9 5 9 17v518q0 12 -9 17q-18 9 -18 39q0 23 15 37t37 14zM88 938q20 0 35 -15l83 -84q22 -20 4 -44t-43 -8l-79 49l-79 -49q-25 -16 -43 8t4 44l83 84q15 15 35 15z" />
    <glyph glyph-name="Hbar" unicode="&#x126;" horiz-adv-x="834" 
d="M684 700q22 0 36.5 -14t14.5 -37q0 -28 -17 -39q-9 -5 -9 -17v-26h56q13 0 22.5 -10t9.5 -23q0 -14 -9.5 -23.5t-22.5 -9.5h-56v-394q0 -12 9 -17q17 -11 17 -39q0 -23 -14.5 -37t-36.5 -14q-33 0 -54 21t-21 55v216h-385v-216q0 -34 -21 -55t-54 -21q-22 0 -36.5 14
t-14.5 37q0 28 17 39q9 5 9 17v394h-55q-13 0 -22.5 9.5t-9.5 23.5q0 13 9.5 23t22.5 10h55v26q0 12 -9 17q-17 11 -17 39q0 23 14.5 37t36.5 14q33 0 54 -21t21 -55v-57h385v57q0 34 21 55t54 21zM609 501h-385v-108h385v108z" />
    <glyph glyph-name="hbar" unicode="&#x127;" horiz-adv-x="686" 
d="M147 732q33 0 54 -21t21 -55v-32h70q13 0 22.5 -9.5t9.5 -23.5q0 -13 -9 -22.5t-23 -9.5h-70v-101q21 28 63 44.5t78 16.5q112 0 171.5 -60t59.5 -181v-171q0 -12 9 -17q18 -9 18 -39q0 -23 -15 -37t-37 -14q-33 0 -54 21t-21 55v208q0 63 -37 99.5t-100 36.5
q-55 0 -95 -39t-40 -92v-213q0 -34 -21 -55t-54 -21q-22 0 -37 14t-15 37q0 13 4.5 23t8.5 13l5 3q9 5 9 17v452h-35q-13 0 -22.5 9.5t-9.5 22.5t8 23t20 10h39v1q0 12 -9 17q-18 9 -18 39q0 23 15 37t37 14z" />
    <glyph glyph-name="Itilde" unicode="&#x128;" horiz-adv-x="284" 
d="M142 0q-21 0 -35.5 15t-14.5 35v600q0 21 14.5 35.5t35.5 14.5q20 0 35 -14.5t15 -35.5v-600q0 -20 -15 -35t-35 -15zM-20 851q36 80 105 83q30 -1 69 -26t52 -25t23 24q10 23 37 23q25 0 36.5 -21.5t2.5 -42.5q-39 -73 -94 -73q-27 0 -69 26.5t-56 26.5q-12 0 -26 -27
t-40 -27q-22 0 -35.5 20t-4.5 39z" />
    <glyph glyph-name="itilde" unicode="&#x129;" horiz-adv-x="263" 
d="M188 90q18 -9 18 -39q0 -23 -15 -37t-37 -14q-33 0 -54 21t-21 55v336q0 12 -9 17q-18 9 -18 39q0 23 15 37t37 14q33 0 54 -21t21 -55v-336q0 -12 9 -17zM-31 667q36 80 105 83q30 -1 69 -26t52 -25t23 24q10 23 37 23q25 0 36.5 -21.5t2.5 -42.5q-39 -73 -94 -73
q-27 0 -69 26.5t-56 26.5q-13 0 -26 -27t-40 -27q-22 0 -35.5 20t-4.5 39z" />
    <glyph glyph-name="Imacron" unicode="&#x12a;" horiz-adv-x="284" 
d="M142 0q-21 0 -35.5 15t-14.5 35v600q0 21 14.5 35.5t35.5 14.5q20 0 35 -14.5t15 -35.5v-600q0 -20 -15 -35t-35 -15zM-8 811q0 15 11.5 26.5t27.5 11.5h222q16 0 27.5 -11.5t11.5 -26.5q0 -16 -11.5 -27t-27.5 -11h-222q-17 0 -28 11t-11 27z" />
    <glyph glyph-name="imacron" unicode="&#x12b;" horiz-adv-x="263" 
d="M188 90q18 -9 18 -39q0 -23 -15 -37t-37 -14q-33 0 -54 21t-21 55v336q0 12 -9 17q-18 9 -18 39q0 23 15 37t37 14q33 0 54 -21t21 -55v-336q0 -12 9 -17zM-6 631q0 15 11.5 26.5t27.5 11.5h162q16 0 27.5 -11.5t11.5 -26.5q0 -16 -11.5 -27t-27.5 -11h-162q-17 0 -28 11
t-11 27z" />
    <glyph glyph-name="Ibreve" unicode="&#x12c;" horiz-adv-x="284" 
d="M142 0q-21 0 -35.5 15t-14.5 35v600q0 21 14.5 35.5t35.5 14.5q20 0 35 -14.5t15 -35.5v-600q0 -20 -15 -35t-35 -15zM144 780q-99 0 -141 75q-11 22 0.5 45t37.5 23q25 0 37 -22q24 -37 66 -37q40 0 62 37q14 22 38 22q25 0 37.5 -23t-0.5 -45q-42 -75 -137 -75z" />
    <glyph glyph-name="ibreve" unicode="&#x12d;" horiz-adv-x="263" 
d="M188 90q18 -9 18 -39q0 -23 -15 -37t-37 -14q-33 0 -54 21t-21 55v336q0 12 -9 17q-18 9 -18 39q0 23 15 37t37 14q33 0 54 -21t21 -55v-336q0 -12 9 -17zM120 600q-89 0 -131 75q-5 10 -5 24q0 19 12.5 31.5t30.5 12.5q25 0 37 -22q9 -14 13.5 -19.5t16 -11.5t26.5 -6
t26 6.5t14 10.5t12 20q14 22 38 22q18 0 30.5 -12.5t12.5 -31.5q0 -14 -6 -24q-42 -75 -127 -75z" />
    <glyph glyph-name="Iogonek" unicode="&#x12e;" horiz-adv-x="284" 
d="M58 -61q0 54 54 70q-20 15 -20 41v603q0 21 14.5 35.5t35.5 14.5q20 0 35 -14.5t15 -35.5v-603q0 -20 -15 -35t-35 -15q-28 -3 -28 -42q0 -17 13.5 -29t29.5 -12q17 0 25 -8t8 -24q0 -28 -32 -30q-100 0 -100 84z" />
    <glyph glyph-name="iogonek" unicode="&#x12f;" horiz-adv-x="263" 
d="M188 90q18 -9 18 -39q0 -22 -14 -36t-35 -15h-9q-28 -3 -28 -42q0 -17 13.5 -29t29.5 -12q17 0 25 -8t8 -24q0 -28 -32 -30q-100 0 -100 84q0 25 15 43.5t38 25.5h1q-39 20 -39 68v336q0 12 -9 17q-18 9 -18 39q0 23 15 37t37 14q33 0 54 -21t21 -55v-336q0 -12 9 -17z
M117 625q-26 0 -44 18.5t-18 44.5t18.5 44t43.5 18q26 0 44.5 -18t18.5 -44t-18.5 -44.5t-44.5 -18.5z" />
    <glyph glyph-name="Idotaccent" unicode="&#x130;" horiz-adv-x="284" 
d="M142 0q-21 0 -35.5 15t-14.5 35v600q0 21 14.5 35.5t35.5 14.5q20 0 35 -14.5t15 -35.5v-600q0 -20 -15 -35t-35 -15zM209 849q0 -27 -19.5 -46t-47.5 -19t-47.5 19t-19.5 46q0 26 19.5 45t47.5 19t47.5 -19t19.5 -45z" />
    <glyph glyph-name="dotlessi" unicode="&#x131;" horiz-adv-x="263" 
d="M188 90q18 -9 18 -39q0 -23 -15 -37t-37 -14q-33 0 -54 21t-21 55v336q0 12 -9 17q-18 9 -18 39q0 23 15 37t37 14q33 0 54 -21t21 -55v-336q0 -12 9 -17z" />
    <glyph glyph-name="Jcircumflex" unicode="&#x134;" horiz-adv-x="679" 
d="M485 700q22 0 36.5 -14t14.5 -37q0 -31 -17 -39q-9 -5 -9 -17v-353q0 -109 -59.5 -174.5t-157.5 -65.5q-122 0 -195 98q-13 15 -12.5 36t13.5 34q14 15 36 13.5t35 -18.5q51 -69 125 -69q56 0 85.5 42t29.5 103v385q0 34 21 55t54 21zM461 938q20 0 35 -15l83 -84
q22 -20 4 -44t-43 -8l-79 49l-79 -49q-25 -16 -43 8t4 44l83 84q15 15 35 15z" />
    <glyph glyph-name="jcircumflex" unicode="&#x135;" horiz-adv-x="270" 
d="M35 -74q20 0 31 17.5t11 36.5v462q0 34 21 55t54 21q22 0 37 -14t15 -37q0 -13 -4.5 -23t-9.5 -13l-4 -3q-9 -5 -9 -17v-433q0 -66 -37 -106q-36 -41 -99 -42h-12q-23 0 -37.5 14t-14.5 36q0 21 13.5 33.5t34.5 12.5h10zM133 755q20 0 35 -15l83 -84q22 -20 4 -44t-43 -8
l-79 49l-79 -49q-25 -16 -43 8t4 44l83 84q15 15 35 15z" />
    <glyph glyph-name="Kcommaaccent" unicode="&#x136;" horiz-adv-x="699" 
d="M336 -150q-1 -23 -18.5 -45.5t-39.5 -35.5q-18 -12 -18 -28q0 -11 7.5 -18.5t18.5 -7.5q8 0 18 5q69 37 90 89q11 25 11 52q0 36 -20.5 65t-55.5 29q-24 0 -43 -16.5t-19 -40.5q0 -23 17 -40q13 -13 35 -13q9 0 17 5zM138 700q33 0 54 -21t21 -55v-199l-3 -82l72 82
l197 206q7 9 6 21q-2 20 14.5 34t37.5 14q24 0 40 -16.5t16 -43.5q0 -36 -27 -65l-181 -189l215 -274q6 -8 13 -7q21 1 35 -13t14 -38t-19.5 -39t-45.5 -15q-39 3 -65 35l-218 277l-101 -105v-131q0 -34 -21 -55t-54 -21q-22 0 -36.5 14t-14.5 37q0 28 17 39q9 5 9 17v486
q0 12 -9 17q-18 11 -18 39q0 23 15 37t37 14z" />
    <glyph glyph-name="kcommaaccent" unicode="&#x137;" horiz-adv-x="518" 
d="M240 -150q-1 -23 -18.5 -45.5t-39.5 -35.5q-18 -12 -18 -28q0 -11 7.5 -18.5t18.5 -7.5q8 0 18 5q101 54 101 141q0 28 -14 54q-22 40 -62 40q-24 0 -43 -16.5t-19 -40.5q0 -23 17 -40q13 -13 35 -13q9 0 17 5zM464 16q-20 -16 -46 -16q-36 0 -62 32l-126 162l-46 -46
v-72q0 -34 -21 -55t-54 -21q-22 0 -37 14t-15 37q0 13 4.5 23t8.5 13l5 3q9 5 9 17v518q0 12 -9 17q-18 9 -18 39q0 23 15 37t37 14q33 0 54 -21t21 -55v-294l-3 -82l75 82l84 84q9 9 6 19q-8 20 13 41q14 14 36 14q25 0 40 -14q24 -23 23 -53.5t-25 -54.5l-132 -133
l114 -147q8 -10 19 -10q20 2 37 -18q14 -19 11.5 -40t-18.5 -34z" />
    <glyph glyph-name="kgreenlandic" unicode="&#x138;" horiz-adv-x="518" 
d="M464 16q-20 -16 -46 -16q-36 0 -62 32l-126 162l-46 -46v-72q0 -34 -21 -55t-54 -21q-22 0 -37 14t-15 37q0 13 4.5 23t8.5 13l5 3q9 5 9 17v305q0 12 -9 17q-18 9 -18 39q0 23 15 37t37 14q33 0 54 -21t21 -55v-81l-3 -82l74 81l84 84q9 9 6 19q-8 20 13 41q14 14 36 14
q25 0 40 -14q24 -23 23 -53.5t-25 -54.5l-131 -132l114 -147q8 -10 19 -10q20 2 37 -18q14 -19 11.5 -40t-18.5 -34z" />
    <glyph glyph-name="Lacute" unicode="&#x139;" horiz-adv-x="563" 
d="M482 0h-375q-21 0 -37 15t-16 35q0 27 22 42q7 5 7 17v484q0 12 -9 17q-17 12 -17 39q0 23 15.5 37t37.5 14q33 0 53 -20.5t20 -54.5v-504q0 -6 -2 -11t-4 -7l-2 -2h307q21 0 36 -14t14 -37q-1 -21 -15.5 -35.5t-34.5 -14.5zM205 850l-134 -61q-27 -13 -40.5 10t7.5 42
l113 94q11 10 26 10q23 0 37.5 -16t14.5 -39q0 -29 -24 -40z" />
    <glyph glyph-name="lacute" unicode="&#x13a;" horiz-adv-x="245" 
d="M166 90q18 -9 18 -39q0 -23 -15 -37t-37 -14q-33 0 -54 21t-21 55v549q0 12 -9 17q-18 9 -18 39q0 23 15 37t37 14q33 0 54 -21t21 -55v-549q0 -12 9 -17zM175 850l-134 -61q-27 -13 -40.5 10t7.5 42l113 94q11 10 26 10q23 0 37.5 -16t14.5 -39q0 -29 -24 -40z" />
    <glyph glyph-name="Lcommaaccent" unicode="&#x13b;" horiz-adv-x="595" 
d="M314 -150q-1 -23 -18.5 -45.5t-39.5 -35.5q-18 -12 -18 -28q0 -11 7.5 -18.5t18.5 -7.5q8 0 18 5q69 37 90 89q11 25 11 52q0 36 -20.5 65t-55.5 29q-24 0 -43 -16.5t-19 -40.5q0 -23 17 -40q13 -13 35 -13q9 0 17 5zM514 0h-375q-21 0 -37 15t-16 35q0 27 22 42
q7 5 7 17v484q0 12 -9 17q-17 12 -17 39q0 23 15.5 37t37.5 14q33 0 53 -20.5t20 -54.5v-504q0 -6 -2 -11t-4 -7l-2 -2h307q21 0 36 -14t14 -37q-1 -21 -15.5 -35.5t-34.5 -14.5z" />
    <glyph glyph-name="lcommaaccent" unicode="&#x13c;" horiz-adv-x="275" 
d="M140 -150q-1 -23 -18.5 -45.5t-39.5 -35.5q-18 -12 -18 -28q0 -11 7.5 -18.5t18.5 -7.5q8 0 18 5q69 37 90 89q11 25 11 52q0 28 -14 54q-22 40 -62 40q-24 0 -43 -16.5t-19 -40.5q0 -23 17 -40q13 -13 35 -13q9 0 17 5zM187 90q18 -9 18 -39q0 -23 -15 -37t-37 -14
q-33 0 -54 21t-21 55v549q0 12 -9 17q-18 9 -18 39q0 23 15 37t37 14q33 0 54 -21t21 -55v-549q0 -12 9 -17z" />
    <glyph glyph-name="Lcaron" unicode="&#x13d;" horiz-adv-x="595" 
d="M379 663q10 -62 -11.5 -105t-74.5 -95q-15 -15 -31 -2.5t-2 33.5q43 68 36 157q-2 21 9.5 35t31.5 14q16 0 28 -10.5t14 -26.5zM514 0h-375q-21 0 -37 15t-16 35q0 27 22 42q7 5 7 17v484q0 12 -9 17q-17 12 -17 39q0 23 15.5 37t37.5 14q33 0 53 -20.5t20 -54.5v-504
q0 -6 -2 -11t-4 -7l-2 -2h307q21 0 36 -14t14 -37q-1 -21 -15.5 -35.5t-34.5 -14.5z" />
    <glyph glyph-name="lcaron" unicode="&#x13e;" horiz-adv-x="407" 
d="M349 697q3 -19 3 -37q0 -47 -22 -83t-67 -80q-6 -6 -15 -6q-10 0 -16.5 7t-6.5 16q0 7 5 14q37 58 37 128q0 19 -1 29v6q0 18 11.5 30.5t29.5 12.5q16 0 28 -10.5t14 -26.5zM188 90q18 -9 18 -39q0 -23 -15 -37t-37 -14q-33 0 -54 21t-21 55v549q0 12 -9 17q-18 9 -18 39
q0 23 15 37t37 14q33 0 54 -21t21 -55v-549q0 -12 9 -17z" />
    <glyph glyph-name="Ldot" unicode="&#x13f;" horiz-adv-x="595" 
d="M514 0h-375q-21 0 -37 15t-16 35q0 27 22 42q7 5 7 17v484q0 12 -9 17q-17 12 -17 39q0 23 15.5 37t37.5 14q33 0 53 -20.5t20 -54.5v-504q0 -6 -2 -11t-4 -7l-2 -2h307q21 0 36 -14t14 -37q-1 -21 -15.5 -35.5t-34.5 -14.5zM381 398q-22 0 -38 -16t-16 -39
q0 -22 16 -37.5t38 -15.5t38 15.5t16 37.5q0 23 -16 39t-38 16z" />
    <glyph glyph-name="ldot" unicode="&#x140;" horiz-adv-x="394" 
d="M188 90q18 -9 18 -39q0 -23 -15 -37t-37 -14q-33 0 -54 21t-21 55v549q0 12 -9 17q-18 9 -18 39q0 23 15 37t37 14q33 0 54 -21t21 -55v-549q0 -12 9 -17zM300 398q-22 0 -38 -16t-16 -39q0 -22 16 -37.5t38 -15.5t38 15.5t16 37.5q0 23 -16 39t-38 16z" />
    <glyph glyph-name="Lslash" unicode="&#x141;" horiz-adv-x="581" 
d="M126 700q33 0 54 -21t21 -55v-235l88 36q17 8 30 -2.5t12 -27.5t-18 -25l-112 -47v-204q0 -6 -1.5 -10.5t-3.5 -6.5l-2 -1h307q20 0 35 -15.5t15 -35.5q0 -21 -15 -35.5t-35 -14.5h-392q-21 0 -36 15t-15 35q0 35 31 48q12 5 12 17v166l-21 -9q-19 -8 -32 3t-10.5 28.5
t20.5 25.5l43 18v246q0 12 -9 17q-19 10 -19 39q0 23 15.5 37t37.5 14z" />
    <glyph glyph-name="lslash" unicode="&#x142;" horiz-adv-x="371" 
d="M242 90q18 -9 18 -39q0 -23 -15 -37t-37 -14q-33 0 -54 21t-21 55v249l-49 -15q-25 -6 -31 16.5t17 30.5l63 19v249q0 12 -9 17q-18 9 -18 39q0 23 15 37t37 14q33 0 54 -21t21 -55v-248l47 15q17 6 27.5 -3.5t7.5 -23t-20 -19.5l-62 -19v-251q0 -12 9 -17z" />
    <glyph glyph-name="Nacute" unicode="&#x143;" horiz-adv-x="782" 
d="M645 0q-37 0 -69 39l-313 379l-51 75h-1l3 -75v-341q0 -34 -21 -55.5t-54 -21.5q-22 0 -37 14.5t-15 37.5q0 26 18 39q9 5 9 17v487q0 12 -5 14q-23 12 -23 42q0 22 15 35.5t36 13.5q37 0 69 -39l313 -379l51 -75h1l-3 75v338q0 38 20.5 59t54.5 21q22 0 37 -14t15 -37
q0 -29 -18 -39q-9 -5 -9 -17v-488q0 -12 5 -14q23 -12 23 -42q0 -22 -15 -35.5t-36 -13.5zM469 850l-134 -61q-27 -13 -40.5 10t7.5 42l113 94q11 10 26 10q23 0 37.5 -16t14.5 -39q0 -29 -24 -40z" />
    <glyph glyph-name="nacute" unicode="&#x144;" 
d="M455 76v213q0 63 -36.5 99.5t-99.5 36.5q-56 0 -95.5 -40.5t-39.5 -90.5v-218q0 -34 -21 -55t-54 -21q-22 0 -37 14t-15 37q0 13 4.5 23t8.5 13l5 3q9 5 9 17v306q0 12 -9 17q-18 9 -18 39q0 23 15 37t37 14q31 0 51 -18.5t23 -48.5q24 30 65.5 51t77.5 21
q120 0 174.5 -59t54.5 -183v-176q0 -12 9 -17q18 -9 18 -39q0 -23 -15 -37t-37 -14q-33 0 -54 21t-21 55zM408 666l-134 -61q-27 -13 -40.5 10t7.5 42l113 94q11 10 26 10q23 0 37.5 -16t14.5 -39q0 -29 -24 -40z" />
    <glyph glyph-name="Ncommaaccent" unicode="&#x145;" horiz-adv-x="782" 
d="M348 -150q-1 -23 -18.5 -45.5t-39.5 -35.5q-27 -19 -15 -40q14 -23 41 -9q69 37 90 89q24 57 -3 106q-22 40 -62 40q-24 0 -43 -16.5t-19 -40.5q0 -23 17 -40q13 -13 35 -13q9 0 17 5zM645 0q-37 0 -69 39l-313 379l-51 75h-1l3 -75v-341q0 -34 -21 -55.5t-54 -21.5
q-22 0 -37 14.5t-15 37.5q0 26 18 39q9 5 9 17v487q0 12 -5 14q-23 12 -23 42q0 22 15 35.5t36 13.5q37 0 69 -39l313 -379l51 -75h1l-3 75v338q0 38 20.5 59t54.5 21q22 0 37 -14t15 -37q0 -29 -18 -39q-9 -5 -9 -17v-488q0 -12 5 -14q23 -12 23 -42q0 -22 -15 -35.5
t-36 -13.5z" />
    <glyph glyph-name="ncommaaccent" unicode="&#x146;" 
d="M318 -144q-1 -22 -17.5 -43.5t-37.5 -33.5q-25 -14 -13 -36t37 -9q42 21 69.5 55.5t27.5 76.5q0 37 -19.5 63t-53.5 26q-23 0 -41 -15.5t-18 -38.5q0 -21 14.5 -35t35.5 -14q9 0 16 4zM455 76v213q0 63 -36.5 99.5t-99.5 36.5q-56 0 -95.5 -40.5t-39.5 -90.5v-218
q0 -34 -21 -55t-54 -21q-22 0 -37 14t-15 37q0 13 4.5 23t8.5 13l5 3q9 5 9 17v306q0 12 -9 17q-18 9 -18 39q0 23 15 37t37 14q31 0 51 -18.5t23 -48.5q24 30 65.5 51t77.5 21q120 0 174.5 -59t54.5 -183v-176q0 -12 9 -17q18 -9 18 -39q0 -23 -15 -37t-37 -14
q-33 0 -54 21t-21 55z" />
    <glyph glyph-name="Ncaron" unicode="&#x147;" horiz-adv-x="782" 
d="M645 0q-37 0 -69 39l-313 379l-51 75h-1l3 -75v-341q0 -34 -21 -55.5t-54 -21.5q-22 0 -37 14.5t-15 37.5q0 26 18 39q9 5 9 17v487q0 12 -5 14q-23 12 -23 42q0 22 15 35.5t36 13.5q37 0 69 -39l313 -379l51 -75h1l-3 75v338q0 38 20.5 59t54.5 21q22 0 37 -14t15 -37
q0 -29 -18 -39q-9 -5 -9 -17v-488q0 -12 5 -14q23 -12 23 -42q0 -22 -15 -35.5t-36 -13.5zM391 782q-20 0 -35 15l-83 84q-22 20 -4 44t43 8l79 -49l79 49q25 16 43 -8t-4 -44l-83 -84q-15 -15 -35 -15z" />
    <glyph glyph-name="ncaron" unicode="&#x148;" 
d="M455 76v213q0 63 -36.5 99.5t-99.5 36.5q-56 0 -95.5 -40.5t-39.5 -90.5v-218q0 -34 -21 -55t-54 -21q-22 0 -37 14t-15 37q0 13 4.5 23t8.5 13l5 3q9 5 9 17v306q0 12 -9 17q-18 9 -18 39q0 23 15 37t37 14q31 0 51 -18.5t23 -48.5q24 30 65.5 51t77.5 21
q120 0 174.5 -59t54.5 -183v-176q0 -12 9 -17q18 -9 18 -39q0 -23 -15 -37t-37 -14q-33 0 -54 21t-21 55zM329 599q-20 0 -35 15l-83 84q-22 20 -4 44t43 8l79 -49l79 49q25 16 43 -8t-4 -44l-83 -84q-15 -15 -35 -15z" />
    <glyph glyph-name="Eng" unicode="&#x14a;" horiz-adv-x="782" 
d="M138 700q37 0 69 -39l309 -416l56 -82l-3 82v375q0 38 20.5 59t54.5 21q22 0 36.5 -14t14.5 -37q0 -30 -17 -39q-9 -5 -9 -17v-616q-2 -67 -37 -107t-99 -40h-11q-24 1 -38 14t-14 35q0 19 14 32t34 13h10q19 0 29.5 17t10.5 38v22l-308 418l-48 72l3 -72v-343
q0 -34 -21 -55t-54 -21q-22 0 -36.5 14t-14.5 37q0 30 17 39q9 5 9 17v488q0 12 -5 14q-23 12 -23 42q0 22 15 35.5t36 13.5z" />
    <glyph glyph-name="eng" unicode="&#x14b;" horiz-adv-x="602" 
d="M555 -24q-2 -67 -36 -106.5t-99 -39.5h-11q-23 0 -37 14t-14 36q0 19 13.5 31.5t33.5 12.5h10q20 0 30 16.5t10 37.5v306q0 63 -36.5 99.5t-99.5 36.5q-57 0 -96 -36.5t-39 -89.5v-218q0 -34 -21 -55t-54 -21q-22 0 -37 14t-15 37q0 13 4.5 23t8.5 13l5 3q9 5 9 17v306
q0 12 -9 17q-18 9 -18 39q0 23 15 37t37 14q31 0 51 -18.5t23 -48.5q24 29 65 48t78 19q120 0 174.5 -59t54.5 -183v-302z" />
    <glyph glyph-name="Omacron" unicode="&#x14c;" horiz-adv-x="830" 
d="M414 609q107 0 183.5 -76t76.5 -182q0 -107 -75.5 -183t-182.5 -76t-183 76t-76 183q0 106 75.5 182t181.5 76zM416 -10q145 0 252 107.5t107 253.5q0 145 -106.5 252t-252.5 107t-253.5 -107t-107.5 -252t102.5 -253t258.5 -108zM265 811q0 15 11.5 26.5t27.5 11.5h222
q16 0 27.5 -11.5t11.5 -26.5q0 -16 -11.5 -27t-27.5 -11h-222q-17 0 -28 11t-11 27z" />
    <glyph glyph-name="omacron" unicode="&#x14d;" horiz-adv-x="614" 
d="M307 425q-68 0 -116.5 -48t-48.5 -117q0 -68 48.5 -116.5t116.5 -48.5t116.5 48.5t48.5 116.5q0 69 -48.5 117t-116.5 48zM307 -5q-109 0 -187 78t-78 187t78 187t187 78t187 -77.5t78 -187.5q0 -109 -78 -187t-187 -78zM157 631q0 15 11.5 26.5t27.5 11.5h222
q16 0 27.5 -11.5t11.5 -26.5q0 -16 -11.5 -27t-27.5 -11h-222q-17 0 -28 11t-11 27z" />
    <glyph glyph-name="Obreve" unicode="&#x14e;" horiz-adv-x="830" 
d="M414 609q107 0 183.5 -76t76.5 -182q0 -107 -75.5 -183t-182.5 -76t-183 76t-76 183q0 106 75.5 182t181.5 76zM416 -10q145 0 252 107.5t107 253.5q0 145 -106.5 252t-252.5 107t-253.5 -107t-107.5 -252t102.5 -253t258.5 -108zM417 780q-99 0 -141 75q-11 22 0.5 45
t37.5 23q25 0 37 -22q24 -37 66 -37q40 0 62 37q14 22 38 22q25 0 37.5 -23t-0.5 -45q-42 -75 -137 -75z" />
    <glyph glyph-name="obreve" unicode="&#x14f;" horiz-adv-x="614" 
d="M307 425q-68 0 -116.5 -48t-48.5 -117q0 -68 48.5 -116.5t116.5 -48.5t116.5 48.5t48.5 116.5q0 69 -48.5 117t-116.5 48zM307 -5q-109 0 -187 78t-78 187t78 187t187 78t187 -77.5t78 -187.5q0 -109 -78 -187t-187 -78zM309 600q-99 0 -141 75q-11 22 0.5 45t37.5 23
q25 0 37 -22q24 -37 66 -37q40 0 62 37q14 22 38 22q25 0 37.5 -23t-0.5 -45q-42 -75 -137 -75z" />
    <glyph glyph-name="Ohungarumlaut" unicode="&#x150;" horiz-adv-x="830" 
d="M414 609q107 0 183.5 -76t76.5 -182q0 -107 -75.5 -183t-182.5 -76t-183 76t-76 183q0 106 75.5 182t181.5 76zM416 -10q145 0 252 107.5t107 253.5q0 145 -106.5 252t-252.5 107t-253.5 -107t-107.5 -252t102.5 -253t258.5 -108zM404 874l-100 -86q-23 -19 -43 -1.5
t-3 43.5l72 110q12 19 34.5 21t36.5 -12q17 -14 19 -36.5t-16 -38.5zM578 874q18 16 16.5 38.5t-18.5 36.5q-15 13 -37.5 11t-34.5 -21l-71 -109q-17 -26 3 -43.5t43 1.5z" />
    <glyph glyph-name="ohungarumlaut" unicode="&#x151;" horiz-adv-x="614" 
d="M307 425q-68 0 -116.5 -48t-48.5 -117q0 -68 48.5 -116.5t116.5 -48.5t116.5 48.5t48.5 116.5q0 69 -48.5 117t-116.5 48zM307 -5q-109 0 -187 78t-78 187t78 187t187 78t187 -77.5t78 -187.5q0 -109 -78 -187t-187 -78zM288 694l-100 -86q-23 -19 -43 -1.5t-3 43.5
l72 110q12 19 34.5 21t36.5 -12q17 -14 19 -36.5t-16 -38.5zM462 694q18 16 16.5 38.5t-18.5 36.5q-15 13 -37.5 11t-34.5 -21l-71 -109q-17 -26 3 -43.5t43 1.5z" />
    <glyph glyph-name="OE" unicode="&#x152;" horiz-adv-x="1004" 
d="M403 0h-14q-135 0 -234.5 107.5t-99.5 242.5q0 138 104.5 244t245.5 106h489q21 0 36 -15t15 -36t-15 -35.5t-36 -14.5h-288q6 -4 6 -30v-178h227q19 0 34.5 -14.5t15.5 -34.5q0 -21 -14.5 -36t-35.5 -15h-227v-161q0 -25 -6 -30h307q20 0 35 -14.5t15 -35.5t-15 -35.5
t-35 -14.5h-510zM155 350q0 -104 73.5 -177t176.5 -73h93q14 0 14 14v470q0 15 -14 15h-93q-104 0 -177 -73t-73 -176z" />
    <glyph glyph-name="oe" unicode="&#x153;" horiz-adv-x="1066" 
d="M971 214h-333q16 -52 56 -85t88 -33q76 0 129 39q17 10 32 10q39 0 50 -37t-20 -59q-76 -54 -192 -54q-79 0 -139.5 44.5t-89.5 115.5q-1 0 -1 2q-30 -72 -96.5 -117t-147.5 -45q-109 0 -187 78t-78 187t78 187t187 78q81 0 147.5 -45.5t96.5 -118.5q29 73 90.5 118.5
t139.5 45.5q104 0 173.5 -77t69.5 -183q0 -20 -16.5 -35.5t-36.5 -15.5zM307 426q-68 0 -116.5 -48.5t-48.5 -117.5q0 -68 48.5 -117t116.5 -49t117 49t49 117q0 69 -49 117.5t-117 48.5zM783 426q-53 0 -93 -39.5t-49 -96.5h279q-7 58 -45.5 97t-91.5 39z" />
    <glyph glyph-name="Racute" unicode="&#x154;" horiz-adv-x="693" 
d="M115 108v483q0 12 -7 17q-22 15 -22 42q0 20 16 35t37 15h257q86 0 146 -60t60 -146q0 -64 -35.5 -116.5t-93.5 -76.5l114 -199q3 -6 12.5 -6.5t14.5 -3.5q22 -12 22 -40q0 -23 -17.5 -37.5t-40.5 -14.5q-47 0 -73 44l-140 242h-150v-209q0 -34 -21 -55.5t-54 -21.5
q-22 0 -37.5 15t-15.5 38q0 28 19 38q9 5 9 17zM215 579v-192h181q44 0 75 31.5t31 75.5t-31 74.5t-75 30.5h-189q8 -7 8 -20zM411 850l-134 -61q-27 -13 -40.5 10t7.5 42l113 94q11 10 26 10q23 0 37.5 -16t14.5 -39q0 -29 -24 -40z" />
    <glyph glyph-name="racute" unicode="&#x155;" horiz-adv-x="429" 
d="M109 520q30 0 50 -18.5t24 -48.5q18 29 49 47.5t62 19.5q50 0 85 -17q22 -11 26.5 -35t-9.5 -44t-39 -20l-20 4q-24 12 -54 12q-11 0 -23 -3.5t-31.5 -14t-32 -39t-12.5 -70.5v-217q0 -34 -21 -55t-54 -21q-22 0 -37 14t-15 37q0 13 4.5 23t8.5 13l5 3q9 5 9 17v306
q0 12 -9 17q-18 9 -18 39q0 23 15 37t37 14zM315 666l-134 -61q-27 -13 -40.5 10t7.5 42l113 94q11 10 26 10q23 0 37.5 -16t14.5 -39q0 -29 -24 -40z" />
    <glyph glyph-name="Rcommaaccent" unicode="&#x156;" horiz-adv-x="693" 
d="M326 -150q-1 -23 -18.5 -45.5t-39.5 -35.5q-18 -12 -18 -28q0 -11 7.5 -18.5t18.5 -7.5q8 0 18 5q101 54 101 141q0 36 -20.5 65t-55.5 29q-24 0 -43 -16.5t-19 -40.5q0 -22 15 -37.5t37 -15.5q9 0 17 5zM115 108v483q0 12 -7 17q-22 15 -22 42q0 20 16 35t37 15h257
q86 0 146 -60t60 -146q0 -64 -35.5 -116.5t-93.5 -76.5l114 -199q3 -6 12.5 -6.5t14.5 -3.5q22 -12 22 -40q0 -23 -17.5 -37.5t-40.5 -14.5q-47 0 -73 44l-140 242h-150v-209q0 -34 -21 -55.5t-54 -21.5q-22 0 -37.5 15t-15.5 38q0 28 19 38q9 5 9 17zM215 579v-192h181
q44 0 75 31.5t31 75.5t-31 74.5t-75 30.5h-189q8 -7 8 -20z" />
    <glyph glyph-name="rcommaaccent" unicode="&#x157;" horiz-adv-x="434" 
d="M130 -144q-1 -22 -18 -43t-38 -33q-17 -11 -17 -26q0 -10 7.5 -17t18.5 -7q8 0 16 4q42 21 69.5 55.5t27.5 76.5q0 34 -20 61.5t-53 27.5q-23 0 -41 -15.5t-18 -38.5q0 -22 16 -37q12 -12 34 -12q6 0 16 4zM114 520q30 0 50 -18.5t24 -48.5q18 29 49 47.5t62 19.5
q50 0 85 -17q22 -11 26.5 -35t-9.5 -44t-39 -20l-20 4q-24 12 -54 12q-11 0 -23 -3.5t-31.5 -14t-32 -39t-12.5 -70.5v-217q0 -34 -21 -55t-54 -21q-22 0 -37 14t-15 37q0 13 4.5 23t9.5 13l4 3q9 5 9 17v306q0 12 -9 17q-18 9 -18 39q0 23 15 37t37 14z" />
    <glyph glyph-name="Rcaron" unicode="&#x158;" horiz-adv-x="693" 
d="M115 108v483q0 12 -7 17q-22 15 -22 42q0 20 16 35t37 15h257q86 0 146 -60t60 -146q0 -64 -35.5 -116.5t-93.5 -76.5l114 -199q3 -6 12.5 -6.5t14.5 -3.5q22 -12 22 -40q0 -23 -17.5 -37.5t-40.5 -14.5q-47 0 -73 44l-140 242h-150v-209q0 -34 -21 -55.5t-54 -21.5
q-22 0 -37.5 15t-15.5 38q0 28 19 38q9 5 9 17zM215 579v-192h181q44 0 75 31.5t31 75.5t-31 74.5t-75 30.5h-189q8 -7 8 -20zM338 782q-20 0 -35 15l-83 84q-22 20 -4 44t43 8l79 -49l79 49q25 16 43 -8t-4 -44l-83 -84q-15 -15 -35 -15z" />
    <glyph glyph-name="rcaron" unicode="&#x159;" horiz-adv-x="429" 
d="M109 520q30 0 50 -18.5t24 -48.5q18 29 49 47.5t62 19.5q50 0 85 -17q22 -11 26.5 -35t-9.5 -44t-39 -20l-20 4q-24 12 -54 12q-11 0 -23 -3.5t-31.5 -14t-32 -39t-12.5 -70.5v-217q0 -34 -21 -55t-54 -21q-22 0 -37 14t-15 37q0 13 4.5 23t8.5 13l5 3q9 5 9 17v306
q0 12 -9 17q-18 9 -18 39q0 23 15 37t37 14zM238 599q-20 0 -35 15l-83 84q-22 20 -4 44t43 8l79 -49l79 49q25 16 43 -8t-4 -44l-83 -84q-15 -15 -35 -15z" />
    <glyph glyph-name="Sacute" unicode="&#x15a;" horiz-adv-x="573" 
d="M524 183q0 -41 -16 -74.5t-42 -55t-60 -36.5t-68 -21t-67 -6q-132 0 -203 68q-15 15 -15 38q0 19 13 33t33 14q19 0 36 -12q61 -41 134 -41q65 0 109.5 25t44.5 65q0 64 -112 105q-7 3 -45 16q-43 15 -66 24.5t-57 29t-51.5 40t-31 53t-13.5 72.5q0 82 72 136t168 54
q121 0 189 -63q18 -18 18 -38t-15 -35t-36 -15q-16 0 -29 10q-55 41 -127 41q-58 0 -99 -26t-41 -64q0 -24 12.5 -43.5t39.5 -35.5t47 -25t58 -23q39 -13 61 -22t56.5 -28t53.5 -38.5t34 -51.5t15 -70zM372 850l-134 -61q-27 -13 -40.5 10t7.5 42l113 94q11 10 26 10
q23 0 37.5 -16t14.5 -39q0 -29 -24 -40z" />
    <glyph glyph-name="sacute" unicode="&#x15b;" horiz-adv-x="445" 
d="M41 78q0 20 14 35t33 15q14 0 32 -11q33 -23 88 -23q20 0 38.5 3t36.5 16t18 35q0 16 -7 28t-23.5 20.5t-27.5 12.5t-33 11q-173 52 -173 155q0 70 57 110t131 40q77 0 134 -43q20 -15 20 -38q0 -22 -14 -36t-35 -14q-15 0 -27 7q-42 25 -85 25q-30 0 -55 -12t-25 -40
q0 -38 73 -61q39 -13 66 -24.5t59.5 -31.5t49.5 -48.5t17 -63.5q0 -70 -61.5 -110t-137.5 -40q-35 0 -70 7.5t-64 27t-29 48.5zM300 666l-134 -61q-27 -13 -40.5 10t7.5 42l113 94q11 10 26 10q23 0 37.5 -16t14.5 -39q0 -29 -24 -40z" />
    <glyph glyph-name="Scircumflex" unicode="&#x15c;" horiz-adv-x="572" 
d="M523 183q0 -41 -16 -74.5t-42 -55t-60 -36.5t-68 -21t-67 -6q-132 0 -203 68q-15 15 -15 38q0 19 13 33t33 14q19 0 36 -12q62 -41 134 -41q64 0 109 25t45 65q0 64 -112 105q-7 3 -45 16q-43 15 -66 24.5t-57 29t-51.5 40t-31 53t-13.5 72.5q0 82 72 136t168 54
q121 0 189 -63q18 -18 18 -38t-15 -35t-36 -15q-16 0 -29 10q-55 41 -127 41q-58 0 -99 -26t-41 -64q0 -24 12.5 -43.5t39.5 -35.5t47 -25t58 -23q39 -13 61 -22t56.5 -28t53.5 -38.5t34 -51.5t15 -70zM284 938q20 0 35 -15l83 -84q22 -20 4 -44t-43 -8l-79 49l-79 -49
q-25 -16 -43 8t4 44l83 84q15 15 35 15z" />
    <glyph glyph-name="scircumflex" unicode="&#x15d;" horiz-adv-x="445" 
d="M41 78q0 20 14 35t33 15q14 0 32 -11q33 -23 88 -23q20 0 38.5 3t36.5 16t18 35q0 16 -7 28t-23.5 20.5t-27.5 12.5t-33 11q-173 52 -173 155q0 70 57 110t131 40q77 0 134 -43q20 -15 20 -38q0 -22 -14 -36t-35 -14q-15 0 -27 7q-42 25 -85 25q-30 0 -55 -12t-25 -40
q0 -38 73 -61q39 -13 66 -24.5t59.5 -31.5t49.5 -48.5t17 -63.5q0 -70 -61.5 -110t-137.5 -40q-35 0 -70 7.5t-64 27t-29 48.5zM226 755q20 0 35 -15l83 -84q22 -20 4 -44t-43 -8l-79 49l-79 -49q-25 -16 -43 8t4 44l83 84q15 15 35 15z" />
    <glyph glyph-name="Scedilla" unicode="&#x15e;" horiz-adv-x="573" 
d="M524 183q0 -47 -21 -84t-56 -59t-73.5 -34t-79.5 -15l-3 -17q43 0 66.5 -20.5t23.5 -57.5q0 -44 -34.5 -67.5t-81.5 -23.5q-54 0 -88 34q-9 9 -9 22q0 12 9 22t22 10q11 0 21 -8q17 -15 41 -15q46 0 46 32q0 26 -46 31q-13 2 -21.5 10.5t-8.5 20.5q0 5 5 27
q-108 9 -168 67q-15 15 -15 38q0 19 13 33t33 14q19 0 36 -12q61 -41 134 -41q65 0 109.5 25t44.5 65q0 64 -112 105q-7 3 -45 16q-43 15 -66 24.5t-57 29t-51.5 40t-31 53t-13.5 72.5q0 82 72 136t168 54q121 0 189 -63q18 -18 18 -38t-15 -35t-36 -15q-16 0 -29 10
q-55 41 -127 41q-58 0 -99 -26t-41 -64q0 -24 12.5 -43.5t39.5 -35.5t47 -25t58 -23q39 -13 61 -22t56.5 -28t53.5 -38.5t34 -51.5t15 -70z" />
    <glyph glyph-name="scedilla" unicode="&#x15f;" horiz-adv-x="445" 
d="M41 78q0 20 14 35t33 15q14 0 32 -11q33 -23 88 -23q34 0 63.5 12t29.5 43q0 20 -14 35t-27 21t-42 15t-35 11q-146 47 -146 144q0 70 57 110t131 40q72 0 134 -43q19 -12 19 -38q0 -32 -27 -44.5t-48 1.5q-42 25 -85 25q-30 0 -55 -12t-25 -40q0 -37 73 -60
q40 -14 66.5 -25t59 -31.5t49.5 -49t17 -63.5q0 -66 -55 -105.5t-127 -43.5l-4 -22q43 0 66.5 -20.5t23.5 -57.5q0 -44 -34.5 -67.5t-81.5 -23.5q-54 0 -88 34q-9 9 -9 22q0 12 9 22t22 10q11 0 21 -8q17 -15 41 -15q46 0 46 32q0 26 -46 31q-30 4 -30 33q0 4 6 32
q-50 6 -86 26t-36 54z" />
    <glyph glyph-name="Scaron" unicode="&#x160;" horiz-adv-x="573" 
d="M524 183q0 -41 -16 -74.5t-42 -55t-60 -36.5t-68 -21t-67 -6q-132 0 -203 68q-15 15 -15 38q0 19 13 33t33 14q19 0 36 -12q61 -41 134 -41q65 0 109.5 25t44.5 65q0 64 -112 105q-7 3 -45 16q-43 15 -66 24.5t-57 29t-51.5 40t-31 53t-13.5 72.5q0 82 72 136t168 54
q121 0 189 -63q18 -18 18 -38t-15 -35t-36 -15q-16 0 -29 10q-55 41 -127 41q-58 0 -99 -26t-41 -64q0 -24 12.5 -43.5t39.5 -35.5t47 -25t58 -23q39 -13 61 -22t56.5 -28t53.5 -38.5t34 -51.5t15 -70zM288 782q-20 0 -35 15l-83 84q-22 20 -4 44t43 8l79 -49l79 49
q25 16 43 -8t-4 -44l-83 -84q-15 -15 -35 -15z" />
    <glyph glyph-name="scaron" unicode="&#x161;" horiz-adv-x="445" 
d="M41 78q0 20 14 35t33 15q14 0 32 -11q33 -23 88 -23q20 0 38.5 3t36.5 16t18 35q0 16 -7 28t-23.5 20.5t-27.5 12.5t-33 11q-173 52 -173 155q0 70 57 110t131 40q77 0 134 -43q20 -15 20 -38q0 -22 -14 -36t-35 -14q-15 0 -27 7q-42 25 -85 25q-30 0 -55 -12t-25 -40
q0 -38 73 -61q39 -13 66 -24.5t59.5 -31.5t49.5 -48.5t17 -63.5q0 -70 -61.5 -110t-137.5 -40q-35 0 -70 7.5t-64 27t-29 48.5zM224 599q-20 0 -35 15l-83 84q-22 20 -4 44t43 8l79 -49l79 49q25 16 43 -8t-4 -44l-83 -84q-15 -15 -35 -15z" />
    <glyph glyph-name="Tcommaaccent" unicode="&#x162;" horiz-adv-x="670" 
d="M327 -150q-1 -23 -18.5 -45.5t-39.5 -35.5q-27 -19 -15 -40q14 -23 41 -9q69 37 90 89q9 29 9 61t-20 58.5t-54 26.5q-24 0 -43 -16.5t-19 -40.5q0 -22 15 -37.5t37 -15.5q9 0 17 5zM588 599h-203v-549q0 -21 -14.5 -35.5t-35.5 -14.5t-35.5 14.5t-14.5 35.5v549h-203
q-21 0 -35.5 14.5t-14.5 35.5t14.5 36t35.5 15h506q21 0 35.5 -15t14.5 -36t-14.5 -35.5t-35.5 -14.5z" />
    <glyph glyph-name="tcommaaccent" unicode="&#x163;" horiz-adv-x="406" 
d="M208 -150q-1 -23 -18.5 -45.5t-39.5 -35.5q-18 -12 -18 -28q0 -11 7.5 -18t18.5 -7q10 0 18 4q101 54 101 141q0 36 -20.5 65t-55.5 29q-24 0 -43 -16.5t-19 -40.5q0 -23 17 -40q13 -13 35 -13q9 0 17 5zM127 670q33 0 54 -21t21 -55v-74h104q33 0 46 -25t0 -50t-46 -25
h-104v-219q0 -102 63 -102q21 0 50 9q31 9 49.5 -9.5t13 -45.5t-34.5 -39q-32 -14 -80 -14q-161 0 -161 200v220h-26q-34 0 -48 25t0.5 50t47.5 25h26v43q0 12 -9 17q-18 9 -18 39q0 23 15 37t37 14z" />
    <glyph glyph-name="Tcaron" unicode="&#x164;" horiz-adv-x="670" 
d="M588 599h-203v-549q0 -21 -14.5 -35.5t-35.5 -14.5t-35.5 14.5t-14.5 35.5v549h-203q-21 0 -35.5 14.5t-14.5 35.5t14.5 36t35.5 15h506q21 0 35.5 -15t14.5 -36t-14.5 -35.5t-35.5 -14.5zM335 782q-20 0 -35 15l-83 84q-22 20 -4 44t43 8l79 -49l79 49q25 16 43 -8
t-4 -44l-83 -84q-15 -15 -35 -15z" />
    <glyph glyph-name="tcaron" unicode="&#x165;" horiz-adv-x="406" 
d="M370 790q10 -62 -11.5 -105t-74.5 -95q-14 -14 -30 1q-14 16 -3 30q43 68 36 157q-2 21 9.5 35t31.5 14q16 0 28 -10.5t14 -26.5zM127 670q33 0 54 -21t21 -55v-74h104q33 0 46 -25t0 -50t-46 -25h-104v-219q0 -102 63 -102q21 0 50 9q31 9 49.5 -9.5t13 -45.5t-34.5 -39
q-32 -14 -80 -14q-161 0 -161 200v220h-26q-34 0 -48 25t0.5 50t47.5 25h26v43q0 12 -9 17q-18 9 -18 39q0 23 15 37t37 14z" />
    <glyph glyph-name="Tbar" unicode="&#x166;" horiz-adv-x="670" 
d="M588 599h-203v-93h183q9 0 16.5 -7t7.5 -16q0 -10 -7.5 -17.5t-16.5 -7.5h-183v-408q0 -21 -14.5 -35.5t-35.5 -14.5t-35.5 14.5t-14.5 35.5v408h-182q-10 0 -17 7.5t-7 17.5q0 9 7 16t17 7h182v93h-203q-21 0 -35.5 14.5t-14.5 35.5t14.5 36t35.5 15h506q21 0 35.5 -15
t14.5 -36t-14.5 -35.5t-35.5 -14.5z" />
    <glyph glyph-name="tbar" unicode="&#x167;" horiz-adv-x="400" 
d="M121 670q33 0 54 -21t21 -55v-75h104q33 0 46 -25t0 -50t-46 -25h-104v-44h119q13 0 23 -9.5t10 -23.5t-10 -23.5t-23 -9.5h-119v-108q0 -102 63 -102q21 0 50 9q31 9 49.5 -9.5t13 -45.5t-34.5 -39q-32 -14 -80 -14q-161 0 -161 200v109h-38q-14 0 -23.5 9.5t-9.5 23.5
t9.5 23.5t23.5 9.5h38v44h-24q-32 0 -44.5 25t0.5 50t44 25h24v44q0 12 -9 17q-18 9 -18 39q0 23 15 37t37 14z" />
    <glyph glyph-name="Utilde" unicode="&#x168;" horiz-adv-x="747" 
d="M655 610q-9 -5 -9 -17v-349q0 -99 -79 -171.5t-179 -72.5h-28q-100 0 -179.5 72t-79.5 170v351q0 12 -9 17q-17 9 -17 39q0 23 14.5 37t36.5 14q33 0 54 -21t21 -55v-381q0 -57 50 -100t109 -43h28q58 0 108 43t50 99v382q0 34 21 55t54 21q22 0 36.5 -14t14.5 -37
q0 -30 -17 -39zM211 847q36 80 105 83q30 -1 69 -26t52 -25t23 24q10 23 37 23q25 0 36.5 -21.5t2.5 -42.5q-39 -73 -94 -73q-27 0 -69 26.5t-56 26.5q-13 0 -26 -27t-40 -27q-22 0 -35.5 20t-4.5 39z" />
    <glyph glyph-name="utilde" unicode="&#x169;" 
d="M530 0q-33 0 -52.5 20t-19.5 52q-16 -32 -58.5 -52t-79.5 -20q-124 0 -180 63t-56 189v161q0 12 -9 17q-18 9 -18 39q0 23 15 37t37 14q33 0 54 -21t21 -55v-192q0 -76 33.5 -114t111.5 -38q56 0 91 33.5t35 91.5v219q0 34 21 55t54 21q22 0 37 -14t15 -37
q0 -13 -4.5 -23t-9.5 -13l-4 -3q-9 -5 -9 -17v-306q0 -12 9 -17q18 -9 18 -39q0 -23 -15 -37t-37 -14zM155 667q36 80 105 83q30 -1 69 -26t52 -25t23 24q10 23 37 23q25 0 36.5 -21.5t2.5 -42.5q-39 -73 -94 -73q-27 0 -69 26.5t-56 26.5q-13 0 -26 -27t-40 -27
q-22 0 -35.5 20t-4.5 39z" />
    <glyph glyph-name="Umacron" unicode="&#x16a;" horiz-adv-x="747" 
d="M655 610q-9 -5 -9 -17v-349q0 -99 -79 -171.5t-179 -72.5h-28q-100 0 -179.5 72t-79.5 170v351q0 12 -9 17q-17 9 -17 39q0 23 14.5 37t36.5 14q33 0 54 -21t21 -55v-381q0 -57 50 -100t109 -43h28q58 0 108 43t50 99v382q0 34 21 55t54 21q22 0 36.5 -14t14.5 -37
q0 -30 -17 -39zM223 811q0 15 11.5 26.5t27.5 11.5h222q16 0 27.5 -11.5t11.5 -26.5q0 -16 -11.5 -27t-27.5 -11h-222q-17 0 -28 11t-11 27z" />
    <glyph glyph-name="umacron" unicode="&#x16b;" 
d="M530 0q-33 0 -52.5 20t-19.5 52q-16 -32 -58.5 -52t-79.5 -20q-124 0 -180 63t-56 189v161q0 12 -9 17q-18 9 -18 39q0 23 15 37t37 14q33 0 54 -21t21 -55v-192q0 -76 33.5 -114t111.5 -38q56 0 91 33.5t35 91.5v219q0 34 21 55t54 21q22 0 37 -14t15 -37
q0 -13 -4.5 -23t-9.5 -13l-4 -3q-9 -5 -9 -17v-306q0 -12 9 -17q18 -9 18 -39q0 -23 -15 -37t-37 -14zM180 631q0 15 11.5 26.5t27.5 11.5h222q16 0 27.5 -11.5t11.5 -26.5q0 -16 -11.5 -27t-27.5 -11h-222q-17 0 -28 11t-11 27z" />
    <glyph glyph-name="Ubreve" unicode="&#x16c;" horiz-adv-x="747" 
d="M655 610q-9 -5 -9 -17v-349q0 -99 -79 -171.5t-179 -72.5h-28q-100 0 -179.5 72t-79.5 170v351q0 12 -9 17q-17 9 -17 39q0 23 14.5 37t36.5 14q33 0 54 -21t21 -55v-381q0 -57 50 -100t109 -43h28q58 0 108 43t50 99v382q0 34 21 55t54 21q22 0 36.5 -14t14.5 -37
q0 -30 -17 -39zM375 780q-99 0 -141 75q-11 22 0.5 45t37.5 23q25 0 37 -22q24 -37 66 -37q40 0 62 37q14 22 38 22q25 0 37.5 -23t-0.5 -45q-42 -75 -137 -75z" />
    <glyph glyph-name="ubreve" unicode="&#x16d;" 
d="M530 0q-33 0 -52.5 20t-19.5 52q-16 -32 -58.5 -52t-79.5 -20q-124 0 -180 63t-56 189v161q0 12 -9 17q-18 9 -18 39q0 23 15 37t37 14q33 0 54 -21t21 -55v-192q0 -76 33.5 -114t111.5 -38q56 0 91 33.5t35 91.5v219q0 34 21 55t54 21q22 0 37 -14t15 -37
q0 -13 -4.5 -23t-9.5 -13l-4 -3q-9 -5 -9 -17v-306q0 -12 9 -17q18 -9 18 -39q0 -23 -15 -37t-37 -14zM320 600q-99 0 -141 75q-11 22 0.5 45t37.5 23q25 0 37 -22q24 -37 66 -37q40 0 62 37q14 22 38 22q25 0 37.5 -23t-0.5 -45q-42 -75 -137 -75z" />
    <glyph glyph-name="Uring" unicode="&#x16e;" horiz-adv-x="747" 
d="M655 610q-9 -5 -9 -17v-349q0 -99 -79 -171.5t-179 -72.5h-28q-100 0 -179.5 72t-79.5 170v351q0 12 -9 17q-17 9 -17 39q0 23 14.5 37t36.5 14q33 0 54 -21t21 -55v-381q0 -57 50 -100t109 -43h28q58 0 108 43t50 99v382q0 34 21 55t54 21q22 0 36.5 -14t14.5 -37
q0 -30 -17 -39zM373 751q-33 0 -61 24.5t-28 61.5t28 61.5t61 24.5q36 0 62.5 -24t26.5 -62q0 -39 -27 -62.5t-62 -23.5zM373 791q20 0 35.5 12t15.5 34q0 21 -15 33.5t-36 12.5q-19 0 -34.5 -12.5t-15.5 -33.5t15 -33.5t35 -12.5z" />
    <glyph glyph-name="uring" unicode="&#x16f;" 
d="M530 0q-33 0 -52.5 20t-19.5 52q-16 -32 -58.5 -52t-79.5 -20q-124 0 -180 63t-56 189v161q0 12 -9 17q-18 9 -18 39q0 23 15 37t37 14q33 0 54 -21t21 -55v-192q0 -76 33.5 -114t111.5 -38q56 0 91 33.5t35 91.5v219q0 34 21 55t54 21q22 0 37 -14t15 -37
q0 -13 -4.5 -23t-9.5 -13l-4 -3q-9 -5 -9 -17v-306q0 -12 9 -17q18 -9 18 -39q0 -23 -15 -37t-37 -14zM327 571q-33 0 -61 24.5t-28 61.5t28 61.5t61 24.5q36 0 62.5 -24t26.5 -62q0 -39 -27 -62.5t-62 -23.5zM327 611q20 0 35.5 12t15.5 34q0 21 -15 33.5t-36 12.5
q-19 0 -34.5 -12.5t-15.5 -33.5t15 -33.5t35 -12.5z" />
    <glyph glyph-name="Uhungarumlaut" unicode="&#x170;" horiz-adv-x="747" 
d="M655 610q-9 -5 -9 -17v-349q0 -99 -79 -171.5t-179 -72.5h-28q-100 0 -179.5 72t-79.5 170v351q0 12 -9 17q-17 9 -17 39q0 23 14.5 37t36.5 14q33 0 54 -21t21 -55v-381q0 -57 50 -100t109 -43h28q58 0 108 43t50 99v382q0 34 21 55t54 21q22 0 36.5 -14t14.5 -37
q0 -30 -17 -39zM354 874l-100 -86q-23 -19 -43 -1.5t-3 43.5l72 110q12 19 34.5 21t36.5 -12q17 -14 19 -36.5t-16 -38.5zM528 874q18 16 16.5 38.5t-18.5 36.5q-15 13 -37.5 11t-34.5 -21l-71 -109q-17 -26 3 -43.5t43 1.5z" />
    <glyph glyph-name="uhungarumlaut" unicode="&#x171;" 
d="M530 0q-33 0 -52.5 20t-19.5 52q-16 -32 -58.5 -52t-79.5 -20q-124 0 -180 63t-56 189v161q0 12 -9 17q-18 9 -18 39q0 23 15 37t37 14q33 0 54 -21t21 -55v-192q0 -76 33.5 -114t111.5 -38q56 0 91 33.5t35 91.5v219q0 34 21 55t54 21q22 0 37 -14t15 -37
q0 -13 -4.5 -23t-9.5 -13l-4 -3q-9 -5 -9 -17v-306q0 -12 9 -17q18 -9 18 -39q0 -23 -15 -37t-37 -14zM333 694l-100 -86q-23 -19 -43 -1.5t-3 43.5l72 110q12 19 34.5 21t36.5 -12q17 -14 19 -36.5t-16 -38.5zM507 694q18 16 16.5 38.5t-18.5 36.5q-15 13 -37.5 11
t-34.5 -21l-71 -109q-17 -26 3 -43.5t43 1.5z" />
    <glyph glyph-name="Uogonek" unicode="&#x172;" horiz-adv-x="747" 
d="M655 610q-9 -5 -9 -17v-349q0 -98 -77.5 -170t-176.5 -74q-26 -4 -26 -42q0 -17 13.5 -29t29.5 -12q17 0 25 -8t8 -24q0 -28 -32 -30q-100 0 -100 84q0 41 35 61h5q-98 4 -173.5 75t-75.5 167v351q0 12 -9 17q-17 9 -17 39q0 23 14.5 37t36.5 14q33 0 54 -21t21 -55v-381
q0 -57 50 -100t109 -43h28q58 0 108 43t50 99v382q0 34 21 55t54 21q22 0 36.5 -14t14.5 -37q0 -30 -17 -39z" />
    <glyph glyph-name="uogonek" unicode="&#x173;" 
d="M530 0h-7q-28 -3 -28 -42q0 -17 13.5 -29t29.5 -12q33 0 33 -32q0 -28 -32 -30q-100 0 -100 84q0 56 55 69q-33 16 -38 54q-21 -29 -58.5 -45.5t-72.5 -16.5q-241 0 -241 242v170q0 12 -9 17q-18 9 -18 39q0 23 15 37t37 14q33 0 54 -21t21 -55v-201q0 -73 35 -107.5
t110 -34.5q56 0 91 36t35 94v213q0 34 21 55t54 21q22 0 37 -14t15 -37q0 -13 -4.5 -23t-9.5 -13l-4 -3q-9 -5 -9 -17v-305q0 -12 9 -17q18 -9 18 -39q0 -23 -15 -37t-37 -14z" />
    <glyph glyph-name="Wcircumflex" unicode="&#x174;" horiz-adv-x="1075" 
d="M969 700q25 0 44 -14.5t20 -36.5q0 -17 -9.5 -32.5t-24.5 -18.5q-11 -2 -14 -12l-203 -552q-14 -34 -48 -34q-36 0 -48 36l-115 342l-32 107h-2l-32 -108l-115 -341q-12 -36 -48 -36q-34 0 -48 34l-204 552q-3 10 -14 12q-14 0 -24 17t-10 33q0 23 19 37.5t45 14.5
q48 -2 67 -51l136 -358l29 -91h1l25 91l124 372q12 37 50 37t50 -37l124 -372l26 -91h1l28 92l135 357q19 49 67 51zM538 941q20 0 35 -15l83 -84q22 -20 4 -44t-43 -8l-79 49l-79 -49q-25 -16 -43 8t4 44l83 84q15 15 35 15z" />
    <glyph glyph-name="wcircumflex" unicode="&#x175;" horiz-adv-x="886" 
d="M783 520q31 0 50.5 -21t8.5 -52q-5 -12 -12.5 -19.5t-13.5 -8.5l-5 -1q-11 -2 -14 -12l-145 -372q-14 -34 -50 -34q-35 0 -48 35l-111 286l-111 -286q-13 -35 -48 -35q-36 0 -50 34l-145 372q-3 10 -14 12q-20 1 -31 29q-11 31 8.5 52t50.5 21q49 0 68 -50l69 -179
l41 -122h1l40 122l73 195q12 34 48 34t48 -34l73 -195l40 -122h1l41 122l69 179q19 50 68 50zM443 755q20 0 35 -15l83 -84q22 -20 4 -44t-43 -8l-79 49l-79 -49q-25 -16 -43 8t4 44l83 84q15 15 35 15z" />
    <glyph glyph-name="Ycircumflex" unicode="&#x176;" horiz-adv-x="628" 
d="M527 700q26 1 44 -13t20 -35q1 -18 -8.5 -34.5t-29.5 -18.5q-6 -1 -12 -9l-177 -306v-234q0 -21 -15 -35.5t-35 -14.5t-35 14.5t-15 35.5v234l-177 306q-6 8 -12 9q-20 2 -29.5 18.5t-8.5 34.5q2 21 20 35t44 13q41 -4 68 -51l117 -205l27 -64h1l28 64l117 205
q27 47 68 51zM314 938q20 0 35 -15l83 -84q22 -20 4 -44t-43 -8l-79 49l-79 -49q-25 -16 -43 8t4 44l83 84q15 15 35 15z" />
    <glyph glyph-name="ycircumflex" unicode="&#x177;" horiz-adv-x="585" 
d="M83 405q-3 10 -14 12q-20 1 -31 29q-11 31 8.5 52t50.5 21q49 0 68 -50l88 -228l36 -121h3l39 121l88 228q20 50 70 50q30 0 49 -21.5t8 -51.5q-5 -12 -12.5 -19.5t-13.5 -8.5l-5 -1q-11 -2 -14 -12l-152 -393q-70 -182 -178 -182q-35 0 -82 18q-14 5 -23 18.5t-9 28.5
q0 26 22 40t46 3q24 -10 42 -10q41 0 71 62l4 9l-11 27zM292 755q20 0 35 -15l83 -84q22 -20 4 -44t-43 -8l-79 49l-79 -49q-25 -16 -43 8t4 44l83 84q15 15 35 15z" />
    <glyph glyph-name="Ydieresis" unicode="&#x178;" horiz-adv-x="628" 
d="M268 849q0 -27 -19.5 -46t-47.5 -19t-47.5 19t-19.5 46q0 26 19.5 45t47.5 19t47.5 -19t19.5 -45zM494 849q0 -27 -19.5 -46t-47.5 -19t-47.5 19t-19.5 46q0 26 19.5 45t47.5 19t47.5 -19t19.5 -45zM527 700q26 1 44 -13t20 -35q1 -18 -8.5 -34.5t-29.5 -18.5
q-6 -1 -12 -9l-177 -306v-234q0 -21 -15 -35.5t-35 -14.5t-35 14.5t-15 35.5v234l-177 306q-6 8 -12 9q-20 2 -29.5 18.5t-8.5 34.5q2 21 20 35t44 13q41 -4 68 -51l117 -205l27 -64h1l28 64l117 205q27 47 68 51z" />
    <glyph glyph-name="Zacute" unicode="&#x179;" horiz-adv-x="674" 
d="M53 673q1 23 15.5 38t37.5 15q25 0 39 -17q7 -9 17 -9h366q32 0 50 -22q12 -16 12 -35t-12 -35l-353 -476l-35 -35v-1l44 3h289q12 0 17 9q11 17 36 17q23 0 38 -15.5t15 -36.5q0 -34 -21 -53.5t-56 -19.5h-442q-22 0 -37.5 15.5t-15.5 37.5q0 20 12 35l355 479l36 35v1
l-45 -3h-284q-34 0 -56 20t-22 53zM455 850l-134 -61q-27 -13 -40.5 10t7.5 42l113 94q11 10 26 10q23 0 37.5 -16t14.5 -39q0 -29 -24 -40z" />
    <glyph glyph-name="zacute" unicode="&#x17a;" horiz-adv-x="514" 
d="M390 108q9 18 39 18q23 0 37.5 -15t14.5 -37q0 -33 -21.5 -53.5t-55.5 -20.5h-293q-36 0 -50 30.5t6 57.5l225 300l35 34v1l-44 -2h-164q-34 0 -55 20t-21 53q0 22 14 37.5t37 15.5q13 0 23 -4.5t13 -8.5l3 -5q5 -9 17 -9h247q36 0 52 -30.5t-4 -58.5l-224 -299l-35 -36
v-1l44 4h143q12 0 17 9zM375 666l-134 -61q-27 -13 -40.5 10t7.5 42l113 94q11 10 26 10q23 0 37.5 -16t14.5 -39q0 -29 -24 -40z" />
    <glyph glyph-name="Zdotaccent" unicode="&#x17b;" horiz-adv-x="674" 
d="M53 673q1 23 15.5 38t37.5 15q25 0 39 -17q7 -9 17 -9h366q32 0 50 -22q12 -16 12 -35t-12 -35l-353 -476l-35 -35v-1l44 3h289q12 0 17 9q11 17 36 17q23 0 38 -15.5t15 -36.5q0 -34 -21 -53.5t-56 -19.5h-442q-22 0 -37.5 15.5t-15.5 37.5q0 20 12 35l355 479l36 35v1
l-45 -3h-284q-34 0 -56 20t-22 53zM407 845q0 -27 -19.5 -46t-47.5 -19t-47.5 19t-19.5 46q0 26 19.5 45t47.5 19t47.5 -19t19.5 -45z" />
    <glyph glyph-name="zdotaccent" unicode="&#x17c;" horiz-adv-x="514" 
d="M390 108q9 18 39 18q23 0 37.5 -15t14.5 -37q0 -33 -21.5 -53.5t-55.5 -20.5h-293q-36 0 -50 30.5t6 57.5l225 300l35 34v1l-44 -2h-164q-34 0 -55 20t-21 53q0 22 14 37.5t37 15.5q13 0 23 -4.5t13 -8.5l3 -5q5 -9 17 -9h247q36 0 52 -30.5t-4 -58.5l-224 -299l-35 -36
v-1l44 4h143q12 0 17 9zM324 665q0 -27 -19.5 -46t-47.5 -19t-47.5 19t-19.5 46q0 26 19.5 45t47.5 19t47.5 -19t19.5 -45z" />
    <glyph glyph-name="Zcaron" unicode="&#x17d;" horiz-adv-x="674" 
d="M53 673q1 23 15.5 38t37.5 15q25 0 39 -17q7 -9 17 -9h366q32 0 50 -22q12 -16 12 -35t-12 -35l-353 -476l-35 -35v-1l44 3h289q12 0 17 9q11 17 36 17q23 0 38 -15.5t15 -36.5q0 -34 -21 -53.5t-56 -19.5h-442q-22 0 -37.5 15.5t-15.5 37.5q0 20 12 35l355 479l36 35v1
l-45 -3h-284q-34 0 -56 20t-22 53zM346 782q-20 0 -35 15l-83 84q-22 20 -4 44t43 8l79 -49l79 49q25 16 43 -8t-4 -44l-83 -84q-15 -15 -35 -15z" />
    <glyph glyph-name="zcaron" unicode="&#x17e;" horiz-adv-x="514" 
d="M390 108q9 18 39 18q23 0 37.5 -15t14.5 -37q0 -33 -21.5 -53.5t-55.5 -20.5h-293q-36 0 -50 30.5t6 57.5l225 300l35 34v1l-44 -2h-164q-34 0 -55 20t-21 53q0 22 14 37.5t37 15.5q13 0 23 -4.5t13 -8.5l3 -5q5 -9 17 -9h247q36 0 52 -30.5t-4 -58.5l-224 -299l-35 -36
v-1l44 4h143q12 0 17 9zM257 599q-20 0 -35 15l-83 84q-22 20 -4 44t43 8l79 -49l79 49q25 16 43 -8t-4 -44l-83 -84q-15 -15 -35 -15z" />
    <glyph glyph-name="florin" unicode="&#x192;" horiz-adv-x="694" 
d="M470 562l-27 -182h99q23 0 39 -16t16 -39v-7q-3 -22 -19.5 -36.5t-38.5 -14.5h-117q-9 -62 -12 -76t-12 -77q-5 -37 -8.5 -59t-12.5 -54.5t-20.5 -54.5t-31.5 -45.5t-46 -40.5q-46 -30 -103 -30q-50 0 -103 21q-35 14 -35 52q0 24 17.5 40.5t40.5 16.5q10 0 19 -3
q69 -25 104 -2q22 14 36.5 45.5t18.5 53t10 61.5l25 153h-46q-22 0 -37 16t-15 38q0 24 17.5 41t41.5 17h56q1 2 13.5 91.5t12.5 91.5q11 83 68.5 127t135.5 44q40 0 88 -18q23 -9 31.5 -32.5t-2.5 -45.5q-10 -20 -30.5 -28t-40.5 0q-33 12 -52 12q-65 0 -80 -60z" />
    <glyph glyph-name="AEacute" unicode="&#x1fc;" horiz-adv-x="931" 
d="M509 121q0 -6 -2 -11t-4 -7l-2 -2h340q30 0 42.5 -25.5t0.5 -50.5t-43 -25h-407q-21 0 -37 15t-16 35q0 27 22 42q7 5 7 17v72h-172l-56 -108q-11 -21 -20 -34.5t-28 -26t-42 -12.5q-22 0 -37.5 14t-15.5 36q0 17 11.5 30.5t27.5 17.5q7 2 16 19l298 556v-1q15 28 44 28
h403q21 0 36 -14.5t15 -34.5q0 -21 -15 -35.5t-36 -14.5h-330v-210h276q21 0 34.5 -14t13.5 -35t-13.5 -35.5t-34.5 -14.5h-276v-171zM410 509l-132 -240h132v240zM731 850l-134 -61q-27 -13 -40.5 10t7.5 42l113 94q11 10 26 10q23 0 37.5 -16t14.5 -39q0 -29 -24 -40z" />
    <glyph glyph-name="aeacute" unicode="&#x1fd;" horiz-adv-x="885" 
d="M798 213h-339q16 -52 57 -86t90 -34q76 0 132 39q18 11 32 11q21 0 36.5 -16.5t15.5 -37.5q0 -14 -5.5 -24.5t-10.5 -14.5l-6 -4q-85 -56 -195 -56q-124 0 -213 114q-11 -21 -21.5 -36t-30 -34t-49.5 -29.5t-68 -10.5q-80 0 -138 49t-58 128q0 86 58 128t144 42
q64 0 124 -29q0 68 -25.5 90.5t-75.5 22.5q-30 0 -55.5 -2.5t-36.5 -5.5l-10 -3q-22 -6 -42.5 8t-20.5 38q0 18 10.5 31t25.5 18q55 16 123 16q129 0 179 -75q73 80 180 80q106 0 177 -78.5t71 -185.5q0 -21 -17 -37t-38 -16zM224 91q48 0 88.5 30.5t40.5 77.5v31
q-44 31 -98 31q-128 0 -128 -91q0 -37 29 -58t68 -21zM607 423q-53 0 -92.5 -37.5t-52.5 -94.5h285q-9 57 -48 94.5t-92 37.5zM530 666l-134 -61q-27 -13 -40.5 10t7.5 42l113 94q11 10 26 10q23 0 37.5 -16t14.5 -39q0 -29 -24 -40z" />
    <glyph glyph-name="Oslashacute" unicode="&#x1fe;" horiz-adv-x="830" 
d="M662 662l-22 -32q63 -51 99 -124t36 -155q0 -150 -105.5 -255.5t-255.5 -105.5q-89 0 -172 44l-22 -34q-8 -14 -26 -14q-14 0 -23.5 9.5t-9.5 22.5q0 10 5 18l23 35q-63 50 -98.5 123t-35.5 157q0 149 105.5 254t253.5 105q92 0 174 -44l21 32q10 15 26 15q9 0 18 -6
q15 -9 15 -26q0 -10 -6 -19zM531 582q-54 28 -117 28q-107 0 -183 -76t-76 -183q0 -120 89 -197zM299 118q53 -28 115 -28q108 0 184.5 76.5t76.5 184.5q0 117 -89 196zM517 850l-134 -61q-27 -13 -40.5 10t7.5 42l113 94q11 10 26 10q23 0 37.5 -16t14.5 -39q0 -29 -24 -40
z" />
    <glyph glyph-name="oslashacute" unicode="&#x1ff;" horiz-adv-x="614" 
d="M307 -5q-63 0 -116 27l-32 -49q-20 -28 -45 -14q-23 12 -15 37q2 6 6 12l32 49q-95 80 -95 203q0 109 78 187t187 78q63 0 117 -28l32 49q12 19 31 18t26 -16.5t-4 -35.5l-32 -49q95 -80 95 -203q0 -109 -78 -187t-187 -78zM307 426q-68 0 -116.5 -48.5t-48.5 -117.5
q0 -70 50 -118l177 272q-29 12 -62 12zM473 260q0 70 -51 119l-176 -273q30 -11 61 -11q68 0 117 48.5t49 116.5zM385 666l-134 -61q-27 -13 -40.5 10t7.5 42l113 94q11 10 26 10q23 0 37.5 -16t14.5 -39q0 -29 -24 -40z" />
    <glyph glyph-name="Scommaaccent" unicode="&#x218;" horiz-adv-x="573" 
d="M257 -144q-1 -22 -18 -43t-38 -33q-25 -16 -14 -37q7 -13 23 -13q8 0 16 4q42 21 69.5 55.5t27.5 76.5q0 34 -20 61.5t-53 27.5q-23 0 -41 -15.5t-18 -38.5q0 -22 16 -37q20 -20 50 -8zM524 183q0 -41 -16 -74.5t-42 -55t-60 -36.5t-68 -21t-67 -6q-132 0 -203 68
q-15 15 -15 38q0 19 13 33t33 14q19 0 36 -12q61 -41 134 -41q65 0 109.5 25t44.5 65q0 64 -112 105q-7 3 -45 16q-43 15 -66 24.5t-57 29t-51.5 40t-31 53t-13.5 72.5q0 82 72 136t168 54q121 0 189 -63q18 -18 18 -38t-15 -35t-36 -15q-16 0 -29 10q-55 41 -127 41
q-58 0 -99 -26t-41 -64q0 -24 12.5 -43.5t39.5 -35.5t47 -25t58 -23q39 -13 61 -22t56.5 -28t53.5 -38.5t34 -51.5t15 -70z" />
    <glyph glyph-name="scommaaccent" unicode="&#x219;" horiz-adv-x="445" 
d="M208 -144q-1 -22 -18 -43t-38 -33q-26 -18 -14 -37q12 -22 39 -9q66 34 87 84q22 54 -3 99q-21 38 -60 38q-23 0 -41 -15.5t-18 -38.5q0 -22 16 -37q12 -12 34 -12q6 0 16 4zM41 78q0 20 14 35t33 15q14 0 32 -11q33 -23 88 -23q20 0 38.5 3t36.5 16t18 35q0 16 -7 28
t-23.5 20.5t-27.5 12.5t-33 11q-173 52 -173 155q0 70 57 110t131 40q77 0 134 -43q20 -15 20 -38q0 -22 -14 -36t-35 -14q-15 0 -27 7q-42 25 -85 25q-30 0 -55 -12t-25 -40q0 -38 73 -61q39 -13 66 -24.5t59.5 -31.5t49.5 -48.5t17 -63.5q0 -70 -61.5 -110t-137.5 -40
q-35 0 -70 7.5t-64 27t-29 48.5z" />
    <glyph glyph-name="circumflex" unicode="&#x2c6;" horiz-adv-x="504" 
d="M252 754q20 0 35 -15l83 -84q22 -20 4 -44t-43 -8l-79 49l-79 -49q-25 -16 -43 8t4 44l83 84q15 15 35 15z" />
    <glyph glyph-name="caron" unicode="&#x2c7;" horiz-adv-x="504" 
d="M252 599q-20 0 -35 15l-83 84q-22 20 -4 44t43 8l79 -49l79 49q25 16 43 -8t-4 -44l-83 -84q-15 -15 -35 -15z" />
    <glyph glyph-name="breve" unicode="&#x2d8;" horiz-adv-x="495" 
d="M249 600q-99 0 -141 75q-11 22 0.5 45t37.5 23q25 0 37 -22q24 -37 66 -37q40 0 62 37q14 22 38 22q25 0 37.5 -23t-0.5 -45q-42 -75 -137 -75z" />
    <glyph glyph-name="dotaccent" unicode="&#x2d9;" horiz-adv-x="526" 
d="M330 665q0 -27 -19.5 -46t-47.5 -19t-47.5 19t-19.5 46q0 26 19.5 45t47.5 19t47.5 -19t19.5 -45z" />
    <glyph glyph-name="ring" unicode="&#x2da;" horiz-adv-x="446" 
d="M223 571q-33 0 -61 24.5t-28 61.5t28 61.5t61 24.5q36 0 62.5 -24t26.5 -62q0 -39 -27 -62.5t-62 -23.5zM223 611q20 0 35.5 12t15.5 34q0 21 -15 33.5t-36 12.5q-19 0 -34.5 -12.5t-15.5 -33.5t15 -33.5t35 -12.5z" />
    <glyph glyph-name="ogonek" unicode="&#x2db;" horiz-adv-x="466" 
d="M177 -61q0 34 25 54.5t61 20.5q10 0 10 -7t-8 -7q-16 0 -24 -12.5t-8 -29.5t13.5 -29t29.5 -12q17 0 25 -8t8 -24q0 -28 -32 -30q-100 0 -100 84z" />
    <glyph glyph-name="tilde" unicode="&#x2dc;" horiz-adv-x="507" 
d="M91 667q36 80 105 83q30 -1 69 -26t52 -25t23 24q10 23 37 23q25 0 36.5 -21.5t2.5 -42.5q-39 -73 -94 -73q-27 0 -69 26.5t-56 26.5q-13 0 -26 -27t-40 -27q-22 0 -35.5 20t-4.5 39z" />
    <glyph glyph-name="hungarumlaut" unicode="&#x2dd;" horiz-adv-x="523" 
d="M244 694l-100 -86q-23 -19 -43 -1.5t-3 43.5l72 110q12 19 34.5 21t36.5 -12q17 -14 19 -36.5t-16 -38.5zM418 694q18 16 16.5 38.5t-18.5 36.5q-15 13 -37.5 11t-34.5 -21l-71 -109q-17 -26 3 -43.5t43 1.5z" />
    <glyph glyph-name="Wgrave" unicode="&#x1e80;" horiz-adv-x="1075" 
d="M969 700q25 0 44 -14.5t20 -36.5q0 -17 -9.5 -32.5t-24.5 -18.5q-11 -2 -14 -12l-203 -552q-14 -34 -48 -34q-36 0 -48 36l-115 342l-32 107h-2l-32 -108l-115 -341q-12 -36 -48 -36q-34 0 -48 34l-204 552q-3 10 -14 12q-14 0 -24 17t-10 33q0 23 19 37.5t45 14.5
q48 -2 67 -51l136 -358l29 -91h1l25 91l124 372q12 37 50 37t50 -37l124 -372l26 -91h1l28 92l135 357q19 49 67 51zM464 850q-24 11 -24 40q0 23 14.5 39t37.5 16q15 0 26 -10l113 -94q21 -19 7.5 -42t-40.5 -10z" />
    <glyph glyph-name="wgrave" unicode="&#x1e81;" horiz-adv-x="886" 
d="M783 520q31 0 50.5 -21t8.5 -52q-5 -12 -12.5 -19.5t-13.5 -8.5l-5 -1q-11 -2 -14 -12l-145 -372q-14 -34 -50 -34q-35 0 -48 35l-111 286l-111 -286q-13 -35 -48 -35q-36 0 -50 34l-145 372q-3 10 -14 12q-20 1 -31 29q-11 31 8.5 52t50.5 21q49 0 68 -50l69 -179
l41 -122h1l40 122l73 195q12 34 48 34t48 -34l73 -195l40 -122h1l41 122l69 179q19 50 68 50zM372 666q-24 11 -24 40q0 23 14.5 39t37.5 16q15 0 26 -10l113 -94q21 -19 7.5 -42t-40.5 -10z" />
    <glyph glyph-name="Wacute" unicode="&#x1e82;" horiz-adv-x="1075" 
d="M969 700q25 0 44 -14.5t20 -36.5q0 -17 -9.5 -32.5t-24.5 -18.5q-11 -2 -14 -12l-203 -552q-14 -34 -48 -34q-36 0 -48 36l-115 342l-32 107h-2l-32 -108l-115 -341q-12 -36 -48 -36q-34 0 -48 34l-204 552q-3 10 -14 12q-14 0 -24 17t-10 33q0 23 19 37.5t45 14.5
q48 -2 67 -51l136 -358l29 -91h1l25 91l124 372q12 37 50 37t50 -37l124 -372l26 -91h1l28 92l135 357q19 49 67 51zM615 850l-134 -61q-27 -13 -40.5 10t7.5 42l113 94q11 10 26 10q23 0 37.5 -16t14.5 -39q0 -29 -24 -40z" />
    <glyph glyph-name="wacute" unicode="&#x1e83;" horiz-adv-x="886" 
d="M783 520q31 0 50.5 -21t8.5 -52q-5 -12 -12.5 -19.5t-13.5 -8.5l-5 -1q-11 -2 -14 -12l-145 -372q-14 -34 -50 -34q-35 0 -48 35l-111 286l-111 -286q-13 -35 -48 -35q-36 0 -50 34l-145 372q-3 10 -14 12q-20 1 -31 29q-11 31 8.5 52t50.5 21q49 0 68 -50l69 -179
l41 -122h1l40 122l73 195q12 34 48 34t48 -34l73 -195l40 -122h1l41 122l69 179q19 50 68 50zM526 666l-134 -61q-27 -13 -40.5 10t7.5 42l113 94q11 10 26 10q23 0 37.5 -16t14.5 -39q0 -29 -24 -40z" />
    <glyph glyph-name="Wdieresis" unicode="&#x1e84;" horiz-adv-x="1075" 
d="M969 700q25 0 44 -14.5t20 -36.5q0 -17 -9.5 -32.5t-24.5 -18.5q-11 -2 -14 -12l-203 -552q-14 -34 -48 -34q-36 0 -48 36l-115 342l-32 107h-2l-32 -108l-115 -341q-12 -36 -48 -36q-34 0 -48 34l-204 552q-3 10 -14 12q-14 0 -24 17t-10 33q0 23 19 37.5t45 14.5
q48 -2 67 -51l136 -358l29 -91h1l25 91l124 372q12 37 50 37t50 -37l124 -372l26 -91h1l28 92l135 357q19 49 67 51zM493 849q0 -27 -19.5 -46t-47.5 -19t-47.5 19t-19.5 46q0 26 19.5 45t47.5 19t47.5 -19t19.5 -45zM719 849q0 -27 -19.5 -46t-47.5 -19t-47.5 19t-19.5 46
q0 26 19.5 45t47.5 19t47.5 -19t19.5 -45z" />
    <glyph glyph-name="wdieresis" unicode="&#x1e85;" horiz-adv-x="886" 
d="M783 520q31 0 50.5 -21t8.5 -52q-5 -12 -12.5 -19.5t-13.5 -8.5l-5 -1q-11 -2 -14 -12l-145 -372q-14 -34 -50 -34q-35 0 -48 35l-111 286l-111 -286q-13 -35 -48 -35q-36 0 -50 34l-145 372q-3 10 -14 12q-20 1 -31 29q-11 31 8.5 52t50.5 21q49 0 68 -50l69 -179
l41 -122h1l40 122l73 195q12 34 48 34t48 -34l73 -195l40 -122h1l41 122l69 179q19 50 68 50zM397 665q0 -27 -19.5 -46t-47.5 -19t-47.5 19t-19.5 46q0 26 19.5 45t47.5 19t47.5 -19t19.5 -45zM623 665q0 -27 -19.5 -46t-47.5 -19t-47.5 19t-19.5 46q0 26 19.5 45t47.5 19
t47.5 -19t19.5 -45z" />
    <glyph glyph-name="Ygrave" unicode="&#x1ef2;" horiz-adv-x="628" 
d="M527 700q26 1 44 -13t20 -35q1 -18 -8.5 -34.5t-29.5 -18.5q-6 -1 -12 -9l-177 -306v-234q0 -21 -15 -35.5t-35 -14.5t-35 14.5t-15 35.5v234l-177 306q-6 8 -12 9q-20 2 -29.5 18.5t-8.5 34.5q2 21 20 35t44 13q41 -4 68 -51l117 -205l27 -64h1l28 64l117 205
q27 47 68 51zM236 850q-24 11 -24 40q0 23 14.5 39t37.5 16q15 0 26 -10l113 -94q21 -19 7.5 -42t-40.5 -10z" />
    <glyph glyph-name="ygrave" unicode="&#x1ef3;" horiz-adv-x="585" 
d="M83 405q-3 10 -14 12q-20 1 -31 29q-11 31 8.5 52t50.5 21q49 0 68 -50l88 -228l36 -121h3l39 121l88 228q20 50 70 50q30 0 49 -21.5t8 -51.5q-5 -12 -12.5 -19.5t-13.5 -8.5l-5 -1q-11 -2 -14 -12l-152 -393q-70 -182 -178 -182q-35 0 -82 18q-14 5 -23 18.5t-9 28.5
q0 26 22 40t46 3q24 -10 42 -10q41 0 71 62l4 9l-11 27zM212 666q-24 11 -24 40q0 23 14.5 39t37.5 16q15 0 26 -10l113 -94q21 -19 7.5 -42t-40.5 -10z" />
    <glyph glyph-name="endash" unicode="&#x2013;" horiz-adv-x="659" 
d="M611 281q0 -20 -13.5 -35t-32.5 -15h-468q-20 0 -34.5 14t-14.5 33q0 21 13.5 35t33.5 14h467q20 0 34.5 -13.5t14.5 -32.5z" />
    <glyph glyph-name="emdash" unicode="&#x2014;" horiz-adv-x="860" 
d="M812 281q0 -20 -13.5 -35t-32.5 -15h-669q-20 0 -34.5 14t-14.5 33q0 21 13.5 35t33.5 14h668q20 0 34.5 -13.5t14.5 -32.5z" />
    <glyph glyph-name="quoteleft" unicode="&#x2018;" horiz-adv-x="263" 
d="M136 581q12 6 19 6q26 0 42 -18t16 -42q0 -27 -21.5 -45.5t-48.5 -18.5q-38 0 -61 34t-23 74q0 95 112 156q9 5 20 5q13 0 22 -8.5t9 -20.5q0 -18 -21 -31q-25 -15 -44.5 -40t-20.5 -51z" />
    <glyph glyph-name="quoteright" unicode="&#x2019;" horiz-adv-x="263" 
d="M145 615q-12 -6 -19 -6q-26 0 -42 18t-16 42q0 27 21.5 45.5t48.5 18.5q38 0 61 -34t23 -74q0 -95 -112 -156q-9 -5 -20 -5q-13 0 -22 8.5t-9 20.5q0 18 21 31q25 15 44.5 40t20.5 51z" />
    <glyph glyph-name="quotesinglbase" unicode="&#x201a;" horiz-adv-x="263" 
d="M122 6q-12 -6 -19 -6q-26 0 -42 18t-16 42q0 27 21.5 45.5t48.5 18.5q38 0 61 -34t23 -74q0 -95 -112 -156q-9 -5 -20 -5q-13 0 -22 8.5t-9 20.5q0 18 21 31q25 15 44.5 40t20.5 51z" />
    <glyph glyph-name="quotedblleft" unicode="&#x201c;" horiz-adv-x="504" 
d="M377 581q12 6 19 6q26 0 42 -18t16 -42q0 -27 -21.5 -45.5t-48.5 -18.5q-38 0 -61 34t-23 74q0 95 112 156q16 9 33.5 1.5t17.5 -25.5t-21 -31q-25 -15 -44.5 -40t-20.5 -51zM136 581q12 6 19 6q26 0 42 -18t16 -42q0 -27 -21.5 -45.5t-48.5 -18.5q-38 0 -61 34t-23 74
q0 95 112 156q16 9 33.5 1.5t17.5 -25.5t-21 -31q-25 -15 -44.5 -40t-20.5 -51z" />
    <glyph glyph-name="quotedblright" unicode="&#x201d;" horiz-adv-x="494" 
d="M145 614q-12 -6 -19 -6q-26 0 -42 18t-16 42q0 27 21.5 45.5t48.5 18.5q38 0 61 -34t23 -74q0 -95 -112 -156q-16 -9 -33.5 -1.5t-17.5 25.5t21 31q25 15 44.5 40t20.5 51zM376 614q-12 -6 -19 -6q-26 0 -42 18t-16 42q0 27 21.5 45.5t48.5 18.5q38 0 61 -34t23 -74
q0 -95 -112 -156q-16 -9 -33.5 -1.5t-17.5 25.5t21 31q25 15 44.5 40t20.5 51z" />
    <glyph glyph-name="quotedblbase" unicode="&#x201e;" horiz-adv-x="504" 
d="M122 6q-12 -6 -19 -6q-26 0 -42 18t-16 42q0 27 21.5 45.5t48.5 18.5q38 0 61 -34t23 -74q0 -95 -112 -156q-9 -5 -20 -5q-13 0 -22 8.5t-9 20.5q0 18 21 31q25 15 44.5 40t20.5 51zM363 6q-12 -6 -19 -6q-26 0 -42 18t-16 42q0 27 21.5 45.5t48.5 18.5q38 0 61 -34
t23 -74q0 -95 -112 -156q-9 -5 -20 -5q-13 0 -22 8.5t-9 20.5q0 18 21 31q25 15 44.5 40t20.5 51z" />
    <glyph glyph-name="dagger" unicode="&#x2020;" horiz-adv-x="582" 
d="M85 554l100 -5q16 0 27 -11.5t11 -27.5t-11.5 -27t-27.5 -12l-100 -3q-18 0 -31 13q-19 21 -8 47.5t40 25.5zM499 468l-101 3q-16 1 -27 12t-11 27t11 27.5t27 11.5l100 5q19 2 32 -13q18 -20 7 -47t-38 -26zM253 208l-4 458q0 18 13 29.5t30 11.5q18 0 30.5 -12.5
t12.5 -29.5l-4 -457q0 -16 -11.5 -27.5t-27.5 -11.5t-27.5 11.5t-11.5 27.5z" />
    <glyph glyph-name="daggerdbl" unicode="&#x2021;" horiz-adv-x="618" 
d="M270 55l-5 614q0 19 14 31q20 19 47.5 8t26.5 -39l-4 -614q0 -17 -11.5 -28.5t-28.5 -11.5q-16 0 -27.5 11.5t-11.5 28.5zM96 556l102 -5q16 -1 27.5 -12.5t10.5 -27.5q0 -16 -11 -27.5t-28 -12.5l-102 -3q-18 -1 -32 13q-19 21 -7.5 48.5t40.5 26.5zM523 468l-102 3
q-16 1 -27.5 12.5t-11.5 27.5t11.5 27.5t27.5 12.5l102 5q20 0 32 -14q19 -20 8 -47.5t-40 -26.5zM96 292l102 -5q17 -1 28 -13t10 -28q0 -16 -11.5 -27.5t-27.5 -11.5l-102 -4q-20 0 -32 14q-19 21 -7.5 48.5t40.5 26.5zM523 203l-102 4q-16 0 -27.5 12t-11.5 28t11.5 27.5
t27.5 12.5l102 5q20 0 32 -14q19 -20 8 -48t-40 -27z" />
    <glyph glyph-name="bullet" unicode="&#x2022;" horiz-adv-x="407" 
d="M204 241q-45 0 -78 32.5t-33 77.5q0 44 33 76.5t78 32.5t77.5 -32.5t32.5 -78.5q0 -44 -32.5 -76t-77.5 -32z" />
    <glyph glyph-name="ellipsis" unicode="&#x2026;" horiz-adv-x="737" 
d="M137 145q31 0 52.5 -21.5t21.5 -52.5q0 -30 -21.5 -51.5t-52.5 -21.5q-30 0 -51.5 21.5t-21.5 51.5q0 31 21.5 52.5t51.5 21.5zM361 145q31 0 52.5 -21.5t21.5 -52.5q0 -30 -21.5 -51.5t-52.5 -21.5q-30 0 -51.5 21.5t-21.5 51.5q0 31 21.5 52.5t51.5 21.5zM599 145
q31 0 52.5 -21.5t21.5 -52.5q0 -30 -21.5 -51.5t-52.5 -21.5q-30 0 -51.5 21.5t-21.5 51.5q0 31 21.5 52.5t51.5 21.5z" />
    <glyph glyph-name="perthousand" unicode="&#x2030;" horiz-adv-x="1174" 
d="M172 78l362 601q11 19 34.5 22t38.5 -10q20 -14 20 -40q0 -14 -8 -27l-363 -602q-14 -22 -43 -22q-23 0 -36.5 15t-13.5 35q0 14 9 28zM603 325q65 0 110.5 -50.5t45.5 -112.5q0 -65 -45.5 -113.5t-110.5 -48.5t-110 48t-45 114q0 65 45.5 114t109.5 49zM603 223
q-23 0 -39 -18.5t-16 -42.5t16 -42.5t39 -18.5q24 0 39.5 18.5t15.5 42.5t-15.5 42.5t-39.5 18.5zM192 699q65 0 110.5 -50.5t45.5 -112.5q0 -65 -45.5 -113.5t-110.5 -48.5t-110 48t-45 114q0 65 45.5 114t109.5 49zM192 597q-23 0 -39 -18.5t-16 -42.5t16 -42.5t39 -18.5
q24 0 39.5 18.5t15.5 42.5t-15.5 42.5t-39.5 18.5zM981 325q65 0 110.5 -50.5t45.5 -112.5q0 -65 -45.5 -113.5t-110.5 -48.5t-110 48t-45 114q0 65 45.5 114t109.5 49zM981 223q-23 0 -39 -18.5t-16 -42.5t16 -42.5t39 -18.5q24 0 39.5 18.5t15.5 42.5t-15.5 42.5
t-39.5 18.5z" />
    <glyph glyph-name="guilsinglleft" unicode="&#x2039;" horiz-adv-x="369" 
d="M155 260l153 -175q11 -12 11 -31q0 -18 -13 -31.5t-32 -13.5q-21 0 -35 16l-190 205q-12 12 -12 30q0 16 12 31l190 204q13 15 34 15q19 0 32.5 -12.5t13.5 -32.5q0 -18 -11 -30z" />
    <glyph glyph-name="guilsinglright" unicode="&#x203a;" horiz-adv-x="368" 
d="M60 85l153 175l-153 175q-11 12 -11 30q0 20 13.5 32.5t32.5 12.5q21 0 34 -15l190 -204q12 -15 12 -31q0 -18 -12 -30l-190 -205q-14 -16 -35 -16q-19 0 -32 13.5t-13 31.5q0 19 11 31z" />
    <glyph glyph-name="fraction" unicode="&#x2044;" horiz-adv-x="229" 
d="M-28 -3q-24 1 -36 21.5t-3 41.5l257 610q13 30 43 30q25 0 38 -22t2 -43l-258 -610q-12 -28 -43 -28z" />
    <glyph glyph-name="Euro" unicode="&#x20ac;" horiz-adv-x="746" 
d="M68 315h73q-3 35 0 70h-73q-13 0 -22 9.5t-9 22.5t9 22.5t22 9.5h84q9 35 26 67q42 82 121.5 131t176.5 53q97 3 180 -42q18 -10 24 -29.5t-4 -37.5t-29 -24t-38 4q-60 32 -129 29q-115 -5 -181 -80q-27 -31 -42 -71h210q13 0 22.5 -9.5t9.5 -22.5t-9.5 -22.5t-22.5 -9.5
h-226q-5 -35 0 -70h226q13 0 22.5 -9.5t9.5 -22.5t-9.5 -22t-22.5 -9h-210q15 -40 42 -72q66 -75 181 -80q80 -3 146 38q17 11 37 6.5t31 -21.5t6.5 -37t-21.5 -31q-90 -58 -203 -55q-97 5 -176.5 53.5t-121.5 130.5q-17 33 -26 68h-84q-13 0 -22 9t-9 22t9 22.5t22 9.5z
" />
    <glyph glyph-name="trademark" unicode="&#x2122;" horiz-adv-x="685" 
d="M446 404l-106 164v-172q0 -16 -11 -28.5t-27 -12.5q-10 0 -17.5 7.5t-7.5 17.5t10 20q3 3 3 7v243h-112v-271q0 -11 -7 -18t-18 -7q-10 0 -17 7.5t-7 17.5v271h-100q-11 0 -18 7t-7 18t7 18t18 7h269q11 0 20 -5t13 -11l4 -5l133 -212l132 212q11 21 34 21q10 0 17.5 -7
t7.5 -18t-10 -19q-3 -3 -3 -7v-242q0 -4 3 -7q10 -10 10 -20t-7.5 -17.5t-17.5 -7.5q-17 0 -27.5 11.5t-10.5 29.5v172l-106 -164q-9 -13 -21 -13q-14 0 -23 13z" />
    <glyph glyph-name="lessequal" unicode="&#x2264;" horiz-adv-x="472" 
d="M405 168q-1 20 -15 33.5t-34 13.5h-252q-20 0 -33.5 -14.5t-13.5 -34.5t14.5 -33.5t34.5 -13.5h252q19 0 33 14.5t14 34.5zM89 398q-30 13 -30 47t30 47l217 118q18 10 38 5t32 -25q10 -17 4 -39t-25 -31l-168 -75l168 -76q19 -8 25 -29t-4 -40q-11 -18 -30.5 -24
t-39.5 4z" />
    <glyph glyph-name="greaterequal" unicode="&#x2265;" horiz-adv-x="497" 
d="M92 168q1 20 15 33.5t34 13.5h252q20 0 33.5 -14.5t13.5 -34.5t-14.5 -33.5t-34.5 -13.5h-252q-19 0 -33 14.5t-14 34.5zM408 398l-217 -118q-14 -7 -25 -7q-21 0 -36 15.5t-15 36.5q0 32 27 44l168 76l-168 75q-27 12 -27 45q0 21 15.5 36.5t35.5 15.5q11 0 25 -7
l217 -118q30 -13 30 -47t-30 -47z" />
    <glyph glyph-name="commaaccent" unicode="&#xf6c3;" horiz-adv-x="502" 
d="M241 -144q-10 -4 -16 -4q-21 0 -35.5 14t-14.5 35q0 23 18 38.5t41 15.5q32 0 51.5 -24.5t19.5 -55t-8 -57.5q-21 -50 -87 -84q-27 -13 -39 9q-12 19 14 37q21 12 38 33t18 43z" />
    <glyph glyph-name="s_t" unicode="&#xfb06;" horiz-adv-x="812" 
d="M41 78q0 20 14 35t33 15q14 0 32 -11q33 -23 88 -23q34 0 63.5 12t29.5 43q0 20 -14 35t-27 21t-42 15t-35 11q-146 47 -146 144q0 70 57 110t131 40q18 0 36 -3q-7 22 -7 47q0 63 47.5 110t121.5 47q72 0 128.5 -51t56.5 -120v-35h105q19 0 33 -12t14 -32
q0 -21 -13 -33.5t-34 -12.5h-105v-229q0 -20 1.5 -34.5t7.5 -31.5t19 -26t34 -9q26 0 52 8q22 7 42.5 -8.5t20.5 -39.5q0 -17 -10.5 -31t-26.5 -18q-40 -11 -78 -11q-161 0 -161 200v230h-26q-20 0 -33 12.5t-13 33.5q0 19 13.5 31.5t32.5 12.5h26v31q0 31 -27 55t-59 24
q-40 0 -69.5 -21t-29.5 -59q0 -40 23 -60q1 -1 7 -5.5l11 -8.5t9 -12.5t4 -19.5q0 -23 -13.5 -36.5t-35.5 -13.5l-26 7q-42 25 -85 25q-30 0 -55 -12t-25 -40q0 -37 73 -60q40 -14 66.5 -25t59 -31.5t49.5 -49t17 -63.5q0 -70 -61.5 -110t-137.5 -40q-35 0 -70 7.5t-64 27
t-29 48.5z" />
    <glyph glyph-name="typedepot" horiz-adv-x="758" 
d="M560 95v181h182v-181h-182zM15 640h727v-182h-359v-363h-368v181h187v182h-187v182z" />
    <glyph glyph-name="caron_alt" horiz-adv-x="242" 
d="M166 697q3 -19 3 -37q0 -47 -22 -83t-67 -80q-6 -6 -16 -6t-16 6.5t-6 14.5q0 9 5 16q37 53 37 128v35q0 19 11 31t29 12q16 0 28 -10.5t14 -26.5z" />
    <glyph glyph-name="ampersand.alt2" horiz-adv-x="728" 
d="M493 173q15 24 15 57q0 2 0.5 5t3 11.5t6.5 15t14 11.5t23 5q22 0 34 -12t13 -24l2 -12q0 -62 -35 -115l11 -8q7 -4 16 -3q18 4 33 -7.5t20 -29.5q6 -24 -10.5 -43.5t-41.5 -22.5q-34 -4 -64 19l-34 26q-60 -46 -163 -46q-104 0 -181.5 64.5t-77.5 166.5q0 95 78 163
q-40 73 -40 137q0 80 54 125t135 45q68 0 118.5 -43.5t50.5 -115.5q0 -19 -15 -32.5t-35 -13.5q-20 1 -33.5 15.5t-13.5 34.5q0 29 -21.5 48.5t-50.5 19.5q-41 0 -66.5 -20.5t-25.5 -62.5q0 -97 155 -247q53 -53 126 -111zM413 112q-131 108 -203 200q-35 -35 -35 -81
q0 -61 47.5 -97.5t112.5 -36.5q54 0 78 15z" />
    <glyph glyph-name="ampersand.alt1" horiz-adv-x="775" 
d="M187 417q-26 13 -40 45t-14 63q0 74 54 124.5t127 50.5q52 0 105 -28q25 -14 25 -43q0 -28 -24 -42.5t-47 -1.5q-31 17 -58 17q-34 0 -59 -21.5t-25 -55.5q0 -32 22.5 -47.5t56.5 -15.5h6q21 0 35.5 -14.5t14.5 -35.5q0 -20 -14.5 -34t-35.5 -14h-4l-4 -1
q-132 -10 -132 -127q0 -62 47 -99t108 -37q59 0 106.5 34.5t47.5 88.5h-19q-8 0 -13 -6q-16 -16 -37 -16q-19 0 -33.5 15t-14.5 35q0 31 25 50.5t58 19.5h148q7 0 14 5q14 16 36 16q20 0 34.5 -13.5t14.5 -33.5q0 -33 -25 -52.5t-58 -19.5h-32q-6 -97 -79.5 -160t-172.5 -63
q-100 0 -176.5 67t-76.5 169q0 126 109 181z" />
    <glyph glyph-name="ampersand.alt" horiz-adv-x="669" 
d="M414 206v96h-131q-108 0 -108 -96q0 -52 33.5 -79.5t85.5 -27.5q53 0 86.5 27.5t33.5 79.5zM145 351q-31 19 -49.5 60t-18.5 84q0 90 61 148t156 58q54 0 107 -22t53 -60q0 -20 -14.5 -35t-33.5 -15q-14 0 -29 10q-30 22 -82 24q-53 -2 -86.5 -29t-33.5 -79
q0 -95 109 -95h130v39q0 20 14.5 34.5t34.5 14.5t34.5 -14.5t14.5 -34.5v-39h31q20 0 34.5 -14.5t14.5 -34.5t-14.5 -34.5t-34.5 -14.5h-31v-96q0 -91 -61.5 -148.5t-156.5 -57.5q-94 0 -155.5 57.5t-61.5 148.5q0 43 18.5 84t49.5 61z" />
    <glyph glyph-name="g.alt" horiz-adv-x="579" 
d="M536 -72q0 -56 -41.5 -93.5t-92 -50.5t-105.5 -13q-44 0 -84 7t-81 23t-65.5 49.5t-24.5 81.5q0 77 64 113q-31 26 -27 77.5t42 72.5q-52 45 -52 126t65.5 140.5t156.5 59.5q48 0 94 -20q48 20 89 20q16 0 26.5 -10t10.5 -29q0 -14 -10.5 -22.5t-16.5 -10t-24 -4.5
q47 -53 47 -124q0 -87 -63 -141t-152 -54q-32 0 -61 7t-41 15l-13 7q-19 -11 -19 -36q0 -45 89 -45q38 0 69 -2t66.5 -7t61.5 -15t48.5 -25.5t33.5 -40t10 -56.5zM294 428h-5q-47 0 -82 -31.5t-35 -75.5q0 -47 34.5 -77t82.5 -30q47 0 81.5 30t34.5 77q0 42 -34 74.5
t-77 32.5zM435 -70q0 30 -50 40t-109 11t-68 7q-66 -25 -66 -57q0 -57 150 -61q143 0 143 60z" />
    <glyph glyph-name="c_t" horiz-adv-x="918" 
d="M475 474q21 -15 21 -40q0 -22 -15 -37t-35 -15t-33 10q-44 35 -100 35q-70 -1 -119 -50t-49 -118q0 -68 49 -117t118 -49q55 0 101 35q13 9 32 9q20 0 35.5 -15t15.5 -36t-21 -40q-70 -56 -162 -56q-112 0 -191.5 79t-79.5 190q0 112 79.5 191.5t190.5 79.5q25 0 53 -5
q-8 20 -8 45q0 63 48 109.5t122 46.5q73 0 130 -51.5t57 -121.5v-34h105q19 0 33 -12t14 -32q0 -21 -13 -33.5t-34 -12.5h-105v-228q0 -20 1.5 -34.5t7.5 -31.5t19 -26t34 -9q26 0 52 8q5 2 14 2q21 0 35 -14.5t14 -35.5q0 -16 -10.5 -30t-26.5 -19q-48 -11 -78 -11
q-81 0 -121 54.5t-40 145.5v229h-26q-20 0 -33 12.5t-13 33.5q0 19 13.5 31.5t32.5 12.5h24v29q0 31 -27 56.5t-59 25.5q-42 0 -70 -23t-28 -63q0 -36 23 -54q4 -3 12 -8.5z" />
    <glyph glyph-name="t_t" horiz-adv-x="728" 
d="M449 670q33 0 54 -21t21 -55v-75h104q33 0 46 -25t0 -50t-46 -25h-104v-218q0 -102 63 -102q21 0 50 9q31 9 49.5 -9.5t13 -45.5t-34.5 -39q-32 -14 -80 -14q-161 0 -161 200v219h-219v-218q0 -102 63 -102q21 0 50 9q31 9 49.5 -9.5t13 -45.5t-34.5 -39q-32 -14 -80 -14
q-161 0 -161 200v219h-26q-34 0 -48 25t0.5 50t47.5 25h26v44q0 12 -9 17q-18 9 -18 39q0 23 15 37t37 14q33 0 54 -21t21 -55v-75h219v44q0 12 -9 17q-18 9 -18 39q0 23 15 37t37 14z" />
    <glyph glyph-name="a.alt" horiz-adv-x="628" 
d="M553 90q18 -9 18 -39q0 -23 -15 -37t-37 -14q-31 0 -52 19t-23 50q-24 -33 -67 -51t-82 -18q-112 0 -182.5 77t-70.5 187q0 103 71 179.5t174 76.5q107 0 157 -70q2 31 23 50.5t52 19.5q22 0 37 -14.5t15 -37.5q0 -13 -4.5 -23t-8.5 -13l-5 -3q-9 -5 -9 -17v-305
q0 -12 9 -17zM461 262q0 80 -48 121t-115 41q-66 0 -111.5 -50.5t-45.5 -113.5q0 -62 45 -112.5t106 -50.5q71 0 120 44t49 121z" />
    <glyph glyph-name="aacute.alt" horiz-adv-x="628" 
d="M553 90q18 -9 18 -39q0 -23 -15 -37t-37 -14q-31 0 -52 19t-23 50q-24 -33 -67 -51t-82 -18q-112 0 -182.5 77t-70.5 187q0 103 71 179.5t174 76.5q107 0 157 -70q2 31 23 50.5t52 19.5q22 0 37 -14.5t15 -37.5q0 -13 -4.5 -23t-8.5 -13l-5 -3q-9 -5 -9 -17v-305
q0 -12 9 -17zM461 262q0 80 -48 121t-115 41q-66 0 -111.5 -50.5t-45.5 -113.5q0 -62 45 -112.5t106 -50.5q71 0 120 44t49 121zM383 666l-134 -61q-27 -13 -40.5 10t7.5 42l113 94q11 10 26 10q23 0 37.5 -16t14.5 -39q0 -29 -24 -40z" />
    <glyph glyph-name="abreve.alt" horiz-adv-x="628" 
d="M553 90q18 -9 18 -39q0 -23 -15 -37t-37 -14q-31 0 -52 19t-23 50q-24 -33 -67 -51t-82 -18q-112 0 -182.5 77t-70.5 187q0 103 71 179.5t174 76.5q107 0 157 -70q2 31 23 50.5t52 19.5q22 0 37 -14.5t15 -37.5q0 -13 -4.5 -23t-8.5 -13l-5 -3q-9 -5 -9 -17v-305
q0 -12 9 -17zM461 262q0 80 -48 121t-115 41q-66 0 -111.5 -50.5t-45.5 -113.5q0 -62 45 -112.5t106 -50.5q71 0 120 44t49 121zM294 600q-99 0 -141 75q-11 22 0.5 45t37.5 23q25 0 37 -22q24 -37 66 -37q40 0 62 37q14 22 38 22q25 0 37.5 -23t-0.5 -45q-42 -75 -137 -75z
" />
    <glyph glyph-name="acircumflex.alt" horiz-adv-x="628" 
d="M553 90q18 -9 18 -39q0 -23 -15 -37t-37 -14q-31 0 -52 19t-23 50q-24 -33 -67 -51t-82 -18q-112 0 -182.5 77t-70.5 187q0 103 71 179.5t174 76.5q107 0 157 -70q2 31 23 50.5t52 19.5q22 0 37 -14.5t15 -37.5q0 -13 -4.5 -23t-8.5 -13l-5 -3q-9 -5 -9 -17v-305
q0 -12 9 -17zM461 262q0 80 -48 121t-115 41q-66 0 -111.5 -50.5t-45.5 -113.5q0 -62 45 -112.5t106 -50.5q71 0 120 44t49 121zM290 755q20 0 35 -15l83 -84q22 -20 4 -44t-43 -8l-79 49l-79 -49q-25 -16 -43 8t4 44l83 84q15 15 35 15z" />
    <glyph glyph-name="adieresis.alt" horiz-adv-x="628" 
d="M553 90q18 -9 18 -39q0 -23 -15 -37t-37 -14q-31 0 -52 19t-23 50q-24 -33 -67 -51t-82 -18q-112 0 -182.5 77t-70.5 187q0 103 71 179.5t174 76.5q107 0 157 -70q2 31 23 50.5t52 19.5q22 0 37 -14.5t15 -37.5q0 -13 -4.5 -23t-8.5 -13l-5 -3q-9 -5 -9 -17v-305
q0 -12 9 -17zM461 262q0 80 -48 121t-115 41q-66 0 -111.5 -50.5t-45.5 -113.5q0 -62 45 -112.5t106 -50.5q71 0 120 44t49 121zM245 665q0 -27 -19.5 -46t-47.5 -19t-47.5 19t-19.5 46q0 26 19.5 45t47.5 19t47.5 -19t19.5 -45zM471 665q0 -27 -19.5 -46t-47.5 -19
t-47.5 19t-19.5 46q0 26 19.5 45t47.5 19t47.5 -19t19.5 -45z" />
    <glyph glyph-name="agrave.alt" horiz-adv-x="628" 
d="M553 90q18 -9 18 -39q0 -23 -15 -37t-37 -14q-31 0 -52 19t-23 50q-24 -33 -67 -51t-82 -18q-112 0 -182.5 77t-70.5 187q0 103 71 179.5t174 76.5q107 0 157 -70q2 31 23 50.5t52 19.5q22 0 37 -14.5t15 -37.5q0 -13 -4.5 -23t-8.5 -13l-5 -3q-9 -5 -9 -17v-305
q0 -12 9 -17zM461 262q0 80 -48 121t-115 41q-66 0 -111.5 -50.5t-45.5 -113.5q0 -62 45 -112.5t106 -50.5q71 0 120 44t49 121zM217 666q-24 11 -24 40q0 23 14.5 39t37.5 16q15 0 26 -10l113 -94q21 -19 7.5 -42t-40.5 -10z" />
    <glyph glyph-name="amacron.alt" horiz-adv-x="628" 
d="M553 90q18 -9 18 -39q0 -23 -15 -37t-37 -14q-31 0 -52 19t-23 50q-24 -33 -67 -51t-82 -18q-112 0 -182.5 77t-70.5 187q0 103 71 179.5t174 76.5q107 0 157 -70q2 31 23 50.5t52 19.5q22 0 37 -14.5t15 -37.5q0 -13 -4.5 -23t-8.5 -13l-5 -3q-9 -5 -9 -17v-305
q0 -12 9 -17zM461 262q0 80 -48 121t-115 41q-66 0 -111.5 -50.5t-45.5 -113.5q0 -62 45 -112.5t106 -50.5q71 0 120 44t49 121zM136 631q0 15 11.5 26.5t27.5 11.5h222q16 0 27.5 -11.5t11.5 -26.5q0 -16 -11.5 -27t-27.5 -11h-222q-17 0 -28 11t-11 27z" />
    <glyph glyph-name="aogonek.alt" horiz-adv-x="628" 
d="M553 90q18 -9 18 -39q0 -21 -13 -35t-32 -16h-10q-28 -3 -28 -42q0 -17 13.5 -29t29.5 -12q33 0 33 -32q0 -28 -32 -30q-100 0 -100 84q0 25 14 43t36 26q-35 17 -38 61q-24 -33 -67 -51t-82 -18q-112 0 -182.5 77t-70.5 187q0 103 71 179.5t174 76.5q107 0 157 -70
q2 31 23 50t52 19q22 0 37 -14t15 -37q0 -13 -4.5 -23t-8.5 -13l-5 -3q-9 -5 -9 -17v-305q0 -12 9 -17zM461 262q0 80 -48 121t-115 41q-66 0 -111.5 -50.5t-45.5 -113.5q0 -62 45 -112.5t106 -50.5q71 0 120 44t49 121z" />
    <glyph glyph-name="aring.alt" horiz-adv-x="628" 
d="M553 90q18 -9 18 -39q0 -23 -15 -37t-37 -14q-31 0 -52 19t-23 50q-24 -33 -67 -51t-82 -18q-112 0 -182.5 77t-70.5 187q0 103 71 179.5t174 76.5q107 0 157 -70q2 31 23 50.5t52 19.5q22 0 37 -14.5t15 -37.5q0 -13 -4.5 -23t-8.5 -13l-5 -3q-9 -5 -9 -17v-305
q0 -12 9 -17zM461 262q0 80 -48 121t-115 41q-66 0 -111.5 -50.5t-45.5 -113.5q0 -62 45 -112.5t106 -50.5q71 0 120 44t49 121zM292 571q-33 0 -61 24.5t-28 61.5t28 61.5t61 24.5q36 0 62.5 -24t26.5 -62q0 -39 -27 -62.5t-62 -23.5zM292 611q20 0 35.5 12t15.5 34
q0 21 -15 33.5t-36 12.5q-19 0 -34.5 -12.5t-15.5 -33.5t15 -33.5t35 -12.5z" />
    <glyph glyph-name="atilde.alt" horiz-adv-x="628" 
d="M553 90q18 -9 18 -39q0 -23 -15 -37t-37 -14q-31 0 -52 19t-23 50q-24 -33 -67 -51t-82 -18q-112 0 -182.5 77t-70.5 187q0 103 71 179.5t174 76.5q107 0 157 -70q2 31 23 50.5t52 19.5q22 0 37 -14.5t15 -37.5q0 -13 -4.5 -23t-8.5 -13l-5 -3q-9 -5 -9 -17v-305
q0 -12 9 -17zM461 262q0 80 -48 121t-115 41q-66 0 -111.5 -50.5t-45.5 -113.5q0 -62 45 -112.5t106 -50.5q71 0 120 44t49 121zM129 667q36 80 105 83q30 -1 69 -26t52 -25t23 24q10 23 37 23q25 0 36.5 -21.5t2.5 -42.5q-39 -73 -94 -73q-27 0 -69 26.5t-56 26.5
q-13 0 -26 -27t-40 -27q-22 0 -35.5 20t-4.5 39z" />
    <glyph glyph-name="gbreve.alt" horiz-adv-x="579" 
d="M536 -72q0 -56 -41.5 -93.5t-92 -50.5t-105.5 -13q-44 0 -84 7t-81 23t-65.5 49.5t-24.5 81.5q0 77 64 113q-31 26 -27 77.5t42 72.5q-52 45 -52 126t65.5 140.5t156.5 59.5q48 0 94 -20q48 20 89 20q16 0 26.5 -10t10.5 -29q0 -14 -10.5 -22.5t-16.5 -10t-24 -4.5
q47 -53 47 -124q0 -87 -63 -141t-152 -54q-32 0 -61 7t-41 15l-13 7q-19 -11 -19 -36q0 -45 89 -45q38 0 69 -2t66.5 -7t61.5 -15t48.5 -25.5t33.5 -40t10 -56.5zM294 428h-5q-47 0 -82 -31.5t-35 -75.5q0 -47 34.5 -77t82.5 -30q47 0 81.5 30t34.5 77q0 42 -34 74.5
t-77 32.5zM435 -70q0 30 -50 40t-109 11t-68 7q-66 -25 -66 -57q0 -57 150 -61q143 0 143 60zM292 600q-99 0 -141 75q-11 22 0.5 45t37.5 23q25 0 37 -22q24 -37 66 -37q40 0 62 37q14 22 38 22q25 0 37.5 -23t-0.5 -45q-42 -75 -137 -75z" />
    <glyph glyph-name="gcircumflex.alt" horiz-adv-x="579" 
d="M536 -72q0 -56 -41.5 -93.5t-92 -50.5t-105.5 -13q-44 0 -84 7t-81 23t-65.5 49.5t-24.5 81.5q0 77 64 113q-31 26 -27 77.5t42 72.5q-52 45 -52 126t65.5 140.5t156.5 59.5q48 0 94 -20q48 20 89 20q16 0 26.5 -10t10.5 -29q0 -14 -10.5 -22.5t-16.5 -10t-24 -4.5
q47 -53 47 -124q0 -87 -63 -141t-152 -54q-32 0 -61 7t-41 15l-13 7q-19 -11 -19 -36q0 -45 89 -45q38 0 69 -2t66.5 -7t61.5 -15t48.5 -25.5t33.5 -40t10 -56.5zM294 428h-5q-47 0 -82 -31.5t-35 -75.5q0 -47 34.5 -77t82.5 -30q47 0 81.5 30t34.5 77q0 42 -34 74.5
t-77 32.5zM435 -70q0 30 -50 40t-109 11t-68 7q-66 -25 -66 -57q0 -57 150 -61q143 0 143 60zM283 755q20 0 35 -15l83 -84q22 -20 4 -44t-43 -8l-79 49l-79 -49q-25 -16 -43 8t4 44l83 84q15 15 35 15z" />
    <glyph glyph-name="gcommaaccent.alt" horiz-adv-x="579" 
d="M536 -72q0 -56 -41.5 -93.5t-92 -50.5t-105.5 -13q-44 0 -84 7t-81 23t-65.5 49.5t-24.5 81.5q0 77 64 113q-31 26 -27 77.5t42 72.5q-52 45 -52 126t65.5 140.5t156.5 59.5q48 0 94 -20q48 20 89 20q16 0 26.5 -10t10.5 -29q0 -14 -10.5 -22.5t-16.5 -10t-24 -4.5
q47 -53 47 -124q0 -87 -63 -141t-152 -54q-32 0 -61 7t-41 15l-13 7q-19 -11 -19 -36q0 -45 89 -45q38 0 69 -2t66.5 -7t61.5 -15t48.5 -25.5t33.5 -40t10 -56.5zM294 428h-5q-47 0 -82 -31.5t-35 -75.5q0 -47 34.5 -77t82.5 -30q47 0 81.5 30t34.5 77q0 42 -34 74.5
t-77 32.5zM435 -70q0 30 -50 40t-109 11t-68 7q-66 -25 -66 -57q0 -57 150 -61q143 0 143 60zM284 593q12 6 19 6q26 0 42 -18t16 -42q0 -27 -21.5 -45.5t-48.5 -18.5q-38 0 -61 34t-23 74q0 95 112 156q9 5 20 5q13 0 22 -8.5t9 -20.5q0 -18 -21 -31q-25 -15 -44.5 -40
t-20.5 -51z" />
    <glyph glyph-name="gdotaccent.alt" horiz-adv-x="579" 
d="M536 -72q0 -56 -41.5 -93.5t-92 -50.5t-105.5 -13q-44 0 -84 7t-81 23t-65.5 49.5t-24.5 81.5q0 77 64 113q-31 26 -27 77.5t42 72.5q-52 45 -52 126t65.5 140.5t156.5 59.5q48 0 94 -20q48 20 89 20q16 0 26.5 -10t10.5 -29q0 -14 -10.5 -22.5t-16.5 -10t-24 -4.5
q47 -53 47 -124q0 -87 -63 -141t-152 -54q-32 0 -61 7t-41 15l-13 7q-19 -11 -19 -36q0 -45 89 -45q38 0 69 -2t66.5 -7t61.5 -15t48.5 -25.5t33.5 -40t10 -56.5zM294 428h-5q-47 0 -82 -31.5t-35 -75.5q0 -47 34.5 -77t82.5 -30q47 0 81.5 30t34.5 77q0 42 -34 74.5
t-77 32.5zM435 -70q0 30 -50 40t-109 11t-68 7q-66 -25 -66 -57q0 -57 150 -61q143 0 143 60zM355 665q0 -27 -19.5 -46t-47.5 -19t-47.5 19t-19.5 46q0 26 19.5 45t47.5 19t47.5 -19t19.5 -45z" />
    <glyph glyph-name="R.alt" horiz-adv-x="675" 
d="M599 91q19 -10 19 -38q0 -23 -15.5 -38t-37.5 -15q-33 0 -54 21.5t-21 55.5v86q0 52 -30 87.5t-81 35.5h-163v-209q0 -34 -21 -55t-54 -21q-22 0 -37.5 14.5t-15.5 37.5q0 28 19 38q9 5 9 17v483q0 12 -7 17q-22 15 -22 42q0 20 16 35t37 15h257q86 0 145.5 -60
t59.5 -146q0 -62 -29.5 -113t-79.5 -57q35 -2 58.5 -31t31 -62t7.5 -68v-55q0 -12 9 -17zM216 387h181q44 0 75 31.5t31 75.5t-31 74.5t-75 30.5h-189q8 -7 8 -20v-192z" />
    <glyph glyph-name="Racute.alt" horiz-adv-x="686" 
d="M130 102v483q0 12 -12 17q-31 13 -31 48q0 20 15 35t36 15h274q86 0 145.5 -60t59.5 -146q0 -55 -30.5 -111t-78.5 -59q35 -2 58.5 -31t31.5 -62t8 -68v-61q0 -8 6 -14q17 -14 17 -38q0 -20 -14.5 -35t-35.5 -15q-24 0 -43 15t-27 38q-4 16 -4 26v84q0 52 -30 87.5
t-81 35.5h-163v-207q0 -10 -4 -26q-8 -23 -27 -38t-43 -15q-21 0 -35.5 15t-14.5 35q0 24 17 38q6 6 6 14zM231 387h181q44 0 75 31.5t31 75.5t-31 74.5t-75 30.5h-188q7 -5 7 -18v-194zM445 850l-134 -61q-27 -13 -40.5 10t7.5 42l113 94q11 10 26 10q23 0 37.5 -16
t14.5 -39q0 -29 -24 -40z" />
    <glyph glyph-name="Rcaron.alt" horiz-adv-x="686" 
d="M130 102v483q0 12 -12 17q-31 13 -31 48q0 20 15 35t36 15h274q86 0 145.5 -60t59.5 -146q0 -55 -30.5 -111t-78.5 -59q35 -2 58.5 -31t31.5 -62t8 -68v-61q0 -8 6 -14q17 -14 17 -38q0 -20 -14.5 -35t-35.5 -15q-24 0 -43 15t-27 38q-4 16 -4 26v84q0 52 -30 87.5
t-81 35.5h-163v-207q0 -10 -4 -26q-8 -23 -27 -38t-43 -15q-21 0 -35.5 15t-14.5 35q0 24 17 38q6 6 6 14zM231 387h181q44 0 75 31.5t31 75.5t-31 74.5t-75 30.5h-188q7 -5 7 -18v-194zM346 782q-20 0 -35 15l-83 84q-22 20 -4 44t43 8l79 -49l79 49q25 16 43 -8t-4 -44
l-83 -84q-15 -15 -35 -15z" />
    <glyph glyph-name="Rcommaaccent.alt" horiz-adv-x="686" 
d="M360 -150q-8 -5 -17 -5q-22 0 -37 15.5t-15 37.5q0 24 19 40.5t43 16.5q35 0 55.5 -28t20.5 -66q0 -87 -101 -141q-27 -14 -40 9.5t14 39.5q22 13 39.5 35.5t18.5 45.5zM130 102v483q0 12 -12 17q-31 13 -31 48q0 20 15 35t36 15h274q86 0 145.5 -60t59.5 -146
q0 -62 -30 -114t-79 -56q35 -2 58.5 -31t31.5 -62t8 -68v-61q0 -8 6 -14q17 -14 17 -38q0 -20 -14.5 -35t-35.5 -15q-32 0 -53.5 23.5t-20.5 55.5v84q0 52 -30 87.5t-81 35.5h-163v-207q1 -32 -21 -55.5t-53 -23.5q-21 0 -35.5 15t-14.5 35q0 24 17 38q6 6 6 14zM231 387
h181q44 0 75 31.5t31 75.5t-31 74.5t-75 30.5h-189q8 -7 8 -20v-192z" />
    </font>
</defs>
</svg>
